<svg width="140" height="82" viewBox="0 0 140 82" fill="none" xmlns="http://www.w3.org/2000/svg">
<path d="M56.0032 0L0 32.3006V33.5451L84.0048 82L140 49.6914V48.4549L56.0032 0Z" fill="#414E5F"/>
<path d="M140 48.4549L84.0048 80.7635L0 32.3006L56.0032 0L140 48.4549Z" fill="#5B6879"/>
<path d="M140 49.6915L84.0048 82V80.7635L140 48.455V49.6915Z" fill="#414E5F"/>
<path d="M84.0048 80.7635V82L0 33.5451V32.3007L84.0048 80.7635Z" fill="#29333F"/>
<path d="M45.7272 11.1126L19.8095 26.0702L13.4938 22.4246L39.4114 7.47485L45.7272 11.1126Z" fill="#BCCED9"/>
<path d="M45.7272 11.1125L19.8095 26.0702V26.3734L45.7272 11.4237V11.1125Z" fill="#889AA5"/>
<path d="M15.0428 23.6292L19.8095 26.3734V26.0702L13.4938 22.4246V23.3499L14.5078 23.9403L15.0428 23.6292Z" fill="#6F818C"/>
<path d="M47.0606 10.4105L43.1083 8.14492C42.7809 7.95346 42.4855 7.93751 42.2699 8.06515L41.4714 8.52784C41.2558 8.65548 41.1281 8.91873 41.1281 9.29367C41.1281 9.66861 41.2638 10.0914 41.4714 10.4584C41.687 10.8333 41.9824 11.1524 42.3098 11.3439L44.9207 12.8516L26.0694 23.7248C25.7899 23.8844 25.4146 23.9721 25.0234 23.9721C24.6321 23.9721 24.2649 23.8844 23.9854 23.7248L20.0411 21.4513C19.7137 21.2598 19.4183 21.2439 19.2027 21.3715L18.4042 21.8342C18.1887 21.9618 18.0609 22.2251 18.0609 22.6C18.0609 22.975 18.1966 23.3978 18.4042 23.7647C18.6198 24.1397 18.9153 24.4588 19.2426 24.6502L22.644 26.6127L23.4425 26.15V25.4719L20.0411 23.5094C19.8734 23.4137 19.7297 23.2462 19.6179 23.0627C19.554 22.951 19.5061 22.8393 19.4742 22.7197L19.2426 22.5841L23.179 24.8497C23.69 25.1448 24.3527 25.2884 25.0234 25.2884C25.6941 25.2884 26.3568 25.1448 26.8678 24.8497L47.0606 13.2026C47.5716 12.9074 47.8271 12.5245 47.8271 12.1416V11.4715C47.8271 11.0886 47.5716 10.6977 47.0606 10.4105ZM46.302 12.0459L43.1083 10.2031C42.9406 10.1074 42.7889 9.93984 42.6851 9.75636C42.6212 9.64468 42.5733 9.53299 42.5413 9.41333L42.3098 9.27772L46.2541 11.5433C46.3899 11.6231 46.4937 11.7108 46.5655 11.8066C46.5017 11.8943 46.4138 11.9741 46.302 12.0459Z" fill="#889AA5"/>
<path d="M46.5096 12.1656L43.1082 10.2032C42.9406 10.1074 42.7889 9.93991 42.6851 9.75643C42.6212 9.64474 42.5733 9.53306 42.5413 9.4134L42.3098 9.27778C42.1421 9.18205 41.9984 9.17408 41.8866 9.2379C41.7748 9.30171 41.711 9.43733 41.711 9.62879C41.711 9.82025 41.7748 10.0277 41.8866 10.2191C41.9984 10.4106 42.1421 10.5701 42.3098 10.6659L45.7112 12.6283V13.0591L46.2541 12.748C46.3579 12.6921 46.4378 12.6203 46.5096 12.5485V12.1656Z" fill="#BCCED9"/>
<path d="M47.0606 12.5406L26.8678 24.1876C26.3568 24.4828 25.6941 24.6264 25.0234 24.6264C24.3527 24.6264 23.69 24.4828 23.179 24.1876L19.2426 21.9061C18.9153 21.7146 18.6198 21.6987 18.4042 21.8263C18.1887 21.9539 18.0609 22.2172 18.0609 22.5921C18.0609 22.9671 18.1966 23.3899 18.4042 23.7568C18.6198 24.1318 18.9153 24.4509 19.2426 24.6423L22.644 26.6048V25.9267L19.2426 23.9643C19.0749 23.8685 18.9312 23.701 18.8194 23.5175C18.7077 23.3261 18.6438 23.1186 18.6438 22.9272C18.6438 22.7357 18.7077 22.6001 18.8194 22.5363C18.9312 22.4725 19.0749 22.4805 19.2426 22.5762L23.179 24.8418C23.69 25.1369 24.3527 25.2805 25.0234 25.2805C25.6941 25.2805 26.3568 25.1369 26.8678 24.8418L47.0606 13.1947C47.5716 12.8996 47.8271 12.5166 47.8271 12.1337V11.4636C47.8271 11.8465 47.5716 12.2374 47.0606 12.5246V12.5406Z" fill="#889AA5"/>
<path d="M46.2621 10.8732L42.3178 8.59963C41.9904 8.40817 41.695 8.39222 41.4794 8.51986C41.2638 8.6475 41.1361 8.91075 41.1361 9.28569C41.1361 9.66063 41.2718 10.0834 41.4794 10.4504C41.695 10.8253 41.9904 11.1444 42.3178 11.3359L44.9287 12.8436L45.5116 12.5086L42.3178 10.6658C42.1501 10.5701 42.0064 10.4105 41.8946 10.2191C41.7828 10.0276 41.7189 9.82018 41.7189 9.62872C41.7189 9.43726 41.7828 9.30165 41.8946 9.23783C42.0064 9.17401 42.1501 9.18198 42.3178 9.27771L46.2621 11.5433C46.3979 11.6231 46.5017 11.7108 46.5735 11.8066C46.6534 11.7029 46.6933 11.5912 46.6933 11.4715C46.6933 11.2481 46.5416 11.0327 46.2621 10.8732Z" fill="#6F818C"/>
<path d="M47.0606 10.4105L43.1082 8.14492C42.7809 7.95346 42.4855 7.93751 42.2699 8.06515L41.4714 8.52784C41.687 8.4002 41.9824 8.42413 42.3098 8.60761L46.2541 10.8812C46.5336 11.0407 46.6853 11.2561 46.6853 11.4795C46.6853 11.7029 46.5336 11.9182 46.2541 12.0778L26.0614 23.7248C25.7819 23.8844 25.4066 23.9721 25.0154 23.9721C24.6242 23.9721 24.2569 23.8844 23.9774 23.7248L20.0331 21.4513C19.7057 21.2598 19.4103 21.2439 19.1947 21.3715L18.3963 21.8342C18.6118 21.7066 18.9073 21.7305 19.2346 21.914L23.171 24.1955C23.682 24.4907 24.3447 24.6343 25.0154 24.6343C25.6861 24.6343 26.3488 24.4907 26.8598 24.1955L47.0526 12.5485C47.5636 12.2533 47.8191 11.8704 47.8191 11.4875C47.8191 11.1045 47.5636 10.7137 47.0526 10.4265L47.0606 10.4105Z" fill="#BCCED9"/>
<path d="M23.4345 26.1421L22.636 26.6048V25.9267L23.4345 25.464V26.1421Z" fill="#889AA5"/>
<path d="M19.6179 23.0548C19.554 22.9431 19.5061 22.8314 19.4742 22.7117L19.2426 22.5761C19.0749 22.4804 18.9312 22.4724 18.8194 22.5362C18.7077 22.6001 18.6438 22.7357 18.6438 22.9271C18.6438 23.1186 18.7077 23.326 18.8194 23.5175C18.9312 23.7089 19.0749 23.8685 19.2426 23.9642L22.644 25.9266L23.4425 25.464L20.0411 23.5015C19.8734 23.4058 19.7297 23.2382 19.6179 23.0548Z" fill="#BCCED9"/>
<path opacity="0.3" d="M25.0234 24.6264V25.2965C25.6941 25.2965 26.3568 25.1529 26.8678 24.8577V24.1876C26.3568 24.4828 25.6941 24.6264 25.0234 24.6264Z" fill="#6F818C"/>
<path opacity="0.6" d="M23.179 24.1876V24.8577C23.69 25.1529 24.3527 25.2965 25.0234 25.2965V24.6264C24.3527 24.6264 23.69 24.4828 23.179 24.1876Z" fill="#6F818C"/>
<path d="M18.8194 22.5443C18.9312 22.4804 19.0749 22.4884 19.2426 22.5842L23.179 24.8497V24.1796L19.2426 21.8981C18.9153 21.7066 18.6198 21.6907 18.4042 21.8183C18.1887 21.946 18.0609 22.2092 18.0609 22.5842C18.0609 22.9591 18.1966 23.3819 18.4042 23.7489C18.6198 24.1238 18.9153 24.4429 19.2426 24.6344L22.644 26.5968V25.9187L19.2426 23.9563C19.0749 23.8605 18.9312 23.693 18.8194 23.5095C18.7077 23.3181 18.6438 23.1107 18.6438 22.9192C18.6438 22.7277 18.7077 22.5921 18.8194 22.5283V22.5443Z" fill="#6F818C"/>
<g style="mix-blend-mode:multiply" opacity="0.2">
<path d="M134.922 48.3672L83.8451 77.8278L7.22596 33.6329L58.3027 4.17224L134.922 48.3672Z" fill="black"/>
</g>
<path d="M83.8451 76.9025V77.2136L7.22596 33.0107V32.7075L83.8451 76.9025Z" fill="#BBC2C6"/>
<path d="M134.922 47.745L83.8451 77.2136V76.9025L134.922 47.4338V47.745Z" fill="#D4DBDF"/>
<path d="M134.922 47.4338L83.8451 76.9025L7.22596 32.7075L58.3027 3.23889L134.922 47.4338Z" fill="#EEF5F9"/>
<path d="M47.0606 10.4105L43.1082 8.14492C42.7809 7.95346 42.4855 7.93751 42.2699 8.06515L41.4714 8.52784L41.8866 9.24581C41.9984 9.18199 42.1421 9.18996 42.3098 9.28569L46.2541 11.5513C46.3899 11.6311 46.4937 11.7188 46.5655 11.8145C46.4937 11.9103 46.3899 12.006 46.2541 12.0778L26.0614 23.7248C25.7819 23.8844 25.4066 23.9721 25.0154 23.9721C24.6242 23.9721 24.2569 23.8844 23.9774 23.7248L20.0331 21.4513C19.7057 21.2598 19.4103 21.2439 19.1947 21.3715L18.3963 21.8342L18.8115 22.5522C18.9232 22.4883 19.067 22.4963 19.2346 22.592L23.171 24.8576C23.682 25.1528 24.3447 25.2964 25.0154 25.2964C25.6861 25.2964 26.3488 25.1528 26.8598 24.8576L47.0526 13.2106C47.5636 12.9154 47.8191 12.5325 47.8191 12.1496V11.4795C47.8191 11.0966 47.5636 10.7057 47.0526 10.4185L47.0606 10.4105Z" fill="#889AA5"/>
<path d="M47.0606 12.5405L26.8678 24.1876C26.3568 24.4827 25.6941 24.6263 25.0234 24.6263C24.3527 24.6263 23.69 24.4827 23.179 24.1876L19.2426 21.906C18.9153 21.7146 18.6198 21.6986 18.4042 21.8263L18.8194 22.5442C18.9312 22.4804 19.0749 22.4884 19.2426 22.5841L23.179 24.8497C23.69 25.1449 24.3527 25.2885 25.0234 25.2885C25.6941 25.2885 26.3568 25.1449 26.8678 24.8497L47.0606 13.2027C47.5716 12.9075 47.8271 12.5246 47.8271 12.1417V11.4716C47.8271 11.8545 47.5716 12.2454 47.0606 12.5326V12.5405Z" fill="#889AA5"/>
<path d="M46.2621 10.8732L42.3178 8.59963C41.9904 8.40817 41.695 8.39222 41.4794 8.51986L41.8946 9.23783C42.0064 9.17401 42.1501 9.18198 42.3178 9.27771L46.2621 11.5433C46.3979 11.6231 46.5017 11.7108 46.5735 11.8066C46.6534 11.7029 46.6933 11.5912 46.6933 11.4715C46.6933 11.2481 46.5416 11.0327 46.2621 10.8732Z" fill="#6F818C"/>
<path d="M47.0606 10.4105L43.1082 8.14492C42.7809 7.95346 42.4855 7.93751 42.2699 8.06515L41.4714 8.52784C41.687 8.4002 41.9824 8.42413 42.3098 8.60761L46.2541 10.8812C46.5336 11.0407 46.6853 11.2561 46.6853 11.4795C46.6853 11.7029 46.5336 11.9182 46.2541 12.0778L26.0614 23.7248C25.7819 23.8844 25.4066 23.9721 25.0154 23.9721C24.6242 23.9721 24.2569 23.8844 23.9774 23.7248L20.0331 21.4513C19.7057 21.2598 19.4103 21.2439 19.1947 21.3715L18.3963 21.8342C18.6118 21.7066 18.9073 21.7305 19.2346 21.914L23.171 24.1955C23.682 24.4907 24.3447 24.6343 25.0154 24.6343C25.6861 24.6343 26.3488 24.4907 26.8598 24.1955L47.0526 12.5485C47.5636 12.2533 47.8191 11.8704 47.8191 11.4875C47.8191 11.1045 47.5636 10.7137 47.0526 10.4265L47.0606 10.4105Z" fill="#BCCED9"/>
<path d="M19.2426 21.906C18.9153 21.7146 18.6198 21.6986 18.4042 21.8263L18.8194 22.5442C18.9312 22.4804 19.0749 22.4884 19.2426 22.5841L23.179 24.8497V24.1796L19.2426 21.8981V21.906Z" fill="#6F818C"/>
<path opacity="0.3" d="M25.0234 24.6264V25.2965C25.6941 25.2965 26.3568 25.1529 26.8678 24.8577V24.1876C26.3568 24.4828 25.6941 24.6264 25.0234 24.6264Z" fill="#6F818C"/>
<path opacity="0.6" d="M23.179 24.1876V24.8577C23.69 25.1529 24.3527 25.2965 25.0234 25.2965V24.6264C24.3527 24.6264 23.69 24.4828 23.179 24.1876Z" fill="#6F818C"/>
<path d="M103.998 51.7416C104.237 51.3188 104.573 50.9518 104.948 50.7444C105.323 50.537 105.651 50.513 105.898 50.6487C106.146 50.7843 106.29 51.0874 106.29 51.5182C106.29 51.949 106.138 52.4197 105.898 52.8345C105.659 53.2573 105.323 53.6242 104.948 53.8317C104.581 54.0471 104.245 54.063 103.998 53.9274C103.758 53.7838 103.607 53.4886 103.607 53.0579C103.607 52.6271 103.758 52.1564 103.998 51.7416Z" fill="#29333F"/>
<path d="M103.391 51.3827C103.631 50.9599 103.966 50.5929 104.341 50.3855C104.709 50.1701 105.044 50.1541 105.291 50.2898L105.906 50.6408C105.667 50.4972 105.331 50.5211 104.956 50.7365C104.589 50.9519 104.253 51.3188 104.006 51.7337C103.766 52.1565 103.615 52.6271 103.615 53.0499C103.615 53.4727 103.766 53.7759 104.006 53.9195L103.391 53.5685C103.152 53.4249 103 53.1297 103 52.6989C103 52.2682 103.152 51.7975 103.391 51.3827Z" fill="#414E5F"/>
<path d="M103.607 53.0579C103.607 53.4887 103.758 53.7839 103.998 53.9275L103.383 53.5765C103.144 53.4329 102.992 53.1377 102.992 52.7069L103.607 53.0579Z" fill="#29333F"/>
<path d="M104.333 50.3855L104.948 50.7365C104.581 50.9519 104.245 51.3189 103.998 51.7337L103.383 51.3827C103.623 50.9599 103.958 50.5929 104.333 50.3855Z" fill="#5B6879"/>
<path d="M72.6189 33.6568C72.8584 33.234 73.1938 32.8671 73.5691 32.6597C73.9364 32.4443 74.2717 32.4283 74.5192 32.5639L105.291 50.2978C105.052 50.1542 104.717 50.1781 104.341 50.3935C103.974 50.6089 103.639 50.9758 103.391 51.3907C103.152 51.8135 103 52.2841 103 52.7069C103 53.1297 103.152 53.4329 103.391 53.5765L72.6189 35.8426C72.3794 35.6991 72.2277 35.4039 72.2277 34.9731C72.2277 34.5423 72.3794 34.0717 72.6189 33.6568Z" fill="#D4DBDF"/>
<path d="M73.5691 32.6516L104.341 50.3854C103.974 50.6008 103.639 50.9678 103.391 51.3826L72.6189 33.6488C72.8584 33.226 73.1938 32.859 73.5691 32.6516Z" fill="#EEF5F9"/>
<path d="M59.2609 25.9825C59.5004 25.5597 59.8358 25.1928 60.211 24.9853C60.5783 24.7699 60.9137 24.754 61.1612 24.8896L74.5192 32.5559C74.2797 32.4123 73.9443 32.4363 73.5691 32.6516C73.2018 32.867 72.8664 33.234 72.6189 33.6488C72.3794 34.0716 72.2277 34.5423 72.2277 34.9651C72.2277 35.3879 72.3794 35.691 72.6189 35.8346L59.2609 28.1683C59.0213 28.0247 58.8696 27.7296 58.8696 27.2988C58.8696 26.868 59.0213 26.3973 59.2609 25.9825Z" fill="#414E5F"/>
<path d="M60.211 24.9854L73.5691 32.6517C73.2018 32.8671 72.8664 33.234 72.6189 33.6488L59.2609 25.9825C59.5004 25.5597 59.8357 25.1928 60.211 24.9854Z" fill="#5B6879"/>
</svg>
