<svg width="166" height="37" viewBox="0 0 166 37" fill="none" xmlns="http://www.w3.org/2000/svg">
<g clip-path="url(#clip0_0_2094)">
<path d="M56.9626 31.9062C56.1361 30.9925 55.517 29.7414 55.0471 28.5698V32.2118H52.6875V28.5698C52.2597 29.6522 51.2582 31.1135 50.1822 31.9062L49.1515 29.423C50.1822 28.6462 51.5985 27.3059 52.1592 26.3604H49.8613V25.3543L49.1547 27.4587C49.1547 27.4587 48.8144 26.424 48.6102 25.4467V32.215H46.2507V26.8061C46.147 27.43 45.8099 28.6812 45.5571 29.3052L44.6885 26.5163C45.677 24.9309 46.0141 23.6511 46.2053 22.8138H44.9834V20.528H46.2507V18.5H48.6102V20.528H49.7154V21.7027C50.422 20.1937 50.4836 18.6528 50.4836 18.6528L52.3699 19.0794C52.3699 19.0794 52.3245 19.5379 52.2241 20.1778H52.6973V18.5H55.0568V20.1778H57.2964V22.7056H55.0568V23.7721H57.7404V26.3635H55.5883C56.1037 27.2613 57.3871 28.6494 58.0645 29.2288L56.9723 31.9094L56.9626 31.9062ZM49.4173 22.8074H48.7237C49.226 23.9185 49.858 24.6826 49.858 24.6826V23.7689H50.5808L49.4173 22.8074ZM52.6908 22.6992H51.5856C51.4397 23.094 51.2615 23.4601 51.0702 23.7657H52.6908V22.6992Z" fill="#1B4396"/>
<path d="M60.249 31.8776L59.8666 29.3466C60.706 29.3466 61.5779 29.2543 62.3882 29.1779V27.0576H60.4565V24.619H66.3682V27.0576H64.4527V28.9168C65.9112 28.7195 66.8998 28.5348 66.8998 28.5348V31.034C66.8998 31.034 63.6587 31.6739 60.2523 31.8712L60.249 31.8776ZM72.2185 22.0944V23.4951H69.3144C69.4603 25.4754 69.7422 26.9239 70.2738 28.312C70.452 28.7831 70.6141 29.0283 70.8053 29.0283C71.0841 29.0283 71.4082 28.4807 71.9559 27.2614L73.032 29.942C72.3967 31.5433 71.6026 32.2437 70.8053 32.2437C70.0988 32.2437 69.376 31.6961 68.7699 30.7665C67.6485 29.0442 67.0294 26.2108 66.9873 23.4983H59.9865V21.0597H66.8414V18.4841H69.201V21.0597H70.4391C70.1895 20.7541 69.7163 20.2224 69.3922 19.8722L71.1327 18.6688C72.2962 20.1014 73.0936 21.3812 73.0936 21.3812L72.2249 22.0975L72.2185 22.0944Z" fill="#1B4396"/>
<path d="M87.1795 24.0745C86.8391 23.9536 86.4275 23.7848 85.9867 23.5874V24.5616H77.2908V23.6925C76.8047 23.9058 76.2893 24.1191 75.7578 24.3006L74.8892 21.7855C78.3247 20.598 79.6633 19.4074 80.2824 18.4937H82.6419C83.2156 19.2545 84.7357 20.4739 88.155 21.6645L87.1827 24.0713L87.1795 24.0745ZM86.1326 32.2437C85.883 31.8776 85.6302 31.5274 85.3806 31.1772C83.9351 31.4351 80.9436 31.8012 75.5925 31.8012L75.2846 29.3625H77.038C77.4788 28.7831 77.8937 28.1114 78.2016 27.6402H75.0901V25.4308H87.9573V27.6402H85.6561C86.259 28.296 87.2346 29.423 88.1194 30.55L86.1293 32.2405L86.1326 32.2437ZM81.5788 20.7699C81.0764 21.3016 80.4444 21.8364 79.7055 22.3395H83.5527C82.7845 21.8683 82.065 21.3334 81.5788 20.7699ZM81.138 27.6434C80.8885 28.0859 80.4898 28.7863 80.1074 29.2893C81.5659 29.2893 82.9077 29.1842 83.7471 29.1238C83.3776 28.6812 83.0989 28.3597 83.0989 28.3597L84.1166 27.6434H81.138Z" fill="#1B4396"/>
<path d="M95.8882 28.3565C95.3275 28.0509 94.6793 27.4874 94.3422 27.0003V32.2278H91.9827V27.5192C91.9827 27.5192 91.3215 28.0222 90.67 28.296L89.9764 25.7364C92.5272 24.5775 93.6032 22.5814 93.6032 22.5814H90.3751V20.2956H91.9827V18.4968H94.3422V20.2956H96.1702V22.4732C96.1702 22.4732 95.7878 23.4792 94.8446 24.7431C95.2141 25.1697 95.7586 25.5804 97.1004 26.2203L95.8915 28.3533L95.8882 28.3565ZM95.7716 31.9062V29.4676H98.6172V24.8354H96.3614V22.3968H98.6172V18.4968H100.977V22.3968H103.054V24.8354H100.977V29.4676H103.262V31.9062H95.7748H95.7716Z" fill="#1B4396"/>
<path d="M124.018 27.0098C123.172 30.4641 121.208 32.8008 116.648 33.167V30.0789C119.341 29.5695 120.501 28.1082 121.03 25.4244C119.931 24.915 118.732 24.5298 117.513 24.2847C117.335 25.0965 117.14 25.851 116.943 26.5801C115.743 30.827 114.389 32.4729 112.029 32.4729C110.104 32.4729 108.431 30.9066 108.431 27.8599C108.431 24.2815 110.791 21.3971 114.8 20.9896C114.92 20.2988 115.056 19.5666 115.153 18.8566H110.201V15.708H119.027C118.751 17.5768 118.476 19.4265 118.142 21.1552C119.302 21.3398 120.381 21.6646 121.386 22.0084C121.444 20.8495 121.444 19.5506 121.444 18.0862H124.647C124.647 19.955 124.647 21.7632 124.511 23.4506C125.159 23.7753 125.71 24.1223 126.141 24.4057V28.4075C125.512 27.9618 124.806 27.4938 124.018 27.0067V27.0098ZM111.478 27.844C111.478 28.6558 111.831 29.0219 112.227 29.0219C112.817 29.0219 113.504 27.1722 114.171 24.2051C112.441 24.6731 111.478 26.3795 111.478 27.8408V27.844Z" fill="#1B4396"/>
<path d="M136.755 32.6576C134.201 32.6576 132.766 32.4761 131.664 32.352V29.0792C132.863 29.2416 134.299 29.4262 136.616 29.4262C139.546 29.4262 142.12 28.5125 142.12 26.5801C142.12 25.3193 141.079 24.5489 139.073 24.5489C135.987 24.5489 133.472 26.2139 132.49 27.5574H129.482L130.131 19.6334H133.569L133.061 23.3328C134.221 22.4191 136.422 21.3812 139.309 21.3812C143.536 21.3812 145.678 23.4537 145.678 26.5036C145.678 30.4259 142.434 32.6608 136.755 32.6608V32.6576ZM130.938 18.9012V15.7303C134.376 15.7303 139.977 15.8099 143.734 16.0741V19.3246C140.039 19.019 134.004 18.898 130.938 18.898V18.9012Z" fill="#1B4396"/>
<path d="M154.167 32.5971C151.198 32.5971 149.47 30.1776 149.47 24.0013C149.47 21.1775 149.863 18.1276 150.196 16.2811H153.635C153.104 19.1272 152.809 21.8492 152.809 24.4502C152.809 27.0512 153.36 28.9423 154.695 28.9423C156.03 28.9423 157.21 27.9681 158.351 27.0735V31.0562C157.563 31.6452 155.852 32.6003 154.163 32.6003L154.167 32.5971ZM162.558 30.8079C162.558 25.4435 161.91 21.4799 159.336 16.765H163.07C164.956 20.423 166 24.0618 166 30.8079H162.561H162.558Z" fill="#1B4396"/>
<path d="M37.1204 18.7993C37.1204 28.85 28.8264 37.0001 18.591 37.0001C8.35558 37.0001 0.0648193 28.85 0.0648193 18.7993C0.0648193 8.74863 8.36206 0.598572 18.5943 0.598572C28.8264 0.598572 37.1237 8.74545 37.1237 18.7961L37.1204 18.7993Z" fill="#A1D8E6"/>
<path d="M37.0556 18.5923C37.0556 28.643 28.7616 36.7931 18.5262 36.7931C8.29076 36.7931 0 28.643 0 18.5923H37.0556Z" fill="#7CC3CC"/>
<path d="M12.1412 19.5283L12.1315 19.5761H12.3972L12.1412 19.5283Z" fill="white"/>
<path d="M15.4569 1.80511L15.2754 2.77612L17.1974 3.13587L17.3821 2.14258L15.4569 1.80511Z" fill="white"/>
<path d="M24.1949 19.5761H26.5091C26.2206 16.1983 23.8027 13.4667 20.2926 12.3365C19.8097 12.5658 19.2684 12.6995 18.698 12.6995C18.5618 12.6995 18.429 12.6899 18.2961 12.6772L18.2053 13.1452C21.8418 13.8551 24.2759 16.4243 24.1949 19.5761Z" fill="white"/>
<path d="M15.0161 9.08605C15.0161 7.35416 16.2672 5.90243 17.9266 5.55223L18.0336 4.9951L13.6159 4.16736L11.0425 17.6245L15.4601 18.4554L16.6755 12.1041C15.6773 11.4578 15.0193 10.3468 15.0193 9.08923L15.0161 9.08605Z" fill="white"/>
<path d="M16.7177 9.08605C16.7177 10.1589 17.6057 11.0281 18.6947 11.0281C19.7837 11.0281 20.6718 10.1557 20.6718 9.08605C20.6718 8.01635 19.7837 7.14404 18.6947 7.14404C17.6057 7.14404 16.7177 8.01635 16.7177 9.08605Z" fill="white"/>
<path d="M18.6947 12.6994C19.2684 12.6994 19.8064 12.5657 20.2893 12.3365C23.7995 13.4667 26.2173 16.1982 26.5058 19.5761H28.2106C27.9448 15.7525 25.4557 12.6039 21.7543 11.0854C22.1432 10.5123 22.3701 9.82464 22.3701 9.08604C22.3701 7.41783 21.213 6.01385 19.6444 5.59998L19.8583 4.48571C19.9458 4.03364 19.6411 3.59748 19.1841 3.51153L18.8665 3.45104L19.21 1.62046C19.2522 1.40079 19.2003 1.17794 19.0739 0.993286C18.9443 0.811819 18.7466 0.687658 18.5262 0.646271L14.9221 0.0127317C14.4618 -0.0700424 14.021 0.232401 13.9368 0.684475L13.6029 2.46412L13.0973 2.36861C12.8769 2.32722 12.6468 2.37498 12.4588 2.49914C12.2708 2.6233 12.1444 2.8175 12.1023 3.03398L9.21445 18.1307C9.12694 18.5828 9.43161 19.0189 9.89185 19.1049L10.4752 19.2131L10.4072 19.5761H12.1347L12.1444 19.5283L12.4005 19.5761H16.9769L17.8909 14.7911C20.6977 15.3514 22.5711 17.2584 22.4933 19.5761H24.1981C24.2791 16.4243 21.8418 13.8551 18.2085 13.1452L18.2993 12.6772C18.4322 12.6899 18.5651 12.6994 18.7012 12.6994H18.6947ZM15.4568 1.80511L17.3821 2.14257L17.1973 3.13586L15.2753 2.77611L15.4568 1.80192V1.80511ZM15.4568 18.4522L11.0392 17.6213L13.6126 4.16417L18.0303 4.99191L17.9233 5.54904C16.2639 5.89606 15.0128 7.34779 15.0128 9.08286C15.0128 10.3436 15.674 11.4515 16.669 12.0977L15.4536 18.4491L15.4568 18.4522ZM16.7144 9.08604C16.7144 8.01635 17.6025 7.14403 18.6915 7.14403C19.7805 7.14403 20.6685 8.01635 20.6685 9.08604C20.6685 10.1557 19.7805 11.028 18.6915 11.028C17.6025 11.028 16.7144 10.1557 16.7144 9.08604Z" fill="#1269B4"/>
<path d="M12.1315 19.5761L11.8301 21.1902L13.7553 21.5309L14.0632 19.8881L12.3973 19.5761H12.1315Z" fill="white"/>
<path d="M24.5774 29.0155C23.9907 29.6522 23.3457 30.2221 22.6619 30.6996H26.2919L24.5774 29.0155Z" fill="white"/>
<path d="M24.1852 19.8053C23.968 23.2054 21.5048 25.9211 18.4387 26.2967L17.7354 30.6042H18.0465C22.5387 30.6042 26.535 24.8227 26.535 20.2638C26.535 20.0314 26.5252 19.8021 26.5058 19.5761H24.1916C24.1916 19.6525 24.1884 19.7289 24.1819 19.8053H24.1852Z" fill="white"/>
<path d="M6.61841 25.3766L16.5589 27.169L16.708 26.2903L6.78695 24.4756L6.61841 25.3766Z" fill="white"/>
<path d="M30.7096 32.371H7.29578V33.3898H30.7096V32.371Z" fill="white"/>
<path d="M12.3973 19.5761L14.0632 19.8881L13.7553 21.5276L11.8301 21.187L12.1315 19.5729H10.404L10.0054 21.7091C9.96323 21.9256 10.0151 22.1516 10.1415 22.3363C10.2711 22.5177 10.4688 22.6419 10.6892 22.6833L14.2869 23.3168C14.3387 23.3264 14.3873 23.3295 14.4392 23.3295C14.8411 23.3295 15.1976 23.0494 15.2754 22.6451L15.7324 20.1969L15.9787 20.2446C16.0306 20.2542 16.0857 20.2605 16.1375 20.2605C16.3061 20.2605 16.4746 20.2096 16.6172 20.1141C16.8052 19.9899 16.9316 19.7957 16.9737 19.5792V19.5729H12.4005L12.3973 19.5761Z" fill="#264A94"/>
<path d="M31.5587 30.6997H28.6968L25.6469 27.7039C27.2481 25.4722 28.2366 22.7438 28.2366 20.2638C28.2366 20.0314 28.2269 19.8053 28.2107 19.5761H26.5058C26.5253 19.8021 26.535 20.0314 26.535 20.2638C26.535 24.8227 22.5387 30.6042 18.0465 30.6042H17.7354L18.4387 26.2967C21.508 25.9211 23.9713 23.2054 24.1852 19.8053C24.1884 19.7289 24.1917 19.6525 24.1949 19.5761H22.4901C22.4901 19.6175 22.4901 19.6589 22.4901 19.7003C22.3118 22.4859 20.2116 24.6731 17.7062 24.6731C17.6057 24.6731 17.5118 24.6922 17.421 24.7208L6.25862 22.6801C6.03498 22.6387 5.8081 22.6865 5.62012 22.8139C5.43538 22.938 5.30573 23.1322 5.26684 23.3519L4.79039 25.8988C4.74826 26.1153 4.80012 26.3413 4.92652 26.5228C5.05292 26.7042 5.25063 26.8284 5.47427 26.8698L16.3028 28.8182L15.9949 30.6997H6.44336C6.21648 30.6997 6.00257 30.7888 5.84376 30.9448C5.68494 31.1008 5.59419 31.3141 5.59419 31.5338V34.2207C5.59419 34.6824 5.9734 35.0549 6.44336 35.0549H31.5555C31.7824 35.0549 31.9963 34.9689 32.1551 34.8097C32.3139 34.6505 32.4047 34.4404 32.4047 34.2207V31.5338C32.4047 31.0722 32.0255 30.6997 31.5555 30.6997H31.5587ZM6.62162 25.3767L6.79016 24.4725L16.7112 26.2872L16.5621 27.1659L6.62162 25.3767ZM24.5806 29.0155L26.2952 30.6997H22.6651C23.349 30.2221 23.9907 29.6523 24.5806 29.0155ZM30.7096 33.3866H7.29577V32.3679H30.7096V33.3866Z" fill="#1B4396"/>
<path d="M52.8269 8.80908C52.9339 8.80908 53.0149 8.78042 53.07 8.72312C53.1251 8.66581 53.164 8.55439 53.1867 8.38566C53.2094 8.21692 53.2321 7.94632 53.2515 7.57702C53.3876 7.68526 53.5886 7.78714 53.8544 7.88901C54.1201 7.99089 54.3697 8.06729 54.5998 8.1246C54.5447 8.65308 54.4605 9.0574 54.347 9.33756C54.2336 9.61772 54.0683 9.81828 53.8544 9.92971C53.6405 10.0411 53.3455 10.0984 52.9663 10.0984H51.7898C51.336 10.0984 50.9925 10.0475 50.7559 9.94244C50.5193 9.83739 50.354 9.67184 50.26 9.43943C50.166 9.20703 50.1174 8.87912 50.1174 8.45251V7.1727H49.145C49.077 7.72346 48.9408 8.18827 48.7399 8.56075C48.5357 8.93324 48.1986 9.26115 47.7254 9.54449C47.2522 9.82783 46.5943 10.0571 45.7483 10.2322C45.6803 10.0507 45.5668 9.83739 45.4048 9.59543C45.2427 9.35348 45.0839 9.15609 44.9283 9.00646C45.6057 8.89503 46.1243 8.75496 46.4906 8.59259C46.8568 8.43023 47.1129 8.23921 47.2619 8.01954C47.411 7.79987 47.5115 7.51653 47.5666 7.1727H46.3998V1.50586H53.2029V7.1727H51.631V8.44296C51.631 8.60533 51.6537 8.7072 51.6958 8.74859C51.7412 8.78998 51.8449 8.80908 52.0167 8.80908H52.8269ZM47.8162 2.69335V3.05946H51.699V2.69335H47.8162ZM47.8162 4.15144V4.51756H51.699V4.15144H47.8162ZM47.8162 5.61909V5.98521H51.699V5.61909H47.8162Z" fill="#231815"/>
<path d="M55.6856 5.76235V4.46343H60.8163V5.63182L59.7013 6.62829C59.9444 6.7047 60.087 6.82568 60.1324 6.99122C60.1778 7.15677 60.194 7.32232 60.1875 7.48469V8.26467C60.1875 8.35381 60.1875 8.36018 60.1875 8.28377C60.1875 8.39838 60.1972 8.46842 60.2166 8.50026C60.2361 8.5321 60.3009 8.54801 60.4079 8.54801C60.5764 8.56075 60.7968 8.54801 61.0723 8.50026C61.3478 8.45251 61.5747 8.40793 61.7627 8.36018C61.9474 8.30924 62.0446 8.28377 62.0511 8.28377V9.72277C61.3608 9.90423 60.7352 9.99338 60.1745 9.98701C59.6819 9.98064 59.3221 9.88195 59.0952 9.68456C58.8683 9.49036 58.7581 9.1529 58.7646 8.66899V7.74574C58.7646 7.74574 58.7646 7.71391 58.7581 7.66933C58.7549 7.62476 58.7419 7.58656 58.7225 7.55791C58.703 7.52926 58.6674 7.52607 58.622 7.55791L55.5786 10.213V8.22647L58.5799 5.75916H55.6791L55.6856 5.76235ZM56.4958 3.84263V2.57236C56.8621 2.55326 57.1992 2.54371 57.5136 2.54053C57.8279 2.54053 58.1812 2.54053 58.5734 2.55326C58.9656 2.566 59.3318 2.58828 59.6689 2.6233C60.006 2.65832 60.2782 2.69016 60.4857 2.72199C60.6931 2.75383 60.8 2.76975 60.8163 2.76975V4.06866C60.8163 4.06866 60.6931 4.04001 60.4857 3.99862C60.2782 3.95724 60.006 3.91903 59.6689 3.88401C59.3318 3.84899 58.9623 3.82989 58.5637 3.82353C57.9543 3.81716 57.4585 3.82034 57.0792 3.82671C56.6968 3.83626 56.5023 3.83944 56.4958 3.83944V3.84263Z" fill="#231815"/>
<path d="M64.174 4.69903H63.1693V3.27914H64.4463C64.5014 2.9958 64.5403 2.76339 64.563 2.58193C64.5857 2.40046 64.5986 2.30495 64.5986 2.29858H66.0182C65.9242 2.77613 65.8659 3.10086 65.8464 3.27595H67.1332V4.69585H65.6034C65.1237 6.6474 64.7866 7.92404 64.5889 8.52574H63.1174C63.7041 6.58055 64.0574 5.30392 64.1708 4.69585L64.174 4.69903ZM67.561 6.33541L67.5513 3.23775C67.9629 3.19955 68.3583 3.18363 68.7343 3.19C69.1102 3.19636 69.4181 3.20591 69.6612 3.21865C69.9043 3.23138 70.0307 3.24093 70.0372 3.2473V4.69585C70.0372 4.69585 69.9205 4.68948 69.7066 4.67675C69.4927 4.66401 69.2172 4.65446 68.8801 4.64809V6.52006C69.1848 6.62194 69.457 6.73018 69.7001 6.84479C69.9432 6.96258 70.0729 7.02626 70.0858 7.03899V8.57349C69.8363 8.41113 69.6159 8.27423 69.4279 8.16917C69.2399 8.06411 69.0551 7.97816 68.8801 7.91448V8.52574C68.8801 9.00328 68.7926 9.36303 68.6208 9.6018C68.4491 9.84057 68.2416 10.0061 67.9985 10.0921C67.7555 10.178 67.5091 10.2194 67.2596 10.2194C66.9355 10.2322 66.6146 10.1844 66.3002 10.0793C65.9858 9.97428 65.72 9.78008 65.4996 9.50629C65.2792 9.22932 65.1691 8.84092 65.1691 8.33791C65.1755 7.69163 65.3894 7.18544 65.814 6.81932C66.2354 6.4532 66.8188 6.29084 67.5642 6.33541H67.561ZM67.2563 8.89504C67.3568 8.88867 67.4346 8.84092 67.4832 8.75496C67.5351 8.66582 67.5578 8.55121 67.5578 8.40795V7.60886C67.1915 7.55792 66.916 7.59931 66.7248 7.72984C66.5368 7.86036 66.4298 8.04501 66.4104 8.27423C66.4039 8.50664 66.4752 8.67219 66.6276 8.77406C66.7799 8.87594 66.9873 8.91414 67.2498 8.89504H67.2563Z" fill="#231815"/>
<path d="M71.729 2.64558H73.2491C73.2491 2.64558 73.2426 2.79839 73.2296 3.06582C73.2167 3.33324 73.2037 3.67389 73.1908 4.08776C73.1778 4.50163 73.1648 4.93778 73.1551 5.38986C73.1454 5.84193 73.1357 6.26217 73.1292 6.64739C73.1292 7.14403 73.1551 7.54517 73.2037 7.85079C73.2556 8.1596 73.3658 8.32197 73.5343 8.34107C73.7223 8.3347 73.9394 8.26785 74.1793 8.13732C74.4191 8.00997 74.6298 7.87945 74.8145 7.7521C74.996 7.62476 75.0965 7.55472 75.1095 7.54835V9.11151C75.1095 9.11151 75.0285 9.16563 74.8923 9.27705C74.753 9.3853 74.5585 9.49991 74.3057 9.61452C74.0529 9.72913 73.7515 9.80872 73.4079 9.84374C72.8213 9.88831 72.3805 9.66864 72.0953 9.1911C71.8068 8.71037 71.6642 7.97814 71.6642 6.9944C71.6642 6.59326 71.6642 6.14437 71.6707 5.6541C71.6739 5.16064 71.6804 4.68946 71.6901 4.2342C71.6998 3.77895 71.7096 3.40328 71.7193 3.11039C71.729 2.81431 71.7355 2.6615 71.7355 2.64876L71.729 2.64558ZM75.816 2.64558H77.388C77.388 2.64558 77.4658 2.89708 77.6019 3.40328C77.738 3.90947 77.8677 4.5844 77.9908 5.43443C78.1172 6.28445 78.1691 7.51015 78.1464 9.10832H76.6166C76.6166 9.10832 76.6166 9.02236 76.6231 8.88865C76.6263 8.75494 76.6263 8.42384 76.6231 7.89536C76.6198 7.36688 76.5874 6.79065 76.5259 6.16348C76.4643 5.5363 76.38 4.9155 76.2666 4.30424C76.1564 3.69299 76.004 3.13904 75.816 2.6424V2.64558Z" fill="#231815"/>
<path d="M81.4134 4.15148H79.9646V2.64563H86.1195V4.15148H82.9756L82.9659 5.35489H86.5052V6.82254H82.9659V6.96262C82.9659 7.05176 82.9659 7.15045 82.9594 7.26506C82.9562 7.37967 82.9529 7.47199 82.9529 7.5484C82.9659 7.81264 83.0145 8.01321 83.0988 8.1501C83.1831 8.287 83.3711 8.36022 83.6628 8.36659C83.9545 8.37296 84.2883 8.36659 84.6675 8.35704C85.0467 8.34431 85.3708 8.33475 85.6398 8.3252C85.9088 8.31565 86.0482 8.31247 86.0547 8.31247V9.83742C86.0547 9.83742 85.9121 9.83742 85.6496 9.84061C85.387 9.84379 85.0499 9.84697 84.6416 9.85016C84.2332 9.85016 83.8475 9.85016 83.491 9.84697C83.1312 9.84061 82.7877 9.77057 82.4506 9.63367C82.1167 9.49996 81.8704 9.26755 81.7148 8.94283C81.5593 8.6181 81.4685 8.20104 81.4426 7.70121C81.4426 7.60571 81.4426 7.4911 81.4361 7.35738C81.4329 7.22367 81.4296 7.10269 81.4264 6.99445C81.4231 6.88939 81.4199 6.83209 81.4199 6.82572H79.6567V5.35807H81.4102V4.15466L81.4134 4.15148Z" fill="#231815"/>
<path d="M87.5392 9.89155V8.3475C88.4597 8.21697 89.1986 7.93681 89.7561 7.50384C90.3136 7.07405 90.7673 6.57422 91.1141 6.00754C91.4609 5.44085 91.717 4.8869 91.879 4.34569C92.0411 3.80447 92.1642 3.17093 92.2453 2.44507H93.8885C93.8075 3.09771 93.707 3.6835 93.5839 4.20561C93.4607 4.72772 93.263 5.28804 92.9907 5.88974C92.7185 6.49145 92.3458 7.07405 91.8758 7.63436C91.4058 8.19468 90.8192 8.67859 90.1126 9.08291C89.4061 9.48723 88.5504 9.75465 87.5424 9.88837L87.5392 9.89155Z" fill="#231815"/>
<path d="M96.4425 4.46343H94.809V3.16451H96.9903C97.0648 2.93847 97.1459 2.68378 97.2334 2.40363H98.7632C98.7632 2.40363 98.7372 2.47366 98.7016 2.61056C98.6692 2.74746 98.6076 2.93211 98.5201 3.16451H100.831V4.46343H97.8492C97.8492 4.48253 97.8103 4.56212 97.726 4.69901C97.645 4.83591 97.5737 4.96644 97.5121 5.08423C97.5186 5.07786 97.5575 5.0524 97.6288 5.00464C97.7001 4.95689 97.7584 4.92823 97.807 4.9155C98.2608 4.7595 98.6141 4.75632 98.8669 4.90595C99.1197 5.05558 99.2915 5.29117 99.379 5.61271C99.7582 5.42488 100.115 5.2657 100.449 5.13199C100.782 5.00146 101.149 4.86456 101.551 4.72767V6.25262C101.551 6.25262 101.44 6.28446 101.236 6.34813C101.032 6.4118 100.773 6.49457 100.452 6.60282C100.131 6.71106 99.8036 6.83204 99.473 6.96893V8.28695H98.0825V7.60884C98.0825 7.60884 98.0436 7.63431 97.9853 7.66933C97.927 7.70435 97.8783 7.72982 97.8394 7.74892C97.5477 7.97496 97.4278 8.18507 97.4732 8.37928C97.5218 8.57348 97.7681 8.67853 98.2122 8.69127C98.6854 8.6849 99.1327 8.65943 99.5572 8.61168C99.9786 8.56392 100.325 8.51617 100.598 8.4716C100.867 8.42385 101.006 8.39838 101.012 8.39201V9.94561C101.012 9.94561 100.75 9.987 100.248 10.0348C99.7452 10.0825 99.0354 10.1016 98.1214 10.0952C97.5866 10.0761 97.1491 9.95835 96.8088 9.73868C96.4685 9.51901 96.2448 9.23885 96.1411 8.89502C96.0374 8.55437 96.073 8.19144 96.2481 7.81259C96.4231 7.43374 96.7537 7.08036 97.2431 6.75245C97.3857 6.66331 97.5251 6.58053 97.6644 6.49776C97.8038 6.41498 97.9432 6.33539 98.0858 6.25262C98.0793 6.14119 98.0501 6.0616 97.995 6.01703C97.9399 5.97246 97.8394 5.95973 97.6904 5.97883C97.5607 6.01066 97.4019 6.08389 97.2074 6.20168C97.0162 6.31629 96.812 6.45955 96.6046 6.6251C96.3972 6.79065 96.1994 6.94983 96.0179 7.09946C95.6874 7.43692 95.4021 7.71708 95.1623 7.93357C94.9224 8.15005 94.796 8.26148 94.7831 8.26785V6.51686C94.7831 6.51686 94.8738 6.45 95.0326 6.31311C95.1915 6.17621 95.373 5.98838 95.5739 5.74324C95.7781 5.4981 95.9888 5.21476 96.2124 4.8964C96.261 4.81999 96.3096 4.73403 96.3583 4.63216C96.4101 4.53028 96.436 4.47616 96.4458 4.46343H96.4425Z" fill="#231815"/>
<path d="M110.152 8.80908C110.259 8.80908 110.34 8.78042 110.395 8.72312C110.451 8.66581 110.489 8.55439 110.512 8.38566C110.535 8.21692 110.558 7.94632 110.577 7.57702C110.713 7.68526 110.914 7.78714 111.18 7.88901C111.446 7.99089 111.695 8.06729 111.925 8.1246C111.87 8.65308 111.786 9.0574 111.672 9.33756C111.559 9.61772 111.394 9.81828 111.18 9.92971C110.966 10.0411 110.671 10.0984 110.292 10.0984H109.115C108.661 10.0984 108.318 10.0475 108.081 9.94244C107.845 9.83739 107.679 9.67184 107.585 9.43943C107.491 9.20703 107.443 8.87912 107.443 8.45251V7.1727H106.47C106.402 7.72346 106.266 8.18827 106.065 8.56075C105.861 8.93324 105.524 9.26115 105.051 9.54449C104.578 9.82783 103.92 10.0571 103.074 10.2322C103.006 10.0507 102.892 9.83739 102.73 9.59543C102.568 9.35348 102.409 9.15609 102.254 9.00646C102.931 8.89503 103.45 8.75496 103.816 8.59259C104.182 8.43023 104.438 8.23921 104.587 8.01954C104.736 7.79987 104.837 7.51653 104.892 7.1727H103.725V1.50586H110.528V7.1727H108.956V8.44296C108.956 8.60533 108.979 8.7072 109.021 8.74859C109.067 8.78998 109.17 8.80908 109.342 8.80908H110.152ZM105.142 2.69335V3.05946H109.024V2.69335H105.142ZM105.142 4.15144V4.51756H109.024V4.15144H105.142ZM105.142 5.61909V5.98521H109.024V5.61909H105.142Z" fill="#231815"/>
<path d="M113.011 5.76235V4.46343H118.142V5.63182L117.027 6.62829C117.27 6.7047 117.413 6.82568 117.458 6.99122C117.503 7.15677 117.52 7.32232 117.513 7.48469V8.26467C117.513 8.35381 117.513 8.36018 117.513 8.28377C117.513 8.39838 117.523 8.46842 117.542 8.50026C117.562 8.5321 117.626 8.54801 117.733 8.54801C117.902 8.56075 118.122 8.54801 118.398 8.50026C118.673 8.45251 118.9 8.40793 119.088 8.36018C119.273 8.30924 119.37 8.28377 119.377 8.28377V9.72277C118.686 9.90423 118.061 9.99338 117.5 9.98701C117.007 9.98064 116.648 9.88195 116.421 9.68456C116.194 9.49036 116.084 9.1529 116.09 8.66899V7.74574C116.09 7.74574 116.09 7.71391 116.084 7.66933C116.08 7.62476 116.067 7.58656 116.048 7.55791C116.029 7.52926 115.993 7.52607 115.948 7.55791L112.904 10.213V8.22647L115.905 5.75916H113.005L113.011 5.76235ZM113.821 3.84263V2.57236C114.188 2.55326 114.525 2.54371 114.839 2.54053C115.154 2.54053 115.507 2.54053 115.899 2.55326C116.291 2.566 116.657 2.58828 116.994 2.6233C117.332 2.65832 117.604 2.69016 117.811 2.72199C118.019 2.75383 118.126 2.76975 118.142 2.76975V4.06866C118.142 4.06866 118.019 4.04001 117.811 3.99862C117.604 3.95724 117.332 3.91903 116.994 3.88401C116.657 3.84899 116.288 3.82989 115.889 3.82353C115.28 3.81716 114.784 3.82034 114.405 3.82671C114.022 3.83626 113.828 3.83944 113.821 3.83944V3.84263Z" fill="#231815"/>
<path d="M121.166 4.1228V2.65515H125.953V3.97317L124.148 5.20523C124.763 5.0938 125.272 5.12245 125.674 5.29437C126.076 5.46629 126.39 5.73689 126.611 6.10938C126.834 6.47868 126.951 6.91165 126.964 7.40829C126.971 7.94314 126.838 8.40795 126.562 8.8059C126.29 9.20385 125.933 9.50311 125.496 9.7005C125.062 9.89788 124.595 10.022 124.096 10.073C123.6 10.1239 123.114 10.0857 122.64 9.95837C122.242 9.85331 121.937 9.67821 121.723 9.44262C121.509 9.20385 121.399 8.89823 121.393 8.52893C121.386 8.29652 121.444 8.0482 121.571 7.78714C121.697 7.5229 121.905 7.32233 122.193 7.18544C122.482 7.04854 122.88 7.01352 123.379 7.08038C123.82 7.15679 124.17 7.3096 124.433 7.542C124.695 7.77441 124.906 8.06412 125.062 8.40795C125.211 8.27105 125.314 8.11505 125.376 7.94632C125.437 7.77759 125.463 7.59294 125.457 7.39237C125.457 7.06764 125.337 6.81296 125.097 6.63467C124.857 6.45639 124.462 6.37362 123.914 6.38635C123.379 6.40545 122.939 6.49141 122.592 6.64422C122.245 6.79704 121.927 6.98805 121.642 7.21409L120.446 8.13734V6.34815L123.609 4.12598H121.156L121.166 4.1228ZM123.114 8.00044C122.916 7.99408 122.783 8.05138 122.708 8.16918C122.634 8.29015 122.631 8.4175 122.699 8.56076C122.767 8.70084 122.916 8.8059 123.146 8.87594C123.383 8.93324 123.587 8.95235 123.759 8.93324C123.93 8.91414 124.021 8.90141 124.028 8.89504C123.995 8.67537 123.888 8.47799 123.707 8.30607C123.525 8.13416 123.331 8.03228 123.114 8.00044Z" fill="#231815"/>
<path d="M132.409 7.78398V8.65948C132.409 9.04151 132.331 9.34396 132.176 9.56363C132.02 9.7833 131.8 9.93611 131.518 10.0253C131.236 10.1144 130.941 10.1558 130.636 10.1558C130.257 10.1558 129.881 10.0826 129.505 9.93611C129.129 9.78966 128.831 9.57318 128.607 9.28665C128.384 9.00013 128.27 8.64993 128.264 8.23606C128.27 7.80309 128.39 7.43697 128.62 7.14089C128.85 6.84163 129.175 6.61878 129.593 6.47233C130.011 6.32589 130.445 6.25585 130.889 6.25903V2.26996H132.409V3.70895H134.72V5.14795H132.409V6.42776C132.746 6.54874 133.096 6.70155 133.453 6.89257C133.813 7.08359 134.108 7.25869 134.344 7.42105C134.581 7.58023 134.701 7.66619 134.71 7.67893V9.40126C134.71 9.40126 134.581 9.28665 134.344 9.09563C134.108 8.90462 133.809 8.68176 133.453 8.43344C133.093 8.18194 132.746 7.96545 132.409 7.78398ZM130.704 8.81866C130.766 8.81866 130.811 8.78046 130.847 8.70723C130.879 8.63083 130.896 8.50985 130.886 8.34112V7.52293C130.487 7.48472 130.199 7.53566 130.024 7.67893C129.849 7.819 129.761 7.9941 129.761 8.20104C129.768 8.41434 129.862 8.5767 130.046 8.68495C130.231 8.79319 130.448 8.84094 130.704 8.82184V8.81866Z" fill="#231815"/>
<path d="M135.796 6.80661V5.31031C135.796 5.31031 135.968 5.24982 136.273 5.14476C136.577 5.0397 136.969 4.93783 137.449 4.83277C137.929 4.72771 138.438 4.67359 138.979 4.66722C139.527 4.66722 140.036 4.74044 140.505 4.88689C140.975 5.03334 141.345 5.28484 141.617 5.63504C141.886 5.98524 142.026 6.39274 142.032 6.85755C142.019 7.48472 141.831 8.04504 141.475 8.5385C141.118 9.03196 140.531 9.40763 139.724 9.66868C138.917 9.92974 137.968 10.0603 136.879 10.0603V8.65948C137.851 8.63401 138.606 8.54487 139.144 8.38568C139.682 8.22969 140.042 8.01639 140.23 7.74896C140.415 7.48154 140.499 7.17591 140.48 6.83208C140.48 6.57421 140.379 6.37364 140.181 6.22401C139.98 6.07756 139.582 5.99797 138.979 5.99479C138.655 6.00116 138.311 6.04254 137.945 6.12213C137.579 6.20172 137.235 6.29405 136.911 6.39911C136.587 6.50417 136.214 6.64106 135.796 6.80343V6.80661ZM136.577 3.94454V2.63607C136.976 2.61697 137.345 2.60742 137.682 2.60424C138.02 2.60105 138.402 2.60424 138.83 2.61697C139.261 2.62971 139.663 2.65199 140.032 2.68383C140.402 2.71566 140.697 2.7475 140.92 2.77934C141.144 2.81117 141.257 2.83027 141.264 2.83664V4.16421C141.264 4.16421 141.141 4.14192 140.92 4.09735C140.7 4.05278 140.402 4.01458 140.032 3.98274C139.663 3.95091 139.264 3.92862 138.83 3.91589C138.159 3.91589 137.621 3.91907 137.206 3.92544C136.794 3.9318 136.584 3.93817 136.577 3.94454Z" fill="#231815"/>
<path d="M143.727 2.60743H145.247C145.147 3.33648 145.072 3.9732 145.024 4.5176C144.975 5.062 144.949 5.62232 144.943 6.19218C144.956 6.79389 144.991 7.37331 145.05 7.93362C145.108 8.49076 145.199 9.13703 145.328 9.87245H143.756C143.649 9.16887 143.568 8.54169 143.516 7.99093C143.465 7.44016 143.435 6.84801 143.429 6.22084C143.435 5.63187 143.461 5.062 143.51 4.51123C143.559 3.96365 143.63 3.32693 143.724 2.60425L143.727 2.60743ZM145.999 6.36092H147.409C147.279 6.58695 147.185 6.78434 147.124 6.95307C147.062 7.1218 147.03 7.30327 147.023 7.49747C147.017 7.61844 147.04 7.72987 147.095 7.83493C147.15 7.93999 147.26 8.02913 147.425 8.09917C147.591 8.16921 147.837 8.20741 148.161 8.21378C148.728 8.21378 149.169 8.19786 149.48 8.16284C149.791 8.12782 149.947 8.10872 149.947 8.10235V9.59865C149.723 9.63686 149.474 9.66233 149.201 9.67506C148.929 9.6878 148.547 9.69735 148.061 9.70371C147.27 9.68461 146.667 9.50315 146.255 9.1625C145.844 8.82185 145.626 8.39843 145.607 7.89542C145.594 7.57706 145.62 7.30008 145.688 7.07086C145.756 6.84164 145.86 6.60605 146.002 6.36092H145.999ZM145.908 3.0213H149.762V4.4603H145.908V3.0213Z" fill="#231815"/>
<path d="M154.902 4.53669H150.987V3.19957H154.902V2.23175H156.341V3.19957H157.862V4.53669H156.341V6.38C156.517 6.80661 156.614 7.18228 156.636 7.51019C156.662 8.0132 156.617 8.47482 156.494 8.89506C156.371 9.3153 156.17 9.73235 155.884 10.1462H154.332C154.488 9.93292 154.62 9.69733 154.727 9.43946C154.834 9.18159 154.915 8.95873 154.971 8.7709C155.026 8.58307 155.052 8.48119 155.052 8.46846C154.854 8.69449 154.666 8.86323 154.478 8.97147C154.293 9.08289 154.057 9.14338 153.775 9.15612C153.389 9.16249 153.049 9.07653 152.75 8.89825C152.452 8.71996 152.219 8.46209 152.05 8.12781C151.882 7.79353 151.801 7.39239 151.807 6.92759C151.82 6.53918 151.921 6.17625 152.112 5.84516C152.3 5.51406 152.559 5.25937 152.883 5.08746C153.207 4.91554 153.606 4.82958 154.079 4.82958C154.261 4.84232 154.426 4.87097 154.575 4.91872C154.724 4.96648 154.831 5.01105 154.899 5.05562V4.53669H154.902ZM155.013 6.93714C155 6.80024 154.967 6.66653 154.922 6.54237C154.889 6.44686 154.812 6.33862 154.689 6.21764C154.565 6.09666 154.364 6.02344 154.079 6.00434C153.736 6.01707 153.496 6.1094 153.36 6.28131C153.224 6.45323 153.155 6.66016 153.155 6.89893C153.155 7.23003 153.243 7.47517 153.418 7.63435C153.593 7.79353 153.823 7.85084 154.108 7.81263C154.364 7.76806 154.559 7.67892 154.685 7.53884C154.815 7.40195 154.899 7.26823 154.945 7.14407C154.99 7.01991 155.009 6.94987 155.009 6.93714H155.013Z" fill="#231815"/>
<path d="M159.537 4.1228V2.65515H164.324V3.97317L162.519 5.20523C163.135 5.0938 163.644 5.12245 164.046 5.29437C164.448 5.46629 164.762 5.73689 164.982 6.10938C165.206 6.47868 165.323 6.91165 165.336 7.40829C165.342 7.94314 165.209 8.40795 164.934 8.8059C164.661 9.20385 164.305 9.50311 163.867 9.7005C163.433 9.89788 162.966 10.022 162.467 10.073C161.971 10.1239 161.485 10.0857 161.012 9.95837C160.613 9.85331 160.309 9.67821 160.095 9.44262C159.881 9.20385 159.771 8.89823 159.764 8.52893C159.758 8.29652 159.816 8.0482 159.942 7.78714C160.069 7.5229 160.276 7.32233 160.565 7.18544C160.856 7.04854 161.252 7.01352 161.751 7.08038C162.192 7.15679 162.542 7.3096 162.804 7.542C163.067 7.77441 163.277 8.06412 163.433 8.40795C163.582 8.27105 163.686 8.11505 163.747 7.94632C163.809 7.77759 163.835 7.59294 163.828 7.39237C163.828 7.06764 163.709 6.81296 163.469 6.63467C163.229 6.45639 162.833 6.37362 162.286 6.38635C161.751 6.40545 161.31 6.49141 160.963 6.64422C160.617 6.79704 160.299 6.98805 160.017 7.21409L158.821 8.13734V6.34815L161.984 4.12598H159.531L159.537 4.1228ZM161.485 8.00044C161.287 7.99408 161.155 8.05138 161.08 8.16918C161.005 8.29015 161.002 8.4175 161.07 8.56076C161.138 8.70084 161.287 8.8059 161.518 8.87594C161.754 8.93324 161.958 8.95235 162.13 8.93324C162.302 8.91414 162.393 8.90141 162.399 8.89504C162.367 8.67537 162.26 8.47799 162.078 8.30607C161.897 8.13416 161.702 8.03228 161.485 8.00044Z" fill="#231815"/>
</g>
<defs>
<clipPath id="clip0_0_2094">
<rect width="166" height="37" fill="white"/>
</clipPath>
</defs>
</svg>
