<svg width="114" height="163" viewBox="0 0 114 163" fill="none" xmlns="http://www.w3.org/2000/svg">
<g clip-path="url(#clip0_0_2191)">
<path d="M109.301 29.1973V61.0492L96.2585 68.5965L68.8462 52.8801V21.0282L81.8882 13.4844L109.301 29.1973Z" fill="#5A6078"/>
<path d="M109.301 61.0492L96.2585 68.5965V36.7446L109.301 29.1973V61.0492Z" fill="#282E46"/>
<path d="M68.8462 52.8802L96.2585 68.5966V36.7447L68.8462 21.0283V52.8802Z" fill="#41475F"/>
<path d="M7.80909 119.553C8.76432 119.018 9.6289 118.977 10.2529 119.343C10.8003 119.661 11.3476 119.982 11.8984 120.3C12.4458 120.618 12.9931 120.939 13.5439 121.257C12.9164 120.894 12.0553 120.936 11.1001 121.467C9.15477 122.553 7.55808 125.263 7.53019 127.523C7.51624 128.672 7.91019 129.482 8.55863 129.856C7.46395 129.217 6.36578 128.581 5.27111 127.942C4.62615 127.565 4.22872 126.754 4.24266 125.609C4.27055 123.349 5.87074 120.639 7.81257 119.553H7.80909Z" fill="#41475F"/>
<path d="M18.0238 123.747C20.8163 122.189 23.044 123.552 23.0056 126.793C22.9673 130.034 20.6698 133.924 17.8809 135.482C15.0884 137.04 12.8572 135.678 12.899 132.433C12.9374 129.192 15.2348 125.301 18.0238 123.744V123.747Z" fill="#41475F"/>
<path d="M11.9961 120.237C13.3696 119.472 14.6038 119.413 15.5032 119.933C17.5113 121.103 19.5194 122.273 21.5274 123.44C20.628 122.916 19.3939 122.975 18.0203 123.744C15.2278 125.301 12.9339 129.192 12.8955 132.433C12.8746 134.082 13.4428 135.245 14.3702 135.783C12.3621 134.613 10.354 133.443 8.34597 132.276C7.41863 131.735 6.85037 130.572 6.87129 128.927C6.90963 125.686 9.20707 121.795 11.9961 120.237Z" fill="#5A6078"/>
<path d="M17.9994 125.503C18.9616 124.965 19.8262 124.924 20.4572 125.29C21.7541 126.045 23.0509 126.799 24.3478 127.553C23.7203 127.187 22.8522 127.229 21.89 127.766C19.9342 128.86 18.3271 131.584 18.2992 133.854C18.2853 135.006 18.6827 135.824 19.3311 136.201C18.0342 135.447 16.7374 134.692 15.4405 133.934C14.7886 133.557 14.3946 132.743 14.4086 131.587C14.4365 129.317 16.0436 126.593 17.9994 125.5V125.503Z" fill="#5A6078"/>
<path d="M13.1954 134.752L8.19267 131.839C8.109 131.71 8.03579 131.573 7.96606 131.427L12.8573 134.273L13.1954 134.752Z" fill="#41475F"/>
<path d="M15.1197 119.996L19.4461 122.514L18.8117 122.615L14.3667 120.027C14.6282 119.985 14.8792 119.975 15.1197 119.996Z" fill="#41475F"/>
<path d="M12.3622 132.608L12.4807 133.303L7.68017 130.509C7.63834 130.296 7.61045 130.069 7.59302 129.831L12.3622 132.608Z" fill="#41475F"/>
<path d="M12.7039 120.632C12.8712 120.537 13.0351 120.457 13.1989 120.384L17.731 123.021L17.0547 123.408L12.4912 120.754C12.5609 120.712 12.6341 120.67 12.7039 120.632Z" fill="#41475F"/>
<path d="M12.3552 131.344L7.62439 128.588C7.65577 128.315 7.6976 128.04 7.75687 127.764L12.4703 130.509L12.3552 131.34V131.344Z" fill="#41475F"/>
<path d="M11.3756 121.574L15.9774 124.253L15.3464 124.885L10.7272 122.196C10.9363 121.976 11.1525 121.77 11.3756 121.574Z" fill="#41475F"/>
<path d="M12.8432 129.108L8.15076 126.377C8.25534 126.087 8.37039 125.804 8.49938 125.521L13.1779 128.246L12.8432 129.112V129.108Z" fill="#41475F"/>
<path d="M9.7544 123.366L14.3981 126.069L13.8821 126.866L9.22449 124.156C9.39183 123.883 9.56614 123.621 9.7544 123.366Z" fill="#41475F"/>
<path d="M93.5427 61.4477V55.2763L71.5376 42.6299L18.9686 73.0359V79.2072L40.9737 91.8536L51.9693 85.4937V97.2042L15.6741 118.198L11.3721 138.605V150.35L33.3772 162.997L73.9779 139.516L93.5497 128.197V61.4477H93.5427Z" fill="#F0F0F6"/>
<path d="M93.5428 61.4477V55.2764L40.9738 85.6824V91.8537L61.6228 79.9127V88.4729L73.9745 81.3272V109.854L37.6758 130.848L33.3738 151.255V163L73.9745 139.516L93.5462 128.197L93.5428 61.4477Z" fill="#BDBDC3"/>
<path d="M15.6705 118.201L37.6757 130.848L33.3737 151.254L11.3685 138.605L15.6705 118.201Z" fill="#D6D6DC"/>
<path d="M12.3622 138.157L16.2842 119.566L36.6822 131.294L32.7637 149.885L12.3622 138.157Z" fill="#41475F"/>
<path d="M11.3685 150.35L33.3737 163V151.254L11.3685 138.604V150.35Z" fill="#D6D6DC"/>
<g style="mix-blend-mode:multiply" opacity="0.1">
<path d="M40.8657 129.003L67.1972 113.772L45.2618 101.084L18.9268 116.315L40.8657 129.003Z" fill="#282E46"/>
</g>
<path d="M93.5462 105.852L73.9745 117.171V139.516L94.4282 151.593L114 140.274V124.104L93.5462 105.852Z" fill="#F0F0F6"/>
<g style="mix-blend-mode:multiply" opacity="0.1">
<path d="M72.301 110.821L40.8656 129.003L50.4597 153.161L73.9744 139.516L72.301 110.821Z" fill="#282E46"/>
</g>
<path d="M50.9234 87.6338L31.3517 98.9531V115.124L51.9693 126.869L71.161 115.93L71.5376 93.2044L50.9234 87.6338Z" fill="#F0F0F6"/>
<path d="M51.9693 104.524L31.3517 98.9531V115.124L51.9693 126.869V104.524Z" fill="#D4DBDF"/>
<path d="M78.7994 148.028C78.0254 147.56 76.746 147.549 75.9407 148C75.1353 148.45 75.1075 149.194 75.8814 149.659C76.6553 150.123 77.9348 150.137 78.7436 149.686C79.5489 149.236 79.5768 148.492 78.8029 148.028H78.7994Z" fill="#5A6078"/>
<path d="M79.1306 148.24C79.0887 148.212 79.0469 148.188 79.0085 148.16C79.005 148.16 78.9981 148.153 78.9946 148.149C78.9493 148.118 78.9039 148.09 78.8586 148.059C79.5733 148.527 79.5315 149.243 78.7436 149.683C77.9383 150.133 76.6553 150.119 75.8814 149.655C75.1493 149.211 75.1353 148.523 75.8221 148.069C75.7315 148.128 75.6408 148.188 75.5467 148.251C74.7344 148.789 74.7553 149.602 75.6199 150.123C76.5333 150.675 78.0428 150.688 78.9946 150.158C79.9219 149.641 79.9742 148.792 79.1306 148.24Z" fill="#344145"/>
<path d="M79.7267 149.155C79.7267 149.518 79.4827 149.885 78.9911 150.158C78.0394 150.688 76.5263 150.675 75.6164 150.123C75.1737 149.857 74.9506 149.512 74.9506 149.169L74.968 155.337C74.968 155.679 75.1911 156.025 75.6339 156.294C76.5473 156.846 78.0568 156.86 79.0085 156.329C79.4966 156.057 79.7441 155.69 79.7441 155.327C79.7372 153.269 79.7337 151.216 79.7267 149.159V149.155Z" fill="#41475F"/>
<path d="M79.1201 140.874L75.5468 140.885C75.5468 141.684 75.5502 148.048 75.5537 148.847C75.5537 149.106 75.7211 149.361 76.0523 149.563C76.7356 149.976 77.8686 149.986 78.5798 149.588C78.9458 149.382 79.1306 149.109 79.1306 148.837L79.1236 140.874H79.1201Z" fill="#41475F"/>
<path d="M114 124.104L94.4282 135.423V151.593L114 140.274V124.104Z" fill="#BDBDC3"/>
<path d="M73.9745 117.171L94.4282 135.423V151.593L73.9745 139.516V117.171Z" fill="#BDBDC3"/>
<path d="M78.7157 121.145L79.7512 116.936V115.131L37.2295 90.5361L10.8979 105.767V107.573L80.2148 147.667L97.6391 137.591V135.785L78.7157 121.145Z" fill="#282E46"/>
<path d="M97.6391 135.785L80.2148 145.861L10.8979 105.767L37.2295 90.5361L79.7512 115.131L78.3427 120.858L97.6391 135.785Z" fill="#5A6078"/>
<path d="M61.3962 109.137L42.6332 119.989L23.8738 109.137L42.6332 98.2861L61.3962 109.137Z" fill="#282E46"/>
<path opacity="0.05" d="M50.4597 102.812H34.8065L42.6331 98.2861L50.4597 102.812Z" fill="white"/>
<path opacity="0.05" d="M61.3962 109.138L57.8716 111.178H27.3984L23.8738 109.138L29.5563 105.852H55.7136L61.3962 109.138Z" fill="white"/>
<path opacity="0.05" d="M54.8734 112.91L52.2343 114.436H33.0356L30.3965 112.91H54.8734Z" fill="white"/>
<path d="M33.5131 92.2412L31.9094 97.6861C31.7839 98.1087 31.9373 98.6116 32.401 99.1006C32.8647 99.586 33.5445 99.9632 34.2731 100.18C35.0017 100.396 35.7792 100.449 36.4311 100.292C37.083 100.134 37.4839 99.7956 37.6094 99.373L39.2131 93.9281L33.5131 92.2412Z" fill="#AEBFC8"/>
<path d="M41.0364 93.9938L42.2636 99.5365C42.3577 99.9661 42.7377 100.333 43.3757 100.535C44.0137 100.738 44.7946 100.738 45.5372 100.57C46.2797 100.406 46.9875 100.078 47.479 99.6238C47.9741 99.1698 48.1623 98.6773 48.0647 98.2477L46.8375 92.7051L41.033 93.9938H41.0364Z" fill="#AEBFC8"/>
<path d="M46.4262 84.4591C44.6762 83.4463 42.3857 82.9434 40.0952 82.9434C37.8048 82.9434 35.5108 83.4498 33.7642 84.4591C32.0141 85.472 31.1426 86.7956 31.1426 88.1228V91.521C31.1426 92.8482 32.0176 94.1719 33.7642 95.1847C35.5143 96.1975 37.8048 96.7004 40.0952 96.7004C42.3857 96.7004 44.6796 96.194 46.4262 95.1847C48.1763 94.1719 49.0479 92.8482 49.0479 91.521V88.1228C49.0479 86.7956 48.1729 85.472 46.4262 84.4591Z" fill="#41475F"/>
<path d="M40.0952 82.9434C37.8048 82.9434 35.5108 83.4498 33.7642 84.4591C32.0141 85.472 31.1426 86.7956 31.1426 88.1228C31.1426 89.4499 32.0176 90.7736 33.7642 91.7865C35.5143 92.7993 37.8048 93.3022 40.0952 93.3022C42.3857 93.3022 44.6796 92.7958 46.4262 91.7865C48.1763 90.7736 49.0479 89.4499 49.0479 88.1228C49.0479 86.7956 48.1729 85.472 46.4262 84.4591C44.6762 83.4463 42.3857 82.9434 40.0952 82.9434Z" fill="#5A6078"/>
<path d="M40.9738 85.6816L18.9686 73.0352V79.2065L40.9738 91.8529V85.6816Z" fill="#D6D6DC"/>
<path d="M73.9745 81.3266L61.6228 88.4723V79.9121L51.9694 85.4932V97.2386L73.9745 109.854V81.3266Z" fill="#D6D6DC"/>
<path d="M61.6227 88.4723V79.9121L54.1901 84.2114L61.6227 88.4723Z" fill="#D6D6DC"/>
<path d="M43.2328 140.585C44.0556 140.124 44.7981 140.089 45.3385 140.403C45.8091 140.679 46.2833 140.951 46.7539 141.227C47.2246 141.503 47.6987 141.775 48.1693 142.051C47.629 141.737 46.8899 141.775 46.0636 142.233C44.3902 143.169 43.0132 145.502 42.9888 147.447C42.9783 148.436 43.3165 149.134 43.8743 149.459C42.9295 148.911 41.9882 148.359 41.0435 147.811C40.4857 147.486 40.1475 146.791 40.158 145.802C40.1824 143.857 41.5594 141.524 43.2328 140.588V140.585Z" fill="#41475F"/>
<path d="M52.1193 143.396C54.9118 141.839 57.1395 143.201 57.1011 146.445C57.0628 149.686 54.7653 153.577 51.9763 155.135C49.1839 156.693 46.9562 155.33 46.9945 152.089C47.0329 148.848 49.3303 144.958 52.1193 143.4V143.396Z" fill="#41475F"/>
<path d="M46.0951 139.886C47.4686 139.121 48.7028 139.062 49.6022 139.582C51.6103 140.752 53.6184 141.922 55.6264 143.088C54.727 142.565 53.4929 142.624 52.1193 143.392C49.3268 144.95 47.0329 148.841 46.9945 152.082C46.9736 153.73 47.5418 154.89 48.4692 155.431C46.4611 154.261 44.453 153.091 42.445 151.925C41.5176 151.383 40.9494 150.22 40.9703 148.575C41.0086 145.334 43.3061 141.443 46.0951 139.886Z" fill="#5A6078"/>
<path d="M56.5363 148.39C58.1818 147.471 59.4996 148.275 59.4752 150.185C59.4508 152.095 58.0982 154.39 56.4527 155.309C54.8072 156.227 53.4894 155.424 53.5138 153.51C53.5382 151.6 54.8908 149.305 56.5363 148.386V148.39Z" fill="#282E46"/>
<path d="M55.9889 147.416C57.9447 146.323 59.5065 147.28 59.4786 149.55V150.186C59.4995 148.275 58.1817 147.469 56.5362 148.391C54.8907 149.309 53.5381 151.604 53.5137 153.514C53.4893 155.424 54.8071 156.231 56.4526 155.313C56.47 155.302 56.4874 155.292 56.5049 155.281C56.3201 155.39 56.1353 155.494 55.9506 155.603C55.9296 155.613 55.9087 155.627 55.8878 155.638C53.932 156.731 52.3702 155.774 52.3981 153.504C52.426 151.233 54.0331 148.509 55.9889 147.416Z" fill="#344145"/>
<path d="M52.0983 145.153C53.0605 144.615 53.9251 144.573 54.5561 144.94C55.8529 145.694 57.1498 146.448 58.4467 147.206C57.8192 146.84 56.9511 146.882 55.9889 147.419C54.0331 148.513 52.426 151.237 52.3981 153.507C52.3841 154.659 52.7816 155.473 53.43 155.854C52.1331 155.099 50.8362 154.345 49.5394 153.591C48.8909 153.213 48.4935 152.396 48.5074 151.244C48.5353 148.974 50.1425 146.246 52.0983 145.156V145.153Z" fill="#5A6078"/>
<path d="M47.2942 154.401L42.288 151.488C42.2043 151.363 42.1311 151.223 42.0614 151.076L46.9526 153.923L47.2908 154.401H47.2942Z" fill="#41475F"/>
<path d="M49.2187 139.645L53.5451 142.163L52.9107 142.265L48.4657 139.677C48.7272 139.635 48.9782 139.624 49.2187 139.645Z" fill="#41475F"/>
<path d="M46.4575 152.257L46.5761 152.952L41.7755 150.158C41.7337 149.945 41.7058 149.718 41.6884 149.48L46.4575 152.254V152.257Z" fill="#41475F"/>
<path d="M46.8027 140.28C46.9701 140.186 47.1339 140.106 47.2978 140.032L51.8299 142.669L51.1536 143.057L46.5901 140.402C46.6598 140.361 46.733 140.319 46.8027 140.28Z" fill="#41475F"/>
<path d="M46.4541 150.992L41.7233 148.236C41.7512 147.964 41.7965 147.688 41.8557 147.412L46.5691 150.157L46.4541 150.988V150.992Z" fill="#41475F"/>
<path d="M45.4709 141.228L50.0728 143.906L49.4418 144.538L44.8225 141.849C45.0317 141.629 45.2478 141.423 45.4709 141.228Z" fill="#41475F"/>
<path d="M46.9421 148.757L42.2496 146.026C42.3542 145.739 42.4693 145.453 42.5983 145.17L47.2768 147.894L46.9421 148.76V148.757Z" fill="#41475F"/>
<path d="M43.8499 143.016L48.4935 145.719L47.9776 146.519L43.3199 143.808C43.4873 143.536 43.6616 143.274 43.8464 143.019L43.8499 143.016Z" fill="#41475F"/>
<path d="M40.9738 91.8533L53.5416 84.5854V78.4141L40.9738 85.682V91.8533Z" fill="#BDBDC3"/>
<path d="M93.5427 55.2757L34.6008 89.3663L12.5957 76.7199V62.3865L71.5375 28.2959L93.5427 40.9424V55.2757Z" fill="#F0F0F6"/>
<path d="M93.5427 55.2757L34.6008 89.3664V75.033L93.5427 40.9424V55.2757Z" fill="#BDBDC3"/>
<path d="M12.5957 76.7201L34.6008 89.3665V75.0332L12.5957 62.3867V76.7201Z" fill="#D6D6DC"/>
<path d="M13.4777 76.2099L13.4742 63.9092L33.7223 75.5463V87.8435L13.4777 76.2099Z" fill="#41475F"/>
<path d="M80.4274 54.9022L33.3423 82.1335L0.397339 63.1167L9.69165 38.4594L47.4825 16.5996L80.4239 35.6199L80.4274 54.9022Z" fill="#F0F0F6"/>
<g style="mix-blend-mode:multiply" opacity="0.1">
<path d="M34.6008 83.2896L81.2258 56.3202V48.0674L34.6008 75.0332V83.2896Z" fill="#282E46"/>
</g>
<path d="M80.4274 54.9024L33.3423 82.1337L42.6331 57.4764L80.4239 35.6201L80.4274 54.9024Z" fill="#BDBDC3"/>
<path d="M0.397339 63.1163L33.3423 82.1331L42.6331 57.4758L9.69165 38.459L0.397339 63.1163Z" fill="#D6D6DC"/>
<path d="M20.7257 53.3057C18.3794 51.7131 16.0367 50.1205 13.6905 48.5244C15.8972 50.0227 16.2877 53.4 14.5376 56.187C12.7387 59.0474 9.36752 60.2034 7.00385 58.768C6.94458 58.7296 6.88183 58.6912 6.82605 58.6528C9.17229 60.2454 11.515 61.838 13.8613 63.434C13.9205 63.4725 13.9798 63.5109 14.0391 63.5493C16.4027 64.9847 19.7739 63.8287 21.5728 60.9683C23.3229 58.1813 22.9325 54.804 20.7257 53.3057Z" fill="#41475F"/>
<path d="M13.5091 48.4096C11.1454 46.9742 7.77425 48.1302 5.97535 50.9906C4.17645 53.851 4.63664 57.333 7.00031 58.7685C9.36398 60.2039 12.7352 59.0479 14.5341 56.1875C16.3295 53.3271 15.8728 49.8451 13.5091 48.4096Z" fill="#5A6078"/>
<path d="M13.056 50.9345C12.2576 49.8972 11.4558 48.86 10.6574 47.8262C11.7765 49.2756 11.7974 51.5806 10.5668 53.54C9.25596 55.6285 6.95155 56.6413 5.06201 56.0965C6.31706 56.4562 7.57559 56.8194 8.83064 57.1792C10.2565 57.5878 11.9961 56.8229 12.9897 55.2478C13.9205 53.767 13.9031 52.0277 13.0594 50.9345H13.056Z" fill="#212B2E"/>
<path d="M7.29318 45.3323C5.29557 44.1204 2.44731 45.0949 0.92731 47.5152C-0.59269 49.932 -0.202231 52.8762 1.7919 54.0881C3.78951 55.3 6.63777 54.3256 8.15777 51.9053C9.67777 49.485 9.28731 46.5443 7.29318 45.3323Z" fill="#5A6078"/>
<path d="M6.11137 47.2147C4.97137 46.5232 3.35027 47.082 2.48219 48.458C1.61761 49.8341 1.83724 51.5105 2.97724 52.202C4.11724 52.8936 5.73834 52.3348 6.60641 50.9587C7.471 49.5826 7.25137 47.9027 6.11137 47.2147Z" fill="#212B2E"/>
<path d="M9.84857 47.0652C9.04674 46.5203 8.2449 45.9755 7.44307 45.4307C9.30821 46.6985 9.63591 49.5519 8.15775 51.9058C6.63775 54.3227 3.78949 55.3006 1.79188 54.0887C1.73958 54.0572 1.69078 54.0258 1.64197 53.9909L4.04747 55.6254C4.09628 55.6603 4.14857 55.6917 4.19738 55.7232C6.195 56.9351 9.04325 55.9607 10.5633 53.5403C12.0414 51.1864 11.7137 48.333 9.84857 47.0652Z" fill="#41475F"/>
<path d="M30.6371 59.1143C28.2908 57.5217 25.9481 55.9256 23.6018 54.333C25.8086 55.8313 26.1991 59.2086 24.449 61.9956C22.6501 64.856 19.2789 66.012 16.9152 64.5766C16.8525 64.5417 16.7932 64.4998 16.7374 64.4614C19.0837 66.0539 21.4264 67.65 23.7727 69.2426C23.8319 69.281 23.8912 69.3195 23.9505 69.3579C26.3141 70.7933 29.6853 69.6373 31.4842 66.7769C33.2343 63.9899 32.8438 60.6126 30.6371 59.1143Z" fill="#41475F"/>
<path d="M23.4205 54.2172C21.0568 52.7818 17.6856 53.9378 15.8867 56.7982C14.0878 59.6586 14.548 63.1407 16.9117 64.5761C19.2754 66.0115 22.6465 64.8555 24.4454 61.9951C26.2443 59.1347 25.7842 55.6527 23.4205 54.2172Z" fill="#5A6078"/>
<path d="M22.9673 56.7392C22.169 55.7019 21.3672 54.6646 20.5688 53.6309C21.6879 55.0803 21.7088 57.3853 20.4782 59.3446C19.1673 61.4332 16.8629 62.446 14.9734 61.9012C16.2284 62.2644 17.487 62.6241 18.742 62.9839C20.1714 63.3925 21.9075 62.6276 22.8976 61.0525C23.8284 59.5717 23.811 57.8324 22.9673 56.7357V56.7392Z" fill="#212B2E"/>
<path d="M17.2046 51.1409C15.2069 49.929 12.3587 50.9034 10.8387 53.3238C9.31869 55.7406 9.70915 58.6848 11.7033 59.8967C13.7009 61.1086 16.5491 60.1307 18.0691 57.7139C19.5891 55.2971 19.1987 52.3528 17.2046 51.1409Z" fill="#5A6078"/>
<path d="M16.0227 53.0233C14.8862 52.3318 13.2616 52.8906 12.3936 54.2666C11.529 55.6427 11.7486 57.3226 12.8886 58.0106C14.0286 58.7022 15.6497 58.1433 16.5143 56.7673C17.3789 55.3912 17.1593 53.7148 16.0193 53.0233H16.0227Z" fill="#212B2E"/>
<path d="M19.76 52.8699C18.9581 52.325 18.1563 51.7802 17.3544 51.2354C19.2196 52.5031 19.5473 55.3565 18.0691 57.7105C16.5491 60.1273 13.7009 61.1053 11.7033 59.8933C11.651 59.8619 11.6022 59.8305 11.5533 59.7956L13.9588 61.4301C14.0077 61.4615 14.06 61.4964 14.1088 61.5278C16.1064 62.7398 18.9546 61.7653 20.4746 59.345C21.9563 56.991 21.6251 54.1376 19.76 52.8699Z" fill="#41475F"/>
<path d="M50.3204 33.3634C53.9844 35.4834 53.9844 38.92 50.3204 41.04C46.6563 43.16 40.7158 43.16 37.0517 41.04C33.3877 38.92 33.3877 35.4834 37.0517 33.3634C40.7158 31.2434 46.6563 31.2434 50.3204 33.3634Z" fill="#5A6078"/>
<path d="M48.6644 11.605C46.0079 10.0054 41.6152 9.96003 38.8471 11.5037C36.0791 13.0509 35.9884 15.6005 38.6449 17.2001C41.298 18.7996 45.6941 18.845 48.4622 17.3013C51.2302 15.7541 51.3209 13.2046 48.6644 11.605Z" fill="#5A6078"/>
<path d="M49.7974 12.3383C49.6579 12.2475 49.515 12.1532 49.3755 12.0624C49.3616 12.0519 49.3442 12.0415 49.3267 12.031C49.1699 11.9297 49.013 11.8249 48.8561 11.7236C51.3139 13.3302 51.1605 15.7924 48.4621 17.3012C45.6941 18.8484 41.2979 18.803 38.6449 17.1999C36.1278 15.6842 36.079 13.3127 38.4357 11.7516C38.122 11.9576 37.8117 12.1637 37.4979 12.3732C34.7159 14.2138 34.7752 17.0113 37.742 18.803C40.8761 20.6925 46.0636 20.7448 49.3302 18.9217C52.5166 17.1406 52.6979 14.2348 49.7974 12.3383Z" fill="#344145"/>
<path d="M51.8543 15.4746C51.8577 16.7284 51.0141 17.9788 49.3337 18.9182C46.0671 20.7413 40.8796 20.689 37.7455 18.7995C36.2255 17.8845 35.4689 16.7005 35.4655 15.52L35.5247 36.6952C35.5247 37.8757 36.2847 39.0562 37.8047 39.9747C40.9388 41.8642 46.1264 41.9166 49.393 40.0935C51.0733 39.154 51.917 37.9037 51.9135 36.6498C51.8926 29.5914 51.8752 22.533 51.8543 15.4746Z" fill="#41475F"/>
<path d="M48.0578 3.6873C45.7115 2.27282 41.8279 2.2344 39.3805 3.59998C36.9332 4.96556 36.853 7.22174 39.1993 8.63622C41.5455 10.0507 45.4292 10.0891 47.8765 8.72353C50.3204 7.35795 50.404 5.10177 48.0543 3.6873H48.0578Z" fill="#5A6078"/>
<path d="M49.766 6.14258C49.766 7.08207 49.135 8.01807 47.8765 8.72356C45.4291 10.0891 41.5455 10.0507 39.1992 8.63625C38.0592 7.94822 37.4945 7.06461 37.491 6.181C37.4979 8.92613 37.5049 11.6747 37.5154 14.4234C37.5154 15.307 38.0836 16.1906 39.2236 16.8786C41.5699 18.2931 45.4535 18.3315 47.9009 16.9659C49.1594 16.2639 49.7904 15.3244 49.7904 14.3884L49.766 6.14607V6.14258Z" fill="#41475F"/>
<path d="M46.733 0.764283C45.084 -0.231088 42.3542 -0.259029 40.6355 0.701418C38.9168 1.66186 38.861 3.24398 40.51 4.23935C42.159 5.23473 44.8887 5.26267 46.6074 4.30222C48.3262 3.34177 48.3819 1.75616 46.733 0.764283Z" fill="#5A6078"/>
<path d="M47.9322 2.49023C47.9322 3.15032 47.4895 3.81041 46.6039 4.30286C44.8852 5.26331 42.1555 5.23537 40.5065 4.23999C39.7047 3.75802 39.3073 3.13635 39.3073 2.51468C39.3107 3.73358 39.3142 4.95596 39.3177 6.17486C39.3177 6.79653 39.7186 7.4182 40.517 7.90017C42.166 8.89554 44.8957 8.91999 46.6144 7.96303C47.4999 7.47059 47.9427 6.8105 47.9392 6.15041L47.9287 2.49023H47.9322Z" fill="#41475F"/>
<path d="M37.5084 13.6488L37.5816 14.1203L37.6026 7.47051L37.5293 6.99902L37.5084 13.6488Z" fill="#212B2E"/>
<path d="M49.5603 8.0782L49.5428 14.728L49.752 14.2705L49.7695 7.61719L49.5603 8.0782Z" fill="#212B2E"/>
<path d="M37.9337 14.8676L38.2823 15.3006L38.2998 8.65085L37.9511 8.21777L37.9337 14.8676Z" fill="#212B2E"/>
<path d="M48.5144 15.8212L48.9816 15.4301L49.0025 8.78027L48.5318 9.16794L48.5144 15.8212Z" fill="#212B2E"/>
<path d="M39.0529 15.933L39.6316 16.2718L39.6525 9.61849L39.0703 9.2832L39.0529 15.933Z" fill="#212B2E"/>
<path d="M46.9038 16.638L47.5732 16.3656L47.5941 9.71582L46.9247 9.98824L46.9038 16.638Z" fill="#212B2E"/>
<path d="M40.7262 16.7152L41.4688 16.9143L41.4897 10.2645L40.7471 10.0654L40.7262 16.7152Z" fill="#212B2E"/>
<path d="M44.9062 17.0884L45.6976 16.9662L45.7151 10.3164L44.9272 10.4386L44.9062 17.0884Z" fill="#212B2E"/>
<path d="M42.7622 17.1166L43.578 17.1585L43.5954 10.5052L42.7796 10.4668L42.7622 17.1166Z" fill="#212B2E"/>
<path d="M67.5911 81.4311L65.4819 82.65V76.9816L67.5911 75.7627V81.4311Z" fill="#41475F"/>
<path d="M77.5966 75.644L70.6555 79.6569V73.9885L77.5966 69.9756V75.644Z" fill="#41475F"/>
<g style="mix-blend-mode:multiply" opacity="0.5">
<path d="M107.411 33.6986L98.1481 39.0596V38.6999L107.411 33.3389V33.6986Z" fill="#282E46"/>
</g>
<g style="mix-blend-mode:multiply" opacity="0.5">
<path d="M107.411 34.5057L98.1481 39.8667V39.507L107.411 34.1494V34.5057Z" fill="#282E46"/>
</g>
<g style="mix-blend-mode:multiply" opacity="0.5">
<path d="M107.411 35.3123L98.1481 40.6733V40.3136L107.411 34.9561V35.3123Z" fill="#282E46"/>
</g>
<g style="mix-blend-mode:multiply" opacity="0.5">
<path d="M107.411 36.1189L98.1481 41.48V41.1202L107.411 35.7627V36.1189Z" fill="#282E46"/>
</g>
<g style="mix-blend-mode:multiply" opacity="0.5">
<path d="M107.411 36.93L98.1481 42.2876V41.9279L107.411 36.5703V36.93Z" fill="#282E46"/>
</g>
<g style="mix-blend-mode:multiply" opacity="0.5">
<path d="M107.411 37.7367L98.1481 43.0942V42.738L107.411 37.377V37.7367Z" fill="#282E46"/>
</g>
<g style="mix-blend-mode:multiply" opacity="0.5">
<path d="M107.411 38.5433L98.1481 43.9009V43.5446L107.411 38.1836V38.5433Z" fill="#282E46"/>
</g>
<g style="mix-blend-mode:multiply" opacity="0.5">
<path d="M107.411 39.35L98.1481 44.711V44.3513L107.411 38.9902V39.35Z" fill="#282E46"/>
</g>
<g style="mix-blend-mode:multiply" opacity="0.5">
<path d="M107.411 40.157L98.1481 45.5181V45.1583L107.411 39.8008V40.157Z" fill="#282E46"/>
</g>
<g style="mix-blend-mode:multiply" opacity="0.5">
<path d="M107.411 40.9637L98.1481 46.3247V45.965L107.411 40.6074V40.9637Z" fill="#282E46"/>
</g>
<g style="mix-blend-mode:multiply" opacity="0.5">
<path d="M107.411 41.7738L98.1481 47.1313V46.7716L107.411 41.4141V41.7738Z" fill="#282E46"/>
</g>
<g style="mix-blend-mode:multiply" opacity="0.5">
<path d="M107.411 42.5804L98.1481 47.938V47.5782L107.411 42.2207V42.5804Z" fill="#282E46"/>
</g>
<g style="mix-blend-mode:multiply" opacity="0.5">
<path d="M107.411 43.3871L98.1481 48.7446V48.3884L107.411 43.0273V43.3871Z" fill="#282E46"/>
</g>
<g style="mix-blend-mode:multiply" opacity="0.5">
<path d="M107.411 44.1937L98.1481 49.5513V49.195L107.411 43.834V44.1937Z" fill="#282E46"/>
</g>
<g style="mix-blend-mode:multiply" opacity="0.5">
<path d="M107.411 45.0013L98.1481 50.3624V50.0026L107.411 44.6416V45.0013Z" fill="#282E46"/>
</g>
<g style="mix-blend-mode:multiply" opacity="0.5">
<path d="M107.411 45.8074L98.1481 51.1684V50.8087L107.411 45.4512V45.8074Z" fill="#282E46"/>
</g>
<g style="mix-blend-mode:multiply" opacity="0.5">
<path d="M107.411 46.6141L98.1481 51.9751V51.6154L107.411 46.2578V46.6141Z" fill="#282E46"/>
</g>
<g style="mix-blend-mode:multiply" opacity="0.5">
<path d="M107.411 47.4252L98.1481 52.7827V52.423L107.411 47.0654V47.4252Z" fill="#282E46"/>
</g>
<g style="mix-blend-mode:multiply" opacity="0.5">
<path d="M107.411 48.2318L98.1481 53.5893V53.2296L107.411 47.8721V48.2318Z" fill="#282E46"/>
</g>
<g style="mix-blend-mode:multiply" opacity="0.5">
<path d="M107.411 49.0384L98.1481 54.396V54.0397L107.411 48.6787V49.0384Z" fill="#282E46"/>
</g>
<g style="mix-blend-mode:multiply" opacity="0.5">
<path d="M107.411 49.8451L98.1481 55.2026V54.8464L107.411 49.4854V49.8451Z" fill="#282E46"/>
</g>
<g style="mix-blend-mode:multiply" opacity="0.5">
<path d="M107.411 50.6517L98.1481 56.0128V55.653L107.411 50.292V50.6517Z" fill="#282E46"/>
</g>
<g style="mix-blend-mode:multiply" opacity="0.5">
<path d="M107.411 51.4588L98.1481 56.8198V56.4601L107.411 51.1025V51.4588Z" fill="#282E46"/>
</g>
<g style="mix-blend-mode:multiply" opacity="0.5">
<path d="M107.411 52.2654L98.1481 57.6265V57.2667L107.411 51.9092V52.2654Z" fill="#282E46"/>
</g>
<g style="mix-blend-mode:multiply" opacity="0.5">
<path d="M107.414 53.0756L98.1481 58.4331V58.0734L107.411 52.7158L107.414 53.0756Z" fill="#282E46"/>
</g>
<g style="mix-blend-mode:multiply" opacity="0.5">
<path d="M107.411 53.8822L98.1481 59.2397V58.88L107.411 53.5225V53.8822Z" fill="#282E46"/>
</g>
</g>
<defs>
<clipPath id="clip0_0_2191">
<rect width="114" height="163" fill="white"/>
</clipPath>
</defs>
</svg>
