<svg width="39" height="124" viewBox="0 0 39 124" fill="none" xmlns="http://www.w3.org/2000/svg">
<path d="M20.644 56.5035L20.7402 23.3559C20.7402 22.7981 20.2915 22.3368 19.7254 22.3368C19.1699 22.3368 18.7106 22.7873 18.7106 23.3559L18.6144 56.5035C18.6144 57.0614 19.0631 57.5226 19.6292 57.5226C20.1847 57.5226 20.644 57.0721 20.644 56.5035Z" fill="#0095E0"/>
<path d="M3.51035 42.8581C4.55719 42.5578 5.47584 41.5816 5.81766 40.2299L9.96227 24.0101C10.443 22.1328 9.62044 20.2662 8.11429 19.8479C6.61881 19.4295 5.00583 20.5988 4.53583 22.4761L0.391222 38.6959C-0.089467 40.5732 0.733044 42.4398 2.2392 42.8581C2.66648 42.9761 3.09376 42.9654 3.51035 42.8581Z" fill="#E7E9CA"/>
<path d="M7.92179 57.608C8.94726 58.5627 10.4961 58.2409 11.3614 56.9C12.2373 55.5591 12.1091 53.6925 11.0837 52.7378C3.65969 45.8508 4.97357 41.2165 4.99493 41.1844C5.68926 39.704 5.31539 37.9125 4.16174 37.1938C3.00808 36.475 1.50193 37.0865 0.807598 38.5669C0.391002 39.4572 -2.95246 47.5242 7.92179 57.6187V57.608Z" fill="#FFC2B0"/>
<path d="M10.7419 7.43568C10.7739 7.19968 10.7953 6.96368 10.806 6.72767C10.9342 4.71092 10.5603 2.57617 12.3015 1.06361C13.5299 0.023053 15.2817 -0.030584 16.884 0.0552351C18.6359 0.162509 20.4411 0.398512 21.9259 1.3318C24.7139 3.08036 24.7032 7.50005 23.87 10.3428C23.5175 11.5443 23.2612 12.7136 23.1223 13.8399C23.1437 15.6636 24.1905 16.5862 26.2521 16.9294C27.7583 17.1762 29.0294 18.1094 29.7344 19.6542C30.0656 20.3729 30.2365 21.1667 30.2792 21.982C30.3967 24.4922 30.6424 25.1895 33.5372 26.0799C35.2784 26.6163 36.7418 27.8392 37.5964 29.7272C39.6366 34.2005 37.5323 40.6692 32.907 44.177C28.2817 47.6849 22.8766 46.891 20.8363 42.4177C19.9818 40.5297 19.8536 38.2877 20.345 36.0671C21.1568 32.3769 20.8043 31.7654 19.1806 30.4138C19.1806 30.4138 19.1806 30.4138 19.17 30.403C18.6359 29.9525 18.1765 29.3732 17.8561 28.6545C17.1511 27.099 17.1511 25.211 17.7065 23.398C18.4756 20.8986 18.3688 19.268 17.1404 18.3562C16.3072 17.97 15.3885 17.6803 14.4058 17.4873C12.8142 17.1869 11.4789 16.1892 10.7205 14.5372C9.63096 12.1557 10.4535 9.82789 10.7312 7.41423L10.7419 7.43568Z" fill="#272722"/>
<path d="M19.533 111.224C19.501 111.32 19.4689 111.428 19.4475 111.535L19.533 111.224Z" fill="#004080"/>
<path d="M19.5333 111.223C19.5333 111.223 19.5547 111.17 19.5653 111.148C19.6187 110.923 19.6722 110.708 19.7363 110.483L19.544 111.223H19.5333Z" fill="#004080"/>
<path d="M25.3977 111.878C25.355 110.58 24.8102 109.7 23.4429 109.539C22.5136 109.432 21.5308 109.379 20.719 109.797C20.1849 110.076 19.779 110.569 19.5654 111.138C19.0099 112.65 17.4183 125.48 20.5908 123.85C24.0304 122.069 25.5045 115.3 25.3977 111.878Z" fill="#758000"/>
<path d="M13.7544 106.342C11.1693 103.339 8.26384 107.598 6.89654 109.368C5.96721 110.569 2.71989 113.755 3.0724 115.429C3.20058 116.019 3.26467 115.986 3.8415 116.147C4.41833 116.308 5.0272 116.222 5.61471 116.083C8.65907 115.343 11.0732 113.616 12.4512 110.977C12.5046 111.706 12.5259 112.446 12.5153 113.186C12.5153 113.347 12.7075 113.455 12.8464 113.358C13.1348 113.176 13.4125 112.983 13.6796 112.779C14.7051 112.017 14.2457 110.944 14.5235 109.722C14.7905 108.542 14.5555 107.286 13.7544 106.353V106.342Z" fill="#758000"/>
<path d="M24.2226 109.989C24.5217 110.644 24.5324 111.405 24.4255 112.113C24.1158 114.27 22.8553 117.177 21.018 118.496C20.8471 118.614 20.6548 118.743 20.4412 118.743C20.0352 118.743 19.7789 118.346 19.6614 117.981C19.405 117.134 19.5118 115.353 19.608 114.484C19.7468 113.336 19.8857 112.189 20.0246 111.041L16.0295 82.7847L15.3031 72.0574L14.7049 61.523L13.5833 84.1149L13.1774 106.203C13.2201 106.01 13.1774 106.417 13.1774 106.203C14.5768 108.541 9.65236 112.103 8.00734 112.65C7.20619 112.918 5.77481 113.1 5.94572 111.717C6.02049 111.137 6.42641 110.665 6.76823 110.204C7.27029 109.517 8.72304 107.383 8.60553 106.546C8.57349 106.299 5.31549 82.1197 5.31549 82.1197L4.51434 49.1115L12.6433 52.4477L25.889 50.506L23.6778 56.7494L23.8273 82.8384L24.1905 109.989H24.2226Z" fill="#FFC2B0"/>
<path d="M6.57598 42.9646L5.02709 45.3354C3.80935 47.1912 3.17911 49.3581 3.21116 51.568L3.62775 83.7394C3.62775 83.7394 18.3475 90.9375 25.9638 82.774L26.2949 59.7422C26.2949 59.7422 28.1108 46.7728 22.6523 43.7477L6.58666 42.9646H6.57598Z" fill="#B8B200"/>
<path d="M12.793 14.8913C12.793 14.8913 12.8143 14.902 12.825 14.9128C12.825 14.8699 12.825 14.8162 12.825 14.7733C12.825 14.8162 12.825 14.8591 12.7823 14.8913H12.793Z" fill="#4168C3"/>
<path d="M25.4187 27.9147L24.2971 32.1412L22.0859 44.9927C21.8509 45.8616 20.3448 46.5803 19.5863 46.9558C17.5568 47.9642 13.5938 48.4683 7.75072 45.9796C6.84275 45.5934 6.16979 44.7459 5.97751 43.7054L3.67021 34.1795L3.63816 33.9864C3.36043 32.506 3.57407 30.972 4.25772 29.6632L6.39411 25.5439V23.3448C6.39411 20.738 8.69073 18.8607 10.998 19.5902L13.0703 20.3089L18.6784 22.272L23.5066 23.9562C25.0235 24.4819 25.8673 26.2304 25.4294 27.8932L25.4187 27.9147Z" fill="#E7E9CA"/>
<path d="M25.4189 27.9144L24.2973 32.141C23.7312 32.8383 23.1757 33.5463 22.5989 34.2436C21.4132 35.724 20.1634 37.2473 18.5077 38.0196C15.7518 39.3069 12.6006 38.2556 9.8019 37.0649C8.07142 36.3354 6.36231 35.5523 4.67456 34.7263C4.33274 34.5654 3.98023 34.383 3.64909 34.1899L3.61704 33.9969C3.33931 32.5165 3.55295 30.9825 4.2366 29.6737L6.37299 25.5544V23.3553C6.37299 20.7485 8.66962 18.8712 10.9769 19.6007L13.0492 20.3194L18.6573 22.2825L23.4855 23.9667C25.0023 24.4924 25.8462 26.2409 25.4083 27.9037L25.4189 27.9144Z" fill="white"/>
<path d="M18.657 22.2826C17.0975 23.6235 15.4524 24.8357 13.7433 25.9299C13.1558 26.3053 12.5042 26.6701 11.8312 26.5628C11.6817 26.5413 11.5322 26.4877 11.4253 26.3804C11.2224 26.1552 11.2544 25.7797 11.3185 25.4579C11.6817 23.6664 12.2585 21.9393 13.0383 20.3195L18.6463 22.2826H18.657Z" fill="#FFC2B0"/>
<path d="M18.6681 14.8483V22.2716L12.8358 22.7651V14.8483H18.6681Z" fill="#FFC2B0"/>
<g style="mix-blend-mode:multiply">
<path d="M18.668 17.4985L12.857 21.9289L12.8357 22.3472V17.0908L18.668 17.4985Z" fill="#FFC2B0"/>
</g>
<path d="M7.98603 12.6708C8.05012 14.3442 8.32785 16.007 9.31059 17.2299C10.3895 18.603 12.1306 19.1501 13.7757 19.193C14.6836 19.2145 15.6236 19.0858 16.4355 18.603C17.963 17.6912 18.668 15.7174 19.0525 13.8508C19.1914 13.1428 19.2982 12.424 19.341 11.7053C19.373 10.89 19.3196 10.064 19.106 9.28092C18.6466 7.58599 17.4609 6.1807 16.0616 5.29032C14.6623 4.41068 13.0493 4.00304 11.4363 3.82067C10.6565 3.72412 9.81264 3.70267 9.10763 4.09958C8.64831 4.35704 8.27444 4.86123 8.16762 5.40833C8.11421 5.60142 8.11421 5.81597 8.14626 6.00906C8.09284 7.53235 8.05012 9.04491 7.99671 10.5682C7.97534 11.2548 7.95398 11.952 7.97534 12.66L7.98603 12.6708Z" fill="#FFC2B0"/>
<circle cx="9.3555" cy="12.3035" r="0.492055" fill="black"/>
<circle cx="12.3079" cy="12.3035" r="0.492055" fill="black"/>
<path d="M12.0023 0.63476C16.4674 -0.802711 22.2357 0.0554805 24.3293 4.7219C25.8675 8.15466 23.7845 15.5351 26.8716 17.981C24.6605 17.9166 22.6522 16.6615 20.9538 15.224C18.732 13.3467 16.8306 11.094 14.1067 10.1392C11.9169 9.36686 8.74432 9.82814 7.49453 7.33938C5.96701 4.2928 9.4707 1.45004 11.981 0.645487L12.0023 0.63476Z" fill="#272722"/>
<path d="M26.669 46.7306C25.4085 46.4302 24.3617 45.4433 24.0519 44.0809L20.3773 27.7431C19.95 25.8551 21.1357 23.9778 23.0157 23.5487C24.8958 23.1196 26.7651 24.3104 27.1924 26.1984L30.867 42.5362C31.2943 44.4242 30.1086 46.3015 28.2285 46.7306C27.6944 46.8486 27.1603 46.8379 26.6583 46.7306H26.669Z" fill="white"/>
<path d="M19.9391 61.5982C18.5932 62.5637 16.7238 62.2418 15.7624 60.8902C14.8011 59.5385 15.1215 57.6612 16.4675 56.6958C26.2094 49.7551 25.0024 45.0887 24.981 45.0565C24.2546 43.5654 24.8742 41.7632 26.359 41.0338C27.8438 40.3043 29.6383 40.9265 30.3647 42.4176C30.8027 43.308 34.1995 51.4394 19.9284 61.6089L19.9391 61.5982Z" fill="#FFC2B0"/>
<path d="M17.7064 14.7949C17.8239 14.8807 17.9521 14.8807 18.0802 14.8378C18.0909 14.7949 18.0802 14.7413 18.1016 14.6984L17.6957 14.7949H17.7064Z" fill="#FFC2B0"/>
<path d="M20.3341 12.124C19.7466 11.9202 19.1591 12.5745 18.9027 13.3362C18.7745 13.7116 18.6891 14.13 18.5075 14.4625C18.4007 14.6449 18.2404 14.7844 18.0802 14.8487C17.9093 15.4387 18.2511 16.1682 18.7211 16.3184C19.2232 16.4793 19.7466 16.1575 20.1525 15.7391C20.5905 15.2886 20.9857 14.6664 21.0712 13.9262C21.1566 13.186 20.8575 12.3171 20.3234 12.1347L20.3341 12.124Z" fill="#FFC2B0"/>
</svg>
