<svg width="121" height="118" viewBox="0 0 121 118" fill="none" xmlns="http://www.w3.org/2000/svg">
<path d="M37.1299 52.5555C31.7251 49.4392 22.9662 49.4392 17.5614 52.5555C12.1566 55.6719 12.1566 60.7241 17.5614 63.8405C22.9662 66.9568 31.7251 66.9568 37.1299 63.8405C42.5347 60.7241 42.5347 55.6719 37.1299 52.5555Z" fill="#D5E8FA"/>
<path d="M28.093 56.8604C30.2914 54.317 32.7592 57.9282 33.9236 59.4213C34.7143 60.4369 37.4775 63.1366 37.1734 64.5429C37.0691 65.0377 37.0083 65.0116 36.5217 65.1505C36.0351 65.2807 35.5137 65.2113 35.0184 65.0984C32.429 64.4734 30.3783 63.0151 29.2052 60.7754C29.1618 61.4005 29.1444 62.0168 29.1531 62.6418C29.1531 62.7807 28.9967 62.8675 28.875 62.7894C28.6317 62.6331 28.3971 62.4682 28.1625 62.2946C27.2936 61.6522 27.6759 60.7494 27.4413 59.7164C27.2154 58.7181 27.4152 57.6504 28.1017 56.8691L28.093 56.8604Z" fill="#C7C40A"/>
<path d="M21.5931 46.3399C24.8864 45.7669 24.5128 50.0986 24.4693 51.9823C24.4346 53.2671 24.8603 57.0779 23.7307 57.972C23.3397 58.2845 23.3049 58.2324 22.8444 58.0241C22.3839 57.8158 22.0276 57.4338 21.7235 57.0345C20.1246 54.9251 19.4642 52.5032 19.9769 50.0378C19.5511 50.4892 19.1427 50.958 18.7604 51.4441C18.6735 51.5483 18.4997 51.5136 18.4563 51.3833C18.3694 51.1056 18.2912 50.8365 18.2216 50.5587C17.961 49.517 18.8299 49.0569 19.2991 48.1194C19.7597 47.2079 20.5852 46.5135 21.6018 46.3399H21.5931Z" fill="#C7C40A"/>
<path d="M68.7153 81.9304C68.7153 81.0363 69.341 79.9599 70.1143 79.5172C70.8877 79.0745 71.5133 79.4304 71.5133 80.3245C71.5133 81.2186 70.8877 82.295 70.1143 82.7377C69.341 83.1804 68.7153 82.8245 68.7153 81.9304Z" fill="#D7CE2F"/>
<path d="M68.7153 81.9304C68.7153 81.0363 69.341 79.9599 70.1143 79.5172C70.8877 79.0745 71.5133 79.4304 71.5133 80.3245C71.5133 81.2186 70.8877 82.295 70.1143 82.7377C69.341 83.1804 68.7153 82.8245 68.7153 81.9304Z" fill="#D7CE2F"/>
<path d="M71.1401 79.4392L72.3479 80.0642L70.4536 83.5105L69.0459 82.7726L69.4022 80.8368L71.1401 79.4392Z" fill="#D7CE2F"/>
<path d="M69.9062 82.5473C69.9062 81.6531 70.5319 80.5767 71.3052 80.1253C72.0786 79.6826 72.7042 80.0385 72.7042 80.9326C72.7042 81.8268 72.0786 82.9032 71.3052 83.3459C70.5319 83.7886 69.9062 83.4327 69.9062 82.5386V82.5473Z" fill="#EFE88D"/>
<path d="M69.9062 82.5473C69.9062 81.6531 70.5319 80.5767 71.3052 80.1253C72.0786 79.6826 72.7042 80.0385 72.7042 80.9326C72.7042 81.8268 72.0786 82.9032 71.3052 83.3459C70.5319 83.7886 69.9062 83.4327 69.9062 82.5386V82.5473Z" fill="#EFE88D"/>
<path d="M85.521 72.5464C85.521 71.6523 86.1466 70.5759 86.92 70.1331C87.6933 69.6904 88.319 70.0463 88.319 70.9405C88.319 71.8346 87.6933 72.911 86.92 73.3537C86.1466 73.7964 85.521 73.4405 85.521 72.5464Z" fill="#D7CE2F"/>
<path d="M85.521 72.5464C85.521 71.6523 86.1466 70.5759 86.92 70.1331C87.6933 69.6904 88.319 70.0463 88.319 70.9405C88.319 71.8346 87.6933 72.911 86.92 73.3537C86.1466 73.7964 85.521 73.4405 85.521 72.5464Z" fill="#D7CE2F"/>
<path d="M87.9452 70.0637L89.1443 70.6887L87.2587 74.1263L85.8423 73.3971L86.2073 71.4526L87.9452 70.0637Z" fill="#D7CE2F"/>
<path d="M86.7026 73.1631C86.7026 72.269 87.3283 71.1926 88.1016 70.7498C88.875 70.3071 89.5006 70.663 89.5006 71.5571C89.5006 72.4513 88.875 73.5277 88.1016 73.9704C87.3283 74.4131 86.7026 74.0572 86.7026 73.1631Z" fill="#EFE88D"/>
<path d="M86.7026 73.1631C86.7026 72.269 87.3283 71.1926 88.1016 70.7498C88.875 70.3071 89.5006 70.663 89.5006 71.5571C89.5006 72.4513 88.875 73.5277 88.1016 73.9704C87.3283 74.4131 86.7026 74.0572 86.7026 73.1631Z" fill="#EFE88D"/>
<path d="M84.7302 82.3476C84.7302 81.4535 85.3559 80.3771 86.1292 79.9344C86.9026 79.4917 87.5282 79.8476 87.5282 80.7417C87.5282 81.6358 86.9026 82.7122 86.1292 83.1549C85.3559 83.5977 84.7302 83.2418 84.7302 82.3476Z" fill="#D7CE2F"/>
<path d="M84.7302 82.3476C84.7302 81.4535 85.3559 80.3771 86.1292 79.9344C86.9026 79.4917 87.5282 79.8476 87.5282 80.7417C87.5282 81.6358 86.9026 82.7122 86.1292 83.1549C85.3559 83.5977 84.7302 83.2418 84.7302 82.3476Z" fill="#D7CE2F"/>
<path d="M87.1542 79.8564L88.3621 80.4815L86.4678 83.9277L85.0601 83.1898L85.4164 81.254L87.1542 79.8564Z" fill="#D7CE2F"/>
<path d="M85.9204 82.9631C85.9204 82.069 86.546 80.9926 87.3194 80.5499C88.0928 80.1072 88.7184 80.4631 88.7184 81.3572C88.7184 82.2513 88.0928 83.3277 87.3194 83.7704C86.546 84.2132 85.9204 83.8572 85.9204 82.9631Z" fill="#EFE88D"/>
<path d="M85.9204 82.9631C85.9204 82.069 86.546 80.9926 87.3194 80.5499C88.0928 80.1072 88.7184 80.4631 88.7184 81.3572C88.7184 82.2513 88.0928 83.3277 87.3194 83.7704C86.546 84.2132 85.9204 83.8572 85.9204 82.9631Z" fill="#EFE88D"/>
<path d="M68.4199 72.8933C68.4199 71.9992 69.0456 70.9228 69.8189 70.4801C70.5923 70.0373 71.2179 70.3933 71.2179 71.2874C71.2179 72.1815 70.5923 73.2579 69.8189 73.7006C69.0456 74.1433 68.4199 73.7874 68.4199 72.8933Z" fill="#D7CE2F"/>
<path d="M68.4199 72.8933C68.4199 71.9992 69.0456 70.9228 69.8189 70.4801C70.5923 70.0373 71.2179 70.3933 71.2179 71.2874C71.2179 72.1815 70.5923 73.2579 69.8189 73.7006C69.0456 74.1433 68.4199 73.7874 68.4199 72.8933Z" fill="#D7CE2F"/>
<path d="M70.8447 70.4106L72.0438 71.0357L70.1582 74.4732L68.7505 73.744L69.1068 71.8082L70.8447 70.4106Z" fill="#D7CE2F"/>
<path d="M69.6108 73.51C69.6108 72.6159 70.2365 71.5395 71.0098 71.0968C71.7832 70.654 72.4088 71.01 72.4088 71.9041C72.4088 72.7982 71.7832 73.8746 71.0098 74.3173C70.2365 74.76 69.6108 74.4041 69.6108 73.51Z" fill="#EFE88D"/>
<path d="M69.6108 73.51C69.6108 72.6159 70.2365 71.5395 71.0098 71.0968C71.7832 70.654 72.4088 71.01 72.4088 71.9041C72.4088 72.7982 71.7832 73.8746 71.0098 74.3173C70.2365 74.76 69.6108 74.4041 69.6108 73.51Z" fill="#EFE88D"/>
<path d="M88.6052 78.4847L82.4183 74.9169L88.6052 71.3491C89.6218 70.7675 89.6218 69.8039 88.6052 69.2223C87.5885 68.6407 85.9289 68.6407 84.9122 69.2223L78.7341 72.7901L72.5472 69.2223C71.5306 68.6407 69.8709 68.6407 68.8542 69.2223C67.8376 69.8039 67.8376 70.7675 68.8542 71.3491L75.0411 74.9169L68.8542 78.4847C67.8376 79.0663 67.8376 80.0298 68.8542 80.6114C69.8709 81.193 71.5306 81.193 72.5472 80.6114L78.7341 77.0437L84.9122 80.6114C85.9289 81.193 87.5885 81.193 88.6052 80.6114C89.6218 80.0298 89.6218 79.0663 88.6052 78.4847Z" fill="#FCFBEF"/>
<path d="M88.6052 78.4847L82.4183 74.9169L88.6052 71.3491C89.6218 70.7675 89.6218 69.8039 88.6052 69.2223C87.5885 68.6407 85.9289 68.6407 84.9122 69.2223L78.7341 72.7901L72.5472 69.2223C71.5306 68.6407 69.8709 68.6407 68.8542 69.2223C67.8376 69.8039 67.8376 70.7675 68.8542 71.3491L75.0411 74.9169L68.8542 78.4847C67.8376 79.0663 67.8376 80.0298 68.8542 80.6114C69.8709 81.193 71.5306 81.193 72.5472 80.6114L78.7341 77.0437L84.9122 80.6114C85.9289 81.193 87.5885 81.193 88.6052 80.6114C89.6218 80.0298 89.6218 79.0663 88.6052 78.4847Z" fill="#FCFBEF"/>
<path d="M75.6236 74.8131C75.6236 75.9676 77.0139 76.9051 78.7344 76.9051C80.4549 76.9051 81.8452 75.9676 81.8452 74.8131C81.8452 73.6585 80.4549 71.7488 78.7344 71.7488C77.0139 71.7488 75.6236 73.6585 75.6236 74.8131Z" fill="#D1C217"/>
<path d="M76.4493 73.2752C76.4493 74.126 77.4746 74.8117 78.7346 74.8117C79.9946 74.8117 81.0199 74.126 81.0199 73.2752C81.0199 72.4245 79.9946 71.7388 78.7346 71.7388C77.4746 71.7388 76.4493 72.4245 76.4493 73.2752Z" fill="#FCFBEF"/>
<path d="M78.7341 56.8257C77.9607 56.8257 77.3351 57.4594 77.3351 58.2406V71.8607C77.3351 72.6419 77.9607 73.2756 78.7341 73.2756C79.5074 73.2756 80.1331 72.6419 80.1331 71.8607V58.2406C80.1331 57.4594 79.5074 56.8257 78.7341 56.8257Z" fill="#D1C217"/>
<path d="M56.7762 55.3504L82.9573 70.5243C84.0261 71.1406 85.3382 71.1233 86.3896 70.4809L106.818 57.8939L79.3252 41.5481L56.7762 55.3504Z" fill="#5089DD"/>
<path d="M88.6057 21.6172L107.053 31.8951C108.939 32.8674 110.008 34.7163 109.799 36.6261L106.819 57.8852C106.619 59.6908 105.428 61.2967 103.621 62.1821L85.8511 70.9149C84.6433 71.5052 83.1661 70.7153 83.2182 69.5V69.3958C83.3138 67.2603 84.4869 65.2724 86.4159 63.9703L96.6955 57.0518C97.4949 56.5136 97.4427 55.3157 96.5912 54.8469L78.1523 44.187C77.7352 43.9613 76.8316 44.378 76.4405 44.6384L58.0364 55.333C57.3587 55.7758 56.4463 55.333 56.3594 54.5344L56.0292 51.366C55.8815 49.951 56.9676 48.9788 58.1755 48.2322L74.19 38.8136L80.6201 23.9089C81.9583 21.1918 85.6947 20.1241 88.5883 21.6172H88.6057Z" fill="#FEF4A7"/>
<path d="M80.5594 18.3361C82.6014 18.5358 84.0699 20.7494 83.8179 23.2668L82.2278 39.5344L82.193 39.5865C81.2024 40.8973 80.1249 41.4268 78.6738 41.2879C78.4566 41.2706 78.222 41.2272 77.9874 41.1751C77.0663 40.9754 75.928 40.3764 74.8418 39.5257L74.7462 39.4476L76.3972 22.5376C76.6405 20.0202 78.5087 18.1278 80.5507 18.3274L80.5594 18.3361Z" fill="#D1C217"/>
<path d="M63.8058 88.6319C64.4835 88.6145 65.0831 89.1614 65.3438 89.7864C65.6132 90.4114 65.6132 91.1146 65.6132 91.8004C65.6132 92.3993 65.5871 93.0591 65.1613 93.4844C64.8833 93.7535 64.5009 93.8664 64.1273 93.9619C63.4234 94.1528 62.7196 94.3438 61.9984 94.4046C61.1816 94.474 60.3474 94.3785 59.5393 94.5001C59.0179 94.5782 58.5226 94.7431 58.01 94.8647C56.5675 95.2032 55.0469 95.1598 53.6218 94.7518C53.309 94.6563 52.9788 94.5348 52.7703 94.2831C52.4227 93.8577 52.5443 93.198 52.8919 92.7726C53.2395 92.3472 53.7522 92.1042 54.2475 91.8785C55.742 91.1927 57.2366 90.5069 58.7312 89.8212C60.1997 89.1441 61.7203 88.467 63.3279 88.4236C63.8405 88.4149 64.527 88.6493 64.4748 89.1614L63.7884 88.6319H63.8058Z" fill="#D7CE2F"/>
<path d="M62.2534 84.531L62.1062 84.5429C61.1188 84.6228 60.3786 85.4927 60.4586 86.479L60.7034 89.4987C60.7833 90.4851 61.654 91.2246 62.6414 91.1447L62.7886 91.1328C63.776 91.0529 64.5162 90.1831 64.4363 89.1967L64.1915 86.177C64.1115 85.1907 63.2408 84.4512 62.2534 84.531Z" fill="#FEFADC"/>
<path d="M69.2718 96.7838C68.985 97.3047 68.6983 97.8168 68.4202 98.329C68.1422 98.8498 67.8554 99.3793 67.6556 99.9436C67.3514 100.768 66.7866 102.383 67.4991 103.138C68.5766 104.267 70.3319 103.303 71.2095 102.504C72.5129 101.315 73.7207 100.022 74.833 98.6502C75.3109 98.0599 75.7801 97.4262 75.9192 96.6883C76.371 94.414 75.0328 91.1934 72.2349 91.9487C71.2182 92.2264 70.775 92.9383 70.5404 93.8671C70.2711 94.9001 69.7931 95.855 69.2805 96.7925L69.2718 96.7838Z" fill="#D7CE2F"/>
<path d="M72.921 89.0571H72.7733C71.7827 89.0571 70.9746 89.8644 70.9746 90.854V93.8836C70.9746 94.8732 71.7827 95.6805 72.7733 95.6805H72.921C73.9116 95.6805 74.7197 94.8732 74.7197 93.8836V90.854C74.7197 89.8644 73.9116 89.0571 72.921 89.0571Z" fill="#FEFADC"/>
<path d="M64.762 86.3584C64.8228 87.6778 63.7193 88.7542 62.3985 88.6588L61.3036 88.5806C60.2783 88.5025 59.4354 87.7212 59.2877 86.7056L56.985 70.9241C59.3398 71.063 61.6947 71.2105 64.0408 71.3581L64.762 86.3671V86.3584Z" fill="#715154"/>
<path d="M75.8059 91.0544C75.8059 92.3045 74.7892 93.3114 73.5466 93.3114H71.9912C70.8182 93.3114 69.8363 92.4086 69.7407 91.2367L68.0897 71.5923C70.6618 71.7485 73.2338 71.8874 75.8146 72.009V91.0544H75.8059Z" fill="#715154"/>
<path d="M77.6047 44.1874C77.3267 45.0207 77.2658 45.8801 77.3962 46.6961C77.6569 48.3888 78.7257 49.934 80.368 50.7413C81.2803 51.1927 82.1667 51.6181 82.8618 51.9566C83.5656 52.2951 84.0609 52.5295 84.1826 52.6077C85.9726 53.7101 89.1442 55.0209 92.1942 55.6285C92.2116 55.6285 92.2116 55.6285 92.229 55.6285C95.0443 56.1928 97.7554 56.1581 99.2065 54.8299C101.892 52.3646 102.004 36.6872 101.249 31.4267C100.736 27.8937 100.015 24.9683 98.5722 22.6158C98.3376 22.2338 98.0856 21.8779 97.8249 21.5307C96.8951 20.3067 95.7047 19.2564 94.1754 18.3709C94.158 18.3709 94.158 18.3709 94.1493 18.3536C94.1059 18.3275 94.0537 18.2928 94.0103 18.2754C93.1413 17.7806 92.1681 17.3379 91.0646 16.9386C90.2825 16.6522 89.4397 16.3917 88.5273 16.1573C88.0754 16.0358 87.6149 15.923 87.1457 15.8275C86.8676 15.758 86.5809 15.706 86.2854 15.6452C86.2072 15.6278 86.129 15.6191 86.0508 15.6018C85.8683 15.5671 85.6772 15.5323 85.486 15.4976C84.9473 15.3934 84.4259 15.3848 83.9393 15.3848C83.6525 15.3848 83.3745 15.4021 83.1138 15.4195C83.1138 15.4195 83.0964 15.4195 83.0877 15.4195C82.9139 15.4369 82.7315 15.4629 82.5664 15.4976C82.4186 15.515 82.2709 15.5497 82.1232 15.5931C81.7669 15.6799 81.4367 15.8101 81.15 15.9751C80.4809 16.3657 79.9161 16.7824 79.4469 17.2338C78.0913 18.4925 77.4918 19.9682 77.3527 21.5481C77.2658 22.5203 77.3527 23.5273 77.5526 24.569V24.5256C77.57 24.6644 77.596 24.7947 77.6221 24.9162C77.848 25.9579 78.1782 27.0343 78.5432 28.102C79.1949 30.0378 79.4643 32.1038 79.4469 34.2219C79.4295 35.4199 79.3339 36.6438 79.1514 37.8591C79.1341 37.9633 79.1167 38.0675 79.108 38.1716C78.9081 39.4303 78.6214 40.6977 78.2825 41.9304C78.0826 42.6943 77.848 43.4408 77.6047 44.1787V44.1874Z" fill="#FEFADC"/>
<path d="M94.1404 18.3616L91.9941 20.3668C92.2895 19.3772 93.0542 18.6741 93.9927 18.2834C94.0448 18.3095 94.0882 18.3355 94.1317 18.3703L94.1404 18.3616Z" fill="#FEFADC"/>
<path d="M94.0017 47.0432C93.7671 44.9251 92.6114 42.807 93.237 40.7757C93.4369 40.116 93.8192 39.517 94.1059 38.892C95.5744 35.6541 94.4622 31.904 93.5498 28.4665C93.4021 27.8935 93.2544 27.3033 93.1327 26.7043C92.6461 24.3084 94.2971 21.9993 96.7214 21.6868C96.7388 21.6868 96.7562 21.6868 96.7736 21.6868C97.434 21.6 98.103 21.8952 98.4593 22.4594C98.4941 22.5115 98.5288 22.5723 98.5636 22.6244C100.006 24.9855 100.727 27.8935 101.24 31.4353C101.996 36.6958 101.874 52.3732 99.1979 54.8385C97.7555 56.1666 95.0357 56.2014 92.2117 55.6371C92.8894 52.7638 94.3232 49.9773 94.0017 47.0432Z" fill="#D1C217"/>
<path d="M91.7424 20.3669C90.578 21.669 88.8922 23.5614 87.8756 24.6986C87.4324 25.1934 86.6417 25.15 86.2594 24.6118L84.0088 21.4954L80.7764 22.0683C80.3853 22.1378 80.0204 21.8339 80.0204 21.4346V20.4363C80.0204 18.2228 81.5671 16.3043 83.7307 15.8442C84.4433 15.688 85.1993 15.6099 85.99 15.6099C88.1189 15.6099 90.0479 16.2088 91.4035 17.1811C92.4462 17.9189 92.5852 19.4207 91.7337 20.3756L91.7424 20.3669Z" fill="#D1C217"/>
<path d="M89.1357 18.0229C89.1357 18.5351 88.9098 19.0038 88.5188 19.3858C87.9105 19.9934 86.9113 20.3841 85.773 20.3841C84.6346 20.3841 83.6875 20.0108 83.0792 19.4292C82.6622 19.0386 82.4189 18.5524 82.4189 18.0229C82.4189 17.4934 82.6622 17.0073 83.0792 16.6166C83.1227 16.5819 83.1661 16.5385 83.2096 16.5038H83.2183C83.6875 16.1045 84.3392 15.8267 85.0778 15.7138C85.1908 15.6965 85.3037 15.6791 85.4254 15.6704C85.5383 15.6618 85.66 15.6531 85.773 15.6531C86.9113 15.6531 87.9105 16.0437 88.5188 16.66C88.9011 17.042 89.1357 17.5107 89.1357 18.0142V18.0229Z" fill="#D7CE2F"/>
<path d="M88.5184 10.8612V19.377C87.9102 19.9846 86.9109 20.3753 85.7726 20.3753C84.6343 20.3753 83.6871 20.002 83.0789 19.4204V10.8525H88.5184V10.8612Z" fill="#FFC2B0"/>
<g style="mix-blend-mode:multiply" opacity="0.71">
<path d="M83.2965 19.1523L84.3218 18.727C85.938 18.0586 87.0937 16.6176 87.3979 14.8988L87.7715 12.746L88.2407 12.0515L87.8236 12.0776L85.7034 12.1991C84.8084 13.1106 83.8526 13.9873 83.0879 14.9769L83.2965 19.161V19.1523Z" fill="#D49A8A"/>
</g>
<path d="M75.6845 6.53017C75.6671 6.71247 75.7019 6.88608 75.7627 7.0597C75.8235 7.45033 75.8757 7.8236 75.9278 8.21423C76.0668 9.16043 76.2059 10.124 76.3362 11.0875C76.3883 11.4695 76.4492 11.8515 76.51 12.2334C76.5534 12.4678 76.5882 12.6848 76.6403 12.9192C76.6577 13.0147 76.6838 13.1015 76.7098 13.197C76.8141 13.6484 76.9445 14.0824 77.1095 14.4904C77.4397 15.3411 77.9263 16.1224 78.6476 16.6866C78.9082 16.9036 79.1776 17.0859 79.4383 17.2422C79.8988 17.5113 80.3594 17.7023 80.8199 17.8151C81.2544 17.928 81.6888 17.9714 82.1146 17.954C82.2189 17.954 82.3232 17.954 82.4274 17.9366C82.4709 17.9366 82.523 17.9366 82.5665 17.9193C82.6099 17.9193 82.6621 17.9019 82.7055 17.9019C82.8358 17.8845 82.9488 17.8585 83.0705 17.8325C83.1139 17.8151 83.1747 17.8064 83.2182 17.7891C83.2529 17.7891 83.2877 17.7717 83.3224 17.763C83.8525 17.6154 84.3478 17.3724 84.7996 17.0599C85.0256 16.9123 85.2428 16.7387 85.4513 16.5564C85.7381 16.296 85.9988 16.0095 86.2334 15.6883C86.2508 15.671 86.2595 15.6623 86.2681 15.6449C86.2855 15.6276 86.2855 15.6189 86.2942 15.6015C86.7895 14.9157 87.1632 14.1258 87.363 13.2751C87.4499 12.8758 87.5107 12.4851 87.5368 12.0772V12.0337C87.5368 11.9209 87.5802 11.7994 87.6584 11.6865C87.7106 11.6084 87.7888 11.5129 87.867 11.4261C87.867 11.4261 87.867 11.4087 87.8844 11.4087C87.8844 11.4087 87.8902 11.4087 87.9018 11.4087C87.9018 11.4087 87.9278 11.3914 87.9365 11.374C88.0234 11.2698 88.1364 11.1744 88.2319 11.0789L88.2493 11.0615C88.3188 11.0007 88.3884 10.94 88.4492 10.8705C88.7012 10.6275 88.8923 10.3757 88.8663 10.124C88.762 9.40349 87.2066 8.67431 86.8677 8.02326C86.1552 6.61698 84.7996 5.58398 83.3051 5.05446C81.8105 4.52493 80.1856 4.44681 78.6041 4.55966C77.8221 4.60306 77.0053 4.74195 76.397 5.21939C75.9886 5.52321 75.7106 6.02669 75.6932 6.53017H75.6845Z" fill="#FFC2B0"/>
<path d="M89.5008 4.69853C89.1359 3.28358 88.432 2.17244 87.4588 1.39118C86.5725 0.679361 85.4602 0.236646 84.1655 0.0803931C83.3574 -0.0150948 82.5319 -0.0584986 81.7499 0.141158C80.6376 0.418941 79.7079 1.13944 78.6738 1.64292C77.6137 2.15508 76.4494 2.43287 75.4327 3.02315C74.4161 3.61344 73.5384 4.66381 73.6253 5.82702C73.7122 7.03364 74.8331 7.96248 76.0149 8.24026C77.1967 8.51804 78.4219 8.28366 79.6123 8.05797C80.4204 7.90171 82.0453 7.25934 82.8447 7.5024C84.0613 7.88435 83.9483 9.63786 84.6434 10.4452C84.852 10.6882 85.1909 10.8271 85.495 10.749C86.2162 10.5667 86.2944 9.49028 86.9374 9.11701C87.3893 8.85659 88.0149 9.05625 88.3017 9.49028C88.5884 9.92432 88.5624 10.5146 88.3277 10.9747C88.0758 11.4608 87.4414 11.6257 87.2068 12.0251C87.0156 12.3549 87.1894 12.8237 87.3719 13.2577C87.5283 13.6397 87.8498 13.9869 88.2669 14.0477C91.3343 14.5251 89.8571 6.05272 89.5095 4.70721L89.5008 4.69853Z" fill="#323537"/>
<path d="M14.0944 59.3525L47.9917 78.0681L67.5167 67.1739L14.0944 59.3525Z" fill="#EFE88D"/>
<path d="M74.6241 117.756C74.1028 118.06 73.2599 118.06 72.7385 117.756C72.2172 117.452 72.2172 116.966 72.7385 116.671C73.2599 116.367 74.1028 116.367 74.6241 116.671C75.1455 116.975 75.1455 117.461 74.6241 117.756Z" fill="#D1C217"/>
<path d="M75.0156 92.1999V116.983C75.0156 116.983 75.0156 117.044 74.9982 117.079C74.9634 117.148 74.8852 117.192 74.807 117.192H72.5652C72.4783 117.192 72.4088 117.14 72.374 117.079C72.3653 117.044 72.3566 117.018 72.3566 116.983V92.1999C72.3566 92.0871 72.4522 91.9829 72.5739 91.9829H74.8157C74.9287 91.9829 75.033 92.0784 75.033 92.1999H75.0156Z" fill="#D1C217"/>
<g style="mix-blend-mode:multiply" opacity="0.63">
<path d="M75.0154 96.445C75.0154 96.445 75.0154 96.5058 74.9893 96.5405C75.0067 96.5926 75.0154 96.636 75.0154 96.6794C75.0154 96.8791 74.885 97.0701 74.6243 97.2263C74.103 97.5301 73.2601 97.5301 72.7387 97.2263C72.4781 97.0787 72.3477 96.8791 72.3477 96.6794C72.3477 96.6273 72.3477 96.5839 72.3738 96.5405C72.3564 96.5145 72.3477 96.4798 72.3477 96.445V92.2002C72.3477 92.0873 72.4433 91.9832 72.565 91.9832H74.8068C74.9198 91.9832 75.024 92.0786 75.024 92.2002V96.445H75.0154Z" fill="#D1C217"/>
</g>
<path d="M3.55368 78.3803C3.03232 78.6842 2.18945 78.6842 1.66809 78.3803C1.14673 78.0765 1.14673 77.5904 1.66809 77.2953C2.18945 76.9914 3.03232 76.9914 3.55368 77.2953C4.07504 77.5991 4.07504 78.0852 3.55368 78.3803Z" fill="#D1C217"/>
<path d="M3.94514 52.8159V77.5993C3.94514 77.5993 3.94515 77.6601 3.92777 77.6948C3.89302 77.7643 3.81481 77.8077 3.73661 77.8077H1.49475C1.40785 77.8077 1.33834 77.7556 1.30358 77.6948C1.29489 77.6601 1.2862 77.6341 1.2862 77.5993V52.8159C1.2862 52.703 1.38178 52.5989 1.50343 52.5989H3.74529C3.85825 52.5989 3.96252 52.6944 3.96252 52.8159H3.94514Z" fill="#D1C217"/>
<g style="mix-blend-mode:multiply" opacity="0.63">
<path d="M3.94528 57.0605C3.94528 57.0605 3.94528 57.1213 3.91921 57.156C3.93659 57.2081 3.94528 57.2515 3.94528 57.2949C3.94528 57.4946 3.81494 57.6855 3.55426 57.8418C3.0329 58.1456 2.19003 58.1456 1.66867 57.8418C1.40799 57.6942 1.27765 57.4946 1.27765 57.2949C1.27765 57.2428 1.27765 57.1994 1.30372 57.156C1.28634 57.13 1.27765 57.0952 1.27765 57.0605V52.8157C1.27765 52.7028 1.37323 52.5986 1.49488 52.5986H3.73675C3.84971 52.5986 3.95398 52.6941 3.95398 52.8157V57.0605H3.94528Z" fill="#D1C217"/>
</g>
<path d="M117.793 92.5468C117.272 92.8506 116.429 92.8506 115.908 92.5468C115.386 92.2429 115.386 91.7568 115.908 91.4617C116.429 91.1665 117.272 91.1579 117.793 91.4617C118.315 91.7655 118.315 92.2516 117.793 92.5468Z" fill="#D1C217"/>
<path d="M118.184 66.9819V91.7653C118.184 91.7653 118.184 91.8261 118.167 91.8608C118.132 91.9303 118.054 91.9737 117.976 91.9737H115.734C115.647 91.9737 115.577 91.9216 115.543 91.8608C115.534 91.8261 115.525 91.8001 115.525 91.7653V66.9819C115.525 66.8691 115.621 66.7649 115.742 66.7649H117.984C118.097 66.7649 118.202 66.8604 118.202 66.9819H118.184Z" fill="#D1C217"/>
<g style="mix-blend-mode:multiply" opacity="0.63">
<path d="M118.184 71.2265C118.184 71.2265 118.184 71.2873 118.158 71.322C118.175 71.3741 118.184 71.4175 118.184 71.4609C118.184 71.6606 118.054 71.8515 117.793 72.0078C117.272 72.3116 116.429 72.3116 115.907 72.0078C115.647 71.8602 115.516 71.6606 115.516 71.4609C115.516 71.4088 115.516 71.3654 115.542 71.322C115.525 71.296 115.516 71.2612 115.516 71.2265V66.9817C115.516 66.8688 115.612 66.7646 115.734 66.7646H117.976C118.088 66.7646 118.193 66.8601 118.193 66.9817V71.2265H118.184Z" fill="#D1C217"/>
</g>
<path d="M0.156367 47.9104L-3.52859e-05 53.3619L8.07239 56.1484L7.664 53.249L0.156367 47.9104Z" fill="#D1C217"/>
<path d="M120.999 66.245V63.3369L112.214 68.9794L112.805 70.5419L120.999 66.245Z" fill="#D1C217"/>
<path d="M1.21651 50.9498L42.3607 26.9216C45.2369 25.2375 48.7908 25.2201 51.6844 26.8782L119.618 65.6375C121.26 66.5751 121.269 68.9449 119.627 69.8911L77.8134 94.0148C74.9285 95.6815 71.3745 95.6815 68.4897 94.0148L1.23389 55.1946C-0.399712 54.2571 -0.399704 51.9047 1.2252 50.9498H1.21651Z" fill="#D1C217"/>
<path d="M1.36423 46.4879L42.5084 22.4597C45.3846 20.7756 48.9385 20.7582 51.8321 22.4162L119.766 61.1669C121.408 62.1045 121.417 64.4743 119.774 65.4205L77.9611 89.5442C75.0762 91.2109 71.5222 91.2109 68.6374 89.5442L1.3816 50.724C-0.252007 49.7865 -0.251999 47.4341 1.37291 46.4792L1.36423 46.4879Z" fill="#FCFBEF"/>
<path d="M77.5613 55.619L56.672 43.5702C55.7249 43.0233 55.7249 42.1379 56.672 41.591L64.8835 36.8513C65.8306 36.3044 67.3687 36.3044 68.3158 36.8513L89.205 48.9002C90.1522 49.447 90.1522 50.3325 89.205 50.8794L80.9936 55.619C80.0464 56.1659 78.5084 56.1659 77.5613 55.619Z" fill="#EFE88D"/>
<path d="M55.9592 41.0791V43.0583L79.2814 56.036L89.9172 49.8987V48.3883L55.9592 41.0791Z" fill="#EFE88D"/>
<path d="M77.5613 54.1173L56.672 42.0685C55.7249 41.5216 55.7249 40.6362 56.672 40.0893L64.8835 35.3496C65.8306 34.8027 67.3687 34.8027 68.3158 35.3496L89.205 47.3984C90.1522 47.9453 90.1522 48.8308 89.205 49.3776L80.9936 54.1173C80.0464 54.6642 78.5084 54.6642 77.5613 54.1173Z" fill="#E8F313"/>
<path d="M82.0278 51.1659L61.7902 39.4991L63.5715 38.4661L83.8091 50.1416L82.0278 51.1659Z" fill="#E8F313"/>
<path d="M78.9777 52.9284L58.7402 41.2528L60.5215 40.2285L80.759 51.9041L78.9777 52.9284Z" fill="#E8F313"/>
<path d="M62.1896 39.4998L82.0275 50.9323L83.4004 50.1423L63.5712 38.7012L62.1896 39.4998Z" fill="white"/>
<path d="M59.1396 41.2524L78.9774 52.6935L80.3503 51.9036L60.5212 40.4624L59.1396 41.2524Z" fill="white"/>
<path d="M65.1617 37.4945L84.9908 48.9357L86.3724 48.1458L66.5346 36.7046L65.1617 37.4945Z" fill="white"/>
<path d="M46.5229 66.4006L38.5809 61.8171C38.1377 61.5654 38.1377 60.9317 38.5809 60.68L47.5917 55.4802C47.948 55.2719 48.3825 55.2719 48.7387 55.4802L55.9509 59.6383C56.7156 60.081 56.7156 61.1835 55.9509 61.6175L47.6699 66.3919C47.3137 66.6002 46.8792 66.6002 46.5229 66.3919V66.4006Z" fill="#EFE88D"/>
<path d="M38.2594 59.5955V61.3403L46.2623 65.3421L53.6135 62.3125L56.5071 60.4722V58.8923L47.2529 59.283L41.5874 60.941L38.2594 59.5955Z" fill="#EFE88D"/>
<path d="M46.2274 64.569L38.5894 60.1592C38.1462 59.9074 38.1462 59.2738 38.5894 59.022L47.6003 53.8223C47.9565 53.6139 48.391 53.6139 48.7473 53.8223L55.9595 57.9803C56.7241 58.423 56.7241 59.5255 55.9595 59.9595L47.9826 64.5603C47.4439 64.8728 46.7748 64.8728 46.236 64.5603L46.2274 64.569Z" fill="#E8F313"/>
<path d="M99.5452 26.5302V43.5878C99.5452 45.8448 98.459 47.9976 96.6342 49.3344L84.0868 52.0689C83.5306 52.4769 82.8789 52.6765 82.2359 52.6765C81.2714 52.6765 80.3156 52.2338 79.6986 51.3918C78.6733 49.9942 78.9774 48.0323 80.3764 47.008L92.9152 44.2736C93.1324 44.1087 93.2627 43.8569 93.2627 43.5878V26.5302C93.2627 24.7941 94.6704 23.3965 96.3996 23.3965C98.1288 23.3965 99.5365 24.8028 99.5365 26.5302H99.5452Z" fill="#FFC2B0"/>
<path d="M96.9301 21.5476C98.9808 21.5476 100.658 23.6049 100.658 26.1397V42.4855L100.623 42.5376C99.7628 43.9352 98.7375 44.5689 97.2864 44.5689C97.0691 44.5689 96.8345 44.5515 96.5912 44.5255C95.6614 44.4126 94.4623 43.9265 93.3066 43.1886L93.2024 43.1279V26.1397C93.2024 23.6049 94.8707 21.5476 96.9301 21.5476Z" fill="#D1C217"/>
<path d="M79.9943 54.5514C80.5417 54.5514 80.9935 54.1 80.9935 53.5531V49.395C80.9935 48.8481 80.5417 48.3967 79.9943 48.3967C79.4468 48.3967 78.995 48.8481 78.995 49.395V53.5531C78.995 54.1 79.4468 54.5514 79.9943 54.5514Z" fill="#FFC2B0"/>
<path d="M61.7553 37.6683C61.9117 36.9478 62.3201 36.3054 62.9545 35.8367L74.7981 33.2498L75.5019 33.1022C75.5019 33.1022 75.5367 33.0762 75.5454 33.0588C76.5968 33.6838 77.6743 34.0918 78.5171 34.196C78.7517 34.2221 78.9864 34.2394 79.2123 34.2394C79.2905 34.2394 79.3774 34.2394 79.4469 34.2394C79.4295 35.4374 79.3339 36.6613 79.1515 37.8766C79.1341 37.9808 79.1167 38.085 79.108 38.1891L74.5722 39.1787L73.7554 39.3524L66.6648 40.8888C66.1087 41.2968 65.4657 41.4965 64.814 41.4965C64.3882 41.4965 63.9624 41.4097 63.5714 41.2361C63.0761 41.0277 62.6243 40.6892 62.2767 40.2204C61.7119 39.4565 61.5468 38.5277 61.7553 37.6683Z" fill="#FFC2B0"/>
<path d="M62.5632 43.3885C63.1107 43.3885 63.5625 42.9371 63.5625 42.3902V38.2322C63.5625 37.6853 63.1107 37.2339 62.5632 37.2339C62.0158 37.2339 61.5639 37.6853 61.5639 38.2322V42.3902C61.5639 42.9371 62.0158 43.3885 62.5632 43.3885Z" fill="#D49A8A"/>
<path d="M66.7867 40.723V64.6036C66.7867 65.2633 66.5174 65.7061 66.109 65.8449L64.7274 66.7911C64.6405 66.8519 64.5275 66.8432 64.458 66.7825C64.4059 66.7477 64.3624 66.6783 64.3624 66.6002V65.2981L56.0641 60.5063L35.6614 48.7353C34.6621 48.1623 33.8453 46.7474 33.8453 45.5929V22.7105L32.3855 21.6862C32.3855 21.6862 32.4376 21.6601 32.4637 21.6428L33.7411 20.931C34.3754 20.4188 34.9315 20.2452 35.6614 20.6619L64.9707 37.5719C65.6832 37.9799 66.3001 38.8132 66.5956 39.6813C66.7172 40.0285 66.7867 40.3931 66.7867 40.723Z" fill="#D1C217"/>
<path d="M66.7867 40.7237V64.6043C66.7867 65.2641 66.5174 65.7068 66.109 65.8457L64.7273 66.7919C64.6404 66.8526 64.5275 66.844 64.458 66.7832C64.1278 67.1131 63.589 67.1478 62.9895 66.8006L55.6469 62.5644L56.064 60.507L59.618 43.0415L64.5622 40.6629L66.6042 39.6733C66.7259 40.0206 66.7954 40.3852 66.7954 40.715L66.7867 40.7237Z" fill="#D1C217"/>
<path d="M64.805 41.8696V65.7502C64.805 66.2103 64.6747 66.5662 64.4575 66.7832C64.1273 67.1131 63.5885 67.1478 62.989 66.8006L55.6464 62.5644L33.6797 49.8906C32.6804 49.3176 31.8636 47.9027 31.8636 46.7482V22.8675C31.8636 22.2946 32.0635 21.8866 32.385 21.6956C32.411 21.6783 32.4371 21.6696 32.4632 21.6522C32.7847 21.5047 33.2105 21.5481 33.6797 21.8172L62.989 38.7272C63.658 39.1091 64.2489 39.8644 64.5617 40.6717C64.7181 41.071 64.8137 41.4876 64.8137 41.8783L64.805 41.8696Z" fill="#C7C40A"/>
<path d="M49.0948 46.4177C49.0948 47.034 48.6604 47.2858 48.1303 46.9732C47.5916 46.6607 47.1658 45.9142 47.1658 45.2979C47.1658 44.6815 47.6003 44.4298 48.1303 44.7423C48.6691 45.0548 49.0948 45.8014 49.0948 46.4177Z" fill="#F2F4FA"/>
<circle cx="78.5" cy="11.5005" r="0.5" fill="black"/>
<circle cx="81.5" cy="11.5005" r="0.5" fill="black"/>
</svg>
