<svg width="62" height="163" viewBox="0 0 62 163" fill="none" xmlns="http://www.w3.org/2000/svg">
<path d="M4.55247 0C7.15883 -0.0025451 13.6144 7.80948 13.6144 7.80948V40.9983C13.6144 40.9983 0.00741639 27.6577 0.00228197 26.0308C-0.00285246 24.4039 0.00228197 2.92996 0.00228197 2.92996C0.653323 0.326908 3.25095 0.00127102 4.55247 0Z" fill="#FFE554"/>
<path d="M22.7278 0.00170898C20.1214 -0.000836112 13.6659 7.81119 13.6659 7.81119V41C13.6659 41 27.2729 27.6594 27.278 26.0325C27.2831 24.4056 27.278 2.93166 27.278 2.93166C26.627 0.328617 24.0293 0.00298 22.7278 0.00170898Z" fill="#11B254"/>
<path d="M58.1205 88.7895C59.2007 88.7895 60.2697 88.3441 61.038 87.4643C62.4522 85.8497 62.2852 83.411 60.6817 81.9968L51.5505 73.9903C46.9738 69.9816 43.622 64.7813 41.8515 58.9574L37.5754 44.8709C36.9518 42.822 34.7916 41.6639 32.7426 42.2875C30.6937 42.9111 29.5356 45.0713 30.1592 47.1203L34.4352 61.2067C36.6289 68.4114 40.7825 74.8478 46.4393 79.8142L55.5705 87.8207C56.3054 88.4665 57.2185 88.7783 58.1205 88.7783V88.7895Z" fill="#FFFCE8"/>
<path d="M26.9856 142.419C26.1282 142.397 25.371 143.087 25.0369 143.878C24.7028 144.668 24.6917 145.559 24.6917 146.416C24.6917 147.174 24.7251 148.009 25.2596 148.543C25.6048 148.889 26.0948 149.022 26.5736 149.156C27.4533 149.401 28.3442 149.635 29.2573 149.713C30.2929 149.802 31.3396 149.679 32.3641 149.835C33.0211 149.935 33.6447 150.147 34.2905 150.292C36.1056 150.715 38.0432 150.67 39.836 150.147C40.2369 150.035 40.6489 149.88 40.9162 149.557C41.3505 149.022 41.1946 148.187 40.7603 147.652C40.326 147.118 39.669 146.817 39.0454 146.528C37.1524 145.659 35.2705 144.791 33.3774 143.922C31.5289 143.076 29.6025 142.207 27.5647 142.163C26.9077 142.152 26.0502 142.441 26.1171 143.087L26.9856 142.419Z" fill="#DDCC6A"/>
<path d="M28.9483 137.237L29.137 137.252C30.3912 137.354 31.3188 138.447 31.2166 139.701L30.9054 143.519C30.8032 144.773 29.7109 145.701 28.4567 145.598L28.268 145.583C27.0139 145.481 26.0862 144.389 26.1884 143.134L26.4996 139.316C26.6019 138.062 27.6942 137.135 28.9483 137.237Z" fill="#FEF9DC"/>
<path d="M19.4135 153.153C19.7475 153.888 20.0816 154.612 20.4045 155.347C20.7274 156.093 21.0615 156.839 21.2954 157.63C21.6517 158.81 22.3087 161.093 21.4735 162.162C20.2263 163.765 18.1774 162.396 17.1641 161.26C15.6496 159.567 14.2354 157.741 12.9548 155.792C12.3981 154.957 11.8524 154.055 11.6854 153.009C11.162 149.779 12.7099 145.214 15.9614 146.283C17.1529 146.672 17.654 147.686 17.9324 149C18.2442 150.47 18.801 151.828 19.4023 153.153H19.4135Z" fill="#DDCC6A"/>
<path d="M15.661 142.964H15.4717C14.2171 142.964 13.2001 143.981 13.2001 145.236V149.066C13.2001 150.321 14.2171 151.338 15.4717 151.338H15.661C16.9156 151.338 17.9327 150.321 17.9327 149.066V145.236C17.9327 143.981 16.9156 142.964 15.661 142.964Z" fill="#FEF9DC"/>
<path d="M27.1194 71.5518L15.171 75.6942L10.3939 81.1395L11.8192 115.493V145.481C11.8192 147.062 13.0998 148.342 14.681 148.342H16.6409C18.1219 148.342 19.358 147.207 19.4916 145.726L22.4982 109.914L23.4893 96.3506L25.9725 95.3484L27.1083 111.606L25.772 139.545C25.6941 141.216 27.086 142.574 28.7564 142.452L30.1372 142.352C31.44 142.251 32.4979 141.271 32.6872 139.98L36.9967 110.415C37.1303 109.524 37.186 108.633 37.186 107.731V76.8857L27.1083 71.5518H27.1194Z" fill="#B9A429"/>
<path d="M57.1407 79.1018L60.5815 82.1195C62.1294 83.4781 62.2853 85.8277 60.9267 87.3755C60.1918 88.2107 59.1562 88.645 58.1206 88.645C57.252 88.645 56.3723 88.3443 55.6708 87.7207L51.9404 84.458C52.5194 81.908 54.045 79.8924 57.1407 79.1129V79.1018Z" fill="#FFC2B0"/>
<path d="M38.01 49.2361V81.3844C38.01 82.1417 37.6202 82.8543 36.9632 83.2441L29.6806 87.7094C26.2286 89.8363 22.2198 90.716 18.2555 90.3151C16.8747 90.1704 15.4828 89.8697 14.1465 89.3909L11.2067 88.3442L12.298 51.3408C12.3537 49.7929 12.9661 48.3453 14.0129 47.2429C14.4026 46.8086 14.8592 46.4411 15.3826 46.1293L17.9994 44.4701L18.7344 44.0136C20.7165 42.6328 24.5582 41.1963 28.0103 40.7843C28.7007 40.6952 29.3465 40.6506 29.9812 40.6506C31.3621 40.6506 32.5981 40.8733 33.5001 41.3967C36.284 43.0225 38.01 45.9957 38.01 49.2361Z" fill="#FFFCE8"/>
<path d="M12.2978 51.3517C12.3089 50.9731 12.3646 50.6056 12.4426 50.2493C13.9125 48.991 15.3378 48.9019 16.6518 50.4052C17.5649 51.4519 18.1662 52.7659 18.7453 54.0131C18.723 54.0688 18.7119 54.1245 18.6896 54.1802C18.066 55.973 17.1974 57.8326 17.6874 59.6477C18.0437 60.9394 19.0459 61.9973 19.3132 63.3224C19.8588 66.1175 16.8968 73.1217 17.1863 75.9724C17.3533 77.5982 18.5226 78.9122 19.2686 80.3487C20.8499 83.4889 20.204 87.3307 18.2664 90.315C16.8856 90.1702 15.4937 89.8696 14.1574 89.3907L11.2177 88.344L12.3089 51.3406L12.2978 51.3517Z" fill="#F9F3CD"/>
<path d="M11.5963 100.582C11.9192 100.582 12.2422 100.537 12.5651 100.459C14.6363 99.9245 15.8835 97.8088 15.349 95.7376L11.3625 80.2926C10.3157 76.2392 10.6164 71.8741 12.1976 67.999L18.6451 52.2199C19.458 50.2378 18.5115 47.9773 16.5294 47.1644C14.5472 46.3515 12.2867 47.298 11.4738 49.2801L5.02634 65.0592C2.81037 70.471 2.39836 76.5622 3.85711 82.219L7.84364 97.664C8.28906 99.4123 9.8703 100.57 11.5963 100.57V100.582Z" fill="#FFFCE8"/>
<path d="M7.23139 95.671C8.37835 97.9092 7.1089 101.116 8.67901 103.043C9.53645 104.101 11.0843 104.346 12.2869 103.811C13.5007 103.277 14.3804 102.074 14.837 100.749C15.2935 99.4236 15.3603 97.9872 15.2824 96.5729C15.249 95.8937 15.171 95.181 14.837 94.5908C14.3804 93.7891 13.4896 93.377 12.6321 93.2323C10.4718 92.8759 8.15564 94.0563 7.05322 96.083L7.23139 95.671Z" fill="#FFC2B0"/>
<path d="M31.8743 46.675L30.8164 49.6371C30.2708 50.4945 29.0348 50.5279 28.4446 49.7039L26.4958 47.1873L31.8743 46.675Z" fill="#B9A429"/>
<path d="M19.5695 45.8288C21.0394 47.4768 22.6207 49.3142 23.9013 50.7507C24.458 51.3743 25.4602 51.3186 25.9502 50.6393L29.3354 47.2541L33.411 47.9779C33.9121 48.067 34.3687 47.6884 34.3687 47.1762V45.9067C34.3687 43.1117 32.42 40.6842 29.6806 40.1051C28.7786 39.9158 27.821 39.8044 26.8299 39.8044C24.1351 39.8044 21.7076 40.5617 19.9927 41.7866C18.6787 42.722 18.5005 44.615 19.5695 45.8176V45.8288Z" fill="#F5DC8C"/>
<path d="M22.8656 32.4657C22.8656 32.4657 22.8433 32.4768 22.821 32.488C22.8099 32.4323 22.8099 32.3655 22.8099 32.3098C22.8099 32.3655 22.821 32.4212 22.8656 32.4546V32.4657Z" fill="#4168C3"/>
<path d="M22.0528 42.822C22.0528 43.6015 22.4202 44.303 23.0327 44.8375C23.1552 44.9378 23.2888 45.0491 23.4336 45.1382C24.2242 45.6727 25.2821 45.9956 26.4736 45.9956C28.0994 45.9956 29.4802 45.3943 30.2597 44.4923C30.2597 44.4923 30.2819 44.4701 30.2931 44.4478C30.5714 44.1026 30.7608 43.7129 30.8498 43.2897C30.8721 43.1449 30.8944 42.989 30.8944 42.8331C30.8944 42.6773 30.8832 42.5214 30.8498 42.3766C30.7719 41.9534 30.5826 41.5637 30.2931 41.2296C29.5358 40.2831 28.1216 39.6707 26.4736 39.6707C25.2932 39.6707 24.2242 39.9936 23.4336 40.5281C23.2331 40.6617 23.0438 40.8176 22.8768 40.9735C22.3534 41.4969 22.0416 42.1316 22.0416 42.8443L22.0528 42.822Z" fill="#F5DC8C"/>
<path d="M40.2927 26.2412C39.6134 26.8202 35.638 28.6242 35.638 28.6242L34.736 23.7913C34.736 23.7913 36.295 22.533 36.8852 22.3549C37.4642 22.1767 39.335 23.6689 39.335 23.6689L40.2927 26.2412Z" fill="#323537"/>
<path d="M23.4335 36.1407V45.1494C24.2242 45.6839 25.282 46.0068 26.4735 46.0068C28.0993 46.0068 29.4801 45.4055 30.2596 44.5035C30.2596 44.5035 30.2819 44.4813 30.293 44.459C30.5714 44.1138 30.7607 43.7241 30.8498 43.3009V36.1519C30.8498 35.1274 30.4378 34.2032 29.7697 33.5239C29.2017 32.956 28.4557 32.5774 27.6428 32.466C27.4535 32.4549 27.2419 32.4326 27.0303 32.4326C26.5849 32.4438 26.1617 32.5328 25.7609 32.6887C25.2486 32.9003 24.8143 33.2121 24.4469 33.6018C23.8233 34.27 23.4335 35.172 23.4335 36.1519V36.1407Z" fill="#FFC2B0"/>
<g style="mix-blend-mode:multiply">
<path opacity="0.4" d="M30.4043 43.6125C27.2306 43.4454 24.714 41.4299 24.714 38.969V31.0961C25.4155 30.8734 26.1727 30.7732 26.9745 30.7732H27.1861C27.3308 30.7732 27.4867 30.7843 27.6315 30.8066H27.7651C28.1215 30.8623 28.4778 30.9848 28.7896 31.1629C28.9344 31.2186 29.068 31.3077 29.2016 31.4191C29.2573 31.4636 29.3241 31.5081 29.3798 31.5527C29.5245 31.6863 29.6582 31.8199 29.7918 31.9647C30.4265 32.6885 30.8385 33.7018 30.8385 34.8265V41.8642L30.3931 43.6236L30.4043 43.6125Z" fill="#D49A8A"/>
</g>
<path d="M24.8254 38.0559C24.0014 36.8533 23.6451 34.9157 23.4335 33.6351C23.2219 32.31 21.4291 32.8668 21.4291 31.5082C21.4291 30.5506 22.3311 29.515 22.7319 28.691C23.2219 27.6888 23.8121 26.887 24.7363 26.2411C25.8499 25.4616 27.1639 25.0274 28.4779 24.6599C29.9478 24.259 31.4399 23.9583 32.9544 23.7913L33.3664 22.366H38.0544V35.7954C38.0544 35.9291 38.021 36.1184 37.9654 36.3522C37.1413 39.6929 33.4777 41.4634 30.2818 40.2051L24.8254 38.0559Z" fill="#FFC2B0"/>
<path d="M39.5912 21.5868C38.2549 20.6514 36.4621 20.0055 34.9811 19.2928C33.2773 18.4577 31.4511 17.8675 29.5469 17.7561C27.008 17.6225 24.3355 18.4465 22.6318 20.3284C20.1931 23.0232 19.7365 26.9318 20.0594 30.3838C20.1819 31.7312 20.3601 33.2123 21.1062 34.3815C21.4959 34.994 23.4892 36.8759 24.3689 36.1298C25.115 35.4951 24.2019 34.337 24.5471 33.3793C24.5916 33.2568 24.6362 33.112 24.7364 33.023C24.9034 32.8671 25.1707 32.9005 25.4045 32.945C25.5827 32.9784 25.772 33.0118 25.9501 32.945C26.3399 32.8003 26.3956 32.2769 26.3622 31.8537C26.2731 30.5063 26.0949 28.9696 27.6316 28.5576C28.7006 28.2792 29.9033 28.669 30.9389 28.2235C33.0435 27.3104 34.8697 25.7403 37.108 25.2615C37.4086 25.1947 37.9431 25.0054 38.0211 25.3172C38.2661 26.2971 38.1102 26.6312 38.3551 27.2993C39.2794 27.1768 40.3039 26.4641 40.6713 25.6512C41.0945 24.7159 41.1167 23.5912 40.6157 22.6892C40.3595 22.2326 40.0032 21.8763 39.58 21.5756L39.5912 21.5868Z" fill="#323537"/>
<path d="M25.8499 33.0338C25.7163 33.1117 25.5604 33.1117 25.4045 33.0672C25.3934 33.0338 25.4045 32.9892 25.3711 32.9558L25.8499 33.0338Z" fill="#FFC2B0"/>
<path d="M22.7431 30.7182C23.4446 30.54 24.135 31.1079 24.4357 31.7649C24.5916 32.0879 24.6807 32.4553 24.9034 32.7449C25.0259 32.9008 25.2152 33.0232 25.4045 33.0789C25.6049 33.5912 25.204 34.2259 24.6473 34.3595C24.0571 34.5043 23.4335 34.2259 22.9435 33.8584C22.4202 33.4687 21.9525 32.9342 21.8522 32.2883C21.7409 31.6424 22.0972 30.8964 22.732 30.7293L22.7431 30.7182Z" fill="#FFC2B0"/>
<path d="M29.4021 49.0022L30.215 48.49L33.3886 67.0195C33.4666 67.5874 33.3886 68.1776 33.1325 68.6899L30.2818 74.6474C30.0591 75.1262 29.4578 75.1819 29.1571 74.7587L26.0948 70.4493L29.4021 49.0022Z" fill="#B9A429"/>
<circle cx="31.3953" cy="31.5529" r="0.556777" fill="black"/>
<circle cx="35.8496" cy="31.5529" r="0.556777" fill="black"/>
</svg>
