<svg width="45" height="128" viewBox="0 0 45 128" fill="none" xmlns="http://www.w3.org/2000/svg">
<path d="M10.6729 63.5809C11.1229 64.1009 12.6129 73.9709 12.6129 73.9709L19.5629 70.9009L31.8129 67.3809L35.1629 67.6609C35.1629 67.6609 36.9829 54.6209 35.7429 54.5909C34.5029 54.5609 16.5029 61.7909 16.5029 61.7909L10.6829 63.5809H10.6729Z" fill="#A19A06"/>
<path d="M37.8929 4.05176C37.8029 3.84176 37.6929 3.63176 37.5529 3.44176C37.3029 3.10176 36.9629 2.82176 36.6229 2.57176C34.9429 1.32176 32.9629 0.381756 30.8729 0.0817564C30.6329 0.0517564 30.4029 0.0317567 30.1629 0.0117567C28.0429 -0.0982433 25.8229 0.561756 24.3529 2.07176C24.2929 2.12176 24.2429 2.18176 24.1829 2.24176C22.0729 4.57176 21.6829 7.94176 21.9529 10.9318C22.0629 12.0918 22.2229 13.3718 22.8629 14.3818C23.2029 14.9118 24.9329 16.5418 25.6829 15.8918C26.3229 15.3518 25.5429 14.3418 25.8429 13.5218C25.8829 13.4118 25.9229 13.2918 26.0029 13.2118C26.1529 13.0818 26.3829 13.1018 26.5829 13.1418C26.7329 13.1618 26.9029 13.1918 27.0429 13.1418C27.3829 13.0118 27.4229 12.5618 27.4029 12.2018C27.3529 11.3618 27.2529 10.4318 27.7129 9.84176C27.7229 9.82176 27.7429 9.80176 27.7629 9.78176C27.8229 9.70176 27.9129 9.63176 28.0129 9.56176C28.1529 9.47176 28.3129 9.39176 28.5029 9.34176C29.4329 9.10176 30.4729 9.44176 31.3629 9.05176C32.9029 8.38176 34.7529 7.83175 36.3529 8.65175C37.3029 9.14175 37.4829 9.97176 38.1629 8.81176C38.6229 8.02176 38.3529 6.26176 38.2329 5.39176C38.1729 4.92176 38.0729 4.45176 37.8829 4.02176L37.8929 4.05176Z" fill="#EAF6FF"/>
<path d="M32.573 56.5718C30.663 56.5718 29.123 55.0318 29.123 53.1218V48.2518C29.123 46.3418 30.663 44.8018 32.573 44.8018C34.483 44.8018 36.023 46.3418 36.023 48.2518V53.1218C36.023 55.0318 34.483 56.5718 32.573 56.5718Z" fill="#FFC2B0"/>
<path d="M32.783 51.2213C31.943 51.2213 31.103 50.9213 30.443 50.3013C29.043 49.0013 28.963 46.8213 30.263 45.4213L36.593 38.5913C38.063 36.1213 37.453 32.8913 35.143 31.1313L30.713 27.7713C29.193 26.6213 28.893 24.4513 30.053 22.9413C31.203 21.4213 33.363 21.1213 34.883 22.2813L39.313 25.6413C44.573 29.6313 45.853 37.0813 42.223 42.6013C42.123 42.7613 42.003 42.9113 41.873 43.0513L35.323 50.1113C34.643 50.8413 33.723 51.2113 32.793 51.2113L32.783 51.2213Z" fill="#F1F1F0"/>
<path d="M15.4929 117.602C12.7829 117.542 13.2529 121.672 14.3929 123.022C15.4629 124.282 18.1029 125.852 19.4929 126.772C21.6729 128.222 27.2029 128.792 24.1729 124.812C22.8929 123.122 21.1829 121.772 20.0829 119.962C19.6129 119.192 19.2329 118.312 18.5029 117.782C17.7729 117.252 16.5229 117.312 16.1829 118.142L15.5029 117.602H15.4929Z" fill="#A19A06"/>
<path d="M29.853 111.071C29.083 111.051 28.413 111.661 28.123 112.371C27.823 113.081 27.823 113.871 27.813 114.641C27.813 115.311 27.843 116.061 28.323 116.531C28.633 116.831 29.073 116.961 29.493 117.071C30.283 117.281 31.073 117.501 31.883 117.571C32.803 117.651 33.733 117.541 34.653 117.681C35.233 117.771 35.793 117.961 36.373 118.091C37.993 118.471 39.713 118.431 41.313 117.961C41.673 117.861 42.043 117.721 42.273 117.431C42.663 116.951 42.523 116.211 42.133 115.731C41.743 115.251 41.163 114.981 40.603 114.731C38.923 113.961 37.243 113.191 35.553 112.411C33.903 111.651 32.193 110.881 30.383 110.841C29.803 110.831 29.043 111.091 29.093 111.671L29.863 111.071H29.853Z" fill="#A19A06"/>
<path d="M31.1322 106.247L30.9622 106.251C29.847 106.278 28.9653 107.205 28.9929 108.32L29.0777 111.739C29.1053 112.854 30.0318 113.736 31.1471 113.708L31.3171 113.704C32.4323 113.677 33.314 112.75 33.2864 111.635L33.2016 108.216C33.174 107.101 32.2475 106.219 31.1322 106.247Z" fill="#F9FEDC"/>
<path d="M16.4028 111.852H16.5728C17.6928 111.852 18.5928 112.762 18.5928 113.872V117.282C18.5928 118.402 17.6828 119.302 16.5728 119.302H16.4028C15.2828 119.302 14.3828 118.392 14.3828 117.282V113.872C14.3828 112.752 15.2928 111.852 16.4028 111.852Z" fill="#F9FEDC"/>
<path d="M26.7828 48.261L15.1628 51.951L11.9028 56.801L13.1728 87.391V114.091C13.1728 115.491 14.3128 116.631 15.7128 116.631H17.4628C18.7828 116.631 19.8828 115.621 19.9928 114.301L22.6728 82.411L23.5528 70.331L25.7628 69.431L26.2828 83.911L28.5428 108.791C28.4728 110.271 29.7128 111.491 31.1928 111.381L32.4228 111.291C33.5828 111.201 34.5228 110.331 34.6928 109.181L35.2528 81.671L35.7428 53.001L26.7628 48.251L26.7828 48.261Z" fill="#A19A06"/>
<path d="M36.8229 27.8111L36.5229 42.0611C41.9329 47.8511 40.2529 58.6911 33.1829 62.2411L28.6729 64.5111C25.2829 66.6011 21.3629 67.4611 17.4829 67.0611C16.1229 66.9111 14.7729 66.6211 13.4529 66.1611C11.7429 65.5511 10.6129 63.9111 10.6729 62.0911L11.6429 29.8811C11.7029 28.3611 12.3029 26.9511 13.3229 25.8711C13.7029 25.4511 14.1529 25.0811 14.6629 24.7811L17.2329 23.1611L17.9429 22.7111C19.8829 21.3511 23.6529 19.9511 27.0329 19.5411C27.7029 19.4511 28.3429 19.4111 28.9629 19.4111C30.3229 19.4111 31.5329 19.6311 32.4029 20.1411C35.1329 21.7311 36.8229 24.6511 36.8229 27.8111Z" fill="#E7E7D6"/>
<path d="M17.4729 67.0611C16.1129 66.9111 14.7629 66.6211 13.4429 66.1611C11.7329 65.5511 10.6029 63.9111 10.6629 62.0911L11.6329 29.8811C11.6929 28.3611 12.2929 26.9511 13.3129 25.8711C13.8829 25.9311 14.4529 26.0211 15.0029 26.1511C15.1629 26.1911 15.3429 26.2511 15.4729 26.3411C16.2629 26.5611 17.0029 26.8711 17.5429 27.4311C18.8129 28.7611 18.5029 30.9211 17.8829 32.6511C17.2729 34.4011 16.4229 33.7611 16.9029 35.5411C17.2529 36.8111 18.2329 37.8511 18.4929 39.1411C19.0329 41.8811 16.1329 50.2211 16.4029 53.0111C16.5629 54.6011 17.7129 55.8811 18.4429 57.3011C19.9929 60.3811 19.3629 64.1411 17.4629 67.0611H17.4729Z" fill="#F1F1F0"/>
<path d="M11.203 54.0712C12.103 55.7012 11.113 58.0312 12.333 59.4312C13.013 60.2012 14.213 60.3812 15.163 59.9912C16.113 59.6012 16.803 58.7212 17.163 57.7612C17.523 56.8012 17.573 55.7512 17.513 54.7212C17.483 54.2212 17.433 53.7012 17.163 53.2812C16.803 52.7012 16.113 52.4012 15.433 52.2912C13.733 52.0312 11.923 52.8912 11.053 54.3712L11.193 54.0712H11.203Z" fill="#FFC2B0"/>
<path d="M13.3929 55.9714C12.5229 55.9714 11.6429 55.6414 10.9729 54.9814C10.6329 54.6514 9.82289 53.9614 8.96289 53.2314C6.61289 51.2414 3.40289 48.5114 1.62289 46.2114C-0.637108 43.2914 -0.527108 39.1414 1.89289 36.3514C1.98289 36.2414 2.08289 36.1414 2.19289 36.0514L13.7329 25.6814C15.1529 24.4114 17.3329 24.5214 18.6029 25.9414C19.8729 27.3614 19.7629 29.5414 18.3429 30.8114L7.02289 40.9814C6.83289 41.2914 6.84289 41.6814 7.07289 41.9814C8.41289 43.7114 11.4329 46.2714 13.4229 47.9614C14.4629 48.8414 15.2829 49.5414 15.8029 50.0514C17.1629 51.3914 17.1829 53.5714 15.8429 54.9314C15.1629 55.6214 14.2729 55.9614 13.3829 55.9614L13.3929 55.9714Z" fill="#E7E7D6"/>
<path d="M27.6829 26.8514L28.3829 26.4014L32.0429 42.7014C32.1429 43.2014 32.0929 43.7214 31.8929 44.1714L29.6229 49.4114C29.4429 49.8314 28.9129 49.8814 28.6329 49.5114L25.7129 45.7214L27.6929 26.8514H27.6829Z" fill="#A19A06"/>
<path d="M29.1628 24.0918L28.9128 26.4718C28.6728 27.1618 27.7928 27.1918 27.2228 26.5318L25.3828 24.5018L29.1628 24.0918Z" fill="#A19A06"/>
<path d="M21.403 24.1713C21.163 23.5813 20.983 22.9713 20.863 22.3513C19.723 16.2513 30.953 15.9313 30.953 22.8213V23.9013C30.953 24.3313 30.623 24.6613 30.273 24.5813L27.353 23.9613L24.923 26.8413C24.573 27.4213 23.853 27.4713 23.453 26.9313C22.833 26.1113 22.123 25.1413 21.403 24.1613V24.1713Z" fill="#F1F1F0"/>
<path d="M24.873 12.2511C24.873 12.2511 24.853 12.2611 24.843 12.2711C24.833 12.2211 24.833 12.1711 24.833 12.1211C24.833 12.1711 24.843 12.2111 24.883 12.2511H24.873Z" fill="#715154"/>
<path d="M23.9728 13.381L22.6128 20.321C22.6128 20.321 22.6128 19.841 22.6128 19.831C22.6128 22.401 28.5528 24.171 28.8928 21.871H28.9228C28.9228 21.871 28.9928 21.541 28.9928 21.531L30.3528 14.591C30.5328 13.691 30.3328 12.821 29.8728 12.121C29.4828 11.531 28.9028 11.071 28.2228 10.851C28.0628 10.801 27.8828 10.751 27.7028 10.721C27.3128 10.661 26.9428 10.671 26.5728 10.731C26.1028 10.831 25.6628 11.031 25.2928 11.311C24.6428 11.791 24.1528 12.511 23.9828 13.371L23.9728 13.381Z" fill="#FFDAC7"/>
<g style="mix-blend-mode:multiply">
<path d="M28.7529 21.2118C26.1329 20.5718 24.3729 18.4518 24.7729 16.3718L25.9829 10.1818L26.0729 9.70178C26.6929 9.62178 27.3429 9.66178 28.0129 9.78178H28.0529L28.1929 9.81178C28.3129 9.83178 28.4429 9.87178 28.5629 9.91178C28.6029 9.91178 28.6329 9.92178 28.6729 9.93178C28.9629 10.0418 29.2429 10.2018 29.4729 10.4018C29.5829 10.4718 29.6829 10.5718 29.7829 10.6818C29.8229 10.7318 29.8629 10.7718 29.9129 10.8218C30.0129 10.9618 30.1029 11.0918 30.1929 11.2418C30.6029 11.9618 30.7729 12.8818 30.5929 13.8318L29.4229 19.7918L28.7629 21.2118H28.7529Z" fill="#FFC2B0" fill-opacity="0.6"/>
</g>
<path d="M26.0728 17.571C25.3628 16.531 25.0528 14.851 24.8728 13.751C24.6828 12.601 23.1428 13.081 23.1328 11.911C23.1328 11.081 23.9128 10.191 24.2628 9.47098C24.6828 8.61098 25.1928 7.91097 25.9928 7.35098C26.9528 6.68097 28.0928 6.30097 29.2228 5.99097C30.4928 5.64097 31.7828 5.38097 33.0928 5.24097L33.4528 4.00098H34.0928C35.9728 4.00098 37.5028 5.53098 37.5028 7.41098V15.611C37.5028 15.711 37.4828 15.841 37.4428 16.011C36.7828 18.931 33.6128 20.541 30.8228 19.441L26.0728 17.571Z" fill="#FFDAC7"/>
<path d="M34.9129 5.59152C34.8729 4.95152 34.9129 4.75152 34.5929 3.92152C34.5229 3.95152 34.4629 3.92152 34.4329 3.81152C34.4929 3.81152 34.5329 3.84152 34.5729 3.86152C34.5729 3.84152 34.5629 3.83152 34.5529 3.81152C34.4429 3.78152 34.2629 3.75152 34.0229 3.72152C32.0829 3.10152 31.0829 1.65152 30.8329 0.0815218C30.6129 0.0515218 30.3929 0.0315224 30.1729 0.0215224C28.0529 -0.0884776 25.8329 0.571522 24.3629 2.08152C24.3029 2.13152 24.2529 2.19152 24.1929 2.25152C22.0829 4.58152 21.6929 7.95152 21.9629 10.9415C22.0729 12.1015 22.2329 13.3815 22.8729 14.3915C23.2129 14.9215 24.9429 16.5515 25.6929 15.9015C26.3329 15.3615 25.5529 14.3515 25.8529 13.5315C25.8929 13.4215 25.9329 13.3015 26.0129 13.2215C26.1629 13.0915 26.3929 13.1115 26.5929 13.1515C26.7429 13.1715 26.9129 13.2015 27.0529 13.1515C27.3929 13.0215 27.4329 12.5715 27.4129 12.2115C27.3629 11.3715 27.2629 10.4415 27.7229 9.85152C27.7329 9.83152 27.7529 9.81152 27.7729 9.79152C27.8329 9.71152 27.9229 9.64152 28.0229 9.57152C28.1629 9.48152 28.3229 9.40152 28.5129 9.35152C29.4429 9.11152 30.4829 9.45152 31.3729 9.06152C32.5129 8.57152 33.8429 8.14152 35.0929 8.28152C35.0229 7.38152 34.9829 6.48152 34.9229 5.58152L34.9129 5.59152Z" fill="#EAF6FF"/>
<path d="M29.6129 21.6812C28.8529 21.4312 28.1629 20.9512 27.5429 20.3412C26.5129 19.2112 25.8029 17.7812 25.3929 16.2512C25.3129 15.8412 25.2529 15.4312 25.2529 15.0412C25.2529 14.8312 25.2829 14.6012 25.4429 14.4712C25.6529 14.3112 25.9729 14.4212 26.1429 14.6212C26.3129 14.8312 26.3629 15.1012 26.4329 15.3612C26.6929 16.3112 27.2629 17.1012 27.9429 17.8112C29.3229 18.3012 31.0429 17.6412 32.1229 16.7912C32.9529 16.1512 33.7329 15.3912 34.7429 15.1012C37.9429 14.1812 38.9529 16.5212 37.9929 18.8012C37.8429 19.1612 37.5829 19.4712 37.3129 19.7512C35.3729 21.7512 32.2629 22.5212 29.6129 21.6612V21.6812Z" fill="#EAF6FF"/>
<path d="M25.2999 11.5186L25.1582 11.8604L29.9802 13.8596L30.1219 13.5179L25.2999 11.5186Z" fill="#96A100"/>
<path d="M26.963 13.2311C26.843 13.3011 26.713 13.3011 26.573 13.2611C26.563 13.2311 26.573 13.1911 26.543 13.1611L26.953 13.2311H26.963Z" fill="#FFC2B0"/>
<path d="M24.2729 11.2314C24.8729 11.0814 25.4729 11.5714 25.7329 12.1414C25.8629 12.4214 25.9429 12.7414 26.1429 12.9814C26.2529 13.1214 26.4129 13.2214 26.5829 13.2714C26.7529 13.7114 26.4029 14.2614 25.9329 14.3714C25.4229 14.4914 24.8829 14.2514 24.4629 13.9314C24.0129 13.5914 23.6129 13.1314 23.5229 12.5714C23.4329 12.0114 23.7329 11.3714 24.2829 11.2314H24.2729Z" fill="#FFC2B0"/>
<path d="M34.9629 11.3518C34.8529 10.9718 34.6029 10.8318 34.3229 11.0018C34.0429 11.1618 33.7929 11.5818 33.6829 12.0918L33.5029 12.0618C33.6429 11.4018 33.9629 10.8618 34.3229 10.6518C34.6829 10.4418 35.0029 10.6118 35.1429 11.1018L34.9629 11.3418V11.3518Z" fill="#FAB300"/>
<path d="M34.9629 11.3518C34.8529 10.9718 34.6029 10.8318 34.3229 11.0018C34.0429 11.1618 33.7929 11.5818 33.6829 12.0918L33.5029 12.0618C33.6429 11.4018 33.9629 10.8618 34.3229 10.6518C34.6829 10.4418 35.0029 10.6118 35.1429 11.1018L34.9629 11.3418V11.3518Z" fill="#96A100"/>
<path d="M30.9929 16.0815C30.7829 16.0815 30.5929 16.0315 30.4129 15.9315C30.0029 15.6915 29.7729 15.2115 29.7729 14.5715C29.7729 13.3315 30.6529 11.8115 31.7229 11.1915C32.2829 10.8715 32.8129 10.8215 33.2229 11.0615C33.633 11.3015 33.8629 11.7815 33.8629 12.4215C33.8629 13.6615 32.9829 15.1815 31.9129 15.8015C31.5929 15.9915 31.2729 16.0815 30.9929 16.0815ZM32.653 11.2715C32.433 11.2715 32.1829 11.3515 31.9129 11.5015C30.9429 12.0615 30.1429 13.4415 30.1429 14.5615C30.1429 15.0615 30.3029 15.4415 30.5929 15.6015C30.8829 15.7715 31.2829 15.7215 31.7229 15.4715C32.6929 14.9115 33.493 13.5315 33.493 12.4115C33.493 11.9115 33.3329 11.5315 33.0429 11.3715C32.9229 11.3015 32.793 11.2715 32.653 11.2715Z" fill="#96A100"/>
<path d="M35.9429 13.2212C35.7329 13.2212 35.5429 13.1712 35.3629 13.0712C34.9529 12.8312 34.7229 12.3512 34.7229 11.7112C34.7229 10.4712 35.6029 8.95119 36.6729 8.33119C37.2329 8.01119 37.7629 7.9612 38.1729 8.2012C38.5829 8.4412 38.8129 8.9212 38.8129 9.5612C38.8129 10.8012 37.9329 12.3212 36.8629 12.9412C36.5429 13.1312 36.2229 13.2212 35.9429 13.2212ZM37.6029 8.42119C37.3829 8.42119 37.1329 8.50119 36.8629 8.65119C35.8929 9.21119 35.0929 10.5912 35.0929 11.7112C35.0929 12.2112 35.2529 12.5912 35.5429 12.7512C35.8329 12.9212 36.2329 12.8712 36.6729 12.6212C37.6429 12.0612 38.4429 10.6812 38.4429 9.5612C38.4429 9.0612 38.2829 8.6812 37.9929 8.5212C37.8729 8.4512 37.7429 8.42119 37.6029 8.42119Z" fill="#96A100"/>
<path d="M27.313 9.8418L27.613 9.8618C27.513 9.8818 27.413 9.8818 27.313 9.8418Z" fill="#FFC2B0"/>
<path d="M36.8329 6.20159C36.8129 6.31159 36.7129 6.41159 36.7429 6.51159C37.5129 9.66159 29.3629 9.61159 28.6229 9.92159C26.5929 10.7716 30.8029 9.63159 28.6229 9.92159L27.7129 9.87159H27.6129C27.6129 9.87159 27.7129 9.84159 27.7629 9.81159C27.8529 9.76159 27.9429 9.68159 28.0129 9.59159C28.0529 9.53159 28.0929 9.47159 28.1129 9.40159C28.2229 9.07159 28.1129 8.71159 27.9829 8.40159C27.2429 6.80159 25.3629 5.95159 24.6729 4.33159C24.3729 3.63159 24.3329 2.85159 24.3429 2.08159C24.3629 0.961592 27.9529 0.151591 28.7329 0.0615912C31.7629 -0.278409 34.0529 2.05159 35.8929 4.12159C36.4129 4.71159 36.9529 5.43159 36.8229 6.20159H36.8329Z" fill="#FFDAC7"/>
</svg>
