<svg width="55" height="122" viewBox="0 0 55 122" fill="none" xmlns="http://www.w3.org/2000/svg">
<path d="M46.9562 60.6341C48.3762 60.7541 50.1962 59.9041 51.0162 58.7241C51.1962 58.4741 51.7562 57.9941 51.8162 57.7441C51.8262 57.7441 51.8462 57.7441 51.8562 57.7441C49.0562 51.3441 44.5962 42.5941 44.0462 41.1841L39.4862 23.6941C39.1362 21.9641 37.4462 20.8541 35.7162 21.2041C33.9862 21.5641 32.8762 23.2441 33.2262 24.9741L37.8462 42.7241C37.8762 42.8941 37.9262 43.0641 37.9862 43.2241C38.1862 43.7641 39.5062 47.0541 41.0262 50.8541C41.9262 53.1041 44.6062 57.7341 46.0962 60.6941C46.1562 60.6541 46.2162 60.6141 46.2962 60.6141C46.5862 60.6141 46.8462 60.6241 46.9562 60.6341Z" fill="#B8B200"/>
<path d="M53.4561 61.6141L53.2961 61.6741C53.2261 61.8941 53.1061 62.1141 52.9561 62.3341C52.5061 62.9841 51.7761 63.5341 50.9661 63.9141C50.1561 64.2941 49.2661 64.4941 48.4861 64.4341C48.2261 64.4141 47.9961 64.3641 47.7861 64.2841L50.4061 68.9241C51.1861 69.2941 52.1061 69.3541 52.9761 69.0141C53.0361 68.9841 53.0961 68.9641 53.1461 68.9341C54.6661 68.2241 55.3861 66.4341 54.7461 64.8541C54.5161 64.2841 54.2661 63.6641 54.0061 63.0141C53.8261 62.5641 53.6361 62.0941 53.4461 61.6141H53.4561Z" fill="#FFC2B0"/>
<path d="M48.4962 64.4341C49.2762 64.5041 50.1662 64.2941 50.9762 63.9141C51.7862 63.5341 52.5062 62.9741 52.9662 62.3341C53.1162 62.1141 53.2262 61.8941 53.3062 61.6741L53.4662 61.6141L53.5162 61.1241L53.1262 60.1541C52.8562 59.4941 52.5462 58.7441 52.1662 57.8641L52.0862 57.6941L51.9062 57.7341C51.9062 57.7341 51.8762 57.7341 51.8562 57.7341C51.8462 57.7341 51.8262 57.7341 51.8162 57.7341C51.7662 57.9841 51.1962 58.4541 51.0162 58.7141C50.2062 59.8841 48.3862 60.7441 46.9562 60.6241C46.8362 60.6141 46.5862 60.6141 46.2962 60.6041C46.2162 60.6041 46.1462 60.6341 46.0962 60.6841C45.9862 60.7741 45.9262 60.9341 46.0062 61.0741C46.0662 61.2041 46.1262 61.3241 46.1862 61.4441L47.7962 64.2841C48.0062 64.3641 48.2362 64.4141 48.4962 64.4341Z" fill="#FAFFC6"/>
<path d="M31.2862 69.924L37.3162 55.274L15.1862 58.124L22.0862 70.834L31.2862 69.924Z" fill="#44410A"/>
<path d="M15.4161 104.024C14.7061 104.014 14.0861 104.574 13.8161 105.224C13.5361 105.874 13.5361 106.614 13.5361 107.324C13.5361 107.944 13.5661 108.644 14.0061 109.074C14.2961 109.354 14.6961 109.474 15.0861 109.574C15.8161 109.774 16.5461 109.974 17.2961 110.034C18.1461 110.104 19.0061 110.004 19.8561 110.134C20.3961 110.214 20.9161 110.384 21.4461 110.514C22.9461 110.864 24.5361 110.824 26.0161 110.394C26.3461 110.294 26.6861 110.174 26.9061 109.904C27.2661 109.464 27.1361 108.774 26.7761 108.334C26.4161 107.894 25.8761 107.644 25.3661 107.404C23.8061 106.694 22.2561 105.974 20.6961 105.264C19.1661 104.564 17.5861 103.854 15.9061 103.814C15.3661 103.804 14.6661 104.044 14.7061 104.584L15.4161 104.034V104.024Z" fill="#758000"/>
<path d="M17.1815 99.7751L17.0221 99.7621C15.9927 99.6786 15.0905 100.445 15.0069 101.475L14.7513 104.624C14.6678 105.654 15.4345 106.556 16.4639 106.64L16.6234 106.652C17.6528 106.736 18.555 105.969 18.6385 104.94L18.8941 101.79C18.9777 100.761 18.2109 99.8586 17.1815 99.7751Z" fill="#FDFEDC"/>
<path d="M37.2162 81.064C37.2162 81.064 35.5462 83.204 33.3362 86.064C33.2962 86.114 33.2662 86.154 33.2262 86.204C31.3262 88.674 29.0362 91.644 27.0862 94.224C25.4462 96.404 24.0362 98.314 23.3162 99.394C22.4462 100.694 21.5762 101.994 20.4962 103.114C20.0362 103.594 19.5262 104.044 18.8962 104.254C18.8362 104.274 18.7662 104.294 18.6862 104.304C18.6062 104.304 18.5162 104.314 18.4062 104.314C17.7662 104.314 16.7762 104.144 15.9162 103.814C15.5162 103.664 15.1462 103.484 14.8662 103.254C14.3062 102.834 14.0362 102.294 14.4262 101.654C14.4262 101.654 20.5862 91.434 24.2562 85.344C25.8162 82.754 26.9262 80.914 26.9262 80.914L28.2162 65.794L28.2662 65.234L28.1862 65.264C28.4662 63.224 28.6262 61.164 28.7962 59.224C29.0562 56.224 29.3462 53.234 29.1562 50.224C29.0662 48.734 28.9062 47.264 28.7562 45.784L29.2062 45.624L37.5062 50.024V73.014C37.5062 75.524 37.9362 78.634 37.2162 81.034V81.064Z" fill="#44410A"/>
<path d="M18.3162 69.0741C17.8262 67.3441 16.2562 65.2941 17.5762 64.0741C18.2162 63.4841 19.1862 63.5441 20.0462 63.6341C22.0662 63.8541 24.0862 64.0741 26.1162 64.2941C26.6662 64.3541 27.2562 64.4341 27.6662 64.8041C28.0662 65.1641 28.2062 65.7241 28.3362 66.2541C31.1262 78.1441 33.0162 85.0141 35.8062 96.9041C36.7762 101.044 37.7562 110.214 38.1962 114.444C38.3062 115.524 39.2662 116.744 38.5562 117.574C37.5662 118.744 34.4562 115.834 34.4562 117.374C34.4562 120.594 32.9262 114.734 32.5362 113.254C28.4062 97.6741 23.5162 82.2841 17.8762 67.1841L18.3062 69.0841L18.3162 69.0741Z" fill="#44410A"/>
<path d="M34.1962 116.904C34.1962 116.904 34.2462 116.884 34.2662 116.864C34.2662 116.864 34.2662 116.864 34.2662 116.854L34.1862 116.904H34.1962Z" fill="#004080"/>
<path d="M46.2362 111.354C46.1662 112.134 45.2462 113.094 44.6362 113.864C43.4262 115.404 42.2062 116.944 40.9962 118.494C40.0862 119.644 39.1362 120.834 37.7062 121.354C37.3162 121.504 36.8962 121.574 36.4762 121.554C35.5562 121.514 34.8962 121.144 34.4762 120.584C33.7562 119.644 33.6962 118.204 34.1862 117.064C34.2062 117.004 34.2362 116.944 34.2662 116.884C34.5562 116.754 34.7562 116.664 34.8862 116.604C34.6462 116.704 34.2762 116.864 34.2762 116.864C34.9462 115.514 36.1762 114.524 37.3662 113.594C37.6062 113.404 38.1662 113.014 38.8762 112.564C41.0362 111.194 44.6362 109.214 45.5162 110.284C45.7462 110.554 46.2762 110.934 46.2362 111.364V111.354Z" fill="#758000"/>
<path d="M46.2962 111.364C46.2262 112.144 45.7562 113.104 45.1562 113.874C43.9462 115.414 42.7262 116.954 41.5162 118.504C40.6062 119.654 39.6562 120.844 38.2262 121.364C37.8362 121.514 37.4162 121.584 36.9962 121.564C36.0762 121.524 35.4162 121.154 34.9962 120.594C34.9762 120.464 34.9562 120.334 34.9562 120.194C34.9562 119.374 35.2962 118.614 35.7662 117.924C35.8862 117.744 36.0162 117.574 36.1462 117.414C37.1362 116.174 38.3562 115.134 39.5962 114.134C39.8062 113.974 40.0162 113.804 40.2262 113.634C41.1962 112.864 42.1862 112.084 43.3262 111.614C44.2662 111.234 45.3362 111.084 46.3062 111.354L46.2962 111.364Z" fill="#758000"/>
<path d="M37.2162 81.064C37.2162 81.064 35.5462 83.204 33.3362 86.064L33.1662 85.954L32.9562 85.124L28.3362 66.264L37.5062 60.874V73.054C37.5062 75.564 37.9362 78.674 37.2162 81.074V81.064Z" fill="#2F2D05"/>
<path d="M38.1661 26.3541V53.7441C38.1661 54.3741 37.8361 54.9541 37.3061 55.2741L31.3061 58.9541C28.4561 60.7041 25.1561 61.4341 21.8961 61.1041C20.7561 60.9841 19.6161 60.7341 18.5061 60.3441L15.1761 58.1141L16.9861 28.0841C17.0361 26.8041 17.5361 25.6141 18.3961 24.7141C18.7161 24.3541 19.0961 24.0541 19.5261 23.7941L21.6861 22.4341L22.2861 22.0541C23.9161 20.9141 27.0861 19.7341 29.9361 19.3941C30.4961 19.3241 31.0361 19.2841 31.5561 19.2841C32.6961 19.2841 33.7161 19.4641 34.4561 19.8941C36.7461 21.2341 38.1761 23.6841 38.1761 26.3441L38.1661 26.3541Z" fill="#FEF8DC"/>
<g opacity="0.59">
<path d="M16.9862 28.094C16.9962 27.784 17.0362 27.484 17.1062 27.184C18.3162 26.144 19.4962 25.164 20.5662 26.404C21.3162 27.264 21.8162 29.254 22.2862 30.294C22.2662 30.344 22.2562 30.384 22.2362 30.434C21.7162 31.904 21.0062 34.354 21.4162 35.854C21.7062 36.924 22.5362 37.794 22.7562 38.884C23.2062 41.194 20.7662 46.954 21.0062 49.304C21.1362 50.644 22.1062 51.724 22.7262 52.914C24.0262 55.504 23.4962 58.674 21.9062 61.124C20.7662 61.004 19.6262 60.754 18.5162 60.364L15.1862 58.134L16.9962 28.104L16.9862 28.094Z" fill="#D9EBFB"/>
</g>
<path d="M16.0761 28.0741C16.0761 27.9741 16.0961 27.8741 16.0961 27.7841H16.0261C16.0261 27.7841 16.0661 26.1241 16.0661 26.1141C16.1161 24.7341 16.6661 23.4341 17.5961 22.4541C18.8461 21.1341 21.2361 20.5741 22.8861 19.8541C28.3961 17.4441 39.5261 19.0041 39.5261 26.3541V59.6741C39.5261 60.4541 39.1161 61.1841 38.4461 61.5941L36.4961 62.7841C36.1061 63.0241 35.6061 63.0441 35.2161 62.8141C34.6761 62.5041 34.3561 61.9441 34.3661 61.3241C34.4261 56.4641 34.4961 51.6141 34.5561 46.7541C34.6561 39.2341 35.7861 31.9941 34.6661 24.5241C34.5461 23.7641 34.4161 22.9841 34.0661 22.3041C32.8461 19.9541 29.0161 19.8641 26.7361 20.3641C25.8961 20.5441 25.2961 20.9141 24.8761 21.4041L26.6161 20.9041C25.8161 21.1641 25.0761 21.5441 24.4461 22.0441C23.6561 23.6141 24.0161 25.9241 24.3961 27.7941C26.7261 39.3041 26.8461 51.2541 24.7461 62.8041C24.6661 63.2141 24.5161 63.6741 24.2961 64.0641C24.2361 64.5641 24.0861 65.0541 23.8461 65.5041C23.3661 66.4041 22.7861 67.0241 21.9861 67.3241C21.4261 67.3241 20.8661 67.3241 20.3061 67.2941C19.4461 67.1541 18.5661 66.9641 17.8861 66.7141L15.0761 64.9041C14.5661 64.5741 14.2661 63.9941 14.2961 63.3941C14.5861 57.6841 16.0661 28.0941 16.0661 28.0841L16.0761 28.0741Z" fill="#B8B200"/>
<path d="M23.7262 23.7141C23.5062 23.1641 23.3362 22.6041 23.2262 22.0341C22.1762 16.3941 32.5562 16.0941 32.5562 22.4741V23.4741C32.5562 23.8741 32.2562 24.1741 31.9262 24.1041L29.2262 23.5341L26.9762 26.2041C26.6462 26.7441 25.9862 26.7841 25.6162 26.2941C25.0462 25.5341 24.3862 24.6341 23.7262 23.7341V23.7141Z" fill="#D7D67C"/>
<path d="M26.9362 12.6841C26.9362 12.6841 26.9162 12.6941 26.9062 12.7041C26.8962 12.6641 26.8962 12.6041 26.8962 12.5641C26.8962 12.6041 26.9062 12.6541 26.9362 12.6841Z" fill="#4168C3"/>
<path d="M7.46615 63.9941C7.46615 63.9941 7.49615 63.9941 7.51615 63.9941C7.44615 64.1941 7.38615 64.3841 7.31615 64.5841C7.46615 64.1241 7.62615 63.6541 7.78615 63.1841C9.94615 56.7141 12.7962 44.5541 13.3562 42.9141L21.1862 26.6241C22.0362 25.0741 21.4662 23.1341 19.9262 22.2941C18.3762 21.4541 16.4362 22.0141 15.5962 23.5541L7.63615 40.0741C7.55615 40.2241 7.47615 40.3841 7.42615 40.5441C7.22615 41.0941 6.10615 44.4441 4.80615 48.3341C3.86615 51.1541 2.64615 58.4541 1.80615 60.9641C1.62615 61.4941 1.46615 61.9941 1.30615 62.4641C1.38615 62.7641 1.57615 63.0741 1.87615 63.3741C2.93615 64.4341 4.96615 64.9941 6.42615 64.6041C6.90615 64.4741 7.25615 64.2641 7.47615 64.0041L7.46615 63.9941Z" fill="#B8B200"/>
<path d="M7.67625 64.2441C7.45625 64.5041 6.89625 64.4641 6.41625 64.5941C4.96625 64.9841 2.92625 64.4241 1.86625 63.3641C1.56625 63.0641 1.37625 62.7541 1.29625 62.4541C1.21625 62.7041 1.12625 62.9541 1.05625 63.1841C1.05625 63.2041 1.04625 63.2241 1.03625 63.2441C0.836246 63.8441 0.666246 64.3641 0.526246 64.7741C0.496246 64.8641 0.466246 64.9441 0.446246 65.0241C0.406246 65.1341 0.376246 65.2341 0.346246 65.3241C0.326246 65.3741 0.316246 65.4241 0.296246 65.4641C0.296246 65.4941 0.276246 65.5241 0.266246 65.5441C0.266246 65.5641 0.256246 65.5841 0.246246 65.6041C0.246246 65.6241 0.226246 65.6541 0.226246 65.6741C0.226246 65.6941 0.206246 65.7241 0.206246 65.7441C0.206246 65.7641 0.196246 65.7841 0.186246 65.8041C0.186246 65.8041 0.186246 65.8141 0.186246 65.8241C0.186246 65.8541 0.166246 65.8741 0.166246 65.8941C-0.393754 67.5641 0.506246 69.3741 2.18625 69.9341C2.24625 69.9541 2.30625 69.9741 2.36625 69.9841C3.98625 70.4241 5.68625 69.5241 6.22625 67.9141C6.42625 67.3341 6.63625 66.6941 6.85625 66.0341C7.06625 65.3941 7.29625 64.7141 7.52625 64.0141C7.50625 64.0141 7.69625 64.2641 7.68625 64.2641L7.67625 64.2441Z" fill="#FFC2B0"/>
<path d="M8.80616 60.7041L8.75616 60.8841C8.47616 61.7941 8.23616 62.5741 8.01616 63.2541L7.68616 64.2541L7.32616 64.5941L7.16616 64.5441C6.96616 64.6641 6.73616 64.7541 6.48616 64.8241C5.72616 65.0241 4.80616 64.9841 3.94616 64.7441C3.08616 64.5141 2.27616 64.0841 1.71616 63.5341C1.39616 63.2141 1.18616 62.8741 1.08616 62.5241L1.06616 62.4541L1.58616 60.8941C1.65616 60.6841 1.81616 60.0541 1.98616 59.3641C2.04616 59.1241 2.33616 59.0341 2.51616 59.1941C2.72616 59.3841 2.92616 59.5541 3.00616 59.6341C4.01616 60.6441 5.95616 61.1741 7.33616 60.8041C7.63616 60.7241 8.37616 60.7241 8.57616 60.5741C8.60616 60.5841 8.62616 60.6041 8.65616 60.6141L8.81616 60.7041H8.80616Z" fill="#FAFFC6"/>
<path d="M24.8062 19.864V13.304C24.8062 12.494 25.1262 11.754 25.6362 11.204C25.9262 10.884 26.2962 10.624 26.7162 10.454C27.0462 10.334 27.3862 10.254 27.7562 10.244C27.9262 10.244 28.0962 10.254 28.2562 10.264C28.9262 10.354 29.5462 10.674 30.0062 11.134C30.5562 11.684 30.9062 12.444 30.9062 13.294V19.854V20.174H30.8762C30.6662 21.244 29.4162 22.044 27.8562 22.044C26.2962 22.044 25.0462 21.244 24.8362 20.174H24.8062V19.854V19.864Z" fill="#FFC2B0"/>
<g style="mix-blend-mode:multiply">
<path d="M30.5462 20.9841C28.0062 20.8541 25.9962 19.2341 25.9962 17.2741V10.9741C26.5562 10.7941 27.1662 10.7141 27.8062 10.7141H27.9762C28.0962 10.7141 28.2162 10.7241 28.3362 10.7341H28.4462C28.7362 10.7841 29.0162 10.8741 29.2662 11.0241C29.3862 11.0741 29.4962 11.1441 29.5962 11.2241C29.6462 11.2641 29.6962 11.2941 29.7362 11.3341C29.8562 11.4441 29.9662 11.5441 30.0662 11.6641C30.5762 12.2441 30.8962 13.0541 30.8962 13.9541V19.5841L30.5362 20.9841H30.5462Z" fill="#FFC2B0"/>
</g>
<path d="M35.7362 12.2641C35.6762 13.9141 35.3962 15.5441 34.4262 16.7541C33.3662 18.1041 31.6462 18.6441 30.0162 18.6841C29.1162 18.7041 28.1862 18.5741 27.3862 18.1041C25.8862 17.2041 25.1762 15.2641 24.7962 13.4341C24.6562 12.7341 24.5562 12.0341 24.5162 11.3241C24.4862 10.5241 24.5362 9.7041 24.7462 8.9341C25.2062 7.2641 26.3662 5.8841 27.7562 5.0141C29.1462 4.1441 30.7362 3.7541 32.3262 3.5641C33.0962 3.4641 33.9262 3.44409 34.6262 3.84409C35.0862 4.10409 35.4462 4.5941 35.5562 5.1341C35.6062 5.3241 35.6062 5.53409 35.5762 5.72409C35.6262 7.22409 35.6762 8.7141 35.7262 10.2141C35.7462 10.8941 35.7662 11.5741 35.7462 12.2741L35.7362 12.2641Z" fill="#FFC2B0"/>
<path d="M24.9361 11.0441C24.9361 11.0441 24.9161 11.0541 24.9061 11.0641C24.9061 11.0241 24.9061 10.9641 24.9061 10.9241C24.9061 10.9641 24.9061 11.0141 24.9461 11.0441H24.9361Z" fill="#4168C3"/>
<path d="M24.9361 11.0441C24.9361 11.0441 25.0061 11.0041 25.0461 10.9841C25.1461 10.9341 25.2761 10.8841 25.3461 10.9841C25.3961 11.0441 25.3161 11.1241 25.2561 11.1341L25.4861 11.3841C25.2661 11.4441 25.0061 11.2841 24.9261 11.0541L24.9361 11.0441Z" fill="#4168C3"/>
<path d="M24.9362 16.124C24.9362 16.124 24.8662 16.024 24.8262 15.974C24.8262 16.014 24.8262 16.054 24.8262 16.084L24.9462 16.124H24.9362Z" fill="#4168C3"/>
<path d="M37.5862 4.62406C37.8062 3.80406 37.2862 2.82406 35.6062 1.67406C33.0562 -0.075941 28.7362 -0.545941 26.0162 0.704059C25.3262 1.01406 24.6562 1.37406 24.0462 1.84406C21.8262 3.59406 21.0062 7.10406 22.0162 9.87406C22.4562 11.8241 22.8962 16.2541 24.6562 15.6441C25.5962 15.3141 25.2062 12.0141 25.2362 11.8941C25.5962 10.5441 26.6062 9.80406 26.7862 8.19406L27.6962 7.65406C29.9462 8.03406 36.9362 7.05406 37.5762 4.63406L37.5862 4.62406Z" fill="#2A2A2A"/>
<path d="M25.7862 11.5241C26.1162 11.5441 26.3262 11.9841 26.2262 12.3241C26.1262 12.6641 25.7962 12.8841 25.4662 12.9041C25.1362 12.9341 24.8162 12.8041 24.5162 12.6541C23.9562 12.3641 23.4062 11.9441 23.1662 11.3241C22.9262 10.7041 23.0762 9.85409 23.6362 9.54409C24.1662 9.25409 24.8262 9.55409 25.1962 10.0541C25.5662 10.5541 25.7062 11.2041 25.8462 11.8341L25.7862 11.5241Z" fill="#FFC2B0"/>
<path d="M25.7762 12.314C25.2762 12.314 24.8762 11.904 24.8762 11.414V7.64402C24.8762 7.14402 25.2862 6.74402 25.7762 6.74402C26.2762 6.74402 26.6762 7.15402 26.6762 7.64402V11.414C26.6762 11.914 26.2662 12.314 25.7762 12.314Z" fill="#2A2A2A"/>
</svg>
