<svg width="70" height="141" viewBox="0 0 70 141" fill="none" xmlns="http://www.w3.org/2000/svg">
<path d="M12.3881 80.1034L10.8334 79.2029L11.9246 78.574L13.4793 79.4745L12.3881 80.1034Z" fill="#B9A429"/>
<path d="M12.5379 133.003L10.9831 132.096L10.8334 79.2034L12.3881 80.1038L12.5379 133.003Z" fill="#B9A429"/>
<path d="M23.8063 140.9C23.5495 140.9 23.2928 140.836 23.0574 140.7L0.762933 127.936C0.0354744 127.522 -0.214144 126.593 0.199508 125.864C0.613161 125.135 1.54032 124.885 2.26777 125.299L24.5622 138.063C25.2897 138.477 25.5393 139.406 25.1257 140.135C24.8475 140.629 24.334 140.9 23.8063 140.9Z" fill="#B9A429"/>
<path d="M57.0628 53.8048L55.5151 52.9043L56.6063 52.2754L58.154 53.1759L57.0628 53.8048Z" fill="#B9A429"/>
<path d="M57.2125 106.705L55.6649 105.804L55.5151 52.9048L57.0628 53.8053L57.2125 106.705Z" fill="#B9A429"/>
<path d="M68.4811 114.608C68.2243 114.608 67.9676 114.544 67.7322 114.408L45.4377 101.644C44.7103 101.23 44.4607 100.301 44.8743 99.5719C45.288 98.8429 46.2151 98.5928 46.9426 99.0073L69.237 111.771C69.9645 112.186 70.2141 113.115 69.8005 113.844C69.5223 114.337 69.0088 114.608 68.4811 114.608Z" fill="#B9A429"/>
<path d="M55.2438 1.59119L52.6763 0.283353C52.0202 -0.109712 51.1857 -0.109712 50.3156 0.383406L5.92639 25.7397C4.22185 26.7116 3.05221 29.2415 3.3161 31.3641L12.2382 101.701C12.2952 102.173 12.4236 102.58 12.6019 102.923C12.6375 103.216 12.8158 103.495 13.0869 103.667L16.3462 105.689L17.3946 102.888L60.2148 78.4318C61.9193 77.4599 63.0889 74.93 62.8251 72.8074L54.1598 4.49987L55.2438 1.59833V1.59119Z" fill="#ECEC75"/>
<path d="M62.804 79.5961L18.4147 104.952C16.7102 105.924 15.0984 104.988 14.8274 102.866L5.90529 32.5284C5.63428 30.4058 6.81105 27.883 8.51559 26.904L52.9048 1.55484C54.6094 0.582895 56.2212 1.5191 56.4922 3.64165L65.4143 73.9789C65.6853 76.1014 64.5085 78.6242 62.804 79.6033V79.5961Z" fill="#B9A429"/>
<path d="M60.3858 73.5297L20.0475 96.5704C19.1917 97.0564 18.1219 96.5204 18.0007 95.5485L9.97724 32.2864C9.90592 31.729 10.1769 31.193 10.6619 30.9143L51.0002 7.87354C51.856 7.38757 52.9258 7.92356 53.0471 8.89551L61.0705 72.1575C61.1418 72.715 60.8708 73.251 60.3858 73.5297Z" fill="#F2F4FA"/>
<path d="M19.3699 96.9421C19.1274 96.9421 18.8921 96.8849 18.671 96.7777C18.2003 96.5419 17.8793 96.0916 17.8151 95.5699L9.79168 32.3079C9.71323 31.6718 10.0199 31.0644 10.5691 30.7428L50.9074 7.70202C51.3638 7.44474 51.913 7.4233 52.3837 7.65914C52.8544 7.89498 53.1753 8.34522 53.2395 8.86692L61.263 72.1289C61.3414 72.765 61.0347 73.3725 60.4856 73.6941L20.1473 96.7348C19.9048 96.8706 19.6409 96.9421 19.3699 96.9421ZM51.6847 7.87354C51.4851 7.87354 51.2854 7.92356 51.0999 8.03076L10.7616 31.0715C10.3408 31.3145 10.1126 31.779 10.1697 32.2579L18.1931 95.5199C18.243 95.9201 18.4784 96.256 18.8421 96.4347C19.2059 96.6133 19.6124 96.6062 19.9618 96.4061L60.3001 73.3653C60.7209 73.1223 60.9492 72.6578 60.8921 72.179L52.8687 8.91695C52.8187 8.51673 52.5834 8.18084 52.2196 8.00218C52.0485 7.91642 51.8702 7.87354 51.6847 7.87354Z" fill="#DCEFFE"/>
<path d="M36.6867 44.2845L28.6205 34.315C28.4208 34.0648 28.3851 33.7147 28.5492 33.4359C30.0968 30.7988 32.051 28.6334 34.2833 27.3041C40.7377 23.4592 47.0566 27.9545 48.3974 37.3451C49.7382 46.7358 45.5945 57.4701 39.1401 61.315C32.8854 65.0455 26.7733 60.929 25.1758 52.1315C25.1187 51.8242 25.2614 51.5098 25.5324 51.3383L36.6867 44.3274C36.6867 44.3274 36.7081 44.2917 36.6939 44.2774L36.6867 44.2845Z" fill="#FFE554"/>
<path d="M24.9188 33.8307L31.9438 42.5639C32.1934 42.8712 32.1149 43.3358 31.7797 43.543L21.5882 49.8892C21.1959 50.1322 20.6753 49.9035 20.5968 49.439C20.5326 49.0531 20.4685 48.6814 20.4613 48.6243C19.7053 43.1785 21.0319 38.7333 23.3426 33.9951C23.6422 33.3805 24.4837 33.2876 24.9188 33.8164V33.8307Z" fill="#DCC146"/>
<path d="M53.0116 60.7302L44.0111 65.8758L44.2607 67.8626L53.2684 62.717L53.0116 60.7302Z" fill="#FFE554"/>
<path d="M55.6505 63.1594L44.4747 69.5414L44.7315 71.5281L55.9072 65.1462L55.6505 63.1594Z" fill="#FFE554"/>
<path d="M44.9384 73.2077L45.1951 75.1945L49.4529 72.7646L49.2033 70.7778L44.9384 73.2077Z" fill="#FFE554"/>
<path d="M30.4174 84.1068L27.9997 65.0253C27.9569 64.7037 27.5932 64.5322 27.3222 64.7037L25.1184 66.0901C24.9686 66.183 24.8902 66.3546 24.9116 66.5261L27.3293 85.5719C27.3721 85.8935 27.7287 86.065 28.0068 85.8935L30.2177 84.5428C30.3675 84.4499 30.4531 84.2783 30.4245 84.1068H30.4174Z" fill="#DCC146"/>
<path d="M26.4241 86.5504L24.7837 73.6007C24.741 73.2791 24.3772 73.1076 24.1062 73.2791L21.9024 74.6656C21.7527 74.7585 21.6742 74.93 21.6956 75.1015L23.336 88.0155C23.3788 88.3371 23.7354 88.5086 24.0135 88.3371L26.2244 86.9864C26.3742 86.8935 26.4598 86.722 26.4312 86.5504H26.4241Z" fill="#FEDDA7"/>
<path d="M34.5186 81.5467L33.6414 74.6073C33.5986 74.2857 33.2349 74.1142 32.9639 74.2857L30.7601 75.6722C30.6103 75.7651 30.5319 75.9366 30.5533 76.1081L31.4305 83.0118C31.4733 83.3334 31.8299 83.5049 32.108 83.3334L34.319 81.9827C34.4687 81.8897 34.5543 81.7182 34.5258 81.5467H34.5186Z" fill="#FFE554"/>
</svg>
