<svg width="39" height="114" viewBox="0 0 39 114" fill="none" xmlns="http://www.w3.org/2000/svg">
<path d="M7.32912 37.2379L9.96332 19.7234C10.1968 18.2194 11.598 17.1732 13.1113 17.4068C14.6245 17.6403 15.6614 19.0415 15.4279 20.5547L12.7376 38.4616C12.7003 38.7232 12.6255 38.966 12.5134 39.2089L6.63788 51.9128C4.75098 51.8661 2.87341 51.0254 1.61237 49.6242L7.32912 37.2473V37.2379Z" fill="#CEB836"/>
<path d="M0.25771 52.5484L1.61217 49.6246C2.88256 51.0258 4.75078 51.8665 6.63769 51.9132L5.27388 54.8743C4.80682 55.8832 3.80733 56.481 2.76113 56.481C2.37814 56.481 1.97647 56.3969 1.60283 56.2288C0.220345 55.5843 -0.386826 53.9496 0.25771 52.5577V52.5484Z" fill="#FFC2B0"/>
<path d="M22.0975 101.673C22.0695 101.766 22.0414 101.86 22.0228 101.963L22.0975 101.673Z" fill="#084FAB"/>
<path d="M22.0975 101.672C22.0975 101.672 22.1162 101.626 22.1256 101.598C22.1723 101.392 22.2283 101.187 22.2844 100.991L22.1069 101.672H22.0975Z" fill="#084FAB"/>
<path d="M27.4965 102.281C27.4591 101.094 26.9547 100.282 25.6937 100.132C24.8343 100.029 23.9282 99.9826 23.1809 100.375C22.6858 100.637 22.3122 101.085 22.116 101.608C21.6023 103 20.1451 114.779 23.0595 113.284C26.2355 111.65 27.5899 105.429 27.4965 102.29V102.281Z" fill="#866F00"/>
<path d="M16.7636 97.1989C14.3816 94.4433 11.7007 98.3572 10.4397 99.9732C9.58028 101.075 6.59112 103.999 6.91806 105.541C7.03015 106.082 7.09554 106.054 7.62798 106.194C8.16043 106.334 8.73024 106.26 9.26268 106.129C12.0744 105.456 14.2975 103.868 15.5679 101.44C15.624 102.112 15.6333 102.794 15.624 103.467C15.624 103.616 15.7921 103.71 15.9229 103.626C16.1844 103.457 16.446 103.28 16.6982 103.093C17.6416 102.393 17.2213 101.412 17.4828 100.291C17.7257 99.2072 17.5109 98.0489 16.7729 97.1989H16.7636Z" fill="#866F00"/>
<path d="M26.0857 75.6117L25.9456 51.6518L27.9819 45.9163L15.7638 47.7005L8.26288 44.6366L9.00083 74.9485C9.00083 74.9485 11.9993 97.1523 12.0367 97.3858C12.1394 98.1611 10.813 100.113 10.3366 100.749C10.019 101.178 9.64536 101.608 9.57997 102.14C9.42117 103.401 10.7383 103.243 11.4762 102.99C12.9988 102.486 17.5386 99.2167 16.2402 97.0682C16.2402 97.2644 16.2775 96.8907 16.2402 97.0682L16.6138 76.7793L17.6413 56.0234L18.1925 65.7008L18.8557 75.5556L22.5454 101.505C22.4147 102.561 22.2932 103.616 22.1624 104.672C22.069 105.475 21.9756 107.11 22.2091 107.885C22.3119 108.221 22.5548 108.586 22.9284 108.586C23.1246 108.586 23.3021 108.474 23.4609 108.362C25.1609 107.147 26.3192 104.476 26.6088 102.495C26.7022 101.842 26.6929 101.141 26.422 100.543L26.095 75.6117H26.0857Z" fill="#FFC2B0"/>
<path d="M10.608 38.9855L9.6459 41.1619C8.52496 42.8714 7.94582 44.861 7.9645 46.888L7.88977 76.434C7.88977 76.434 23.7696 83.0381 30.7942 75.5466L31.1024 54.3983C31.1024 54.3983 30.4672 42.479 25.4324 39.7047L10.608 38.9855Z" fill="#A98D05"/>
<path d="M16.801 13.2033C16.801 13.2033 16.8197 13.2126 16.829 13.222C16.829 13.1846 16.829 13.1379 16.829 13.0912C16.829 13.1286 16.829 13.1659 16.7916 13.2033H16.801Z" fill="#715154"/>
<path d="M15.5495 17.3043C15.4841 17.3043 15.4281 17.323 15.3627 17.3324L15.8577 16.856C15.755 17.0054 15.6522 17.1549 15.5495 17.3043Z" fill="#FFC2B0"/>
<path d="M28.44 25.1597L27.4031 29.0456L25.3668 40.8434C25.1519 41.6467 23.7601 42.3006 23.0595 42.6462C21.182 43.571 17.5296 44.038 12.1398 41.7495C11.3084 41.3945 10.6826 40.6192 10.5051 39.6664L8.38465 30.9231L8.34729 30.7457C8.08574 29.3912 8.29124 27.9807 8.9171 26.7663L10.8881 22.9832V20.9655C10.8881 18.5648 13.0085 16.8461 15.1289 17.5093L17.0345 18.1725L22.2095 19.9754L26.6652 21.526C28.0664 22.0117 28.8417 23.6184 28.44 25.141V25.1597Z" fill="#CEB836"/>
<path d="M28.44 25.1597L27.4031 29.0456C26.88 29.6901 26.3663 30.3346 25.8432 30.9792C24.7503 32.3336 23.6013 33.7348 22.0787 34.4447C19.5379 35.6311 16.6235 34.6596 14.0547 33.5667C12.4667 32.8941 10.8881 32.1842 9.32811 31.4182C9.01051 31.2688 8.68357 31.11 8.38465 30.9231L8.34729 30.7457C8.08574 29.3912 8.29124 27.9807 8.9171 26.7663L10.8881 22.9832V20.9655C10.8881 18.5648 13.0085 16.8461 15.1289 17.5093L17.0345 18.1725L22.2095 19.9754L26.6652 21.526C28.0664 22.0117 28.8417 23.6184 28.44 25.141V25.1597Z" fill="#CEB836"/>
<path d="M15.54 23.7497C15.6334 23.8524 15.7828 23.8991 15.9136 23.9272C16.5301 24.0206 17.1373 23.6843 17.6791 23.3387C19.0616 22.4606 20.3973 21.4891 21.6677 20.4336C21.8452 20.2841 22.0227 20.1347 22.2095 19.9852L19.1737 18.9297L17.0346 18.1824C16.9692 18.3225 16.8944 18.4719 16.829 18.6121C16.4461 19.4528 16.1191 20.3215 15.8576 21.2182C15.6988 21.7694 15.5587 22.3298 15.4466 22.8996C15.3905 23.1985 15.3532 23.5348 15.54 23.7403V23.7497Z" fill="#FFC2B0"/>
<path d="M28.9444 44.5987C28.2345 44.6641 27.5152 44.7108 26.7959 44.7295C26.3382 44.7295 25.8898 44.7295 25.4321 44.7108C25.3014 44.7108 25.2173 44.7108 25.1426 44.7015C25.0772 44.6828 24.9931 44.6734 24.881 44.6454C24.7783 44.6267 24.4607 44.5333 24.2738 44.4866C24.1898 44.4306 24.1244 44.3932 24.087 44.3839C24.0683 44.3652 24.0496 44.3465 24.031 44.3372C24.0123 44.2905 23.9936 44.2438 23.9843 44.2251C23.8161 43.6926 23.8255 43.4311 23.8161 42.8986C23.8161 42.6838 23.7881 42.4783 23.7601 42.2821C25.5069 39.4798 28.907 38.1253 31.1489 37.2379C31.7747 36.9951 32.5968 36.6681 32.9517 36.4626C33.1199 36.1357 33.0825 35.734 32.8023 35.4258L25.1893 26.3742C24.2084 25.2066 24.3579 23.4598 25.5255 22.479C26.6932 21.4982 28.44 21.6476 29.4208 22.8153L37.0058 31.8294C39.0048 34.1367 39.1075 37.5649 37.2299 39.9749C36.3425 41.1145 34.9507 41.6656 33.1759 42.3662C31.6813 42.964 29.9252 43.6553 28.9444 44.5987Z" fill="#CEB836"/>
<path d="M6.71252 29.4756L6.77791 29.6064C6.77791 29.6064 6.74055 29.6064 6.73121 29.6064C6.73121 29.569 6.73121 29.5223 6.72187 29.4756H6.71252Z" fill="#DCEFFE"/>
<path d="M22.2095 13.166H16.829V20.4427H22.2095V13.166Z" fill="#FFC2B0"/>
<g style="mix-blend-mode:multiply">
<path d="M15.8577 21.2275C16.2687 21.1341 16.689 20.9379 17.044 20.7231C17.1841 20.639 17.3336 20.5363 17.4643 20.4429C18.0902 20.0038 18.6507 19.4994 19.1738 18.9389C20.3788 17.6405 21.3316 16.0619 22.2096 14.4832V13.1661H16.8291V18.6213C16.4462 19.462 16.1192 20.3308 15.8577 21.2275Z" fill="#FFC2B0"/>
</g>
<g style="mix-blend-mode:multiply">
<path d="M22.2184 15.6038L16.8566 18.7424L16.8379 18.6677V15.2208L22.2184 15.6038Z" fill="#FFC2B0"/>
</g>
<path d="M27.0947 5.66506C26.9359 0.59284 22.4334 1.69509 18.1272 2.06873C17.7349 2.1061 17.3239 2.13412 16.9596 2.27424C16.6326 2.39567 16.343 2.59184 16.0722 2.79734C13.5594 4.69358 11.8313 7.57064 12.1769 10.4757C12.8121 15.9216 20.5185 17.986 24.6566 13.9693C26.8891 11.8022 27.1881 8.59817 27.0947 5.66506Z" fill="#343539"/>
<path d="M12.0184 12.232C12.0745 13.82 12.3454 15.3893 13.2795 16.557C14.307 17.8554 15.9604 18.3691 17.5297 18.4158C18.3984 18.4345 19.2858 18.3131 20.0611 17.8554C21.509 16.9866 22.1816 15.1184 22.5552 13.3623C22.686 12.6897 22.7887 12.0078 22.8261 11.3259C22.8541 10.5506 22.8074 9.76597 22.6019 9.02802C22.1629 7.42135 21.0419 6.08557 19.7062 5.25422C18.3704 4.42286 16.8384 4.03987 15.3065 3.86239C14.5686 3.76898 16.9879 3.7503 16.3247 4.13328C15.8856 4.37615 14.6153 4.85255 14.5125 5.36631C14.4658 5.55313 12.1679 5.74929 12.1959 5.93612C12.1492 7.38399 12.1025 8.81318 12.0558 10.261C12.0371 10.9149 12.0184 11.5688 12.0371 12.2414L12.0184 12.232Z" fill="#FFC2B0"/>
<path d="M22.1066 2.13413C23.4611 -0.38797 27.5618 -0.761612 29.346 1.48025C31.1301 3.72212 29.8597 7.63604 27.0948 8.39267C25.0584 8.95313 22.6858 7.77615 21.9105 5.80518C21.1352 3.83421 22.0973 1.34948 24.0029 0.424707L22.0973 2.13413H22.1066Z" fill="#343539"/>
<path d="M15.6333 7.30933C16.1658 8.5984 16.885 9.83143 17.9032 10.7842C18.9214 11.737 20.2665 12.3909 21.6583 12.4096C22.3122 12.4096 23.0222 12.2508 23.4425 11.7557C23.6667 11.4848 23.7881 11.1392 23.8722 10.8029C24.2272 9.45779 24.1805 7.98189 23.62 6.7115C23.0595 5.44111 21.9386 4.38557 20.5935 4.0306C19.183 3.65696 17.6417 4.05862 16.4087 4.85262C15.5399 5.41308 14.7179 6.38456 14.9701 7.3934L15.6333 7.31867V7.30933Z" fill="#343539"/>
<path d="M21.2846 14.2125C21.3966 14.2966 21.5181 14.2966 21.6302 14.2499C21.6395 14.2125 21.6302 14.1658 21.6489 14.1284L21.2752 14.2125H21.2846Z" fill="#FFC2B0"/>
<path d="M23.7038 11.7553C23.162 11.5685 22.6202 12.1756 22.3867 12.8669C22.2653 13.2125 22.1905 13.5955 22.0224 13.9037C21.929 14.0719 21.7795 14.2027 21.6301 14.2587C21.4713 14.8005 21.7889 15.4731 22.2186 15.6132C22.6856 15.7626 23.162 15.4637 23.545 15.0807C23.956 14.6697 24.311 14.0999 24.395 13.418C24.4791 12.7361 24.1989 11.9421 23.7038 11.774V11.7553Z" fill="#FFC2B0"/>
<path d="M19.8087 6.45933C17.1558 7.32805 14.4936 8.18743 11.8407 9.05616C11.5138 7.44015 12.1676 5.72138 13.3353 4.56309C14.5029 3.40479 16.1096 2.2932 17.7443 2.08769C19.024 1.91955 20.668 2.71355 20.9856 3.96526C21.3406 5.34774 19.7993 6.41263 18.5009 7.01046L19.818 6.45933H19.8087Z" fill="#343539"/>
<path d="M7.16089 51.8575C7.16089 51.8575 7.16089 51.8855 7.16089 51.8949C7.38508 51.8949 7.6186 51.8668 7.84279 51.8295L7.16089 51.8575Z" fill="#FFC2B0"/>
<path d="M25.0676 41.1611C25.927 41.0863 26.7771 41.2078 27.5524 41.5907C27.6458 41.6375 27.7392 41.6935 27.8233 41.7496C28.8601 42.4034 28.8975 43.87 27.9914 44.7013C27.4776 45.1684 27.132 45.7102 27.0386 46.3267C26.8798 47.4476 26.0018 48.3257 24.8715 48.3257H24.7594C24.4231 48.3257 24.0681 48.251 23.7225 48.0828C22.8164 47.6344 22.3307 46.6163 22.4895 45.6168C22.7791 43.7018 23.7879 42.2633 25.0583 41.1611H25.0676Z" fill="#FFC2B0"/>
</svg>
