<svg width="174" height="384" viewBox="0 0 174 384" fill="none" xmlns="http://www.w3.org/2000/svg">
<g clip-path="url(#clip0_0_1)">
<path d="M25.4086 191.51C20.9154 191.889 15.1566 189.205 12.5619 185.477C11.9924 184.688 10.2204 183.172 10.0306 182.382C9.99891 182.382 9.93562 182.382 9.90398 182.382C18.7638 162.166 32.8762 134.528 34.6165 130.074L49.0453 74.829C50.1527 69.3645 55.5003 65.8584 60.9743 66.9639C66.4484 68.101 69.9607 73.4076 68.8532 78.8721L54.2346 134.939C54.1397 135.476 53.9814 136.013 53.7916 136.518C53.1587 138.224 48.982 148.616 44.1724 160.619C41.3246 167.726 32.8445 182.35 28.1298 191.7C27.94 191.574 27.7501 191.447 27.497 191.447C26.5794 191.447 25.7567 191.479 25.4086 191.51Z" fill="#91912B"/>
<path d="M4.84127 194.606L5.34755 194.795C5.56904 195.49 5.94875 196.185 6.42338 196.88C7.84727 198.933 10.1571 200.671 12.7202 201.871C15.2832 203.071 18.0993 203.703 20.5674 203.513C21.3901 203.45 22.1179 203.292 22.7823 203.04L14.4921 217.696C12.024 218.865 9.11296 219.054 6.36009 217.98C6.17024 217.885 5.98038 217.822 5.82217 217.727C1.01257 215.485 -1.26566 209.831 0.759438 204.84C1.48721 203.04 2.27826 201.081 3.10096 199.028C3.67052 197.607 4.27171 196.122 4.87291 194.606H4.84127Z" fill="#FFC2B0"/>
<path d="M20.5357 203.513C18.0676 203.734 15.2515 203.071 12.6885 201.871C10.1255 200.671 7.84724 198.902 6.3917 196.88C5.91707 196.185 5.56901 195.49 5.31587 194.795L4.8096 194.606L4.65139 193.058L5.88543 189.994C6.73977 187.91 7.72068 185.541 8.92308 182.761L9.17621 182.224L9.74577 182.35C9.74577 182.35 9.84069 182.35 9.90398 182.35C9.93562 182.35 9.99891 182.35 10.0305 182.35C10.1888 183.14 11.9924 184.625 12.5619 185.446C15.1249 189.141 20.8838 191.858 25.4086 191.479C25.7883 191.447 26.5794 191.447 27.497 191.416C27.7501 191.416 27.9716 191.51 28.1298 191.668C28.4779 191.953 28.6678 192.458 28.4146 192.9C28.2248 193.311 28.0349 193.69 27.8451 194.069L22.7507 203.04C22.0862 203.292 21.3584 203.45 20.5357 203.513Z" fill="#DCDF80"/>
<path d="M74.9918 220.854L55.9116 174.58L125.936 183.582L104.103 223.729L74.9918 220.854Z" fill="#FAFBD9"/>
<path d="M125.208 328.565C127.454 328.534 129.416 330.303 130.271 332.356C131.157 334.409 131.157 336.746 131.157 338.989C131.157 340.947 131.062 343.158 129.669 344.517C128.752 345.401 127.486 345.78 126.252 346.096C123.942 346.728 121.632 347.359 119.259 347.549C116.57 347.77 113.848 347.454 111.159 347.865C109.45 348.117 107.805 348.654 106.128 349.065C101.381 350.171 96.3502 350.044 91.6672 348.686C90.623 348.37 89.5472 347.991 88.851 347.138C87.7119 345.748 88.1233 343.569 89.2624 342.179C90.4015 340.789 92.1102 340 93.7239 339.242C98.6601 336.999 103.565 334.725 108.501 332.482C113.342 330.271 118.341 328.028 123.657 327.902C125.366 327.87 127.581 328.628 127.454 330.334L125.208 328.597V328.565Z" fill="#847934"/>
<path d="M119.622 315.144L120.127 315.103C123.384 314.839 126.239 317.261 126.503 320.513L127.312 330.461C127.576 333.713 125.15 336.563 121.893 336.827L121.388 336.868C118.131 337.131 115.276 334.71 115.012 331.458L114.203 321.509C113.939 318.258 116.365 315.408 119.622 315.144Z" fill="#FEFDDC"/>
<path d="M56.228 256.042C56.228 256.042 61.5122 262.802 68.5051 271.835C68.6317 271.993 68.7266 272.12 68.8532 272.278C74.8652 280.08 82.1112 289.461 88.2814 297.61C93.4708 304.496 97.9323 310.529 100.211 313.941C102.963 318.047 105.716 322.153 109.134 325.691C110.589 327.207 112.203 328.628 114.196 329.292C114.386 329.355 114.608 329.418 114.861 329.45C115.114 329.45 115.399 329.481 115.747 329.481C117.772 329.481 120.904 328.944 123.626 327.902C124.891 327.428 126.062 326.86 126.948 326.133C128.72 324.806 129.574 323.101 128.34 321.079C128.34 321.079 108.849 288.798 97.2362 269.561C92.3 261.38 88.7877 255.568 88.7877 255.568L84.7059 207.809L84.5477 206.04L84.8008 206.135C83.9148 199.691 83.4086 193.185 82.8707 187.057C82.048 177.581 81.1303 168.136 81.7315 158.629C82.0163 153.922 82.5226 149.279 82.9972 144.604L81.5733 144.099L55.3104 157.997V230.615C55.3104 238.543 53.9498 248.367 56.228 255.947V256.042Z" fill="#EDEFB7"/>
<path d="M116.032 218.17C117.582 212.705 122.55 206.23 118.373 202.376C116.348 200.513 113.279 200.702 110.558 200.986C104.166 201.681 97.7741 202.376 91.3507 203.071C89.6104 203.261 87.7435 203.513 86.4462 204.682C85.1805 205.819 84.7375 207.588 84.3262 209.262C75.498 246.819 69.5177 268.519 60.6895 306.076C57.6202 319.152 54.5193 348.117 53.1271 361.479C52.779 364.89 49.7414 368.744 51.988 371.365C55.1205 375.061 64.9612 365.869 64.9612 370.734C64.9612 380.905 69.8025 362.395 71.0365 357.72C84.1047 308.508 99.5777 259.896 117.424 212.2L116.063 218.201L116.032 218.17Z" fill="#FAFBD9"/>
<path d="M65.7839 369.249C65.7839 369.249 65.6257 369.186 65.5624 369.123C65.5624 369.123 65.5624 369.123 65.5624 369.091L65.8156 369.249H65.7839Z" fill="#758000"/>
<path d="M27.6868 351.718C27.9083 354.182 30.8194 357.214 32.7496 359.647C36.5783 364.511 40.4386 369.375 44.2673 374.271C47.1467 377.904 50.1527 381.663 54.6776 383.305C55.9116 383.779 57.2406 384 58.5695 383.937C61.4806 383.81 63.569 382.642 64.898 380.873C67.1762 377.904 67.366 373.355 65.8156 369.754C65.7523 369.565 65.6574 369.375 65.5624 369.186C64.6448 368.775 64.012 368.491 63.6006 368.301C64.36 368.617 65.5308 369.123 65.5308 369.123C63.4108 364.858 59.5188 361.731 55.7534 358.794C54.994 358.194 53.222 356.962 50.9754 355.54C44.1407 351.213 32.7496 344.959 29.965 348.339C29.2373 349.191 27.5602 350.392 27.6868 351.75V351.718Z" fill="#847934"/>
<path d="M27.497 351.75C27.7185 354.214 29.2057 357.246 31.1042 359.678C34.9329 364.543 38.7932 369.407 42.6219 374.303C45.5014 377.935 48.5074 381.694 53.0322 383.337C54.2662 383.81 55.5952 384.032 56.9242 383.968C59.8352 383.842 61.9236 382.673 63.2526 380.904C63.3159 380.494 63.3792 380.083 63.3792 379.641C63.3792 377.051 62.3033 374.65 60.8161 372.471C60.4364 371.902 60.0251 371.365 59.6137 370.86C56.4812 366.943 52.6208 363.658 48.6972 360.499C48.0327 359.994 47.3682 359.457 46.7038 358.92C43.6345 356.488 40.5019 354.024 36.8947 352.54C33.9203 351.339 30.5346 350.866 27.4653 351.718L27.497 351.75Z" fill="#847934"/>
<path d="M56.228 256.042C56.228 256.042 61.5123 262.802 68.5052 271.835L69.0431 271.488L69.7076 268.866L84.3262 209.294L55.3104 192.268V230.741C55.3104 238.669 53.9498 248.493 56.228 256.074V256.042Z" fill="#EDEFB7"/>
<path d="M53.2221 83.2311V169.747C53.2221 171.737 54.2662 173.569 55.9433 174.58L74.9286 186.204C83.9466 191.732 94.3885 194.037 104.704 192.995C108.311 192.616 111.918 191.826 115.43 190.594L125.967 183.551L120.24 88.6956C120.082 84.6525 118.5 80.8936 115.779 78.0508C114.766 76.9137 113.564 75.9661 112.203 75.1449L105.368 70.8491L103.47 69.6488C98.3121 66.0479 88.2815 62.3206 79.2635 61.2467C77.4916 61.0256 75.7829 60.8992 74.1375 60.8992C70.5303 60.8992 67.3028 61.4678 64.9613 62.826C57.7152 67.0586 53.1904 74.7974 53.1904 83.1995L53.2221 83.2311Z" fill="#FEFDDC"/>
<g opacity="0.59">
<path d="M120.24 88.7271C120.208 87.7479 120.082 86.8003 119.86 85.8527C116.032 82.5677 112.298 79.4722 108.912 83.389C106.539 86.1054 104.957 92.3912 103.47 95.6762C103.533 95.8342 103.565 95.9605 103.628 96.1184C105.273 100.762 107.52 108.5 106.223 113.238C105.305 116.618 102.679 119.366 101.983 122.809C100.559 130.106 108.279 148.3 107.52 155.723C107.109 159.955 104.039 163.367 102.077 167.125C97.964 175.306 99.641 185.319 104.672 193.058C108.279 192.679 111.887 191.889 115.399 190.658L125.936 183.614L120.208 88.7587L120.24 88.7271Z" fill="#FAFBD9"/>
</g>
<path d="M123.119 88.664C123.119 88.3481 123.056 88.0322 123.056 87.748H123.278C123.278 87.748 123.151 82.5046 123.151 82.473C122.993 78.114 121.253 74.0077 118.31 70.9122C114.355 66.7428 106.792 64.9739 101.571 62.6997C84.1364 55.0873 48.9187 60.0148 48.9187 83.2311V188.478C48.9187 190.942 50.2161 193.248 52.3361 194.543L58.5063 198.302C59.7403 199.06 61.3224 199.123 62.5565 198.396C64.2652 197.417 65.2777 195.648 65.2461 193.69C65.0562 178.339 64.8347 163.019 64.6449 147.668C64.3284 123.915 60.7529 101.046 64.2968 77.4507C64.6765 75.0501 65.0879 72.5863 66.1953 70.4384C70.0557 63.0155 82.1746 62.7313 89.389 64.3106C92.0469 64.8792 93.9455 66.0479 95.2744 67.5956L89.7687 66.0163C92.3001 66.8375 94.6416 68.0378 96.635 69.6172C99.1348 74.5763 97.9957 81.8728 96.7933 87.7796C89.4206 124.136 89.0409 161.882 95.6858 198.365C95.9389 199.66 96.4136 201.113 97.1097 202.345C97.2995 203.924 97.7742 205.472 98.5336 206.893C100.052 209.736 101.888 211.694 104.419 212.642C106.191 212.642 107.963 212.642 109.735 212.547C112.456 212.105 115.241 211.505 117.392 210.715L126.284 204.998C127.897 203.956 128.847 202.124 128.752 200.228C127.834 182.192 123.151 88.7272 123.151 88.6956L123.119 88.664Z" fill="#A5A532"/>
<path d="M98.9133 74.8922C99.6094 73.1549 100.147 71.386 100.495 69.5856C103.818 51.7707 70.9733 50.8231 70.9733 70.9754V74.1341C70.9733 75.3976 71.9225 76.3452 72.9667 76.1241L81.5101 74.3236L88.6296 82.7573C89.6738 84.463 91.7621 84.5893 92.9329 83.0415C94.7365 80.641 96.8249 77.7981 98.9133 74.9553V74.8922Z" fill="#847934"/>
<path d="M88.7561 40.052C88.7561 40.052 88.8194 40.0836 88.851 40.1152C88.8827 39.9888 88.8827 39.7993 88.8827 39.6729C88.8827 39.7993 88.851 39.9572 88.7561 40.052Z" fill="#C3BF41"/>
<path d="M150.363 202.124C150.363 202.124 150.268 202.124 150.205 202.124C150.427 202.755 150.616 203.355 150.838 203.987C150.363 202.534 149.857 201.05 149.351 199.565C142.516 179.128 133.498 140.719 131.726 135.539L106.95 84.0839C104.261 79.188 106.064 73.0601 110.937 70.4068C115.842 67.7536 121.98 69.5224 124.638 74.3868L149.825 126.568C150.079 127.042 150.332 127.547 150.49 128.053C151.123 129.79 154.667 140.371 158.78 152.659C161.754 161.566 165.615 184.624 168.273 192.553C168.842 194.227 169.349 195.806 169.855 197.291C169.602 198.238 169.001 199.218 168.051 200.165C164.697 203.513 158.274 205.282 153.654 204.05C152.135 203.64 151.028 202.976 150.332 202.155L150.363 202.124Z" fill="#A5A532"/>
<path d="M149.699 202.913C150.395 203.734 152.167 203.608 153.686 204.019C158.274 205.251 164.729 203.482 168.083 200.134C169.032 199.186 169.633 198.207 169.887 197.259C170.14 198.049 170.424 198.839 170.646 199.565C170.646 199.628 170.678 199.691 170.709 199.755C171.342 201.65 171.88 203.292 172.323 204.587C172.418 204.872 172.513 205.124 172.576 205.377C172.703 205.724 172.798 206.04 172.893 206.325C172.956 206.483 172.987 206.64 173.051 206.767C173.051 206.862 173.114 206.956 173.146 207.02C173.146 207.083 173.177 207.146 173.209 207.209C173.209 207.272 173.272 207.367 173.272 207.43C173.272 207.493 173.335 207.588 173.335 207.651C173.335 207.714 173.367 207.778 173.399 207.841C173.399 207.841 173.399 207.872 173.399 207.904C173.399 207.999 173.462 208.062 173.462 208.125C175.234 213.4 172.386 219.117 167.07 220.886C166.881 220.949 166.691 221.012 166.501 221.044C161.375 222.434 155.996 219.591 154.287 214.506C153.654 212.674 152.99 210.652 152.293 208.567C151.629 206.546 150.901 204.398 150.173 202.187C150.237 202.187 149.636 202.976 149.667 202.976L149.699 202.913Z" fill="#FFC2B0"/>
<path d="M146.123 191.732L146.281 192.3C147.167 195.174 147.927 197.638 148.623 199.786L149.667 202.945L150.806 204.019L151.313 203.861C151.945 204.24 152.673 204.524 153.464 204.745C155.869 205.377 158.78 205.251 161.501 204.493C164.223 203.766 166.786 202.408 168.558 200.671C169.57 199.66 170.235 198.586 170.551 197.48L170.614 197.259L168.969 192.332C168.747 191.668 168.241 189.678 167.703 187.499C167.513 186.741 166.596 186.457 166.026 186.962C165.362 187.562 164.729 188.099 164.476 188.352C161.28 191.542 155.141 193.216 150.775 192.047C149.825 191.795 147.484 191.795 146.851 191.321C146.756 191.352 146.693 191.416 146.598 191.447L146.092 191.732H146.123Z" fill="#DCDF80"/>
<path d="M95.4959 62.7313V42.0104C95.4959 39.4518 94.4834 37.1144 92.8696 35.3771C91.952 34.3664 90.7812 33.5451 89.4523 33.0081C88.4081 32.6291 87.3322 32.3764 86.1615 32.3448C85.6236 32.3448 85.0857 32.3764 84.5794 32.408C82.4594 32.6923 80.4975 33.703 79.042 35.156C77.3017 36.8933 76.1942 39.2939 76.1942 41.9788V62.6997V63.7104H76.2891C76.9536 67.0902 80.9089 69.6172 85.8451 69.6172C90.7812 69.6172 94.7365 67.0902 95.401 63.7104H95.4959V62.6997V62.7313Z" fill="#FFC2B0"/>
<g style="mix-blend-mode:multiply">
<path d="M77.3333 66.269C85.3704 65.8584 91.7305 60.7413 91.7305 54.5503V34.6507C89.9585 34.0821 88.0283 33.8294 86.0032 33.8294H85.4653C85.0856 33.8294 84.7059 33.861 84.3262 33.8926H83.9781C83.0605 34.0505 82.1745 34.3348 81.3835 34.8086C81.0038 34.9665 80.6557 35.1876 80.3393 35.4403C80.1811 35.5667 80.0229 35.6614 79.8963 35.7878C79.5166 36.1352 79.1686 36.4511 78.8521 36.8301C77.2384 38.6622 76.2258 41.2207 76.2258 44.0635V61.8468L77.3649 66.269H77.3333Z" fill="#FFC2B0"/>
</g>
<path d="M60.911 38.7253C61.1009 43.9372 61.9869 49.0858 65.0562 52.9078C68.4102 57.172 73.8527 58.8777 79.0103 59.004C81.8581 59.0672 84.8008 58.6566 87.3322 57.172C92.0785 54.3292 94.3251 48.2014 95.5275 42.421C95.9705 40.2099 96.2869 37.9988 96.4135 35.7562C96.5084 33.2292 96.3502 30.6391 95.6857 28.207C94.2302 22.932 90.5597 18.573 86.1614 15.825C81.7632 13.0769 76.7321 11.845 71.701 11.2449C69.2645 10.929 66.6383 10.8658 64.4233 12.1293C62.9678 12.9506 61.8287 14.4983 61.4806 16.204C61.3224 16.8041 61.3224 17.4675 61.4173 18.0676C61.2591 22.8056 61.1009 27.5121 60.9427 32.2501C60.8794 34.398 60.8161 36.5459 60.8794 38.7569L60.911 38.7253Z" fill="#FFC2B0"/>
<path d="M95.0845 34.8718C95.0845 34.8718 95.1478 34.9034 95.1794 34.935C95.1794 34.8086 95.1794 34.6191 95.1794 34.4927C95.1794 34.6191 95.1794 34.777 95.0529 34.8718H95.0845Z" fill="#C3BF41"/>
<path d="M95.0846 34.8718C95.0846 34.8718 94.8631 34.7454 94.7365 34.6822C94.4201 34.5243 94.0087 34.3664 93.7872 34.6822C93.629 34.8718 93.8822 35.1245 94.072 35.156L93.3443 35.9457C94.0404 36.1352 94.8631 35.6298 95.1162 34.9034L95.0846 34.8718Z" fill="#C3BF41"/>
<path d="M95.0846 50.9178C95.0846 50.9178 95.306 50.602 95.4326 50.444C95.4326 50.5704 95.4326 50.6967 95.4326 50.7915L95.0529 50.9178H95.0846Z" fill="#C3BF41"/>
<path d="M55.0573 14.593C54.3611 12.0029 56.0065 8.90743 61.3224 5.27496C69.3912 -0.252721 83.0605 -1.7373 91.6672 2.21105C93.8505 3.19023 95.9705 4.32736 97.9007 5.81193C104.925 11.3396 107.52 22.4266 104.324 31.1761C102.932 37.3355 101.54 51.3284 95.9705 49.4016C92.9962 48.3593 94.2302 37.9356 94.1353 37.5566C92.9962 33.2924 89.8003 30.955 89.2308 25.8695L86.3513 24.1638C79.2318 25.3641 57.114 22.2686 55.0889 14.6246L55.0573 14.593Z" fill="black"/>
<path d="M92.395 36.3879C91.3508 36.4511 90.6863 37.8409 91.0027 38.9149C91.3191 39.9888 92.3633 40.6837 93.4075 40.7469C94.4517 40.8417 95.4642 40.431 96.4135 39.9572C98.1855 39.0412 99.9258 37.7146 100.685 35.7562C101.445 33.7978 100.97 31.113 99.198 30.1338C97.521 29.2177 95.4326 30.1653 94.2618 31.7447C93.0911 33.324 92.6481 35.3772 92.2051 37.3671L92.395 36.3879Z" fill="#FFC2B0"/>
<path d="M92.4266 38.8833C94.0087 38.8833 95.2744 37.5882 95.2744 36.0405V24.1323C95.2744 22.5529 93.9771 21.2895 92.4266 21.2895C90.8445 21.2895 89.5788 22.5845 89.5788 24.1323V36.0405C89.5788 37.6198 90.8762 38.8833 92.4266 38.8833Z" fill="black"/>
</g>
<circle cx="66.5" cy="34.5" r="1.5" fill="black"/>
<circle cx="76.5" cy="34.5" r="1.5" fill="black"/>
<defs>
<clipPath id="clip0_0_1">
<rect width="174" height="384" fill="white" transform="matrix(-1 0 0 1 174 0)"/>
</clipPath>
</defs>
</svg>
