<svg width="586" height="402" viewBox="0 0 586 402" fill="none" xmlns="http://www.w3.org/2000/svg">
<g clip-path="url(#clip0_0_1)">
<path d="M252.831 358.622C251.814 360.424 250.752 362.179 249.735 363.981C248.718 365.829 247.702 367.63 246.87 369.617C245.669 372.527 243.312 378.255 245.022 381.258C247.563 385.785 252.969 382.829 255.788 380.196C259.993 376.269 263.967 371.973 267.71 367.307C269.327 365.321 270.898 363.149 271.637 360.47C273.901 352.293 271.545 340.052 263.32 341.853C260.316 342.5 258.745 344.995 257.683 348.321C256.481 352.016 254.679 355.342 252.831 358.622Z" fill="#AB8F00"/>
<path d="M307.494 339.128C307.125 340.791 306.755 342.5 306.432 344.163C306.108 345.872 305.738 347.582 305.646 349.291C305.507 351.832 305.276 356.821 307.91 358.299C311.884 360.562 315.95 356.359 317.706 353.402C320.34 348.967 322.604 344.348 324.499 339.59C325.33 337.557 326.07 335.386 325.885 333.215C325.192 326.516 318.769 318.663 311.607 323.144C309.019 324.761 308.419 327.117 308.511 329.935C308.65 333.03 308.141 336.125 307.494 339.174V339.128Z" fill="#AB8F00"/>
<path d="M283.929 222.622L287.625 240.962L321.911 323.283C323.066 327.071 321.264 330.951 317.937 331.967L313.779 333.261C310.637 334.231 308.603 331.875 307.263 328.41L264.752 247.799L260.27 235.927C268.31 231.815 276.212 227.427 283.975 222.668L283.929 222.622Z" fill="#FFBCA8"/>
<path d="M248.58 367.908C249.643 365.321 257.313 349.568 257.775 347.212L283.004 215.185L285.823 204.467C295.111 203.913 304.445 203.035 313.871 201.788L304.768 228.997L271.545 349.753C270.159 355.25 260.825 369.293 258.099 371.049C256.574 372.019 255.049 373.035 253.524 374.005C252.23 374.837 250.659 375.715 249.227 375.114C248.025 374.606 247.425 373.128 247.471 371.788C247.471 370.402 248.025 369.109 248.58 367.861V367.908Z" fill="#FFBCA8"/>
<path d="M309.019 330.581C309.019 333.538 309.112 336.495 309.158 339.451C309.158 340.791 309.204 342.223 309.712 343.47C310.221 344.717 311.376 345.826 312.67 345.826C314.194 345.826 315.303 344.394 316.135 343.054C317.106 341.53 318.122 340.052 319.092 338.527C320.848 335.802 322.697 332.891 322.604 329.565C322.466 325.685 319.739 322.405 317.198 319.495C315.95 318.109 314.425 316.584 312.623 316.63C311.422 316.63 310.359 317.416 309.574 318.34C308.187 319.91 307.448 322.081 307.541 324.253C307.633 327.071 309.065 329.704 309.158 332.522L308.973 330.581H309.019Z" fill="#FFBCA8"/>
<path d="M265.076 142.565C253.894 152.451 253.016 175.457 252.415 188.345C251.167 214.353 254.032 290.315 254.402 316.277C254.494 321.359 287.856 325.239 291.276 325.285C309.759 325.424 325.146 316.185 335.635 301.125C336.605 299.739 337.622 298.261 337.945 296.598C338.546 293.734 337.113 290.916 335.866 288.329C323.205 261.674 330.136 176.658 316.135 151.527C309.897 140.348 280.278 134.296 269.235 139.747C267.71 140.486 266.37 141.41 265.122 142.519L265.076 142.565Z" fill="#B9A429"/>
<path d="M294.834 21.9484C300.101 12.5707 315.719 8.27447 322.188 18.2527C324.499 21.856 324.314 26.5218 325.931 30.4946C328.334 36.4076 334.202 39.9647 339.516 43.5218C344.784 47.0788 349.913 51.1902 352.87 56.7799C355.827 62.3696 356.151 69.8071 352.177 74.75C352.085 74.8424 351.992 74.9348 351.946 75.0272C352.593 75.4429 353.332 75.8125 354.025 76.0897C360.263 78.4919 371.723 82.9266 372 90.9185C372.185 96.6468 368.627 102.052 363.775 105.054C358.923 108.057 353.009 108.935 347.279 108.611C339.793 108.196 331.615 105.101 328.473 98.3098C327.04 95.2147 326.809 91.6576 325.146 88.6549C323.667 86.0218 321.172 84.0815 318.723 82.3261C313.871 78.8614 308.834 75.6739 303.659 72.8098C301.118 71.4239 298.438 69.9919 296.728 67.6359C290.952 59.644 299.362 51.3288 298.53 43.1522C297.929 37.4701 293.216 34.4674 293.078 28.7391C293.031 26.2908 293.678 24.0272 294.834 21.9946V21.9484Z" fill="#714E51"/>
<path d="M222.149 186.821C222.149 186.821 221.826 186.59 221.641 186.451C217.621 183.448 216.789 177.72 219.839 173.701C240.724 145.845 256.065 113.139 264.105 79.0462C265.261 74.1495 270.159 71.1467 275.057 72.3016C279.955 73.4565 282.958 78.3533 281.803 83.25C273.162 119.745 256.758 154.807 234.348 184.649C231.437 188.484 226.077 189.408 222.103 186.821H222.149Z" fill="white"/>
<path d="M321.773 36.4076C319.37 27.5842 313.917 18.5761 308.372 15.019C288.965 2.40761 265.076 21.5326 271.175 43.4294C276.859 63.8016 313.224 75.7663 322.142 51.2364C323.621 47.1712 323.251 41.8125 321.773 36.4076Z" fill="#714E51"/>
<path d="M283.975 56.5489C283.975 56.5489 284.021 56.5489 284.067 56.5951C284.067 56.4565 284.067 56.3179 284.067 56.1794C284.067 56.3179 284.067 56.4565 283.929 56.5489H283.975Z" fill="#714E51"/>
<path d="M325.931 96.5082L322.466 109.489L314.194 148.94C313.501 151.62 311.745 153.791 309.435 154.946C303.151 158.041 288.041 159.611 270.02 151.943C267.248 150.742 265.168 148.155 264.521 144.967L258.884 115.772L258.745 115.171C257.867 110.644 258.561 105.932 260.64 101.867L267.201 89.2554V82.5109C267.201 74.519 274.271 68.7446 281.387 70.962L283.836 71.7935L287.764 73.1332L305.045 79.1848L310.082 80.9402L319.924 84.3587C324.591 85.9755 327.225 91.3342 325.839 96.462L325.931 96.5082Z" fill="white"/>
<path d="M325.931 96.5082L322.466 109.489C320.71 111.66 319 113.785 317.244 115.957C313.594 120.484 309.759 125.149 304.63 127.552C296.174 131.524 286.424 128.291 277.783 124.641C272.469 122.424 267.201 120.022 261.98 117.481C260.917 116.973 259.854 116.465 258.838 115.818L258.699 115.217C257.821 110.69 258.514 105.978 260.594 101.913L267.155 89.3016V82.5571C267.155 74.5652 274.225 68.7908 281.341 71.0082L283.79 71.8397L287.718 73.1794L304.999 79.231L310.036 80.9864L319.878 84.4049C324.545 86.0217 327.179 91.3804 325.793 96.5082H325.931Z" fill="white"/>
<path d="M310.174 80.9864C307.725 85.0054 304.352 88.4701 300.841 91.6114C298.16 93.9674 295.296 96.231 291.922 97.3397C288.549 98.4484 284.575 98.2174 281.803 95.9538C279.585 94.106 278.476 91.2419 278.337 88.3315C278.199 85.4674 278.938 82.6495 279.955 79.9239C280.971 77.106 282.311 74.3804 283.882 71.7935L287.81 73.1332L305.092 79.1848L310.128 80.9402L310.174 80.9864Z" fill="#FFBCA8"/>
<path d="M358.646 199.894C360.494 196.984 359.154 193.288 355.643 192.272C352.639 191.348 349.22 191.348 346.124 192.272C343.952 192.965 341.873 194.166 340.995 196.014C340.348 197.353 340.394 198.832 340.579 200.217C340.902 203.128 341.596 206.038 343.213 208.486C345.431 211.859 349.543 214.399 354.487 213.568C356.659 213.198 358.554 212.043 359.755 210.427C363.036 205.807 356.567 204.929 358.692 199.894H358.646Z" fill="#FFBCA8"/>
<path d="M253.293 110.921L253.524 111.337C253.524 111.337 253.432 111.337 253.339 111.337C253.339 111.198 253.339 111.06 253.339 110.875L253.293 110.921Z" fill="#D9EDFE"/>
<path d="M284.113 56.4565H302.088V80.7555H284.113V56.4565Z" fill="#FFBCA8"/>
<g style="mix-blend-mode:multiply">
<path d="M298.623 64.3098L284.206 75.0734L284.113 74.8424V63.2935L298.623 64.3098Z" fill="#FFBCA8"/>
</g>
<path d="M301.256 44.1685H301.303C301.349 44.0761 301.349 43.9375 301.349 43.7989C301.349 43.9375 301.349 44.0299 301.256 44.1223V44.1685Z" fill="#714E51"/>
<path d="M301.949 49.5734C299.685 38.0707 292.384 26.106 280.001 24.0272C278.892 23.8424 278.707 22.8261 279.077 21.9946C278.846 21.4402 278.938 20.7935 279.262 20.3777C279.123 20.3777 279.031 20.3777 278.892 20.3315C276.535 20.0082 273.948 19.962 271.822 21.2093C270.39 21.9946 269.281 23.5652 268.957 25.2745C268.819 25.875 268.819 26.5218 268.911 27.1223C268.772 31.8343 268.634 36.5462 268.449 41.2582C268.403 43.3832 268.31 45.5544 268.403 47.7256C268.588 52.8995 269.466 58.0272 272.423 61.8614C275.704 66.1114 280.971 67.7745 286.008 67.9131C288.78 67.9593 291.645 65.9728 294.094 64.4946C298.715 61.6766 300.887 57.1495 302.042 51.375C302.134 50.9593 302.18 50.5897 302.227 50.1739C302.088 49.9891 301.949 49.8044 301.903 49.5272L301.949 49.5734Z" fill="#FFBCA8"/>
<circle cx="271.5" cy="49.5001" r="1.5" fill="black"/>
<circle cx="281.5" cy="49.5001" r="1.5" fill="black"/>
<path d="M299.824 50.4049C300.194 50.6821 300.656 50.6821 301.072 50.5435C301.072 50.4049 301.072 50.2201 301.164 50.0815L299.824 50.4049Z" fill="#FFBCA8"/>
<path d="M308.603 41.5353C306.663 40.8424 304.722 43.0598 303.844 45.5543C303.428 46.8016 303.151 48.1875 302.504 49.2962C302.134 49.8967 301.626 50.3587 301.071 50.5435C300.517 52.4837 301.626 54.9321 303.197 55.4402C304.861 55.9946 306.616 54.9321 307.956 53.5C309.435 52.0217 310.729 49.9429 311.006 47.4946C311.33 45.0462 310.313 42.1821 308.511 41.5353H308.603Z" fill="#FFBCA8"/>
<path d="M351.022 203.728C351.022 203.728 350.606 203.774 350.421 203.821C345.431 204.375 340.949 200.726 340.394 195.736C336.698 161.136 325.608 126.766 308.234 96.3234C305.738 91.9348 307.263 86.3913 311.653 83.8967C316.043 81.4022 321.588 82.9266 324.083 87.3152C342.658 119.929 354.58 156.747 358.507 193.842C359.016 198.647 355.735 202.943 351.022 203.774V203.728Z" fill="white"/>
<path d="M289.196 22.2717C287.579 28.231 284.298 34.5598 279.816 39.4103C276.166 43.337 270.112 44.3071 265.723 41.1658C265.076 40.7038 264.521 40.1957 264.152 39.6413C260.732 34.6522 266.693 23.6576 270.528 20.4701C275.519 16.3125 282.589 15.4348 288.18 18.2989C289.011 18.7147 289.797 19.1766 290.49 19.6848C289.936 20.3777 289.473 21.2554 289.196 22.2717Z" fill="#714E51"/>
<path d="M230.374 189.223C233.747 188.345 235.226 184.742 233.378 181.601C231.806 178.875 229.311 176.519 226.354 175.133C224.321 174.163 221.918 173.655 220.024 174.394C218.637 174.948 217.667 176.057 216.835 177.212C215.079 179.568 213.601 182.155 213.092 185.065C212.399 189.038 213.693 193.704 217.898 196.476C219.746 197.677 221.918 198.139 223.905 197.769C229.45 196.66 225.337 191.579 230.328 189.315L230.374 189.223Z" fill="#FFBCA8"/>
<path d="M281.341 16.7283C279.215 23.75 280.833 31.788 285.453 37.4701C290.12 43.1522 296.127 49.3424 303.474 48.6495C305.138 35.3451 294.002 19.2228 280.648 20.3777L281.341 16.6821V16.7283Z" fill="#714E51"/>
</g>
<g clip-path="url(#clip1_0_1)">
<path d="M25.4086 191.51C20.9154 191.889 15.1566 189.205 12.5619 185.477C11.9924 184.688 10.2204 183.172 10.0306 182.382C9.99891 182.382 9.93562 182.382 9.90398 182.382C18.7638 162.166 32.8762 134.528 34.6165 130.074L49.0453 74.829C50.1527 69.3645 55.5003 65.8584 60.9743 66.9639C66.4484 68.101 69.9607 73.4076 68.8532 78.8721L54.2346 134.939C54.1397 135.476 53.9814 136.013 53.7916 136.518C53.1587 138.224 48.982 148.616 44.1724 160.619C41.3246 167.726 32.8445 182.35 28.1298 191.7C27.94 191.574 27.7501 191.447 27.497 191.447C26.5794 191.447 25.7567 191.479 25.4086 191.51Z" fill="#91912B"/>
<path d="M4.84127 194.606L5.34755 194.795C5.56904 195.49 5.94875 196.185 6.42338 196.88C7.84727 198.933 10.1571 200.671 12.7202 201.871C15.2832 203.071 18.0993 203.703 20.5674 203.513C21.3901 203.45 22.1179 203.292 22.7823 203.04L14.4921 217.696C12.024 218.865 9.11296 219.054 6.36009 217.98C6.17024 217.885 5.98038 217.822 5.82217 217.727C1.01257 215.485 -1.26566 209.831 0.759438 204.84C1.48721 203.04 2.27826 201.081 3.10096 199.028C3.67052 197.607 4.27171 196.122 4.87291 194.606H4.84127Z" fill="#FFC2B0"/>
<path d="M20.5357 203.513C18.0676 203.734 15.2515 203.071 12.6885 201.871C10.1255 200.671 7.84724 198.902 6.3917 196.88C5.91707 196.185 5.56901 195.49 5.31587 194.795L4.8096 194.606L4.65139 193.058L5.88543 189.994C6.73977 187.91 7.72068 185.541 8.92308 182.761L9.17621 182.224L9.74577 182.35C9.74577 182.35 9.84069 182.35 9.90398 182.35C9.93562 182.35 9.99891 182.35 10.0305 182.35C10.1888 183.14 11.9924 184.625 12.5619 185.446C15.1249 189.141 20.8838 191.858 25.4086 191.479C25.7883 191.447 26.5794 191.447 27.497 191.416C27.7501 191.416 27.9716 191.51 28.1298 191.668C28.4779 191.953 28.6678 192.458 28.4146 192.9C28.2248 193.311 28.0349 193.69 27.8451 194.069L22.7507 203.04C22.0862 203.292 21.3584 203.45 20.5357 203.513Z" fill="#DCDF80"/>
<path d="M74.9918 220.854L55.9116 174.58L125.936 183.582L104.103 223.729L74.9918 220.854Z" fill="#FAFBD9"/>
<path d="M125.208 328.565C127.454 328.534 129.416 330.303 130.271 332.356C131.157 334.409 131.157 336.746 131.157 338.989C131.157 340.947 131.062 343.158 129.669 344.517C128.752 345.401 127.486 345.78 126.252 346.096C123.942 346.728 121.632 347.359 119.259 347.549C116.57 347.77 113.848 347.454 111.159 347.865C109.45 348.117 107.805 348.654 106.128 349.065C101.381 350.171 96.3502 350.044 91.6672 348.686C90.623 348.37 89.5472 347.991 88.851 347.138C87.7119 345.748 88.1233 343.569 89.2624 342.179C90.4015 340.789 92.1102 340 93.7239 339.242C98.6601 336.999 103.565 334.725 108.501 332.482C113.342 330.271 118.341 328.028 123.657 327.902C125.366 327.87 127.581 328.628 127.454 330.334L125.208 328.597V328.565Z" fill="#847934"/>
<path d="M119.622 315.144L120.127 315.103C123.384 314.839 126.239 317.261 126.503 320.513L127.312 330.461C127.576 333.713 125.15 336.563 121.893 336.827L121.388 336.868C118.131 337.131 115.276 334.71 115.012 331.458L114.203 321.509C113.939 318.258 116.365 315.408 119.622 315.144Z" fill="#FEFDDC"/>
<path d="M56.228 256.042C56.228 256.042 61.5122 262.802 68.5051 271.835C68.6317 271.993 68.7266 272.12 68.8532 272.278C74.8652 280.08 82.1112 289.461 88.2814 297.61C93.4708 304.496 97.9323 310.529 100.211 313.941C102.963 318.047 105.716 322.153 109.134 325.691C110.589 327.207 112.203 328.628 114.196 329.292C114.386 329.355 114.608 329.418 114.861 329.45C115.114 329.45 115.399 329.481 115.747 329.481C117.772 329.481 120.904 328.944 123.626 327.902C124.891 327.428 126.062 326.86 126.948 326.133C128.72 324.806 129.574 323.101 128.34 321.079C128.34 321.079 108.849 288.798 97.2362 269.561C92.3 261.38 88.7877 255.568 88.7877 255.568L84.7059 207.809L84.5477 206.04L84.8008 206.135C83.9148 199.691 83.4086 193.185 82.8707 187.057C82.048 177.581 81.1303 168.136 81.7315 158.629C82.0163 153.922 82.5226 149.279 82.9972 144.604L81.5733 144.099L55.3104 157.997V230.615C55.3104 238.543 53.9498 248.367 56.228 255.947V256.042Z" fill="#EDEFB7"/>
<path d="M116.032 218.17C117.582 212.705 122.55 206.23 118.373 202.376C116.348 200.513 113.279 200.702 110.558 200.986C104.166 201.681 97.7741 202.376 91.3507 203.071C89.6104 203.261 87.7435 203.513 86.4462 204.682C85.1805 205.819 84.7375 207.588 84.3262 209.262C75.498 246.819 69.5177 268.519 60.6895 306.076C57.6202 319.152 54.5193 348.117 53.1271 361.479C52.779 364.89 49.7414 368.744 51.988 371.365C55.1205 375.061 64.9612 365.869 64.9612 370.734C64.9612 380.905 69.8025 362.395 71.0365 357.72C84.1047 308.508 99.5777 259.896 117.424 212.2L116.063 218.201L116.032 218.17Z" fill="#FAFBD9"/>
<path d="M65.7839 369.249C65.7839 369.249 65.6257 369.186 65.5624 369.123C65.5624 369.123 65.5624 369.123 65.5624 369.091L65.8156 369.249H65.7839Z" fill="#758000"/>
<path d="M27.6868 351.718C27.9083 354.182 30.8194 357.214 32.7496 359.647C36.5783 364.511 40.4386 369.375 44.2673 374.271C47.1467 377.904 50.1527 381.663 54.6776 383.305C55.9116 383.779 57.2406 384 58.5695 383.937C61.4806 383.81 63.569 382.642 64.898 380.873C67.1762 377.904 67.366 373.355 65.8156 369.754C65.7523 369.565 65.6574 369.375 65.5624 369.186C64.6448 368.775 64.012 368.491 63.6006 368.301C64.36 368.617 65.5308 369.123 65.5308 369.123C63.4108 364.858 59.5188 361.731 55.7534 358.794C54.994 358.194 53.222 356.962 50.9754 355.54C44.1407 351.213 32.7496 344.959 29.965 348.339C29.2373 349.191 27.5602 350.392 27.6868 351.75V351.718Z" fill="#847934"/>
<path d="M27.497 351.75C27.7185 354.214 29.2057 357.246 31.1042 359.678C34.9329 364.543 38.7932 369.407 42.6219 374.303C45.5014 377.935 48.5074 381.694 53.0322 383.337C54.2662 383.81 55.5952 384.032 56.9242 383.968C59.8352 383.842 61.9236 382.673 63.2526 380.904C63.3159 380.494 63.3792 380.083 63.3792 379.641C63.3792 377.051 62.3033 374.65 60.8161 372.471C60.4364 371.902 60.0251 371.365 59.6137 370.86C56.4812 366.943 52.6208 363.658 48.6972 360.499C48.0327 359.994 47.3682 359.457 46.7038 358.92C43.6345 356.488 40.5019 354.024 36.8947 352.54C33.9203 351.339 30.5346 350.866 27.4653 351.718L27.497 351.75Z" fill="#847934"/>
<path d="M56.228 256.042C56.228 256.042 61.5123 262.802 68.5052 271.835L69.0431 271.488L69.7076 268.866L84.3262 209.294L55.3104 192.268V230.741C55.3104 238.669 53.9498 248.493 56.228 256.074V256.042Z" fill="#EDEFB7"/>
<path d="M53.2221 83.2311V169.747C53.2221 171.737 54.2662 173.569 55.9433 174.58L74.9286 186.204C83.9466 191.732 94.3885 194.037 104.704 192.995C108.311 192.616 111.918 191.826 115.43 190.594L125.967 183.551L120.24 88.6956C120.082 84.6525 118.5 80.8936 115.779 78.0508C114.766 76.9137 113.564 75.9661 112.203 75.1449L105.368 70.8491L103.47 69.6488C98.3121 66.0479 88.2815 62.3206 79.2635 61.2467C77.4916 61.0256 75.7829 60.8992 74.1375 60.8992C70.5303 60.8992 67.3028 61.4678 64.9613 62.826C57.7152 67.0586 53.1904 74.7974 53.1904 83.1995L53.2221 83.2311Z" fill="#FEFDDC"/>
<g opacity="0.59">
<path d="M120.24 88.7271C120.208 87.7479 120.082 86.8003 119.86 85.8527C116.032 82.5677 112.298 79.4722 108.912 83.389C106.539 86.1054 104.957 92.3912 103.47 95.6762C103.533 95.8342 103.565 95.9605 103.628 96.1184C105.273 100.762 107.52 108.5 106.223 113.238C105.305 116.618 102.679 119.366 101.983 122.809C100.559 130.106 108.279 148.3 107.52 155.723C107.109 159.955 104.039 163.367 102.077 167.125C97.964 175.306 99.641 185.319 104.672 193.058C108.279 192.679 111.887 191.889 115.399 190.658L125.936 183.614L120.208 88.7587L120.24 88.7271Z" fill="#FAFBD9"/>
</g>
<path d="M123.119 88.664C123.119 88.3481 123.056 88.0322 123.056 87.748H123.278C123.278 87.748 123.151 82.5046 123.151 82.473C122.993 78.114 121.253 74.0077 118.31 70.9122C114.355 66.7428 106.792 64.9739 101.571 62.6997C84.1364 55.0873 48.9187 60.0148 48.9187 83.2311V188.478C48.9187 190.942 50.2161 193.248 52.3361 194.543L58.5063 198.302C59.7403 199.06 61.3224 199.123 62.5565 198.396C64.2652 197.417 65.2777 195.648 65.2461 193.69C65.0562 178.339 64.8347 163.019 64.6449 147.668C64.3284 123.915 60.7529 101.046 64.2968 77.4507C64.6765 75.0501 65.0879 72.5863 66.1953 70.4384C70.0557 63.0155 82.1746 62.7313 89.389 64.3106C92.0469 64.8792 93.9455 66.0479 95.2744 67.5956L89.7687 66.0163C92.3001 66.8375 94.6416 68.0378 96.635 69.6172C99.1348 74.5763 97.9957 81.8728 96.7933 87.7796C89.4206 124.136 89.0409 161.882 95.6858 198.365C95.9389 199.66 96.4136 201.113 97.1097 202.345C97.2995 203.924 97.7742 205.472 98.5336 206.893C100.052 209.736 101.888 211.694 104.419 212.642C106.191 212.642 107.963 212.642 109.735 212.547C112.456 212.105 115.241 211.505 117.392 210.715L126.284 204.998C127.897 203.956 128.847 202.124 128.752 200.228C127.834 182.192 123.151 88.7272 123.151 88.6956L123.119 88.664Z" fill="#A5A532"/>
<path d="M98.9133 74.8922C99.6094 73.1549 100.147 71.386 100.495 69.5856C103.818 51.7707 70.9733 50.8231 70.9733 70.9754V74.1341C70.9733 75.3976 71.9225 76.3452 72.9667 76.1241L81.5101 74.3236L88.6296 82.7573C89.6738 84.463 91.7621 84.5893 92.9329 83.0415C94.7365 80.641 96.8249 77.7981 98.9133 74.9553V74.8922Z" fill="#847934"/>
<path d="M88.7561 40.052C88.7561 40.052 88.8194 40.0836 88.851 40.1152C88.8827 39.9888 88.8827 39.7993 88.8827 39.6729C88.8827 39.7993 88.851 39.9572 88.7561 40.052Z" fill="#C3BF41"/>
<path d="M150.363 202.124C150.363 202.124 150.268 202.124 150.205 202.124C150.427 202.755 150.616 203.355 150.838 203.987C150.363 202.534 149.857 201.05 149.351 199.565C142.516 179.128 133.498 140.719 131.726 135.539L106.95 84.0839C104.261 79.188 106.064 73.0601 110.937 70.4068C115.842 67.7536 121.98 69.5224 124.638 74.3868L149.825 126.568C150.079 127.042 150.332 127.547 150.49 128.053C151.123 129.79 154.667 140.371 158.78 152.659C161.754 161.566 165.615 184.624 168.273 192.553C168.842 194.227 169.349 195.806 169.855 197.291C169.602 198.238 169.001 199.218 168.051 200.165C164.697 203.513 158.274 205.282 153.654 204.05C152.135 203.64 151.028 202.976 150.332 202.155L150.363 202.124Z" fill="#A5A532"/>
<path d="M149.699 202.913C150.395 203.734 152.167 203.608 153.686 204.019C158.274 205.251 164.729 203.482 168.083 200.134C169.032 199.186 169.633 198.207 169.887 197.259C170.14 198.049 170.424 198.839 170.646 199.565C170.646 199.628 170.678 199.691 170.709 199.755C171.342 201.65 171.88 203.292 172.323 204.587C172.418 204.872 172.513 205.124 172.576 205.377C172.703 205.724 172.798 206.04 172.893 206.325C172.956 206.483 172.987 206.64 173.051 206.767C173.051 206.862 173.114 206.956 173.146 207.02C173.146 207.083 173.177 207.146 173.209 207.209C173.209 207.272 173.272 207.367 173.272 207.43C173.272 207.493 173.335 207.588 173.335 207.651C173.335 207.714 173.367 207.778 173.399 207.841C173.399 207.841 173.399 207.872 173.399 207.904C173.399 207.999 173.462 208.062 173.462 208.125C175.234 213.4 172.386 219.117 167.07 220.886C166.881 220.949 166.691 221.012 166.501 221.044C161.375 222.434 155.996 219.591 154.287 214.506C153.654 212.674 152.99 210.652 152.293 208.567C151.629 206.546 150.901 204.398 150.173 202.187C150.237 202.187 149.636 202.976 149.667 202.976L149.699 202.913Z" fill="#FFC2B0"/>
<path d="M146.123 191.732L146.281 192.3C147.167 195.174 147.927 197.638 148.623 199.786L149.667 202.945L150.806 204.019L151.313 203.861C151.945 204.24 152.673 204.524 153.464 204.745C155.869 205.377 158.78 205.251 161.501 204.493C164.223 203.766 166.786 202.408 168.558 200.671C169.57 199.66 170.235 198.586 170.551 197.48L170.614 197.259L168.969 192.332C168.747 191.668 168.241 189.678 167.703 187.499C167.513 186.741 166.596 186.457 166.026 186.962C165.362 187.562 164.729 188.099 164.476 188.352C161.28 191.542 155.141 193.216 150.775 192.047C149.825 191.795 147.484 191.795 146.851 191.321C146.756 191.352 146.693 191.416 146.598 191.447L146.092 191.732H146.123Z" fill="#DCDF80"/>
<path d="M95.4959 62.7313V42.0104C95.4959 39.4518 94.4834 37.1144 92.8696 35.3771C91.952 34.3664 90.7812 33.5451 89.4523 33.0081C88.4081 32.6291 87.3322 32.3764 86.1615 32.3448C85.6236 32.3448 85.0857 32.3764 84.5794 32.408C82.4594 32.6923 80.4975 33.703 79.042 35.156C77.3017 36.8933 76.1942 39.2939 76.1942 41.9788V62.6997V63.7104H76.2891C76.9536 67.0902 80.9089 69.6172 85.8451 69.6172C90.7812 69.6172 94.7365 67.0902 95.401 63.7104H95.4959V62.6997V62.7313Z" fill="#FFC2B0"/>
<g style="mix-blend-mode:multiply">
<path d="M77.3333 66.269C85.3704 65.8584 91.7305 60.7413 91.7305 54.5503V34.6507C89.9585 34.0821 88.0283 33.8294 86.0032 33.8294H85.4653C85.0856 33.8294 84.7059 33.861 84.3262 33.8926H83.9781C83.0605 34.0505 82.1745 34.3348 81.3835 34.8086C81.0038 34.9665 80.6557 35.1876 80.3393 35.4403C80.1811 35.5667 80.0229 35.6614 79.8963 35.7878C79.5166 36.1352 79.1686 36.4511 78.8521 36.8301C77.2384 38.6622 76.2258 41.2207 76.2258 44.0635V61.8468L77.3649 66.269H77.3333Z" fill="#FFC2B0"/>
</g>
<path d="M60.911 38.7253C61.1009 43.9372 61.9869 49.0858 65.0562 52.9078C68.4102 57.172 73.8527 58.8777 79.0103 59.004C81.8581 59.0672 84.8008 58.6566 87.3322 57.172C92.0785 54.3292 94.3251 48.2014 95.5275 42.421C95.9705 40.2099 96.2869 37.9988 96.4135 35.7562C96.5084 33.2292 96.3502 30.6391 95.6857 28.207C94.2302 22.932 90.5597 18.573 86.1614 15.825C81.7632 13.0769 76.7321 11.845 71.701 11.2449C69.2645 10.929 66.6383 10.8658 64.4233 12.1293C62.9678 12.9506 61.8287 14.4983 61.4806 16.204C61.3224 16.8041 61.3224 17.4675 61.4173 18.0676C61.2591 22.8056 61.1009 27.5121 60.9427 32.2501C60.8794 34.398 60.8161 36.5459 60.8794 38.7569L60.911 38.7253Z" fill="#FFC2B0"/>
<path d="M95.0845 34.8718C95.0845 34.8718 95.1478 34.9034 95.1794 34.935C95.1794 34.8086 95.1794 34.6191 95.1794 34.4927C95.1794 34.6191 95.1794 34.777 95.0529 34.8718H95.0845Z" fill="#C3BF41"/>
<path d="M95.0846 34.8718C95.0846 34.8718 94.8631 34.7454 94.7365 34.6822C94.4201 34.5243 94.0087 34.3664 93.7872 34.6822C93.629 34.8718 93.8822 35.1245 94.072 35.156L93.3443 35.9457C94.0404 36.1352 94.8631 35.6298 95.1162 34.9034L95.0846 34.8718Z" fill="#C3BF41"/>
<path d="M95.0846 50.9178C95.0846 50.9178 95.306 50.602 95.4326 50.444C95.4326 50.5704 95.4326 50.6967 95.4326 50.7915L95.0529 50.9178H95.0846Z" fill="#C3BF41"/>
<path d="M55.0573 14.593C54.3611 12.0029 56.0065 8.90743 61.3224 5.27496C69.3912 -0.252721 83.0605 -1.7373 91.6672 2.21105C93.8505 3.19023 95.9705 4.32736 97.9007 5.81193C104.925 11.3396 107.52 22.4266 104.324 31.1761C102.932 37.3355 101.54 51.3284 95.9705 49.4016C92.9962 48.3593 94.2302 37.9356 94.1353 37.5566C92.9962 33.2924 89.8003 30.955 89.2308 25.8695L86.3513 24.1638C79.2318 25.3641 57.114 22.2686 55.0889 14.6246L55.0573 14.593Z" fill="black"/>
<path d="M92.395 36.3879C91.3508 36.4511 90.6863 37.8409 91.0027 38.9149C91.3191 39.9888 92.3633 40.6837 93.4075 40.7469C94.4517 40.8417 95.4642 40.431 96.4135 39.9572C98.1855 39.0412 99.9258 37.7146 100.685 35.7562C101.445 33.7978 100.97 31.113 99.198 30.1338C97.521 29.2177 95.4326 30.1653 94.2618 31.7447C93.0911 33.324 92.6481 35.3772 92.2051 37.3671L92.395 36.3879Z" fill="#FFC2B0"/>
<path d="M92.4266 38.8833C94.0087 38.8833 95.2744 37.5882 95.2744 36.0405V24.1323C95.2744 22.5529 93.9771 21.2895 92.4266 21.2895C90.8445 21.2895 89.5788 22.5845 89.5788 24.1323V36.0405C89.5788 37.6198 90.8762 38.8833 92.4266 38.8833Z" fill="black"/>
</g>
<path d="M487.242 220.674L468.23 174.442L538.081 183.429L516.279 223.561L487.242 220.674Z" fill="#C2B029"/>
<path d="M537.335 328.321C539.573 328.289 541.52 330.041 542.396 332.117C543.272 334.193 543.272 336.497 543.272 338.736C543.272 340.682 543.175 342.888 541.78 344.251C540.871 345.127 539.606 345.516 538.373 345.841C536.07 346.457 533.766 347.073 531.398 347.301C528.705 347.528 525.98 347.236 523.319 347.625C521.632 347.885 519.978 348.436 518.291 348.825C513.554 349.928 508.557 349.799 503.886 348.469C502.847 348.177 501.777 347.755 501.095 346.911C499.96 345.516 500.349 343.342 501.485 341.947C502.62 340.552 504.307 339.774 505.93 339.027C510.829 336.756 515.76 334.518 520.659 332.247C525.461 330.041 530.457 327.77 535.778 327.672C537.465 327.64 539.703 328.386 539.541 330.073L537.27 328.321H537.335Z" fill="#ABA500"/>
<path d="M533.547 336.594L534.032 336.555C537.282 336.293 539.705 333.445 539.443 330.195L538.64 320.235C538.378 316.984 535.53 314.561 532.28 314.824L531.795 314.863C528.544 315.125 526.121 317.972 526.383 321.223L527.187 331.183C527.449 334.434 530.296 336.856 533.547 336.594Z" fill="#6B5F0E"/>
<path d="M468.522 255.842C468.522 255.842 473.811 262.591 480.754 271.61C480.883 271.74 480.981 271.902 481.11 272.064C487.112 279.851 494.347 289.227 500.479 297.402C505.67 304.28 510.082 310.315 512.386 313.721C515.111 317.809 517.869 321.93 521.308 325.466C522.735 326.991 524.358 328.386 526.337 329.067C526.531 329.132 526.726 329.197 527.018 329.197C527.277 329.197 527.569 329.229 527.894 329.229C529.938 329.229 533.052 328.71 535.745 327.64C537.01 327.153 538.178 326.602 539.054 325.888C540.839 324.558 541.65 322.871 540.449 320.827C540.449 320.827 521.016 288.578 509.434 269.371C504.502 261.196 500.998 255.388 500.998 255.388L496.91 207.664L496.781 205.912L497.04 206.009C496.132 199.553 495.645 193.064 495.126 186.932C494.315 177.491 493.406 168.05 493.99 158.544C494.282 153.84 494.769 149.201 495.256 144.529L493.828 144.042L467.614 157.928V230.504C467.614 238.42 466.251 248.218 468.522 255.842Z" fill="#C2B029"/>
<path d="M528.186 217.981C529.743 212.498 534.675 206.074 530.522 202.213C528.51 200.364 525.428 200.526 522.703 200.851L503.561 202.96C501.809 203.154 499.96 203.381 498.662 204.549C497.397 205.685 496.943 207.469 496.554 209.124C487.729 246.628 481.792 268.333 472.967 305.838C469.885 318.912 466.803 347.852 465.408 361.186C465.051 364.593 462.034 368.454 464.272 371.049C467.419 374.748 477.217 365.566 477.217 370.4C477.217 380.555 482.051 362.095 483.284 357.39C496.294 308.206 511.769 259.638 529.549 211.979L528.186 217.948V217.981Z" fill="#C2B029"/>
<path d="M478.061 368.973C478.061 368.973 477.899 368.908 477.834 368.875L478.093 368.973H478.061Z" fill="#004AAB"/>
<path d="M441.497 351.453C441.724 353.919 443.184 356.936 445.098 359.37C448.926 364.236 452.755 369.103 456.583 373.969C459.471 377.603 462.455 381.366 466.965 383.021C468.198 383.475 469.528 383.702 470.858 383.67C473.746 383.54 475.822 382.372 477.185 380.62C479.456 377.668 479.65 373.093 478.093 369.492C478.028 369.297 477.931 369.103 477.834 368.908C476.925 368.486 476.276 368.194 475.887 367.999C476.633 368.324 477.801 368.843 477.801 368.843C475.692 364.56 471.799 361.446 468.036 358.526C467.257 357.942 465.505 356.709 463.266 355.282C456.453 350.934 445.066 344.705 442.308 348.079C441.594 348.955 441.367 350.123 441.464 351.486L441.497 351.453Z" fill="#ABA500"/>
<path d="M441.497 351.453C441.724 353.919 443.184 356.936 445.098 359.37C448.926 364.236 452.755 369.103 456.583 373.969C459.471 377.603 462.455 381.366 466.965 383.021C468.198 383.475 469.528 383.702 470.858 383.67C473.746 383.54 475.822 382.372 477.185 380.62C477.25 380.231 477.314 379.809 477.314 379.355C477.314 376.759 476.244 374.358 474.751 372.217C474.362 371.666 473.973 371.114 473.551 370.595C470.404 366.669 466.576 363.425 462.65 360.246C462.001 359.726 461.32 359.207 460.671 358.688C457.621 356.255 454.507 353.789 450.873 352.297C447.921 351.096 444.514 350.642 441.464 351.486L441.497 351.453Z" fill="#6D5F1B"/>
<g opacity="0.56">
<path d="M468.522 255.842C468.522 255.842 473.811 262.591 480.753 271.61L481.305 271.253L481.954 268.625L496.521 209.091L467.581 192.091V230.536C467.581 238.453 466.219 248.251 468.49 255.875L468.522 255.842Z" fill="#AE9E21"/>
</g>
<path d="M416.678 192.74C416.678 192.74 416.58 192.675 416.548 192.675C416.288 193.291 416.061 193.875 415.834 194.492C416.386 193.064 416.97 191.637 417.586 190.144C425.6 170.159 443.573 135.055 445.585 129.962L459.99 74.7755C461.093 69.325 466.413 65.8211 471.896 66.9242C477.347 68.0597 480.851 73.348 479.748 78.8309L465.181 134.861C465.083 135.412 464.921 135.931 464.726 136.418C464.078 138.138 459.957 148.487 455.123 160.491C451.652 169.218 439.68 189.268 436.565 197.022C435.917 198.677 435.3 200.202 434.716 201.662C433.905 202.213 432.834 202.57 431.504 202.7C426.768 203.089 420.766 200.267 418.04 196.374C417.164 195.108 416.743 193.875 416.743 192.772L416.678 192.74Z" fill="white"/>
<path d="M415.672 192.934C415.672 194.038 417.099 195.043 418.008 196.341C420.701 200.234 426.735 203.057 431.472 202.668C432.802 202.57 433.873 202.181 434.684 201.629C434.359 202.408 434.067 203.154 433.775 203.868C433.775 203.933 433.743 203.998 433.71 204.03C432.964 205.879 432.315 207.469 431.796 208.767C431.699 209.026 431.569 209.318 431.472 209.546C431.342 209.87 431.212 210.194 431.115 210.454C431.05 210.616 430.985 210.746 430.953 210.876C430.92 210.973 430.888 211.038 430.855 211.135C430.855 211.2 430.823 211.265 430.791 211.297C430.791 211.362 430.726 211.46 430.693 211.525C430.693 211.589 430.628 211.654 430.596 211.719C430.596 211.784 430.531 211.849 430.531 211.914V211.946C430.499 212.044 430.466 212.109 430.434 212.141C428.357 217.3 422.517 219.798 417.327 217.754C417.132 217.656 416.97 217.592 416.775 217.527C411.973 215.288 409.702 209.643 411.714 204.647C412.428 202.83 413.239 200.883 414.05 198.839C414.828 196.86 415.672 194.751 416.548 192.61C416.58 192.61 415.607 192.87 415.639 192.902L415.672 192.934Z" fill="#FFBCA8"/>
<path d="M420.182 182.098L419.954 182.65C418.754 185.408 417.748 187.776 416.905 189.885L415.672 192.967L415.834 194.524L416.321 194.719C416.548 195.4 416.905 196.082 417.391 196.795C418.819 198.839 421.122 200.591 423.653 201.792C426.216 202.992 429.039 203.641 431.504 203.414C432.932 203.284 434.132 202.927 435.073 202.278L435.268 202.148L437.214 197.314C437.474 196.665 438.382 194.816 439.388 192.805C439.745 192.123 439.226 191.312 438.447 191.345C437.539 191.345 436.728 191.377 436.371 191.41C431.894 191.799 426.151 189.106 423.556 185.408C423.004 184.597 421.22 183.104 421.057 182.325C420.96 182.325 420.895 182.293 420.765 182.261L420.214 182.131L420.182 182.098Z" fill="white"/>
<path d="M465.505 83.1459V169.608C465.505 171.587 466.543 173.404 468.23 174.442L487.177 186.057C496.164 191.604 506.578 193.875 516.895 192.837C520.497 192.448 524.098 191.669 527.602 190.436L538.113 183.396L532.403 88.6288C532.241 84.6059 530.651 80.8424 527.959 77.9874C526.953 76.8519 525.753 75.911 524.39 75.0675L517.577 70.7525L515.695 69.5521C510.537 65.9509 500.544 62.2199 491.557 61.1492C489.773 60.9221 488.086 60.7924 486.431 60.7924C482.83 60.7924 479.618 61.3763 477.282 62.739C470.047 66.9566 465.537 74.7106 465.537 83.1135L465.505 83.1459Z" fill="#DEDEDE"/>
<g opacity="0.59">
<path d="M532.371 88.6612C532.339 87.6879 532.209 86.7146 532.014 85.7738C528.186 82.497 524.487 79.4149 521.081 83.3081C518.712 86.0333 517.155 92.3273 515.663 95.5717C515.728 95.7339 515.76 95.8637 515.825 96.0259C517.447 100.665 519.686 108.387 518.42 113.124C517.479 116.498 514.884 119.255 514.203 122.694C512.775 129.962 520.464 148.195 519.751 155.592C519.329 159.81 516.279 163.216 514.332 166.98C510.212 175.155 511.899 185.148 516.928 192.902C520.529 192.513 524.13 191.734 527.634 190.501L538.146 183.461L532.436 88.6937L532.371 88.6612Z" fill="#83BBEF"/>
</g>
<path d="M535.258 88.5964C535.258 88.272 535.194 87.98 535.194 87.688H535.388L535.258 82.4321C535.096 78.0847 533.377 73.9644 530.424 70.8823C526.466 66.6971 518.939 64.9451 513.716 62.6741C496.326 55.0499 461.19 59.9813 461.19 83.1783V288.36C461.19 290.826 462.488 293.129 464.597 294.427L470.728 298.19C471.961 298.937 473.519 299.001 474.784 298.288C476.503 297.314 477.509 295.562 477.477 293.583C477.282 278.238 477.087 162.924 476.86 147.579C476.536 123.862 472.967 100.99 476.536 77.4034C476.893 75.0026 477.314 72.5369 478.45 70.3956C482.278 62.9661 494.412 62.7065 501.582 64.2962C504.243 64.8802 506.124 66.0482 507.454 67.573L501.939 65.9833C504.47 66.7944 506.806 67.9948 508.785 69.5845C511.283 74.5484 510.147 81.8157 508.947 87.7529C501.582 124.057 501.225 246.789 507.844 283.255C508.071 284.553 508.558 286.013 509.271 287.213C509.466 288.803 509.92 290.328 510.666 291.755C512.191 294.61 514.04 296.557 516.539 297.498C518.323 297.498 520.075 297.498 521.859 297.401C524.585 296.946 527.375 296.362 529.516 295.584L538.405 289.874C540.028 288.836 540.969 287.019 540.871 285.105C539.93 267.066 535.291 88.6937 535.291 88.6613L535.258 88.5964Z" fill="white"/>
<path d="M511.088 74.8404C511.769 73.1209 512.321 71.3365 512.645 69.5521C515.987 51.7406 483.187 50.7998 483.187 70.9147V74.0617C483.187 75.327 484.16 76.2679 485.198 76.0408L493.731 74.2239L500.836 82.6592C501.874 84.3463 503.951 84.4761 505.119 82.9188C506.903 80.518 508.979 77.6954 511.088 74.8404Z" fill="white"/>
<path d="M500.966 40.0285C500.966 40.0285 501.031 40.061 501.063 40.0934C501.096 39.9636 501.096 39.8014 501.096 39.6392C501.096 39.769 501.063 39.8987 500.966 39.9961V40.0285Z" fill="#714E51"/>
<path d="M584.313 205.879C583.891 204.549 583.34 202.927 582.691 201.045C583.307 202.927 583.859 204.582 584.313 205.879Z" fill="#845C60"/>
<path d="M562.414 203.381C562.414 203.381 562.316 203.381 562.251 203.381C562.446 203.998 562.673 204.614 562.868 205.231C562.381 203.771 561.895 202.311 561.375 200.786C554.562 180.346 545.576 141.966 543.791 136.807L519.069 85.3845C516.376 80.5179 518.193 74.3861 523.06 71.6933C527.959 69.033 534.058 70.8173 536.751 75.6839L561.862 127.853C562.122 128.34 562.349 128.826 562.543 129.345C563.16 131.065 566.696 141.641 570.817 153.905C573.801 162.795 577.63 185.862 580.29 193.746C580.842 195.433 581.361 196.99 581.88 198.482C581.62 199.423 581.036 200.397 580.095 201.337C576.754 204.712 570.33 206.431 565.755 205.231C564.263 204.841 563.127 204.16 562.446 203.316L562.414 203.381Z" fill="white"/>
<path d="M561.765 204.192C562.479 205.036 564.23 204.874 565.723 205.295C570.297 206.496 576.721 204.776 580.063 201.402C581.004 200.461 581.588 199.488 581.847 198.547C582.107 199.358 582.366 200.105 582.626 200.851C582.626 200.916 582.658 200.981 582.691 201.045C583.307 202.927 583.859 204.582 584.313 205.879C584.41 206.171 584.508 206.431 584.573 206.691C584.702 207.047 584.8 207.339 584.897 207.631C584.962 207.794 584.994 207.923 585.059 208.086C585.059 208.183 585.124 208.28 585.157 208.345C585.157 208.41 585.189 208.475 585.221 208.507C585.221 208.572 585.286 208.67 585.286 208.734C585.286 208.799 585.319 208.897 585.351 208.962C585.351 209.026 585.384 209.091 585.416 209.156V209.189C585.448 209.286 585.481 209.351 585.481 209.416C587.265 214.704 584.378 220.382 579.122 222.166C578.927 222.231 578.733 222.296 578.57 222.328C573.444 223.723 568.091 220.868 566.404 215.775C565.788 213.925 565.139 211.946 564.425 209.838C563.744 207.826 563.03 205.652 562.284 203.479C562.349 203.479 561.732 204.29 561.797 204.257L561.765 204.192Z" fill="#FFBCA8"/>
<path d="M558.196 193.032L558.358 193.583C559.234 196.471 560.013 198.937 560.694 201.045L561.732 204.192L562.868 205.263L563.387 205.101C564.003 205.458 564.717 205.782 565.528 206.009C567.929 206.626 570.816 206.496 573.542 205.75C576.267 205.003 578.83 203.673 580.582 201.921C581.588 200.916 582.269 199.845 582.561 198.742L582.626 198.547L580.971 193.616C580.744 192.935 580.258 190.955 579.706 188.782C579.511 188.036 578.603 187.744 578.051 188.263C577.37 188.879 576.754 189.398 576.494 189.658C573.315 192.87 567.183 194.524 562.835 193.356C561.895 193.097 559.559 193.097 558.91 192.61C558.845 192.643 558.748 192.707 558.65 192.74L558.131 192.999L558.196 193.032Z" fill="white"/>
<path d="M507.714 62.674V41.9751C507.714 39.4121 506.708 37.1086 505.086 35.3567C504.145 34.3509 503.01 33.5398 501.68 32.9883C500.641 32.599 499.538 32.3719 498.403 32.3394C497.851 32.3394 497.332 32.3719 496.813 32.4043C494.672 32.6638 492.758 33.6696 491.265 35.162C489.513 36.9139 488.443 39.3148 488.443 41.9751V62.674V63.6798H488.54C489.221 67.0539 493.147 69.5845 498.078 69.5845C503.01 69.5845 506.935 67.0539 507.617 63.6798H507.714V62.674Z" fill="#FFBCA8"/>
<g style="mix-blend-mode:multiply">
<path d="M489.578 66.2104C497.592 65.7886 503.918 60.695 503.918 54.4983V34.6105C502.166 34.0589 500.252 33.7994 498.208 33.7994H497.689C497.3 33.7994 496.943 33.8318 496.553 33.8643H496.229C495.321 34.0265 494.412 34.3185 493.633 34.7727C493.244 34.9349 492.92 35.162 492.595 35.4216L492.141 35.746C491.752 36.0704 491.427 36.4273 491.103 36.7842C489.481 38.6335 488.475 41.164 488.475 43.9866V61.7656L489.61 66.2104H489.578Z" fill="#FFBCA8"/>
</g>
<path d="M473.194 38.6983C473.389 43.9217 474.265 49.0478 477.315 52.8761C480.689 57.1262 486.107 58.8457 491.265 58.9755C494.088 59.0404 497.04 58.6511 499.571 57.1587C504.307 54.3036 506.546 48.2043 507.746 42.3969C508.168 40.1907 508.525 37.9521 508.655 35.746C508.752 33.2154 508.59 30.6524 507.909 28.1867C506.449 22.8984 502.783 18.551 498.403 15.7933C494.023 13.068 488.994 11.8027 483.965 11.2187C481.532 10.9267 478.904 10.8619 476.731 12.0947C475.271 12.9058 474.135 14.4631 473.811 16.1501C473.648 16.7666 473.648 17.4154 473.746 17.9994C473.584 22.7362 473.454 27.4405 473.292 32.1772C473.227 34.3185 473.162 36.4597 473.227 38.6659L473.194 38.6983Z" fill="#FFBCA8"/>
<path d="M507.956 49.9952C507.956 49.9952 508.166 49.6668 508.286 49.5176C508.286 49.637 508.286 49.7564 508.286 49.8459L507.926 49.9653L507.956 49.9952Z" fill="#4168C3"/>
<path d="M469.741 13.9352C468.269 9.87549 468.96 4.71131 472.084 2.02474C474.608 -0.0946605 478.093 -0.333467 481.217 0.32325C484.342 0.979966 487.286 2.38295 490.381 3.21877C502.638 6.59191 517.629 4.50236 517.99 22.7113C518.14 29.8456 516.848 37.0098 514.205 43.5471C513.484 45.3083 512.552 47.1889 510.93 47.9352C504.891 50.6815 507.505 39.4277 506.994 37.0994C506.213 33.965 503.359 27.4277 501.286 25.0397C498.252 21.5471 492.844 22.6815 488.758 22.5919C480.917 22.4427 473.857 23.8456 469.921 14.4725C469.861 14.2934 469.771 14.1143 469.711 13.9352H469.741Z" fill="#222839"/>
<path d="M507.292 34.8376C507.292 34.8376 507.357 34.87 507.39 34.9025C507.39 34.7727 507.39 34.6105 507.39 34.4482C507.39 34.578 507.39 34.7078 507.26 34.8051L507.292 34.8376Z" fill="#714E51"/>
<path d="M507.292 34.8376C507.292 34.8376 507.065 34.7078 506.968 34.6429C506.643 34.4807 506.222 34.3509 506.027 34.6429C505.865 34.8376 506.124 35.0971 506.319 35.1296L505.573 35.9082C506.287 36.1029 507.098 35.6162 507.325 34.87L507.292 34.8376Z" fill="#714E51"/>
<path d="M507.292 50.8646C507.292 50.8646 507.519 50.5402 507.649 50.378C507.649 50.5078 507.649 50.6051 507.649 50.7349L507.292 50.8646Z" fill="#714E51"/>
<path d="M504.599 36.33C503.561 36.3949 502.88 37.7575 503.204 38.8606C503.529 39.9312 504.567 40.6125 505.605 40.7098C506.643 40.8072 507.649 40.4179 508.59 39.9312C510.374 39.0228 512.094 37.6926 512.873 35.7136C513.651 33.7345 513.132 31.0741 511.38 30.1008C509.726 29.1924 507.617 30.1333 506.449 31.723C505.281 33.3127 504.827 35.3567 504.405 37.3357L504.599 36.3624V36.33Z" fill="#FFBCA8"/>
<path d="M507.185 30.1272L493.113 38.8315L493.677 39.7421L507.748 31.0377L507.185 30.1272Z" fill="#004AAB"/>
<path d="M479.034 32.4692C479.358 31.3661 480.072 30.9444 480.916 31.431C481.727 31.9177 482.473 33.1181 482.797 34.6105L483.317 34.5131C482.895 32.599 481.986 31.0092 480.916 30.4253C479.845 29.8088 478.937 30.3279 478.515 31.7554L479.034 32.4692Z" fill="#FAB300"/>
<path d="M479.034 32.4692C479.358 31.3661 480.072 30.9444 480.916 31.431C481.727 31.9177 482.473 33.1181 482.797 34.6105L483.317 34.5131C482.895 32.599 481.986 31.0092 480.916 30.4253C479.845 29.8088 478.937 30.3279 478.515 31.7554L479.034 32.4692Z" fill="#004AAB"/>
<path d="M490.649 46.2901C489.805 46.2901 488.897 46.0306 487.956 45.479C484.809 43.6622 482.246 39.2499 482.246 35.6162C482.246 33.7345 482.895 32.3394 484.095 31.6257C485.296 30.9444 486.853 31.0741 488.475 32.015C491.622 33.8318 494.185 38.2441 494.185 41.8778C494.185 43.7595 493.536 45.1546 492.336 45.8683C491.817 46.1603 491.265 46.2901 490.649 46.2901ZM483.316 35.5838C483.316 38.8606 485.62 42.8835 488.475 44.5057C489.74 45.2519 490.941 45.3817 491.784 44.895C492.628 44.4084 493.114 43.3053 493.114 41.8454C493.114 38.5686 490.811 34.5456 487.956 32.9234C486.691 32.1772 485.523 32.0474 484.647 32.5341C483.803 33.0207 483.316 34.1238 483.316 35.5838Z" fill="#004AAB"/>
<path d="M477.179 40.9521C476.335 40.9521 475.427 40.6925 474.486 40.141C471.339 38.3241 468.776 33.9118 468.776 30.2782C468.776 28.3964 469.425 27.0014 470.625 26.2876C471.826 25.6063 473.383 25.7361 475.005 26.6769C478.152 28.4938 480.715 32.9061 480.715 36.5398C480.715 38.4215 480.066 39.8165 478.866 40.5303C478.347 40.8223 477.795 40.9521 477.179 40.9521ZM472.345 26.9041C471.923 26.9041 471.534 27.0014 471.209 27.196C470.366 27.6827 469.879 28.7858 469.879 30.2457C469.879 33.5225 472.183 37.5455 475.038 39.1677C476.303 39.9139 477.503 40.0437 478.347 39.557C479.19 39.0703 479.677 37.9673 479.677 36.5073C479.677 33.2305 477.374 29.2075 474.519 27.5854C473.74 27.1312 473.026 26.9041 472.377 26.9041H472.345Z" fill="#004AAB"/>
<circle cx="475.5" cy="34.5" r="1.5" fill="black"/>
<circle cx="487.5" cy="38.5" r="1.5" fill="black"/>
<circle cx="66.5" cy="34.5" r="1.5" fill="black"/>
<circle cx="76.5" cy="34.5" r="1.5" fill="black"/>
<defs>
<clipPath id="clip0_0_1">
<rect width="159" height="391" fill="white" transform="matrix(-1 0 0 1 372 11)"/>
</clipPath>
<clipPath id="clip1_0_1">
<rect width="174" height="384" fill="white" transform="matrix(-1 0 0 1 174 0)"/>
</clipPath>
</defs>
</svg>
