<svg width="524" height="389" viewBox="0 0 524 389" fill="none" xmlns="http://www.w3.org/2000/svg">
<g clip-path="url(#clip0_0_1)">
<path d="M113.721 333.041C115.98 333.009 117.949 334.785 118.853 336.884C119.724 338.982 119.757 341.307 119.757 343.568C119.757 345.537 119.66 347.765 118.272 349.154C117.368 350.058 116.077 350.413 114.818 350.768C112.495 351.382 110.171 352.028 107.75 352.221C105.039 352.447 102.296 352.125 99.5845 352.544C97.8739 352.803 96.1955 353.352 94.5172 353.771C89.7404 354.902 84.6732 354.772 79.961 353.384C78.8959 353.093 77.8308 352.673 77.1207 351.834C75.9911 350.413 76.3784 348.217 77.508 346.829C78.6377 345.441 80.3805 344.633 82.0266 343.858C86.997 341.566 91.9674 339.305 96.9379 337.013C101.811 334.785 106.846 332.492 112.204 332.363C113.915 332.331 116.174 333.106 116.013 334.817L113.721 333.041Z" fill="#8B8B8B"/>
<path d="M110.365 341.375L109.882 341.414C106.601 341.681 103.714 339.227 103.447 335.945L102.631 325.903C102.364 322.621 104.817 319.732 108.098 319.465L108.581 319.426C111.862 319.159 114.749 321.613 115.016 324.895L115.832 334.937C116.099 338.22 113.646 341.108 110.365 341.375Z" fill="#E1DA7C"/>
<path d="M102.586 333.784C100.585 333.138 98.9712 331.653 97.4866 330.167C94.0331 326.583 91.2574 322.418 88.4817 318.284C83.2208 310.47 66.9539 289.191 55.6575 274.596C49.0411 266.039 44.1352 259.775 44.1352 259.775C41.8436 252.09 43.1992 242.176 43.1992 234.168V160.773L69.6974 146.727L71.1175 147.211C70.6333 151.925 70.1169 156.64 69.8265 161.354C69.2132 170.977 70.1492 180.502 70.9884 190.06C71.5048 196.26 72.0212 202.847 72.9249 209.37L72.6667 209.273L76.9593 259.323C76.9593 259.323 116.82 325.485 116.852 325.517C120.564 331.653 105.62 334.849 102.554 333.816L102.586 333.784Z" fill="#636363"/>
<path d="M104.458 221.446C106.04 215.925 111.042 209.402 106.814 205.495C104.781 203.622 101.65 203.816 98.9067 204.106C92.4516 204.817 85.9965 205.527 79.5414 206.237C77.7985 206.431 75.8942 206.69 74.6032 207.852C73.3122 209.014 72.8604 210.79 72.473 212.469C63.565 250.41 57.5618 272.368 48.6215 310.309C45.523 323.515 42.3923 352.803 41.0044 366.3C40.6494 369.755 37.6155 373.63 39.8748 376.278C43.0378 380.023 52.9787 370.724 52.9464 375.632C52.9464 385.9 57.82 367.236 59.0787 362.49C72.2471 312.731 87.8685 263.649 105.846 215.408L104.458 221.446Z" fill="#636363"/>
<path d="M53.7855 374.146C53.7855 374.146 53.6242 374.082 53.5596 374.05C53.5596 374.05 53.5596 374.05 53.5596 374.017L53.8178 374.178L53.7855 374.146Z" fill="#8B8B8B"/>
<path d="M16.8301 356.451C17.056 358.97 18.5407 362.005 20.4772 364.459C24.3503 369.368 28.2234 374.308 32.0964 379.248C35.0012 382.929 38.0351 386.74 42.586 388.387C43.8447 388.839 45.168 389.097 46.5236 389.032C49.4606 388.903 51.5585 387.708 52.9141 385.932C55.2057 382.929 55.3993 378.312 53.8501 374.695C53.7855 374.502 53.6887 374.308 53.5919 374.114C52.6559 373.662 52.0104 373.372 51.6231 373.21C52.3654 373.533 53.5596 374.05 53.5596 374.05C51.4294 369.723 47.4918 366.591 43.6833 363.62C42.9087 363.039 41.1336 361.779 38.842 360.326C31.9673 355.935 20.445 349.638 17.6693 353.061C16.9269 353.933 16.701 355.128 16.8301 356.516V356.451Z" fill="#8B8B8B"/>
<path d="M16.8301 356.452C17.056 358.97 18.5407 362.005 20.4772 364.459C24.3503 369.368 28.2234 374.308 32.0964 379.248C35.0012 382.929 38.0351 386.74 42.586 388.387C43.8447 388.839 45.168 389.097 46.5236 389.032C49.4606 388.903 51.5585 387.708 52.9141 385.932C52.9787 385.513 53.0432 385.093 53.0432 384.673C53.0432 382.058 51.9458 379.636 50.4612 377.44C50.0739 376.859 49.6866 376.342 49.267 375.826C46.104 371.854 42.1986 368.56 38.261 365.364C37.5833 364.847 36.9377 364.33 36.26 363.781C33.1615 361.327 30.0308 358.841 26.3514 357.323C23.3498 356.096 19.9286 355.644 16.8624 356.484L16.8301 356.452Z" fill="#636363"/>
<path d="M66.5344 212.308L55.6575 274.564C49.0411 266.007 44.1352 259.742 44.1352 259.742C41.8436 252.057 43.1992 242.144 43.1992 234.136V196.001L66.5344 212.34V212.308Z" fill="#5A5A5A"/>
<path d="M72.4731 212.469L43.8447 177.435L114.463 186.508L92.4193 227.097L72.4731 212.469Z" fill="#636363"/>
<path d="M-19.5766 190.448C-19.5766 190.448 -19.6735 190.383 -19.7057 190.351C-20.0285 190.932 -20.319 191.513 -20.6417 192.094C-19.9317 190.738 -19.1893 189.35 -18.447 187.929C-8.28022 168.684 13.5057 135.264 16.0555 130.356L36.3568 76.3663C38.0674 71.0061 43.7801 68.0354 49.1379 69.7145C54.4956 71.4259 57.4649 77.1413 55.7866 82.5014L35.1949 137.298C35.0335 137.815 34.8076 138.331 34.5816 138.816C33.7425 140.462 28.4816 150.472 22.3815 162.032C17.9598 170.428 3.79081 189.35 -0.146797 196.809C-0.98596 198.391 -1.76057 199.876 -2.50291 201.265C-3.37434 201.717 -4.50399 201.975 -5.85956 201.943C-10.6363 201.846 -16.4136 198.359 -18.7052 194.161C-19.4798 192.772 -19.738 191.513 -19.6412 190.415L-19.5766 190.448Z" fill="#8B8B8B"/>
<path d="M-14.929 180.147L-15.2194 180.664C-16.7041 183.311 -17.9629 185.604 -19.028 187.606L-20.6095 190.577V192.159L-20.1253 192.417C-19.9639 193.128 -19.6735 193.87 -19.2862 194.613C-18.0597 196.809 -15.9618 198.811 -13.5088 200.296C-11.0559 201.781 -8.31249 202.718 -5.79501 202.75C-4.34261 202.75 -3.11614 202.524 -2.08333 201.975L-1.88967 201.878L0.563265 197.228C0.886021 196.583 1.98339 194.839 3.20985 192.934C3.62943 192.288 3.20985 191.416 2.43524 191.352C1.53153 191.287 0.692368 191.19 0.337337 191.19C-4.21351 191.093 -9.70034 187.767 -11.8951 183.796C-12.3792 182.924 -14.0253 181.213 -14.0898 180.438C-14.1866 180.405 -14.2512 180.373 -14.348 180.373L-14.8967 180.179L-14.929 180.147Z" fill="#C6ECFF"/>
<path d="M41.1013 85.0847V172.527C41.1013 174.529 42.1341 176.369 43.8447 177.435L62.9841 189.188C72.0535 194.774 82.6076 197.099 93.0325 196.034C96.6797 195.646 100.327 194.871 103.845 193.612L114.463 186.508L108.686 90.6709C108.525 86.6023 106.911 82.7921 104.168 79.8859C103.135 78.7558 101.941 77.7548 100.553 76.9475L93.6458 72.5884L91.7415 71.3613C86.5452 67.7125 76.4429 63.9669 67.3413 62.869C65.5338 62.643 63.8232 62.5138 62.1772 62.5138C58.53 62.5138 55.2702 63.095 52.9464 64.4835C45.6199 68.7458 41.069 76.5923 41.069 85.0847H41.1013Z" fill="white"/>
<g opacity="0.59">
<path d="M108.686 90.6386C108.654 89.6376 108.525 88.6689 108.331 87.7325C104.458 84.4389 100.714 81.2744 97.2929 85.2138C94.9045 87.9585 93.323 94.3197 91.8061 97.6133C91.8706 97.7747 91.9029 97.9039 91.9674 98.0653C93.6135 102.78 95.8728 110.562 94.5818 115.341C93.6458 118.763 91.0315 121.54 90.3214 125.028C88.869 132.39 96.6797 150.795 95.9051 158.287C95.4855 162.549 92.387 166.004 90.4182 169.814C86.2547 178.08 87.9653 188.187 93.0325 196.034C96.6797 195.646 100.327 194.871 103.845 193.612L114.463 186.508L108.686 90.6709V90.6386Z" fill="#D9EBFB"/>
</g>
<path d="M111.591 90.574C111.591 90.2511 111.526 89.9605 111.526 89.6376H111.72C111.72 89.6376 111.591 84.342 111.591 84.3097C111.43 79.9182 109.687 75.7528 106.717 72.6207C102.715 68.3906 95.0982 66.6147 89.8373 64.3221C72.2471 56.6047 36.7441 61.6097 36.7441 85.0847V191.449C36.7441 193.967 38.0351 196.292 40.1653 197.584L46.3622 201.394C47.6209 202.169 49.2024 202.234 50.4612 201.491C52.204 200.49 53.2046 198.714 53.1723 196.712C52.9787 181.213 52.7527 165.713 52.5591 150.182C52.2363 126.19 48.6215 103.07 52.2363 79.2079C52.5913 76.7861 53.0432 74.2998 54.1728 72.104C58.0459 64.5804 70.3106 64.3221 77.5403 65.9366C80.2192 66.5178 82.1234 67.7126 83.479 69.2625L77.9276 67.648C80.4774 68.4875 82.8658 69.6823 84.8346 71.2968C87.3521 76.3017 86.2224 83.6639 84.9959 89.6699C77.5403 126.384 77.1853 164.551 83.8986 201.426C84.1245 202.75 84.6409 204.203 85.351 205.43C85.5446 207.045 85.9965 208.595 86.7711 210.015C88.3203 212.889 90.16 214.891 92.7098 215.828C94.5172 215.828 96.2924 215.828 98.0675 215.731C100.811 215.279 103.619 214.665 105.781 213.89L114.754 208.11C116.4 207.045 117.336 205.204 117.239 203.267C116.303 185.023 111.591 90.574 111.591 90.5417V90.574Z" fill="#8B8B8B"/>
<path d="M68.6645 84.6003L66.5989 83.2764L55.7866 131.421C55.4961 132.906 55.6575 134.424 56.2385 135.78L62.9195 151.247C63.4682 152.474 65.0174 152.636 65.8566 151.538L74.4741 140.366L68.6323 84.6649L68.6645 84.6003Z" fill="white"/>
<path d="M64.2751 76.4309L65.0174 83.4701C65.7275 85.5044 68.3418 85.6013 70.0201 83.6316L75.4424 77.6579L64.3074 76.4309H64.2751Z" fill="white"/>
<path d="M87.1907 76.6892C87.9007 74.9456 88.4494 73.1373 88.7722 71.3291C92.1288 53.3111 58.9819 52.3747 58.9819 72.7175V75.882C58.9819 77.1413 59.9502 78.11 61.0153 77.884L69.6328 76.0434L76.798 84.568C77.8308 86.2794 79.9287 86.4086 81.1229 84.8264C82.9303 82.4046 85.0282 79.5308 87.1584 76.6569L87.1907 76.6892Z" fill="#E1DA7C"/>
<path d="M76.9271 41.4606C76.9271 41.4606 76.9916 41.4929 77.0239 41.5252C77.0562 41.396 77.0562 41.2023 77.0562 41.0731C77.0562 41.2023 77.0239 41.3314 76.9271 41.4606Z" fill="#A4A4A4"/>
<path d="M194.539 199.618C197.186 200.813 199.219 203.041 200.187 205.785L208.45 228.744C208.934 230.1 210.031 231.069 209.127 232.167L207.385 234.233L211.774 246.374C212.226 247.601 211.968 248.957 211.129 249.958C211.129 249.958 170.397 298.232 170.3 298.329C166.814 302.462 156.067 301.332 154.098 295.843L139.606 255.577C139.38 254.963 139.316 254.35 139.38 253.736C139.445 252.865 139.8 252.025 140.348 251.347L184.856 198.617C186.115 197.132 188.181 196.68 189.924 197.487L194.539 199.586V199.618Z" fill="#8B8B8B"/>
<path d="M199.994 205.204L202.091 211.016L155.582 255.545C153.581 257.45 150.677 258.063 148.062 257.062L139.38 253.769C139.445 252.897 139.8 252.057 140.348 251.379L184.856 198.649C186.115 197.164 188.181 196.712 189.924 197.519L195.088 199.876C197.379 200.91 199.122 202.847 199.961 205.204H199.994Z" fill="white"/>
<path d="M208.095 233.394C208.998 232.328 209.257 230.843 208.772 229.551L199.509 203.848C199.122 202.815 197.766 202.556 197.056 203.396L156.163 252.994C153.485 256.158 152.71 260.55 154.098 264.457L165.104 295.036C166.298 298.329 170.591 299.104 172.85 296.424L210.418 250.766C211.548 249.442 211.968 246.988 211.387 245.341L207.74 235.202C207.514 234.588 207.643 233.878 208.062 233.394H208.095Z" fill="#8B8B8B"/>
<path d="M191.15 255.545L183.759 264.295C183.146 265.006 182.403 264.876 182.081 264.005L179.821 257.74C179.499 256.868 179.724 255.577 180.338 254.834L187.729 246.084C188.342 245.373 189.084 245.502 189.407 246.374L191.666 252.638C191.989 253.51 191.763 254.802 191.15 255.545Z" fill="#FECF44"/>
<path d="M176.368 210.855C175.141 207.465 174.205 205.463 171.785 205.979C169.751 205.01 165.911 206.205 163.748 208.756L158.229 215.279C154.646 219.509 153.291 227.194 155.163 232.425L157.939 240.11L160.682 240.433L163.232 237.43L160.456 229.745C159.326 226.58 160.166 221.898 162.328 219.315L167.847 212.792C168.428 212.114 169.041 211.662 169.655 211.404C170.268 211.856 170.784 212.566 171.139 213.567L173.915 221.252L176.658 221.575L179.208 218.572L176.432 210.887L176.368 210.855Z" fill="#A4A4A4"/>
<path d="M170.752 204.074C170.203 202.782 169.525 201.168 168.719 199.327C169.493 201.168 170.203 202.782 170.752 204.074Z" fill="#846063"/>
<path d="M148.482 203.364C148.482 203.364 148.385 203.364 148.32 203.396C148.579 204.009 148.837 204.623 149.095 205.204C148.482 203.783 147.869 202.33 147.223 200.845C138.67 180.825 126.438 142.852 124.243 137.782L95.0982 87.9908C91.9997 83.2764 93.2907 76.9798 98.003 73.88C102.715 70.7801 109.009 72.0717 112.107 76.7861L141.704 127.288C141.994 127.74 142.285 128.257 142.511 128.741C143.285 130.42 147.707 140.818 152.871 152.829C156.615 161.548 162.393 184.474 165.717 192.224C166.427 193.87 167.073 195.42 167.686 196.873C167.492 197.842 166.976 198.875 166.104 199.909C163.006 203.557 156.68 205.85 151.968 205.01C150.418 204.72 149.256 204.139 148.45 203.364H148.482Z" fill="#8B8B8B"/>
<path d="M147.901 204.268C148.675 205.043 150.451 204.752 152 205.043C156.712 205.882 163.038 203.622 166.137 199.941C167.008 198.908 167.524 197.874 167.718 196.906C168.041 197.681 168.364 198.456 168.686 199.166C168.686 199.231 168.751 199.295 168.751 199.327C169.525 201.168 170.235 202.782 170.784 204.074C170.913 204.365 171.01 204.623 171.107 204.849C171.236 205.172 171.365 205.495 171.494 205.753C171.559 205.915 171.623 206.044 171.688 206.173C171.72 206.27 171.752 206.367 171.785 206.431C171.785 206.496 171.849 206.56 171.849 206.593C171.849 206.657 171.914 206.754 171.946 206.819C171.946 206.883 172.011 206.948 172.043 207.012C172.043 207.077 172.107 207.142 172.107 207.206V207.238C172.14 207.335 172.172 207.4 172.204 207.432C174.431 212.599 172.011 218.572 166.847 220.8C166.653 220.865 166.459 220.962 166.298 221.026C161.263 222.835 155.615 220.413 153.485 215.44C152.71 213.632 151.871 211.662 150.999 209.596C150.16 207.626 149.256 205.495 148.32 203.364C148.385 203.364 147.836 204.203 147.869 204.203L147.901 204.268Z" fill="#FFC2B0"/>
<path d="M143.382 193.257L143.608 193.806C144.738 196.647 145.706 199.069 146.61 201.136L147.933 204.235L149.16 205.204L149.644 204.978C150.289 205.301 151.064 205.527 151.871 205.689C154.356 206.141 157.228 205.753 159.94 204.784C162.618 203.816 165.104 202.266 166.717 200.361C167.653 199.263 168.234 198.133 168.46 196.97V196.744L166.427 191.901C166.137 191.255 165.459 189.285 164.781 187.122C164.523 186.379 163.587 186.185 163.07 186.734C162.425 187.412 161.876 187.994 161.618 188.284C158.681 191.771 152.645 193.935 148.159 193.128C147.191 192.966 144.835 193.128 144.157 192.708C144.092 192.74 143.996 192.805 143.931 192.869L143.447 193.192L143.382 193.257Z" fill="#E1DA7C"/>
<path d="M83.7372 64.3867V43.4626C83.7372 40.8794 82.7044 38.5222 81.0906 36.7785C80.1546 35.7453 78.9604 34.938 77.6371 34.3891C76.572 34.0016 75.4747 33.7755 74.3128 33.711C73.7641 33.711 73.2154 33.7433 72.699 33.7755C70.5365 34.0339 68.6 35.0672 67.1153 36.5525C65.3402 38.3285 64.2428 40.7502 64.2428 43.4626V64.3867V65.4199H64.3396C65.0174 68.8427 68.9873 71.3936 73.99 71.3936C78.9927 71.3936 82.9626 68.8427 83.6404 65.4199H83.7372V64.3867Z" fill="#FFC2B0"/>
<g style="mix-blend-mode:multiply">
<path d="M65.4047 67.9386C73.5059 67.5188 79.9287 62.3524 79.9287 56.0881V35.9713C78.1535 35.3901 76.217 35.1317 74.1514 35.1317H73.635C73.2477 35.1317 72.8604 35.164 72.5053 35.1963H72.1503C71.2466 35.3578 70.3429 35.6484 69.536 36.1004C69.1487 36.2619 68.8259 36.4879 68.4709 36.7462C68.3095 36.8754 68.1804 36.9723 68.019 37.1014C67.6317 37.4566 67.309 37.7795 66.9539 38.167C65.3079 40.0398 64.3074 42.6231 64.3074 45.4646V63.4502L65.437 67.9386H65.4047Z" fill="#FFC2B0"/>
</g>
<path d="M46.8463 41.0731C47.04 46.3364 47.9437 51.5351 51.0099 55.41C54.3988 59.7369 59.8856 61.4159 65.082 61.5774C67.9545 61.642 70.9238 61.2222 73.4736 59.7369C78.2826 56.863 80.5096 50.6633 81.7361 44.8188C82.188 42.5908 82.5107 40.3305 82.6398 38.0701C82.7367 35.5192 82.5753 32.9037 81.8975 30.4497C80.4451 25.1218 76.7334 20.698 72.3117 17.9211C67.8899 15.1441 62.7904 13.8848 57.7232 13.3036C55.2702 12.9807 52.6236 12.9161 50.3966 14.2077C48.9442 15.0149 47.7823 16.5972 47.4273 18.3085C47.2659 18.922 47.2659 19.5679 47.3627 20.1814C47.2013 24.9603 47.04 29.7393 46.9109 34.5182C46.8463 36.6817 46.7818 38.8774 46.8463 41.0731Z" fill="#FFC2B0"/>
<circle cx="49.5" cy="31.4999" r="1.5" fill="black"/>
<circle cx="59.5" cy="31.4999" r="1.5" fill="black"/>
<path d="M81.3165 37.166C81.3165 37.166 81.3811 37.1983 81.4134 37.2306C81.4134 37.1014 81.4134 36.9077 81.4134 36.7785C81.4134 36.9077 81.4134 37.0369 81.2842 37.166H81.3165Z" fill="#A4A4A4"/>
<path d="M81.3165 37.166C81.3165 37.166 81.0906 37.0369 80.9615 36.9723C80.6387 36.8108 80.2192 36.6494 79.9932 36.9723C79.8319 37.166 80.0901 37.4243 80.2837 37.4566L79.5414 38.2316C80.2514 38.4253 81.0583 37.9087 81.3165 37.166Z" fill="#A4A4A4"/>
<path d="M47.1691 41.2023C45.6521 45.4969 48.3633 52.0841 51.0099 55.41C54.3988 59.7369 59.8856 61.416 65.082 61.5774C67.9545 61.642 70.9238 61.2222 73.4736 59.7369C78.2826 56.863 80.5096 50.6633 81.7361 44.8188C82.188 42.5908 82.5107 40.3305 82.6398 38.0701C82.2525 37.7472 81.833 37.4889 81.3811 37.2629C81.2843 41.945 79.6705 51.4383 74.6032 52.8591C68.3741 54.6027 67.7608 46.3041 65.3402 42.4939C64.0492 40.4919 61.8867 39.4586 59.8211 38.6514C57.1099 37.6181 54.1729 36.7785 51.3972 37.5212C49.1056 38.1347 47.7823 39.4909 47.1691 41.2346V41.2023Z" fill="#292F3F"/>
<path d="M81.3165 53.3757C81.3165 53.3757 81.5424 53.0528 81.6716 52.8913C81.6716 53.0205 81.6716 53.1174 81.6716 53.2465L81.2842 53.3757H81.3165Z" fill="#A4A4A4"/>
<path d="M41.6177 16.5326C42.4246 15.5316 44.0061 15.5639 45.0712 15.9513C43.4897 13.5942 41.9404 11.0755 41.7791 8.00796C41.3918 0.2906 48.0728 -1.00101 53.5596 0.613502C55.4961 1.19473 57.3358 2.00198 59.2401 2.71236C60.1115 2.22801 60.983 1.80824 61.919 1.54992C67.2444 0.0968592 72.8281 1.84053 77.8953 4.16542C80.0901 5.16642 82.2525 6.29658 84.1891 7.81422C91.2897 13.4004 93.904 24.6051 90.6764 33.4203C89.2886 39.6524 87.8685 53.7955 82.2525 51.8258C79.2509 50.7925 80.5096 40.2336 80.4128 39.8461C79.2509 35.5515 76.0234 33.162 75.4747 28.0279L72.5699 26.2842C63.3068 27.8664 53.6887 26.6394 45.0389 22.6677C43.8447 22.1188 42.6505 21.5053 41.8436 20.3751C41.069 19.2772 40.8431 17.5336 41.6822 16.5003L41.6177 16.5326Z" fill="#292F3F"/>
<path d="M78.6054 38.6836C77.5726 38.7482 76.8625 40.1367 77.1853 41.2346C77.508 42.3324 78.5731 43.0105 79.6059 43.1074C80.6387 43.2043 81.6716 42.8168 82.6398 42.3324C84.4473 41.4283 86.1901 40.0721 86.9647 38.0701C87.7394 36.0681 87.2552 33.3558 85.4801 32.3871C83.8017 31.4506 81.6716 32.4193 80.5096 34.0339C79.3154 35.6161 78.8636 37.7149 78.444 39.7169L78.6377 38.7159L78.6054 38.6836Z" fill="#FFC2B0"/>
</g>
<g clip-path="url(#clip1_0_1)">
<path d="M233.355 124.835C233.891 124.835 234.458 124.835 234.994 124.74C242.054 123.984 251.761 119.07 274.989 88.6403C278.235 84.3877 277.416 78.308 273.161 75.0319C268.906 71.7873 262.823 72.6064 259.546 76.859C243.692 97.618 236.286 103.383 233.638 104.958C230.014 103.824 225.917 104.863 223.301 107.95C219.834 112.045 220.338 118.157 224.435 121.622C226.925 123.732 230.045 124.835 233.355 124.835Z" fill="#F4FBD9"/>
<path d="M229.604 122.63C229.856 122.598 230.108 122.535 230.361 122.472C235.34 121.118 239.059 110.817 240.887 106.69C243.314 101.178 245.741 95.6965 248.136 90.1838C250.784 84.1672 257.15 68.8893 250.973 61.0456C247.443 56.5724 230.613 80.9856 227.461 87.3173C223.175 95.9485 221.095 105.871 222.607 115.416C223.238 119.322 225.286 123.291 229.573 122.598L229.604 122.63Z" fill="#FFC2B0"/>
<path d="M253.935 71.3148L262.382 67.8812C262.823 67.7552 263.044 67.3457 263.012 66.7787V43.0586C262.949 41.8616 260.176 40.8535 259.262 41.1055L249.05 43.9091C248.609 44.0351 248.388 44.4446 248.42 45.0116L249.933 68.5427C250.374 70.6848 253.022 71.5668 253.935 71.3148Z" fill="#F4FBD9"/>
<path d="M253.936 71.3148L264.147 68.5112C264.588 68.3852 264.809 67.9757 264.777 67.4087L263.265 43.8776C263.202 42.6806 261.941 41.4835 261.027 41.7356L250.815 44.5391C250.374 44.6651 250.153 45.0746 250.185 45.6417L251.698 69.1728C251.761 70.3698 253.022 71.5668 253.936 71.3148Z" fill="#B39B10"/>
<path d="M262.571 62.3371L261.437 45.1691C261.437 44.7911 261.216 44.4446 260.901 44.2241C260.586 44.0036 260.176 43.9406 259.829 44.0351L253.085 45.8937C252.486 46.0512 252.108 46.6182 252.139 47.2167L253.274 64.2901C253.274 64.6681 253.494 65.0147 253.809 65.2352C253.904 65.2982 253.999 65.3612 254.125 65.3927C254.377 65.4872 254.629 65.4872 254.881 65.4242L261.626 63.6601C262.225 63.5026 262.634 62.9356 262.571 62.3371Z" fill="#F4FBD9"/>
<path d="M259.987 67.0307C259.766 67.5977 259.136 68.0072 258.569 67.9442C258.001 67.8812 257.686 67.3457 257.875 66.7787C258.096 66.2117 258.726 65.8022 259.293 65.8652C259.861 65.9282 260.176 66.4637 259.987 67.0307Z" fill="#F4FBD9"/>
<path d="M247.443 64.5422C249.366 64.5422 250.973 62.9671 250.973 61.0141V52.0363C250.973 50.1148 249.397 48.5082 247.443 48.5082C245.52 48.5082 243.913 50.0833 243.913 52.0363V61.0141C243.913 62.9356 245.489 64.5422 247.443 64.5422Z" fill="#FFC2B0"/>
<path d="M246.434 358.508C245.331 360.429 244.228 362.288 243.157 364.209C242.053 366.131 240.982 368.084 240.099 370.195C238.807 373.313 236.349 379.361 238.145 382.543C240.856 387.331 246.56 384.181 249.586 381.409C254.062 377.251 258.285 372.683 262.256 367.737C263.958 365.627 265.66 363.327 266.448 360.492C268.843 351.83 266.353 338.82 257.623 340.741C254.44 341.434 252.801 344.08 251.635 347.577C250.343 351.483 248.451 355.043 246.466 358.508H246.434Z" fill="#B39B10"/>
<path d="M304.489 337.812C304.111 339.607 303.701 341.371 303.355 343.135C303.008 344.931 302.63 346.758 302.535 348.585C302.377 351.294 302.157 356.586 304.962 358.161C309.154 360.524 313.472 356.082 315.331 352.932C318.105 348.239 320.531 343.356 322.549 338.284C323.431 336.111 324.219 333.811 323.998 331.512C323.273 324.392 316.434 316.076 308.87 320.801C306.097 322.534 305.466 325.054 305.592 327.984C305.718 331.291 305.183 334.536 304.489 337.78V337.812Z" fill="#B39B10"/>
<path d="M279.433 214.14L283.341 233.576L319.743 320.927C320.973 324.928 319.082 329.054 315.52 330.126L311.076 331.48C307.735 332.488 305.592 330 304.142 326.345L259.01 240.821L254.251 228.22C262.792 223.842 271.175 219.211 279.433 214.171V214.14Z" fill="#FFC2B0"/>
<path d="M241.927 368.304C243.094 365.595 251.225 348.868 251.698 346.317L278.456 206.233L281.45 194.861C291.315 194.262 301.211 193.38 311.202 192.026L301.558 220.881L266.29 349.057C264.84 354.885 254.913 369.785 252.044 371.644C250.437 372.683 248.83 373.723 247.222 374.762C245.836 375.676 244.165 376.589 242.684 375.959C241.423 375.424 240.761 373.849 240.793 372.4C240.793 370.951 241.392 369.564 241.959 368.241L241.927 368.304Z" fill="#FFC2B0"/>
<path d="M306.065 328.74C306.097 331.89 306.16 335.008 306.191 338.158C306.191 339.607 306.254 341.088 306.79 342.411C307.357 343.734 308.555 344.899 309.942 344.899C311.581 344.899 312.715 343.356 313.629 341.97C314.669 340.363 315.741 338.757 316.781 337.15C318.672 334.284 320.626 331.134 320.5 327.605C320.374 323.479 317.474 320.014 314.732 316.958C313.409 315.478 311.801 313.84 309.879 313.903C308.618 313.934 307.483 314.753 306.632 315.73C305.183 317.399 304.395 319.699 304.489 321.998C304.615 324.991 306.097 327.795 306.191 330.787L306.002 328.74H306.065Z" fill="#FFC2B0"/>
<path d="M299.226 181.032L299.478 86.5927C299.478 84.9862 298.186 83.6946 296.578 83.6946C294.971 83.6946 293.679 84.9862 293.679 86.5927L293.427 181.032C293.427 182.639 294.719 183.93 296.326 183.93C297.934 183.93 299.226 182.639 299.226 181.032Z" fill="white"/>
<path d="M270.86 41.2631C270.923 40.6015 270.986 39.9085 271.049 39.247C271.554 31.2773 270.955 24.6936 279.307 21.197C286.65 18.1415 297.272 21.26 302.85 26.3317C314.512 36.9474 307.861 47.0277 306.286 59.502C306.349 64.6997 309.343 67.3142 315.268 68.3223C319.586 69.0468 323.21 71.6613 325.259 76.103C326.205 78.1505 326.677 80.4186 326.803 82.7496C327.15 89.9003 327.843 91.8849 336.132 94.4049C341.112 95.917 345.304 99.4136 347.762 104.8C353.593 117.558 347.573 135.986 334.336 145.94C321.099 155.926 305.624 153.689 299.793 140.932C297.335 135.545 296.988 129.182 298.375 122.85C300.707 112.329 299.699 110.596 295.034 106.753C295.034 106.753 295.034 106.753 295.002 106.722C293.458 105.462 292.166 103.792 291.252 101.745C289.235 97.3345 289.235 91.9479 290.811 86.7817C293.017 79.6626 292.702 75.0319 289.203 72.4489C286.808 71.3463 284.192 70.5273 281.387 69.9918C276.849 69.1413 273.003 66.2747 270.86 61.5811C267.74 54.7769 270.104 48.1617 270.892 41.2946L270.86 41.2631Z" fill="black"/>
<path d="M258.947 142.475L254.534 149.216C251.067 154.509 249.239 160.683 249.334 166.951L250.532 278.905C250.532 278.905 292.67 299.412 314.48 276.133L315.426 190.23C315.426 190.23 320.626 153.28 304.993 144.68L259.01 142.475H258.947Z" fill="white"/>
<path d="M276.754 62.4946C276.754 62.4946 276.817 62.4946 276.849 62.5576C276.849 62.4316 276.849 62.2741 276.849 62.1481C276.849 62.2741 276.849 62.4001 276.722 62.4946H276.754Z" fill="#4168C3"/>
<path d="M312.873 99.5711L309.658 111.636L303.323 148.24C302.661 150.728 298.343 152.744 296.169 153.815C290.338 156.682 279.023 158.131 262.288 151.043C259.703 149.941 257.781 147.515 257.213 144.586L250.626 117.464L250.532 116.928C249.712 112.707 250.343 108.328 252.297 104.611L258.411 92.8929V86.6242C258.411 79.19 264.998 73.8349 271.585 75.914L277.51 77.9615L293.584 83.5687L307.42 88.3883C311.77 89.9003 314.196 94.8774 312.936 99.6026L312.873 99.5711Z" fill="#F4FBD9"/>
<path d="M312.873 99.5711L309.658 111.636C308.051 113.62 306.443 115.636 304.804 117.621C301.4 121.842 297.839 126.158 293.111 128.363C285.232 132.048 276.187 129.024 268.213 125.654C263.265 123.575 258.379 121.37 253.557 119.007C252.58 118.535 251.572 118.031 250.626 117.464L250.532 116.928C249.712 112.707 250.343 108.328 252.297 104.611L258.411 92.8929V86.6242C258.411 79.19 264.998 73.8349 271.585 75.914L277.51 77.9615L293.584 83.5687L307.42 88.3883C311.77 89.9003 314.196 94.8774 312.936 99.6026L312.873 99.5711Z" fill="#F4FBD9"/>
<path d="M293.521 83.5372C289.046 87.3488 284.35 90.8139 279.464 93.9324C277.794 95.0035 275.903 96.043 274.012 95.7595C273.602 95.6965 273.161 95.539 272.846 95.224C272.247 94.5624 272.373 93.5229 272.531 92.6094C273.571 87.5063 275.21 82.5921 277.447 77.9615L293.521 83.5687V83.5372Z" fill="#FFC2B0"/>
<path d="M293.553 62.4001V83.5056L276.849 84.9547V62.4001H293.553Z" fill="#FFC2B0"/>
<path d="M290.653 68.4798L276.912 82.5291L276.849 83.7262V68.7633L290.653 68.4798Z" fill="#FFC2B0"/>
<path d="M262.981 56.1629C263.139 60.9511 263.958 65.6447 266.763 69.1728C269.852 73.0789 274.831 74.6224 279.559 74.7484C282.175 74.8114 284.854 74.4334 287.155 73.0789C291.504 70.4643 293.553 64.8572 294.656 59.565C295.065 57.549 295.349 55.5014 295.475 53.4539C295.57 51.1228 295.412 48.7602 294.782 46.5237C293.458 41.6726 290.086 37.672 286.052 35.1834C282.049 32.6633 277.416 31.5293 272.814 30.9938C270.577 30.7103 268.181 30.6473 266.164 31.8128C264.84 32.5688 263.8 33.9864 263.485 35.5299C263.359 36.0969 263.359 36.6639 263.422 37.2309C263.296 41.5781 263.139 45.8937 263.012 50.2408C262.949 52.1938 262.886 54.1784 262.949 56.1944L262.981 56.1629Z" fill="#FFC2B0"/>
<circle cx="266.5" cy="54.5" r="1.5" fill="black"/>
<circle cx="276.5" cy="54.5" r="1.5" fill="black"/>
<path d="M316.434 153.185C312.81 152.335 309.816 149.5 308.965 145.657L301.369 99.1301C300.14 93.7434 300.644 88.3883 306.002 87.1913C311.391 85.9627 316.749 89.3648 317.947 94.7515L328.442 141.278C329.671 146.665 326.268 152.02 320.878 153.217C319.365 153.563 317.821 153.532 316.403 153.217L316.434 153.185Z" fill="#F4FBD9"/>
<path d="M301.085 60.2266C289.55 56.919 280.41 51.5953 276.975 43.1846C276.439 41.8616 274.737 41.5466 273.728 42.5861C269.19 47.3742 264.21 49.8628 262.13 47.1852C258.096 42.0191 266.416 24.5361 276.187 22.8981C296.484 19.4645 308.523 40.7275 304.426 58.179L301.054 60.258L301.085 60.2266Z" fill="black"/>
<path d="M298.658 195.523C294.782 198.263 289.455 197.35 286.713 193.507C283.971 189.632 284.885 184.308 288.731 181.568C316.623 161.785 313.156 148.523 313.125 148.397C311.045 144.145 312.81 139.01 317.064 136.931C321.319 134.852 326.457 136.616 328.537 140.869C329.766 143.42 339.505 166.573 298.658 195.523Z" fill="#FFC2B0"/>
<path d="M289.928 203.303C294.151 203.303 297.618 199.838 297.618 195.617V190.892C297.618 186.671 294.151 183.206 289.928 183.206C285.705 183.206 282.238 186.671 282.238 190.892V195.617C282.238 199.838 285.705 203.303 289.928 203.303Z" fill="#FFC2B0"/>
<path d="M290.401 62.3686C290.748 62.6521 291.157 62.6521 291.567 62.4946C291.599 62.3686 291.567 62.2111 291.63 62.0851L290.401 62.3686Z" fill="#FFC2B0"/>
<path d="M298.532 54.1469C296.704 53.5169 294.908 55.5329 294.12 57.864C293.71 59.0295 293.458 60.321 292.891 61.3291C292.576 61.8961 292.071 62.3371 291.567 62.4946C291.031 64.2901 292.103 66.5582 293.553 67.0307C295.097 67.5347 296.704 66.5582 297.997 65.2352C299.352 63.8491 300.581 61.9276 300.833 59.6595C301.117 57.36 300.171 54.7139 298.532 54.1469Z" fill="#FFC2B0"/>
</g>
<path d="M482.873 341.501C482.512 343.126 482.151 344.796 481.835 346.421C481.519 348.092 481.158 349.762 481.067 351.432C480.932 353.914 480.706 358.789 483.28 360.234C487.163 362.445 491.136 358.338 492.851 355.449C495.425 351.116 497.637 346.602 499.488 341.953C500.301 339.967 501.023 337.845 500.843 335.724C500.166 329.179 493.89 321.505 486.892 325.884C484.363 327.464 483.776 329.766 483.867 332.519C484.002 335.543 483.506 338.567 482.873 341.547V341.501Z" fill="#B39B10"/>
<path d="M459.847 227.664L453.83 259.908L496.96 326.019C498.089 329.721 496.328 333.512 493.077 334.505L489.014 335.769C485.944 336.717 483.957 334.415 482.648 331.03L441.11 252.264L436.731 240.664C444.587 236.647 452.307 232.359 459.893 227.709L459.847 227.664Z" fill="#FFBCA8"/>
<path d="M484.363 333.151C484.363 336.04 484.454 338.929 484.499 341.817C484.499 343.126 484.544 344.526 485.041 345.744C485.537 346.963 486.666 348.046 487.93 348.046C489.42 348.046 490.504 346.647 491.316 345.338C492.265 343.849 493.258 342.404 494.206 340.915C495.922 338.252 497.728 335.408 497.637 332.158C497.502 328.366 494.838 325.162 492.355 322.318C491.136 320.964 489.646 319.474 487.885 319.519C486.711 319.519 485.673 320.287 484.905 321.19C483.551 322.724 482.828 324.846 482.919 326.967C483.009 329.721 484.409 332.293 484.499 335.047L484.318 333.151H484.363Z" fill="#FFBCA8"/>
<path d="M423.427 358.951C422.415 360.767 421.402 362.523 420.418 364.338C419.405 366.154 418.421 367.999 417.611 369.993C416.425 372.94 414.168 378.654 415.817 381.66C418.306 386.184 423.543 383.208 426.321 380.589C430.43 376.66 434.308 372.345 437.954 367.672C439.516 365.678 441.079 363.505 441.802 360.826C444.001 352.642 441.715 340.35 433.7 342.165C430.777 342.82 429.273 345.32 428.202 348.624C427.016 352.314 425.279 355.677 423.456 358.951H423.427Z" fill="#B39B10"/>
<path d="M419.238 367.821C420.338 365.277 428.011 349.567 428.457 347.17L453.708 215.603L456.533 204.922C465.842 204.36 475.181 203.532 484.609 202.26L475.508 229.36L442.228 349.744C440.86 355.217 431.491 369.211 428.785 370.957C427.268 371.933 425.751 372.91 424.234 373.886C422.926 374.744 421.349 375.602 419.951 375.01C418.762 374.507 418.137 373.028 418.167 371.667C418.167 370.306 418.732 369.004 419.267 367.762L419.238 367.821Z" fill="#FFC2B0"/>
<path d="M480.569 326.158C478.84 325.602 477.445 324.324 476.163 323.045C473.179 319.96 470.781 316.374 468.382 312.816C463.837 306.089 449.782 287.771 440.022 275.206C434.306 267.84 430.067 262.447 430.067 262.447C428.087 255.832 429.258 247.298 429.258 240.404V177.222L452.153 165.13L453.38 165.547C452.961 169.605 452.515 173.663 452.264 177.722C451.734 186.005 452.543 194.206 453.268 202.433C453.714 207.771 454.16 213.441 454.941 219.056L454.718 218.973L458.427 262.058C458.427 262.058 492.866 319.014 492.894 319.042C496.101 324.324 483.19 327.076 480.541 326.186L480.569 326.158Z" fill="#B9A429"/>
<path d="M488.029 193.954C491.658 197.319 483.496 225.298 482.139 230.052L483.33 224.853C467.897 266.393 455.853 301.092 444.548 343.939L425.983 353.221C424.043 350.941 428.602 348.093 428.907 345.118C430.098 333.496 431.543 317.943 434.203 306.571C441.878 273.9 447.032 254.993 454.68 222.323C455.012 220.877 455.4 219.348 456.508 218.347C457.617 217.346 459.252 217.123 460.748 216.957C466.289 216.345 475.698 193.37 481.24 192.759C483.595 192.508 486.283 192.342 488.029 193.954Z" fill="#B9A429"/>
<path d="M449.433 222.116L440.029 275.542C434.309 268.199 430.068 262.823 430.068 262.823C428.086 256.228 429.258 247.721 429.258 240.848V208.122L449.433 222.144V222.116Z" fill="#B39B10"/>
<path d="M454.807 221.313L430.868 184.672L488.029 195.42L473.21 227.664L454.807 221.313Z" fill="#B9A429"/>
<g clip-path="url(#clip2_0_1)">
<path d="M478.89 33.6294C478.412 18.1251 464.666 21.4786 451.486 22.6109C450.268 22.698 449.051 22.8287 447.92 23.2206C446.919 23.6126 446.049 24.1788 445.223 24.832C437.524 30.6244 432.26 39.4218 433.304 48.3063C435.262 64.9865 458.794 71.3015 471.452 59.02C478.281 52.4002 479.195 42.6011 478.934 33.6294H478.89Z" fill="#323537"/>
<path d="M458.968 11.418C463.1 3.70943 475.628 2.57709 481.109 9.41467C486.589 16.2958 482.674 28.2289 474.236 30.5807C468.016 32.2792 460.751 28.708 458.402 22.6543C456.054 16.6442 458.968 9.02271 464.797 6.19186L458.968 11.418Z" fill="#323537"/>
<path d="M443.831 38.6816C445.44 42.6447 447.659 46.3902 450.747 49.3081C453.879 52.2261 457.968 54.2295 462.231 54.273C464.231 54.273 466.406 53.7939 467.668 52.2696C468.364 51.4422 468.712 50.3969 468.973 49.3517C470.06 45.2143 469.93 40.7285 468.19 36.8088C466.45 32.8892 463.057 29.7099 458.925 28.6212C454.618 27.4888 449.877 28.7083 446.136 31.1471C443.483 32.8892 440.96 35.8072 441.743 38.8993L443.787 38.6816H443.831Z" fill="#323537"/>
</g>
<path d="M388.022 187.428C388.022 187.428 387.706 187.202 387.525 187.067C383.597 184.133 382.785 178.536 385.764 174.609C406.172 147.39 421.162 115.433 429.018 82.1213C430.146 77.3367 434.932 74.4028 439.718 75.5312C444.504 76.6597 447.438 81.4443 446.31 86.2289C437.867 121.888 421.839 156.147 399.941 185.306C397.097 189.053 391.86 189.955 387.977 187.428H388.022Z" fill="white"/>
<path d="M448.432 60.1392C448.432 60.1392 448.477 60.1392 448.522 60.1844C448.522 60.049 448.522 59.9136 448.522 59.7781C448.522 59.9136 448.522 60.049 448.387 60.1392H448.432Z" fill="#714E51"/>
<path d="M489.427 99.1836L486.041 111.867L489.259 201.277C488.582 203.895 486.867 206.017 484.609 207.145C478.469 210.169 452.405 199.926 434.797 192.433C432.088 191.259 430.056 188.732 429.424 185.617L423.916 118.006L423.78 117.419C422.922 112.996 423.6 108.392 425.631 104.42L432.043 92.097V85.5069C432.043 77.698 438.95 72.0558 445.903 74.2224L448.296 75.0349L452.134 76.3439L469.02 82.257L473.941 83.9722L483.558 87.3124C488.118 88.8922 490.691 94.1282 489.337 99.1385L489.427 99.1836Z" fill="#FFFCE8"/>
<path d="M489.427 99.1835L486.041 111.867C484.325 113.989 482.655 116.065 480.939 118.187C477.372 122.61 473.625 127.169 468.613 129.516C460.351 133.398 450.825 130.238 442.382 126.672C437.19 124.506 432.042 122.159 426.941 119.676C425.902 119.18 424.864 118.683 423.87 118.051L423.735 117.464C422.877 113.041 423.554 108.437 425.586 104.465L431.997 92.1421V85.5519C431.997 77.7431 438.905 72.1009 445.858 74.2675L448.251 75.08L452.089 76.389H467.51L470.93 79.6336L482.655 85.9847C487.215 87.5645 490.646 94.1733 489.292 99.1835H489.427Z" fill="white"/>
<path d="M474.031 84.0172C471.638 87.9442 468.343 91.3295 464.911 94.3989C462.293 96.7009 459.493 98.9127 456.197 99.996C452.901 101.079 449.019 100.854 446.31 98.6419C444.143 96.8363 443.059 94.0378 442.923 91.1941C442.788 88.3956 443.51 85.6422 444.504 82.9791C445.497 80.2257 446.806 77.5625 448.341 75.0348L452.179 76.3438L469.065 82.2569L473.986 83.9721L474.031 84.0172Z" fill="white"/>
<path d="M521.393 200.202C523.199 197.358 521.89 193.747 518.458 192.754C515.524 191.851 512.183 191.851 509.158 192.754C507.035 193.431 505.004 194.605 504.146 196.41C503.514 197.719 503.559 199.164 503.74 200.518C504.056 203.361 504.733 206.205 506.313 208.597C508.48 211.892 512.499 214.375 517.33 213.563C519.452 213.201 521.303 212.073 522.477 210.493C525.682 205.979 519.361 205.122 521.438 200.202H521.393Z" fill="#FFBCA8"/>
<path d="M418.453 113.267L418.678 113.673C418.678 113.673 418.588 113.673 418.498 113.673C418.498 113.537 418.498 113.402 418.498 113.221L418.453 113.267Z" fill="#D9EDFE"/>
<g clip-path="url(#clip3_0_1)">
<path d="M469.649 84.1235C466.973 87.0936 463.055 91.4003 460.718 93.9991C459.701 95.1129 457.892 95.0386 456.988 93.8135L451.788 86.7223L444.327 88.0218C443.423 88.1703 442.594 87.502 442.594 86.5738V84.3091C442.594 79.2599 446.174 74.9161 451.185 73.8395C452.843 73.5053 454.576 73.3197 456.385 73.3197C461.284 73.2826 465.73 74.6563 468.895 76.8467C471.307 78.5174 471.646 81.933 469.649 84.1235Z" fill="#F5DC8C"/>
</g>
<path d="M448.567 60.0491H464.13C465.235 60.0491 466.13 60.9446 466.13 62.0491V75.01C466.13 79.86 462.199 83.7916 457.349 83.7916C452.499 83.7916 448.567 79.8599 448.567 75.01V60.0491Z" fill="#FFBCA8"/>
<g style="mix-blend-mode:multiply">
<path d="M462.744 67.7225L449.434 78.6565L448.567 76.2137V66.7295L462.744 67.7225Z" fill="#FFBCA8"/>
</g>
<path d="M465.318 48.0424H465.363C465.408 47.9521 465.408 47.8167 465.408 47.6813C465.408 47.8167 465.408 47.907 465.318 47.9972V48.0424Z" fill="#714E51"/>
<path d="M465.995 53.3237C463.782 42.0844 456.649 30.3937 444.549 28.3625C443.465 28.1819 443.285 27.1889 443.646 26.3764C443.42 25.8348 443.51 25.2028 443.826 24.7966C443.691 24.7966 443.601 24.7966 443.465 24.7515C441.163 24.4355 438.634 24.3904 436.557 25.6091C435.158 26.3764 434.074 27.9111 433.758 29.5812C433.623 30.168 433.623 30.7999 433.713 31.3867C433.578 35.9908 433.442 40.5948 433.262 45.1989C433.216 47.2752 433.126 49.3967 433.216 51.5181C433.397 56.5736 434.255 61.5839 437.144 65.3303C440.35 69.483 445.497 71.1079 450.418 71.2433C453.127 71.2885 455.926 69.3476 458.319 67.9031C462.834 65.1497 464.956 60.7262 466.085 55.084C466.175 54.6778 466.221 54.3167 466.266 53.9104C466.13 53.7299 465.995 53.5493 465.95 53.2785L465.995 53.3237Z" fill="#FFBCA8"/>
<circle cx="436.243" cy="50.3206" r="1.46565" fill="black"/>
<circle cx="446.014" cy="50.3206" r="1.46565" fill="black"/>
<path d="M463.918 54.1361C464.279 54.4069 464.731 54.4069 465.137 54.2715C465.137 54.1361 465.137 53.9555 465.227 53.8201L463.918 54.1361Z" fill="#FFBCA8"/>
<path d="M472.496 45.4696C470.6 44.7925 468.704 46.9591 467.846 49.3966C467.44 50.6153 467.169 51.9694 466.537 53.0527C466.175 53.6395 465.679 54.0909 465.137 54.2715C464.595 56.1672 465.679 58.5595 467.214 59.0561C468.839 59.5977 470.555 58.5595 471.864 57.1603C473.309 55.7159 474.573 53.6847 474.844 51.2924C475.16 48.9001 474.167 46.1015 472.406 45.4696H472.496Z" fill="#FFBCA8"/>
<path d="M513.943 203.948C513.943 203.948 513.537 203.993 513.356 204.038C508.48 204.58 504.101 201.014 503.559 196.139C499.947 162.331 489.111 128.749 472.135 99.0028C469.697 94.7147 471.187 89.2982 475.476 86.8608C479.765 84.4233 485.183 85.9129 487.621 90.201C505.771 122.068 517.42 158.043 521.258 194.289C521.754 198.983 518.549 203.181 513.943 203.993V203.948Z" fill="white"/>
<path d="M396.059 189.775C399.354 188.917 400.799 185.397 398.993 182.327C397.458 179.664 395.02 177.362 392.131 176.008C390.144 175.06 387.796 174.564 385.945 175.286C384.591 175.827 383.642 176.911 382.83 178.039C381.114 180.341 379.669 182.869 379.173 185.713C378.495 189.594 379.76 194.153 383.868 196.862C385.674 198.035 387.796 198.487 389.738 198.125C395.156 197.042 391.137 192.077 396.013 189.865L396.059 189.775Z" fill="#FFBCA8"/>
<path d="M461.665 20.7194C456.88 12.7495 434.392 20.85 431.521 30.6056C430.303 34.7865 430.999 39.2723 432.173 43.4968C434.522 41.0579 438.263 40.6224 441.612 40.7966C445.005 40.9708 448.442 41.5806 451.704 40.6224C455.488 39.4901 458.359 36.3544 460.099 32.8267C462.927 27.0779 463.101 23.1583 461.665 20.7629V20.7194Z" fill="#323537"/>
<defs>
<clipPath id="clip0_0_1">
<rect width="239" height="389" fill="white" transform="translate(-27)"/>
</clipPath>
<clipPath id="clip1_0_1">
<rect width="129" height="365" fill="white" transform="translate(221 20)"/>
</clipPath>
<clipPath id="clip2_0_1">
<rect width="52.7634" height="60.5802" fill="white" transform="matrix(-1 0 0 1 483.632 0)"/>
</clipPath>
<clipPath id="clip3_0_1">
<rect width="28.3359" height="21.4962" fill="white" transform="matrix(-1 0 0 1 470.93 73.2824)"/>
</clipPath>
</defs>
</svg>
