<svg width="252" height="321" viewBox="0 0 252 321" fill="none" xmlns="http://www.w3.org/2000/svg">
<path d="M2.50609 82.4931L145.387 0.854858C148.7 -1.03711 155.445 -0.0825237 155.445 6.71134L152.811 130.996C152.811 132.785 151.858 134.436 150.305 135.313L9.51758 219.041C4.78033 221.329 0.000152588 217.381 0.000152588 212.617V86.8102C0.000152588 85.0214 0.952759 83.3703 2.50609 82.4931Z" fill="#EFE1C8"/>
<path d="M5.14076 84.3238L148.022 2.69419C151.335 0.802229 155.445 3.20158 155.445 7.01131V132.835C155.445 134.624 154.493 136.267 152.939 137.153L10.0582 218.774C6.75415 220.666 2.63481 218.266 2.63481 214.456V88.6495C2.63481 86.8608 3.58742 85.2096 5.14076 84.3324V84.3238Z" fill="#FEFCFF"/>
<path d="M18.9661 81.0562L149.326 6.57302C150.588 5.85923 152.15 6.76222 152.15 8.21559V132.956C152.15 133.636 151.789 134.263 151.197 134.599L20.837 209.065C19.5755 209.787 18.0135 208.875 18.0135 207.422V82.6987C18.0135 82.0194 18.374 81.3916 18.9661 81.0562Z" fill="url(#paint0_linear_0_1826)"/>
<path d="M65.4546 120.314C62.1677 120.314 59.5587 118.973 59.2841 117.287V141.564C59.2841 144.91 62.0561 147.653 65.4546 147.653C68.853 147.653 71.625 144.918 71.625 141.564V117.287C71.3504 118.973 68.7415 120.314 65.4546 120.314Z" fill="#BFAC13"/>
<path d="M103.362 98.7976C100.075 98.7976 97.4657 97.4647 97.1911 95.7705V120.048C97.1911 123.393 99.9631 126.137 103.362 126.137C106.76 126.137 109.532 123.393 109.532 120.048V95.7705C109.257 97.4561 106.648 98.7976 103.362 98.7976Z" fill="#DCBC1F"/>
<path d="M83.657 109.952C80.3701 109.952 77.7611 108.619 77.4865 106.925V131.202C77.4865 134.547 80.2585 137.291 83.657 137.291C87.0554 137.291 89.8274 134.556 89.8274 131.202V106.925C89.5528 108.61 86.9438 109.952 83.657 109.952Z" fill="#EFE233"/>
<path d="M135.922 92.6323C134.325 91.3423 119.719 90.6113 119.719 90.6113L114.595 100.819L137.904 114.355C137.904 114.355 138.642 104.775 138.642 99.5294C138.642 94.2835 137.526 93.9223 135.93 92.6323H135.922Z" fill="#C4C6D0"/>
<path d="M105.85 81.401C103.945 82.3298 101.799 83.5338 99.5853 85.0904C92.5652 90.0525 45.6047 116.273 41.5197 118.028C37.4347 119.773 32.4485 125.157 31.6075 129.018C30.7665 132.88 30.4919 149.331 30.4919 149.331L53.3971 162.48C53.3971 162.48 53.6374 145.625 54.6587 142.683C55.6799 139.742 55.8687 136.707 64.9141 131.555C73.951 126.404 135.921 91.8498 135.921 91.8498L118.491 81.874C114.604 79.6467 109.875 79.4575 105.842 81.4096L105.85 81.401Z" fill="#FEFCFF"/>
<path d="M136.84 92.2108C135.458 91.4196 133.733 91.5314 131.982 92.529L60.074 133.507C56.3923 135.606 53.4058 141.213 53.4058 146.02V162.463L54.8991 161.663V146.011C54.8991 141.746 57.611 136.603 60.8206 134.771L132.738 93.7932C133.484 93.3718 134.197 93.1568 134.849 93.1568C135.304 93.1568 135.724 93.26 136.102 93.4664C137.252 94.1286 137.912 95.7196 137.912 97.8523V114.338L139.406 113.487V97.8523C139.406 95.1778 138.47 93.1224 136.848 92.1936L136.84 92.2108Z" fill="#EFE1C8"/>
<path d="M65.4546 78.7612C62.0647 78.7612 59.2841 81.496 59.2841 84.8499V104.251C59.5587 102.566 62.1677 101.224 65.4546 101.224C68.7415 101.224 71.3504 102.557 71.625 104.251V84.8499C71.625 81.496 68.853 78.7612 65.4546 78.7612Z" fill="#FEFCFF"/>
<path d="M65.4546 101.223C62.1677 101.223 59.5587 102.556 59.2841 104.25V104.783C59.5587 106.469 62.1677 107.81 65.4546 107.81C68.7415 107.81 71.3504 106.477 71.625 104.783V104.25C71.3504 102.564 68.7415 101.223 65.4546 101.223Z" fill="#B3A10E"/>
<path d="M65.4546 107.811C62.1677 107.811 59.5587 106.478 59.2841 104.784V117.288C59.5587 118.973 62.1677 120.315 65.4546 120.315C68.7415 120.315 71.3504 118.973 71.625 117.288V104.784C71.3504 106.469 68.7415 107.811 65.4546 107.811Z" fill="#BFAC13"/>
<path d="M83.657 68.3975C80.2585 68.3975 77.4865 71.1322 77.4865 74.4861V93.8874C77.7611 92.2018 80.3701 90.8602 83.657 90.8602C86.9438 90.8602 89.5528 92.2018 89.8274 93.8874V74.4861C89.8274 71.1408 87.0554 68.3975 83.657 68.3975Z" fill="#FEFCFF"/>
<path d="M83.657 90.8608C80.3701 90.8608 77.7611 92.2024 77.4865 93.888V94.4212C77.7611 96.1067 80.3701 97.4483 83.657 97.4483C86.9438 97.4483 89.5528 96.1153 89.8274 94.4212V93.888C89.5528 92.2024 86.9438 90.8608 83.657 90.8608Z" fill="#DED22F"/>
<path d="M83.657 97.448C80.3701 97.448 77.7611 96.1151 77.4865 94.4209V106.925C77.7611 108.611 80.3701 109.952 83.657 109.952C86.9438 109.952 89.5528 108.619 89.8274 106.925V94.4209C89.5528 96.1065 86.9438 97.448 83.657 97.448Z" fill="#EFE233"/>
<path d="M83.7344 69.8687C81.4687 69.8687 79.6322 71.1844 79.6322 72.8098C79.6322 74.4352 81.4687 75.7509 83.7344 75.7509C86 75.7509 87.8365 74.4352 87.8365 72.8098C87.8365 71.1844 86 69.8687 83.7344 69.8687Z" fill="#EFE1C8"/>
<path d="M103.362 57.2437C99.9717 57.2437 97.1911 59.9784 97.1911 63.3323V82.7336C97.4657 81.048 100.075 79.7064 103.362 79.7064C106.648 79.7064 109.257 81.048 109.532 82.7336V63.3323C109.532 59.987 106.751 57.2437 103.362 57.2437Z" fill="#FEFCFF"/>
<path d="M103.362 79.7056C100.075 79.7056 97.4657 81.0471 97.1911 82.7327V83.2659C97.4657 84.9515 100.075 86.293 103.362 86.293C106.648 86.293 109.257 84.9601 109.532 83.2659V82.7327C109.257 81.0471 106.648 79.7056 103.362 79.7056Z" fill="#E4CC53"/>
<path d="M103.362 86.2937C100.075 86.2937 97.4657 84.9608 97.1911 83.2666V95.7708C97.4657 97.4563 100.075 98.7979 103.362 98.7979C106.648 98.7979 109.257 97.4649 109.532 95.7708V83.2666C109.257 84.9522 106.648 86.2937 103.362 86.2937Z" fill="#DCBC1F"/>
<path d="M103.447 58.7148C101.181 58.7148 99.345 60.0306 99.345 61.656C99.345 63.2814 101.181 64.5971 103.447 64.5971C105.713 64.5971 107.549 63.2814 107.549 61.656C107.549 60.0306 105.713 58.7148 103.447 58.7148Z" fill="#EFE1C8"/>
<g opacity="0.58">
<path d="M65.4547 80.3169C63.1891 80.3169 61.3525 81.6327 61.3525 83.258C61.3525 84.8834 63.1891 86.1992 65.4547 86.1992C67.7203 86.1992 69.5569 84.8834 69.5569 83.258C69.5569 81.6327 67.7203 80.3169 65.4547 80.3169Z" fill="#EFE1C8"/>
</g>
<path d="M70.8273 238.365L100.547 255.521C101.225 255.908 102.031 255.926 102.718 255.539L225.217 188.451C226.461 187.763 226.702 186.181 225.981 185.106C226.539 185.493 226.908 186.138 226.908 186.903V240.927C226.908 242.149 226.273 243.267 225.234 243.843L103.559 310.466C102.589 310.999 101.431 310.999 100.461 310.449L70.9474 293.395C69.9176 292.819 69.2911 291.701 69.2911 290.505V237.126C69.2911 236.206 69.6601 235.346 70.278 234.77C69.3083 235.819 69.4971 237.617 70.8187 238.365H70.8273Z" fill="#FBF0B2"/>
<path d="M50.2477 243.405L205.41 157.957C206.277 157.458 207.324 157.467 208.182 157.974L245.848 180.188C247.779 181.323 247.753 184.221 245.805 185.322L90.6259 270.305C89.7677 270.787 88.7379 270.778 87.8969 270.297L50.2477 248.556C48.3082 247.438 48.3082 244.54 50.2477 243.422V243.405Z" fill="#EFE1C8"/>
<path d="M50.2477 240.429L205.41 154.981C206.277 154.482 207.324 154.49 208.182 154.998L245.848 177.203C247.779 178.338 247.753 181.236 245.805 182.337L90.6259 267.32C89.7677 267.802 88.7379 267.793 87.8969 267.303L50.2477 245.563C48.3082 244.445 48.3082 241.547 50.2477 240.429Z" fill="#FEFCFF"/>
<path d="M157.908 309.984C158.526 310.586 159.307 313.94 158.749 314.55C158.432 314.903 157.985 315.118 157.539 315.29C153.84 316.709 148.142 311.764 147.198 310.947C146.331 310.199 145.456 308.53 145.928 307.49C146.322 306.639 157.093 309.193 157.9 309.975L157.908 309.984Z" fill="#4D515E"/>
<path d="M152.536 307.025C153.917 307.559 157.522 309.562 158.14 310.164C158.801 310.801 159.307 312.959 158.758 313.57C158.44 313.922 157.591 314.249 157.136 314.404C155.342 315.006 150.373 312.693 147.91 310.526C147.052 309.769 145.61 308.006 146.082 306.965C146.468 306.114 149.91 306.002 152.527 307.017L152.536 307.025Z" fill="#FEFCFF"/>
<path d="M153.746 311.609C154.038 311.609 154.27 311.91 154.27 312.289C154.27 312.667 154.038 312.968 153.746 312.968C153.454 312.968 153.223 312.667 153.223 312.289C153.223 311.91 153.454 311.609 153.746 311.609Z" fill="#4D515E"/>
<path d="M157.951 310.397C157.951 310.397 158.921 311.317 158.612 313.717C158.612 313.717 158.2 314.405 157.007 314.499C157.007 314.499 157.093 312.074 156.578 311.326L156.312 310.836L157.35 309.468L157.96 310.397H157.951Z" fill="#4D515E"/>
<path d="M157.565 308.54C157.676 309.159 157.771 309.796 157.942 310.398C157.633 310.226 157.247 310.148 156.93 310.346C156.612 310.544 156.449 310.974 156.561 311.326C155.685 311.472 154.698 311.223 153.883 310.871C151.592 309.89 151.188 308.574 151.403 308.101C152.081 306.614 156.921 308.652 157.565 308.54Z" fill="#F3AFB6"/>
<path d="M159.719 279.583C160.097 280.434 160.843 284.356 160.431 288.905C160.02 293.455 158.792 308.272 158.792 308.272C154.227 310.035 151.832 307.799 151.832 307.799C151.832 307.799 150.219 286.97 150.064 280.538C149.91 274.105 158.698 277.278 159.719 279.583Z" fill="#DCBC1F"/>
<path d="M150.365 247.884C153.746 244.935 157.102 245.425 158.2 246.25C162.714 249.673 162.688 257.852 162.457 260.543C162.242 263.003 160.594 276.616 159.916 280.547C158.904 286.386 150.142 286.807 150.142 282.447C150.142 278.087 144.289 253.199 150.373 247.893L150.365 247.884Z" fill="#424258"/>
<path d="M147.91 314.903C148.528 315.505 149.309 318.859 148.751 319.47C148.434 319.822 147.988 320.037 147.541 320.209C143.843 321.628 138.153 316.683 137.2 315.866C136.333 315.118 135.458 313.45 135.93 312.409C136.325 311.558 147.095 314.112 147.902 314.903H147.91Z" fill="#4D515E"/>
<path d="M142.538 311.936C143.92 312.47 147.515 314.473 148.142 315.075C148.803 315.712 149.309 317.862 148.76 318.481C148.442 318.833 147.601 319.16 147.146 319.315C145.353 319.917 140.384 317.604 137.921 315.437C137.063 314.68 135.612 312.917 136.093 311.876C136.479 311.025 139.92 310.913 142.538 311.936Z" fill="#FEFCFF"/>
<path d="M143.757 316.529C144.049 316.529 144.281 316.83 144.281 317.208C144.281 317.587 144.049 317.888 143.757 317.888C143.465 317.888 143.234 317.587 143.234 317.208C143.234 316.83 143.465 316.529 143.757 316.529Z" fill="#4D515E"/>
<path d="M147.953 315.308C147.953 315.308 148.923 316.228 148.614 318.627C148.614 318.627 148.202 319.315 147.009 319.41C147.009 319.41 147.095 316.985 146.58 316.236L146.314 315.746L147.353 314.379L147.962 315.308H147.953Z" fill="#4D515E"/>
<path d="M147.567 313.45C147.679 314.078 147.773 314.706 147.953 315.308C147.644 315.136 147.258 315.058 146.941 315.256C146.623 315.454 146.46 315.884 146.572 316.236C145.696 316.383 144.709 316.133 143.894 315.781C141.603 314.809 141.199 313.485 141.414 313.012C142.092 311.524 146.932 313.562 147.567 313.45Z" fill="#F3AFB6"/>
<path d="M150.459 284.168C150.837 285.019 151.103 289.663 150.691 294.204C150.279 298.753 148.992 314.353 148.992 314.353C144.426 316.116 142.057 312.685 142.057 312.685C142.057 312.685 140.478 292.269 140.324 285.836C140.169 279.403 149.438 281.863 150.459 284.168Z" fill="#DCBC1F"/>
<path d="M141.345 251.479C144.804 248.624 148.966 250.998 150.056 251.823C154.57 255.246 153.875 259.778 153.643 262.461C153.429 264.93 150.845 281.906 150.168 285.836C149.155 291.675 140.393 292.096 140.393 287.736C140.393 283.376 136.677 255.323 141.345 251.471V251.479Z" fill="#5D5D77"/>
<path d="M162.92 255.779C157.651 261.876 138.685 257.731 138.685 257.731C138.951 256.579 139.165 255.272 139.311 253.878C139.577 251.608 139.697 249.08 139.723 246.483C139.792 242.338 139.655 238.029 139.552 234.365C139.483 232.078 139.406 230.048 139.406 228.483C139.406 226.703 140.058 225.181 141.088 223.899C144.452 219.711 151.884 218 154.579 218C161.745 218 162.054 227.133 161.067 233.832C160.08 240.506 162.92 255.788 162.92 255.788V255.779Z" fill="#FEFCFF"/>
<path d="M142.924 207.319C143.001 206.442 144.022 207.079 144.683 206.494C145.37 205.875 146.34 205.66 147.266 205.574C148.09 205.496 148.966 205.505 149.661 205.952C150.167 206.279 150.519 206.812 150.819 207.345C152.896 211.069 151.918 214.045 152.519 217.975C151.394 218.568 147.893 219.798 146.64 219.97C146.425 220.004 148.047 217.975 147.627 216.212C145.953 216.702 144.898 214.526 143.353 211.955C142.89 211.189 143.164 209.96 143.379 209.383C143.696 208.558 142.855 208.197 142.932 207.319H142.924Z" fill="#F3AFB6"/>
<path d="M146.4 202.675C146.323 200.379 151.103 200.301 150.597 202.95C152.811 202.623 155.849 204.515 154.63 207.5C155.814 209.839 153.532 212.169 152.922 213.571C152.785 213.881 152.322 215.076 152.322 215.076C152.322 215.076 149.309 215.884 148.134 215.093C146.752 214.173 146.271 212.556 145.954 211.008C145.439 208.488 143.954 209.727 143.954 207.525C143.002 207.078 142.564 208.42 142.564 208.42C140.358 204.189 143.997 201.29 146.417 202.675H146.4Z" fill="#4D515E"/>
<path d="M146.794 217.975C149.643 216.521 150.828 216.289 152.158 216.212C152.578 216.186 152.982 216.392 153.214 216.745L154.02 217.966L145.284 220.761C145.258 219.523 146.099 218.327 146.803 217.966L146.794 217.975Z" fill="#C8D1C2"/>
<path d="M144.023 232.267C142.727 232.964 141.208 233.712 139.552 234.366C139.483 232.078 139.406 230.049 139.406 228.484C139.406 226.703 140.058 225.181 141.088 223.9C145.104 222.163 147.773 222.163 149.241 224.407C151.163 227.391 148.443 229.808 144.023 232.259V232.267Z" fill="#C8D1C2"/>
<path d="M138.694 257.74C138.694 257.74 138.47 271.826 138.994 278.302C139.517 284.777 137.93 299.948 137.93 299.948C137.93 299.948 146.881 301.392 152.519 298.279L152.502 288.037L154.278 298.279C154.278 298.279 160.08 297.531 160.56 296.146C160.56 296.146 161.316 287.082 161.47 281.707C161.616 276.341 163.83 261.317 162.929 255.77C162.028 250.223 138.694 257.731 138.694 257.731V257.74Z" fill="#FEFCFF"/>
<path d="M250.328 255.745L222.007 259.4C221.355 259.77 220.591 259.787 219.939 259.417L190.503 255.057C189.318 254.403 189.087 252.89 189.773 251.875C189.241 252.245 188.889 252.855 188.889 253.586V279.678C188.889 280.848 189.499 281.906 190.486 282.456L219.141 299.062C220.068 299.57 221.166 299.57 222.093 299.036L250.208 282.791C251.194 282.241 251.787 281.175 251.787 280.039V254.567C251.787 253.69 251.435 252.873 250.843 252.322C251.769 253.32 251.589 255.04 250.328 255.754V255.745Z" fill="#EFE1C8"/>
<path d="M220.703 281.682L189.018 263.356V268.868L220.703 287.195C221.441 287.607 222.316 287.59 223.054 287.169L251.787 270.588V265.076L223.063 281.656C222.325 282.078 221.449 282.104 220.711 281.682H220.703Z" fill="#DCBC1F"/>
<path d="M220.883 234.477C220.231 234.099 219.441 234.107 218.798 234.486L190.46 251.195C189.01 252.047 189.027 254.222 190.494 255.057L219.948 272.11C220.591 272.471 221.364 272.471 221.999 272.102L250.328 255.745C251.787 254.902 251.787 252.718 250.328 251.883L220.892 234.477H220.883Z" fill="#FEFCFF"/>
<path d="M187.336 243.981C187.113 248.736 182.701 266.65 181.629 270.683C180.556 274.716 185.122 274.734 185.808 272.799C186.495 270.864 195.943 256.347 196.312 247.395C196.536 241.891 187.559 239.234 187.336 243.981Z" fill="#F3AFB6"/>
<path d="M186.469 271.741C186.469 271.741 184.727 271.56 181.724 269.754C181.724 269.754 179.681 274.157 176.514 274.304C173.348 274.441 171.133 272.696 170.876 273.667C170.618 274.63 170.936 275.877 173.622 277.382C176.18 278.819 180.771 276.669 182.839 277.804L180.273 281.012L181.535 281.7C182.359 280.177 184.367 279.937 185.148 278.113C186.032 276.067 185.766 273.04 186.469 271.741Z" fill="#4D515E"/>
<path d="M196.399 257.989L205.341 262.737L204.406 259.288C209.864 257.413 223.526 257.869 228.547 247.867C230.306 244.419 228.933 240.153 227.053 236.542C226.865 236.61 226.693 236.705 226.504 236.808L196.399 252.907C194.382 254.016 194.382 256.906 196.399 257.989Z" fill="#C8D1C2"/>
<path d="M223.629 226.093C223.629 226.093 223.998 229.439 226.324 233.386C228.658 237.333 230.932 242.553 228.881 246.638C223.861 256.631 207.778 255.754 202.311 257.637L204.251 264.741C187.087 267.226 178.925 263.322 178.925 263.322C178.925 263.322 183.886 245.107 184.332 243.723C187.602 233.42 206.027 241.556 207.126 232.062L223.62 226.093H223.629Z" fill="#FEFCFF"/>
<path d="M206.74 234.203C206.62 234.753 206.551 235.261 206.474 235.742C211.717 238.537 220.033 236.37 225.131 231.786C222.797 225.302 223.234 220.753 223.209 216.728C223.209 212.394 222.393 205.497 217.605 204.705C213.228 203.957 208.559 205.737 207.821 208.558C207.075 211.379 206.688 213.159 205.993 214.948C205.152 217.141 206.259 218.637 207.22 219.575C207.752 220.108 208.233 220.469 208.302 220.658C209.169 223.625 207.529 229.791 206.74 234.203Z" fill="#FEFCFF"/>
<path d="M206.74 234.202C208.113 234.176 209.89 233.6 210.181 233.213C213.812 228.372 214.867 220.967 215.545 216.469C216.24 211.748 214.344 208.489 210.971 208.661C209.649 208.712 207.796 210.905 207.555 216.616C207.504 217.656 207.384 218.637 207.221 219.583C207.753 220.116 208.233 220.477 208.302 220.666C209.169 223.633 207.53 229.799 206.74 234.211V234.202Z" fill="#C8D1C2"/>
<path d="M212.318 200.758C212.318 200.758 212.893 201.6 212.79 202.434C212.687 203.269 212.043 205.161 211.288 205.324C211.288 205.324 215.253 204.275 217.587 204.705C217.587 204.705 217.047 201.196 217.493 197.481C217.939 193.766 212.309 200.758 212.309 200.758H212.318Z" fill="#F3AFB6"/>
<path d="M209.375 190.575C209.315 191.082 209.212 192.097 209.332 192.648C209.435 193.146 209.22 193.361 208.791 193.955C208.68 194.109 207.693 196.87 209.795 200.508C211.589 203.604 220.317 197.326 218.197 193.783C216.069 190.24 209.898 186.215 209.375 190.566V190.575Z" fill="#F3AFB6"/>
<path d="M208.662 188.418C209.88 184.496 213.957 188.013 213.957 188.013C216.411 185.184 225.225 180.05 228.126 190.748C229.439 195.573 231.104 195.349 232.442 198.815C233.781 202.281 230.777 202.375 232.923 207.81C234.751 212.437 231.232 215.808 229.653 218.302C228.074 220.796 225.877 221.785 227.525 226.119C227.525 226.119 217.887 224.193 219.844 217.915C221.801 211.637 215.124 213.572 216.506 209.135C217.613 205.574 212.678 206.211 213.236 203.94C213.794 201.661 209.64 199.847 213.322 196.252C215.502 194.119 207.314 192.778 208.662 188.435V188.418Z" fill="#4D515E"/>
<path d="M210.687 206.743C209.366 206.803 207.512 208.996 207.272 214.706C207.074 219.565 205.804 224.183 205.547 225.602C205.289 227.013 208.07 232.276 209.512 230.375C213.159 225.542 214.592 219.075 215.262 214.569C215.965 209.839 214.06 206.597 210.687 206.743Z" fill="#F3A4A3"/>
<path d="M207.658 228.561C208.86 227.77 209.512 226.652 209.915 225.311C210.482 223.41 211.211 222.301 212.387 220.684C214.318 218.027 214.678 215.601 214.927 212.376C214.97 211.835 215.073 211.224 215.176 210.579C215.442 211.714 215.485 213.064 215.253 214.561C214.584 219.059 213.151 225.534 209.504 230.367C208.748 231.365 207.624 230.393 206.766 229.034C207.075 228.905 207.367 228.759 207.658 228.57V228.561Z" fill="#F39392"/>
<path d="M213.494 187.651L220.162 183.506C220.162 183.506 217.665 188.846 223.252 195.03C223.252 195.03 219.742 195.812 216.609 197.223C210.816 190.902 213.494 187.651 213.494 187.651Z" fill="#FEFCFF"/>
<path d="M106.666 200.425L126.929 188.822C127.292 188.61 127.766 188.509 128.179 188.61C128.754 188.741 129.288 188.923 129.288 189.427L129.318 208.258L127.534 209.306C128.119 209.599 145.911 218.248 145.942 218.278L145.982 219.004C145.982 219.317 145.821 219.609 145.548 219.76C142.524 221.514 124.782 231.767 124.782 231.767C124.197 232.099 123.481 232.099 122.897 231.767L106.041 222.018C105.87 221.918 105.759 221.726 105.759 221.524L105.729 202.048C105.729 201.373 106.092 200.748 106.676 200.415L106.666 200.425Z" fill="#E9DB8F"/>
<path d="M106.313 221.463L129.338 208.327L129.389 189.537C129.389 188.992 128.804 188.649 128.33 188.922L107.1 201.079C106.636 201.341 106.354 201.835 106.354 202.37L106.323 221.463H106.313Z" fill="#CEB226"/>
<path d="M127.806 207.32V191.109L107.997 202.481L107.957 218.711L127.806 207.32Z" fill="#FAFFC7"/>
<path d="M106.333 221.463L129.338 208.197L145.608 217.602C146.082 217.874 146.082 218.55 145.608 218.822L124.428 231.06C123.965 231.322 123.4 231.322 122.936 231.06L106.333 221.463Z" fill="#E9DB8F"/>
<path d="M115.265 219.76C114.64 220.122 114.327 220.294 113.702 220.657C113.067 220.304 112.755 220.122 112.12 219.76C112.745 219.397 113.057 219.225 113.682 218.862C114.317 219.215 114.63 219.397 115.265 219.76Z" fill="#FBFCEF"/>
<path d="M117.564 218.44C116.939 218.803 116.626 218.974 116.001 219.337C115.366 218.985 115.053 218.803 114.418 218.44L115.981 217.543C116.616 217.896 116.929 218.077 117.564 218.44Z" fill="#FBFCEF"/>
<path d="M119.872 217.118C119.247 217.481 118.935 217.652 118.31 218.015C117.675 217.662 117.362 217.481 116.727 217.118C117.352 216.755 117.664 216.584 118.289 216.221C118.925 216.574 119.237 216.755 119.872 217.118Z" fill="#FBFCEF"/>
<path d="M122.18 215.798C121.555 216.161 121.243 216.332 120.618 216.695C119.983 216.342 119.67 216.161 119.035 215.798C119.66 215.435 119.973 215.263 120.598 214.9C121.233 215.253 121.545 215.435 122.18 215.798Z" fill="#FBFCEF"/>
<path d="M124.479 214.467C123.854 214.83 123.542 215.001 122.917 215.364C122.281 215.011 121.969 214.83 121.334 214.467C121.959 214.104 122.271 213.933 122.896 213.57C123.532 213.923 123.844 214.104 124.479 214.467Z" fill="#FBFCEF"/>
<path d="M126.787 213.147C126.162 213.51 125.85 213.681 125.225 214.044C124.59 213.691 124.277 213.51 123.642 213.147C124.267 212.784 124.58 212.612 125.205 212.25C125.84 212.602 126.152 212.784 126.787 213.147Z" fill="#FBFCEF"/>
<path d="M129.096 211.825C128.048 212.43 127.524 212.723 126.475 213.327C125.84 212.975 125.528 212.793 124.893 212.43C125.941 211.825 126.465 211.533 127.514 210.928C128.149 211.281 128.461 211.463 129.096 211.825Z" fill="#FBFCEF"/>
<path d="M117.483 221.02L115.92 221.917C115.285 221.565 114.973 221.383 114.338 221.02C114.963 220.657 115.275 220.486 115.9 220.123C116.535 220.476 116.848 220.657 117.483 221.02Z" fill="#FBFCEF"/>
<path d="M119.781 219.69L118.219 220.587C117.584 220.234 117.271 220.053 116.636 219.69C117.261 219.327 117.574 219.155 118.199 218.792C118.834 219.145 119.146 219.327 119.781 219.69Z" fill="#FBFCEF"/>
<path d="M122.089 218.368C121.464 218.731 121.152 218.903 120.527 219.266C119.892 218.913 119.579 218.731 118.944 218.368C119.569 218.005 119.882 217.834 120.507 217.471C121.142 217.824 121.454 218.005 122.089 218.368Z" fill="#FBFCEF"/>
<path d="M124.398 217.049C123.773 217.411 123.461 217.583 122.836 217.946C122.201 217.593 121.888 217.411 121.253 217.049L122.815 216.151C123.451 216.504 123.763 216.686 124.398 217.049Z" fill="#FBFCEF"/>
<path d="M126.697 215.728C126.072 216.091 125.759 216.262 125.134 216.625C124.499 216.272 124.187 216.091 123.552 215.728C124.177 215.365 124.489 215.193 125.114 214.831C125.749 215.183 126.062 215.365 126.697 215.728Z" fill="#FBFCEF"/>
<path d="M129.006 214.397C128.381 214.76 128.068 214.931 127.443 215.294C126.808 214.941 126.496 214.76 125.861 214.397C126.486 214.034 126.798 213.862 127.423 213.5C128.058 213.852 128.371 214.034 129.006 214.397Z" fill="#FBFCEF"/>
<path d="M131.304 213.076C130.679 213.439 130.366 213.611 129.741 213.974C129.106 213.621 128.794 213.439 128.158 213.076C128.783 212.713 129.096 212.542 129.721 212.179C130.356 212.532 130.669 212.713 131.304 213.076Z" fill="#FBFCEF"/>
<path d="M119.691 222.27L118.128 223.167C117.493 222.814 117.181 222.633 116.546 222.27L118.108 221.373C118.743 221.725 119.056 221.907 119.691 222.27Z" fill="#FBFCEF"/>
<path d="M121.999 220.95C121.374 221.313 121.061 221.484 120.436 221.847C119.801 221.494 119.489 221.313 118.854 220.95C119.479 220.587 119.791 220.416 120.416 220.053C121.051 220.406 121.364 220.587 121.999 220.95Z" fill="#FBFCEF"/>
<path d="M124.308 219.619L122.745 220.517C122.11 220.164 121.798 219.982 121.162 219.619C121.788 219.256 122.1 219.085 122.725 218.722C123.36 219.075 123.673 219.256 124.308 219.619Z" fill="#FBFCEF"/>
<path d="M126.606 218.297L125.043 219.194C124.408 218.841 124.096 218.66 123.461 218.297L125.023 217.4C125.658 217.753 125.971 217.934 126.606 218.297Z" fill="#FBFCEF"/>
<path d="M128.915 216.978C128.29 217.341 127.977 217.512 127.352 217.875C126.717 217.522 126.404 217.341 125.769 216.978C126.394 216.615 126.707 216.443 127.332 216.081C127.967 216.433 128.279 216.615 128.915 216.978Z" fill="#FBFCEF"/>
<path d="M132.211 215.083L129.65 216.555C129.015 216.202 128.703 216.02 128.067 215.657C129.086 215.073 129.6 214.78 130.628 214.186C131.263 214.538 131.576 214.72 132.211 215.083Z" fill="#FBFCEF"/>
<path d="M133.522 214.326C132.897 214.689 132.584 214.86 131.959 215.223C131.324 214.87 131.012 214.689 130.377 214.326C131.002 213.963 131.314 213.792 131.939 213.429C132.574 213.782 132.887 213.963 133.522 214.326Z" fill="#FBFCEF"/>
<path d="M131.435 218.4C130.81 218.763 130.497 218.934 129.872 219.297C129.237 218.944 128.925 218.763 128.29 218.4C128.915 218.037 129.227 217.865 129.852 217.502C130.487 217.855 130.8 218.037 131.435 218.4Z" fill="#FBFCEF"/>
<path d="M133.744 217.077C133.119 217.44 132.806 217.612 132.181 217.975C131.546 217.622 131.233 217.44 130.598 217.077C131.223 216.714 131.536 216.543 132.161 216.18C132.796 216.533 133.108 216.714 133.744 217.077Z" fill="#FBFCEF"/>
<path d="M136.042 215.758C135.417 216.121 135.105 216.292 134.48 216.655C133.845 216.302 133.532 216.121 132.897 215.758C133.522 215.395 133.835 215.224 134.46 214.861C135.095 215.214 135.407 215.395 136.042 215.758Z" fill="#FBFCEF"/>
<path d="M118.915 223.792C121.798 222.139 124.671 220.485 127.554 218.832C128.189 219.185 128.502 219.366 129.137 219.729C126.223 221.403 123.31 223.076 120.397 224.75L118.915 223.802V223.792Z" fill="#FBFCEF"/>
<path d="M125.336 223.762L132.776 219.468C132.917 219.387 133.078 219.387 133.219 219.468L137.282 221.978C137.383 222.038 137.383 222.19 137.282 222.25L129.842 226.545C129.701 226.625 129.54 226.625 129.399 226.545L125.326 224.034C125.225 223.974 125.225 223.823 125.326 223.762H125.336Z" fill="#FBFCEF"/>
<path d="M169.886 168.816L190.148 157.213C190.511 157.001 190.985 156.9 191.398 157.001C191.973 157.132 192.507 157.314 192.507 157.818L192.538 176.649L190.753 177.697C191.338 177.99 209.131 186.639 209.161 186.669L209.201 187.395C209.201 187.708 209.04 188 208.768 188.151C205.744 189.905 188.001 200.158 188.001 200.158C187.417 200.49 186.701 200.49 186.116 200.158L169.261 190.409C169.089 190.309 168.979 190.117 168.979 189.915L168.948 170.439C168.948 169.764 169.311 169.139 169.896 168.806L169.886 168.816Z" fill="#E9DB8F"/>
<path d="M169.532 189.854L192.557 176.718L192.608 157.928C192.608 157.383 192.023 157.041 191.549 157.313L170.319 169.47C169.855 169.732 169.573 170.226 169.573 170.761L169.543 189.854H169.532Z" fill="#CEB226"/>
<path d="M191.025 175.711V159.5L171.216 170.872L171.176 187.102L191.025 175.711Z" fill="#FAFFC7"/>
<path d="M169.553 189.854L192.557 176.588L208.828 185.993C209.302 186.266 209.302 186.941 208.828 187.213L187.648 199.451C187.184 199.714 186.62 199.714 186.156 199.451L169.553 189.854Z" fill="#E9DB8F"/>
<path d="M178.484 188.151C177.859 188.514 177.547 188.685 176.922 189.048C176.287 188.695 175.974 188.514 175.339 188.151C175.964 187.788 176.277 187.616 176.902 187.253C177.537 187.606 177.849 187.788 178.484 188.151Z" fill="#FBFCEF"/>
<path d="M180.783 186.83C180.158 187.193 179.846 187.365 179.221 187.728C178.585 187.375 178.273 187.193 177.638 186.83L179.2 185.933C179.835 186.286 180.148 186.467 180.783 186.83Z" fill="#FBFCEF"/>
<path d="M183.092 185.508C182.467 185.871 182.154 186.042 181.529 186.405C180.894 186.052 180.582 185.871 179.946 185.508C180.571 185.145 180.884 184.974 181.509 184.611C182.144 184.964 182.457 185.145 183.092 185.508Z" fill="#FBFCEF"/>
<path d="M185.4 184.189C184.775 184.552 184.462 184.723 183.837 185.086C183.202 184.733 182.89 184.552 182.255 184.189C182.88 183.826 183.192 183.654 183.817 183.292C184.452 183.644 184.765 183.826 185.4 184.189Z" fill="#FBFCEF"/>
<path d="M187.699 182.858C187.074 183.221 186.761 183.392 186.136 183.755C185.501 183.403 185.188 183.221 184.553 182.858C185.178 182.495 185.491 182.324 186.116 181.961C186.751 182.314 187.064 182.495 187.699 182.858Z" fill="#FBFCEF"/>
<path d="M190.007 181.537C189.382 181.9 189.069 182.071 188.444 182.434C187.809 182.081 187.497 181.9 186.862 181.537C187.487 181.174 187.799 181.003 188.424 180.64C189.059 180.992 189.372 181.174 190.007 181.537Z" fill="#FBFCEF"/>
<path d="M192.315 180.217C191.267 180.821 190.743 181.114 189.694 181.719C189.059 181.366 188.747 181.184 188.112 180.821C189.16 180.217 189.684 179.924 190.733 179.319C191.368 179.672 191.68 179.854 192.315 180.217Z" fill="#FBFCEF"/>
<path d="M180.703 189.411L179.14 190.309C178.505 189.956 178.192 189.774 177.557 189.411C178.182 189.048 178.495 188.877 179.12 188.514C179.755 188.867 180.067 189.048 180.703 189.411Z" fill="#FBFCEF"/>
<path d="M183.001 188.08L181.438 188.978C180.803 188.625 180.491 188.443 179.855 188.08C180.48 187.717 180.793 187.546 181.418 187.183C182.053 187.536 182.366 187.717 183.001 188.08Z" fill="#FBFCEF"/>
<path d="M185.309 186.76C184.684 187.122 184.371 187.294 183.746 187.657C183.111 187.304 182.799 187.122 182.164 186.76C182.789 186.397 183.101 186.225 183.726 185.862C184.361 186.215 184.674 186.397 185.309 186.76Z" fill="#FBFCEF"/>
<path d="M187.618 185.44C186.993 185.803 186.68 185.974 186.055 186.337C185.42 185.984 185.108 185.803 184.472 185.44L186.035 184.542C186.67 184.895 186.983 185.077 187.618 185.44Z" fill="#FBFCEF"/>
<path d="M189.916 184.118C189.291 184.481 188.979 184.653 188.354 185.016C187.719 184.663 187.406 184.481 186.771 184.118C187.396 183.755 187.709 183.584 188.334 183.221C188.969 183.574 189.281 183.755 189.916 184.118Z" fill="#FBFCEF"/>
<path d="M192.225 182.788C191.6 183.151 191.287 183.322 190.662 183.685C190.027 183.332 189.715 183.151 189.08 182.788C189.705 182.425 190.017 182.254 190.642 181.891C191.277 182.243 191.59 182.425 192.225 182.788Z" fill="#FBFCEF"/>
<path d="M194.523 181.467C193.898 181.829 193.586 182.001 192.961 182.364C192.326 182.011 192.013 181.829 191.378 181.467C192.003 181.104 192.315 180.932 192.94 180.569C193.576 180.922 193.888 181.104 194.523 181.467Z" fill="#FBFCEF"/>
<path d="M182.91 190.66L181.348 191.558C180.713 191.205 180.4 191.023 179.765 190.66L181.328 189.763C181.963 190.116 182.275 190.297 182.91 190.66Z" fill="#FBFCEF"/>
<path d="M185.219 189.34C184.593 189.703 184.281 189.874 183.656 190.237C183.021 189.884 182.708 189.703 182.073 189.34C182.698 188.977 183.011 188.806 183.636 188.443C184.271 188.796 184.583 188.977 185.219 189.34Z" fill="#FBFCEF"/>
<path d="M187.527 188.01L185.965 188.908C185.329 188.555 185.017 188.373 184.382 188.01C185.007 187.648 185.319 187.476 185.944 187.113C186.579 187.466 186.892 187.648 187.527 188.01Z" fill="#FBFCEF"/>
<path d="M189.825 186.688L188.263 187.585C187.628 187.233 187.315 187.051 186.68 186.688L188.243 185.791C188.878 186.144 189.19 186.325 189.825 186.688Z" fill="#FBFCEF"/>
<path d="M192.134 185.368C191.509 185.731 191.197 185.902 190.571 186.265C189.936 185.912 189.624 185.731 188.989 185.368C189.614 185.005 189.926 184.834 190.551 184.471C191.186 184.824 191.499 185.005 192.134 185.368Z" fill="#FBFCEF"/>
<path d="M195.43 183.473L192.869 184.945C192.234 184.592 191.922 184.411 191.287 184.048C192.305 183.463 192.819 183.171 193.847 182.576C194.482 182.929 194.795 183.11 195.43 183.473Z" fill="#FBFCEF"/>
<path d="M196.741 182.717C196.116 183.08 195.803 183.251 195.178 183.614C194.543 183.261 194.231 183.08 193.596 182.717C194.221 182.354 194.533 182.183 195.158 181.82C195.793 182.173 196.106 182.354 196.741 182.717Z" fill="#FBFCEF"/>
<path d="M194.654 186.79C194.029 187.153 193.716 187.325 193.091 187.687C192.456 187.335 192.144 187.153 191.509 186.79C192.134 186.427 192.446 186.256 193.071 185.893C193.706 186.246 194.019 186.427 194.654 186.79Z" fill="#FBFCEF"/>
<path d="M196.963 185.468C196.338 185.831 196.025 186.003 195.4 186.366C194.765 186.013 194.453 185.831 193.818 185.468C194.443 185.106 194.755 184.934 195.38 184.571C196.015 184.924 196.328 185.106 196.963 185.468Z" fill="#FBFCEF"/>
<path d="M199.262 184.148C198.637 184.511 198.324 184.682 197.699 185.045C197.064 184.693 196.752 184.511 196.116 184.148C196.741 183.785 197.054 183.614 197.679 183.251C198.314 183.604 198.627 183.785 199.262 184.148Z" fill="#FBFCEF"/>
<path d="M182.134 192.182C185.017 190.529 187.89 188.875 190.773 187.222C191.408 187.575 191.721 187.756 192.356 188.119C189.443 189.793 186.529 191.466 183.616 193.14L182.134 192.192V192.182Z" fill="#FBFCEF"/>
<path d="M188.555 192.152L195.995 187.857C196.136 187.777 196.297 187.777 196.439 187.857L200.501 190.368C200.602 190.428 200.602 190.579 200.501 190.64L193.061 194.934C192.92 195.015 192.759 195.015 192.618 194.934L188.545 192.424C188.444 192.364 188.444 192.212 188.545 192.152H188.555Z" fill="#FBFCEF"/>
<path d="M128.721 202.572C129.39 203.896 130.309 204.954 129.674 205.195C128.961 205.47 127.065 204.403 126.859 204.601C125.897 205.564 129.33 206.897 130.806 206.897C132.703 206.897 136.848 219.109 136.848 219.109L141.508 217.191C141.508 217.191 135.535 207.628 134.934 204.971C134.703 203.948 134.042 202.469 132.351 201.325C131.939 201.041 129.777 202.365 129.296 200.439C128.884 198.788 128.189 197.601 127.931 197.687C127.425 197.842 128.043 201.239 128.712 202.563L128.721 202.572Z" fill="#F3AFB6"/>
<path d="M160.226 222.928C160.097 226.514 156.484 226.909 151.455 226.359C147.224 225.894 141.397 224.785 136.642 220.477C134.772 218.782 139.904 214.749 141.363 215.153C142.83 215.557 146.1 216.744 151.197 217.406C157.188 218.189 160.329 219.746 160.217 222.928H160.226Z" fill="#FEFCFF"/>
<path d="M132.153 209.555L136.324 219.97L141.37 215.145L136.762 207.517C136.762 207.517 133.355 208.274 132.153 209.547V209.555Z" fill="#FEFCFF"/>
<path d="M121.246 208.626C122.053 209.873 122.01 210.458 122.542 210.028C123.134 209.546 124.001 208.196 124.284 208.205C124.859 208.205 124.319 209.778 123.538 210.888C123.177 211.404 123.366 212.797 123.52 213.184C124.722 216.142 131.45 223.977 131.45 223.977L127.46 227.055C127.46 227.055 121.117 215.781 119.126 213.924C118.363 213.21 116.26 211.808 116.492 211.369C116.724 210.922 117.384 208.781 117.805 208.437C118.217 208.084 120.851 209.254 119.126 208.067C117.728 207.104 116.818 205.375 117.341 205.642C118.148 206.063 120.44 207.379 121.246 208.617V208.626Z" fill="#F3AFB6"/>
<path d="M143.37 229.627C148.322 228.638 151.66 227.176 150.708 223.71C149.867 220.64 146.391 220.107 140.444 221.165C135.552 222.033 132.154 221.921 130.566 221.973L124.971 214.087C124.971 214.087 121.684 215.007 120.01 216.942C120.01 216.942 126.266 227.666 127.039 228.148H127.056C127.168 228.277 127.296 228.388 127.476 228.474C133.295 231.149 139.191 230.452 143.362 229.627H143.37Z" fill="#FEFCFF"/>
<path d="M214.627 213.108C210.739 208.472 207.444 204.009 206.646 201.541C206.646 201.541 204.62 200.457 203.324 202.642C203.324 202.642 208.182 215.739 210.962 217.27C213.743 218.801 216.395 215.206 214.627 213.099V213.108Z" fill="#F3AFB6"/>
<path d="M203.47 202.994C203.47 202.994 201.282 199.46 201.016 198.428C200.75 197.396 199.299 196.45 199.891 196.364C200.483 196.286 201.599 197.198 202.191 197.731C202.792 198.264 203.058 196.983 202.655 195.495C202.26 193.999 199.874 191.668 200.458 191.272C200.835 191.014 202.148 192.743 203.058 193.792C204.191 195.108 204.465 193.947 205.015 194.076C205.564 194.205 207.289 196.054 207.443 196.553C207.632 197.146 206.139 199.356 206.757 201.996C206.868 202.469 203.47 203.003 203.47 203.003V202.994Z" fill="#F3AFB6"/>
<path d="M193.798 228.836C193.798 228.836 191.155 226.935 190.116 226.703C189.069 226.471 188.529 225.095 188.468 225.697C188.417 226.299 189.095 227.082 189.644 227.666C190.193 228.243 187.808 227.838 186.28 228.062C184.752 228.277 183.045 229.919 182.289 230.496C181.8 230.874 183.422 230.908 184.821 229.825C186.194 228.758 184.443 230.693 184.589 231.244C184.735 231.786 186.469 233.359 186.786 233.772C187.104 234.185 189.275 232.568 190.348 232.388C191.421 232.207 192.811 231.854 193.3 231.863C193.789 231.863 193.789 228.845 193.789 228.845L193.798 228.836Z" fill="#F3AFB6"/>
<path d="M205.89 225.491C203.067 225.912 195.566 228.638 192.992 228.397C192.992 228.397 191.232 229.859 192.717 231.932C192.717 231.932 206.646 232.672 209.152 230.728C211.657 228.784 207.178 225.302 205.89 225.499V225.491Z" fill="#F3AFB6"/>
<path d="M204.946 225.147C205.203 223.736 207.074 219.565 207.272 214.706C207.512 208.996 209.366 206.803 210.687 206.743C214.06 206.597 215.965 209.839 215.262 214.569C214.592 219.067 213.537 226.48 209.898 231.313C209.512 231.82 206.353 232.74 205.238 232.078C203.358 230.969 202.595 226.91 203.333 225.938C203.642 225.525 204.877 225.559 204.955 225.155L204.946 225.147Z" fill="#FEFCFF"/>
<defs>
<linearGradient id="paint0_linear_0_1826" x1="152.15" y1="107.819" x2="18.0135" y2="107.819" gradientUnits="userSpaceOnUse">
<stop stop-color="#FFFEF1"/>
<stop offset="1" stop-color="#CAD5C9"/>
</linearGradient>
</defs>
</svg>
