<svg width="491" height="515" viewBox="0 0 491 515" fill="none" xmlns="http://www.w3.org/2000/svg">
<path d="M443.3 256.61H410.75C414.315 257.695 415.09 258.47 415.09 259.71C415.09 261.105 413.23 261.725 409.355 261.88C408.89 262.655 408.425 263.43 407.805 264.205H463.295L486.545 263.585V275.52L463.295 274.9H449.655C459.73 282.03 472.595 286.68 490.42 290.4C487.32 293.655 484.375 297.84 482.205 302.025C472.13 299.235 463.76 296.29 456.32 292.57L456.01 300.32C455.545 311.79 454.77 317.06 451.205 321.71C447.485 326.67 440.51 328.22 429.66 328.22H423.15C422.065 324.035 420.205 319.23 418.035 315.355C423.305 315.975 426.25 316.13 430.28 316.13C435.085 316.13 438.185 315.51 440.045 313.65C442.06 311.48 442.525 307.45 442.68 299.235H419.12C415.4 318.61 396.955 326.98 367.815 329.305C366.11 324.965 363.63 320.78 360.53 317.525C388.74 315.665 401.605 310.395 405.48 299.235H401.295L381.145 299.855V291.02C372.465 296.445 362.545 300.785 350.61 304.195C348.285 299.855 345.805 296.755 342.55 294.12C359.755 289.935 373.085 283.735 383.005 274.9H367.66L344.41 275.52V263.585L367.66 264.205H392.615C393.39 263.275 394.01 262.345 394.63 261.26C395.715 259.71 396.49 258.16 397.265 256.61H387.19L367.66 257.23L366.885 256.455L367.505 244.365V230.88L366.885 217.55L367.66 216.775L387.19 217.395H443.3L462.985 216.775L463.605 217.705L462.985 230.88V244.365L463.605 256.455L462.83 257.23L443.3 256.61ZM385.02 288.385L401.295 288.85H406.72C406.72 283.115 406.41 280.015 405.635 277.225C421.91 277.845 424.545 278.62 424.545 280.79C424.545 282.34 423.615 283.115 419.895 284.045V288.85H436.325L449.035 288.385C443.145 284.665 437.565 280.015 432.605 274.9H399.9C395.56 280.015 390.445 284.51 385.02 288.385ZM449.5 247.465V241.265H380.835V247.465H449.5ZM380.835 232.74H449.5V226.695H380.835V232.74ZM387.035 196.935V194.765C387.035 190.115 386.725 187.945 385.64 183.915C402.69 185 404.86 185.465 404.86 188.1C404.86 189.65 403.31 190.58 400.055 191.51V196.935H430.435V194.765C430.435 190.115 430.125 187.945 429.04 183.915C446.09 185 448.26 185.465 448.26 188.1C448.26 189.65 446.71 190.58 443.455 191.51V196.935H462.055L486.855 196.315V208.405L462.055 207.785H443.61L443.765 214.14H430.125L430.28 207.785H400.21L400.365 214.14H386.725L386.88 207.785H368.9L344.1 208.405V196.315L368.9 196.935H387.035ZM426.25 398.985V406.89H446.865L471.82 406.27V417.275L446.865 416.655H426.25V424.56H446.865L471.82 424.095V435.1L446.865 434.48H426.25V442.85H455.855L480.81 442.23V454.01L455.855 453.39H422.065V462.38H460.97L485.925 461.76V473.695L460.97 473.075H428.73C446.555 485.63 466.55 491.21 490.885 495.24C487.94 498.96 484.995 503.3 482.67 508.26C456.63 502.06 438.805 494.93 421.6 480.36L422.53 514.305H407.805L408.735 481.135C394.165 492.915 375.565 501.595 349.835 508.88C347.51 504.85 344.72 500.975 341 497.72C366.885 491.985 385.33 485.01 400.83 473.075H369.985L345.03 473.695V461.76L369.985 462.38H408.27V453.39H390.135L366.265 454.01L365.335 453.235L366.11 430.76V410.455C361.77 414.33 357.275 418.205 352.315 421.925C349.68 418.515 346.27 415.26 342.395 413.09C357.43 403.325 368.28 392.165 375.565 378.835C377.27 375.58 378.045 373.72 379.44 369.535C396.335 374.185 397.265 374.805 397.265 377.13C397.265 378.99 396.18 379.455 391.22 379.61C389.36 382.865 387.345 385.965 385.175 388.91H413.23C415.555 384.725 417.57 380.695 419.12 376.51C419.895 374.495 420.67 371.395 420.825 369.07C437.41 374.34 438.65 375.115 438.65 377.44C438.65 379.145 437.255 379.765 433.07 380.075C431.21 383.485 429.505 386.275 427.955 388.91H454.305L479.26 388.29V399.605L454.305 398.985H426.25ZM412.61 398.985H379.595V406.89H412.61V398.985ZM412.61 442.85V434.48H379.595V442.85H412.61ZM412.61 424.56V416.655H379.595V424.56H412.61Z" fill="black"/>
<path d="M73.935 52.08V18.135C73.935 9.455 73.935 8.37 72.54 1.55C89.9 2.48 92.225 2.945 92.225 5.89C92.225 7.44 90.985 8.215 87.575 8.99C87.575 63.395 87.42 80.91 86.18 96.565C84.165 120.59 72.23 135.935 48.825 143.065C46.81 139.19 44.02 135.78 39.68 132.37C62.155 125.705 70.215 116.405 72.85 94.86C73.005 93.775 73.16 92.38 73.16 90.675C68.355 93.31 63.86 95.79 57.97 98.89C57.195 102.765 55.955 103.85 54.56 103.85C52.235 103.85 51.46 102.145 45.105 87.73C49.135 87.11 51.46 86.49 55.645 85.095C61.535 82.925 67.115 80.6 73.625 77.035C73.78 69.13 73.935 61.225 73.935 53.165L61.845 59.985C58.59 49.445 55.645 42.78 51.15 34.565L62.465 28.83C66.65 35.495 70.99 44.485 73.935 52.08ZM23.87 32.55V13.95C23.87 8.525 23.715 6.975 22.785 1.66893e-06C39.06 0.464996 42.315 1.24 42.315 3.72C42.315 5.27 40.765 6.2 37.355 6.975V32.395L50.685 32.085V44.795L37.355 44.485V67.115C42.47 65.72 47.74 64.17 53.785 62.155C53.785 66.65 53.785 70.68 54.25 74.245C48.205 76.26 42.78 77.965 37.355 79.67V101.215L37.975 123.845C37.975 137.485 34.565 141.05 19.53 141.05H10.23C9.14499 136.71 7.90499 131.905 4.18499 126.48C11.005 127.1 16.275 127.255 20.615 127.255C23.405 127.255 23.87 126.635 23.87 124V83.7C19.84 84.785 15.655 86.025 11.005 87.265C10.385 90.675 9.45499 91.605 8.21499 91.605C5.57999 91.605 4.80499 89.28 -5.8841e-06 75.175C4.02999 75.02 6.19999 74.71 11.625 73.47C15.965 72.54 19.995 71.61 23.87 70.68V44.33H21.855L1.54999 44.795V32.085L21.855 32.55H23.87ZM110.67 80.29L117.955 73.625C128.03 81.065 135.16 87.265 142.91 94.705L132.215 105.245C125.395 97.34 119.195 90.985 110.67 84.32V125.085C110.67 127.1 111.135 127.565 118.42 127.565C130.2 127.565 130.665 126.48 130.975 108.5C135.78 111.755 140.585 113.77 144.925 114.855C143.84 137.33 140.275 140.585 118.885 140.585C100.75 140.585 97.185 138.26 97.185 126.015V12.865C97.185 9.455 97.185 8.37 95.79 1.55C113.305 2.48 115.63 2.945 115.63 5.89C115.63 7.44 114.235 8.215 110.67 9.145V80.29ZM137.02 42.625C131.595 50.375 127.565 55.025 121.52 61.69C118.265 58.28 114.235 55.645 110.98 53.63C115.94 48.205 119.97 42.625 123.845 36.27C125.395 33.79 126.325 31.775 128.03 27.745C141.515 36.735 142.445 37.2 142.445 39.835C142.445 41.23 140.895 41.85 137.02 42.625ZM219.325 91.45V103.075H229.4L252.805 102.455V115.165L229.4 114.545H219.325V118.885L219.945 143.84H205.84L206.46 118.885V114.545H195.92L172.67 115.165V102.455L195.92 103.075H206.46V91.45H199.175L180.265 92.07L179.335 91.295L179.955 71.765V55.645L179.335 36.115L180.11 35.34L199.175 35.96H227.695L246.76 35.34L247.535 36.115L246.915 55.645V71.765L247.535 91.295L246.76 92.07L227.695 91.45H219.325ZM234.36 58.125V46.345H219.325V58.125H234.36ZM234.36 68.2H219.325V81.065H234.36V68.2ZM192.355 68.2V81.065H206.46V68.2H192.355ZM192.355 58.125H206.46V46.345H192.355V58.125ZM279.31 40.61L295.895 39.68L315.58 37.665L316.355 51.15L295.275 51.925L279.62 53.01C280.24 66.495 281.015 80.135 284.27 93.31C288.455 87.11 291.71 80.135 294.19 72.695C296.05 66.96 296.515 65.255 297.29 60.14C313.255 66.495 314.65 67.425 314.65 69.905C314.65 71.145 313.565 72.23 309.225 72.85C303.955 87.575 297.6 99.2 289.54 108.81C290.625 111.445 292.02 113.925 293.415 116.405C297.6 123.69 301.63 128.805 303.49 128.805C305.195 128.805 305.97 124.155 306.125 107.88C311.24 111.29 315.115 112.995 319.145 114.545C317.75 138.105 313.255 143.22 304.11 143.22C296.67 143.22 288.61 136.09 281.635 123.69C280.705 122.14 279.93 120.59 279.155 119.04C269.545 127.1 258.075 133.455 244.28 138.88C241.335 134.695 238.08 130.975 233.43 127.255C250.79 122.295 263.965 115.01 273.885 105.71C268.615 88.97 267.065 71.3 266.445 53.785L250.945 55.025L250.325 41.385L265.98 41.075C265.825 35.03 265.825 28.365 265.825 21.39C265.825 12.4 265.825 7.285 264.43 0.464996C281.945 1.705 284.115 2.17 284.115 5.115C284.115 6.665 282.72 7.44 279.155 8.37V20.925C279.155 28.055 279.155 34.565 279.31 40.61ZM235.29 0.620003C250.635 6.045 252.495 6.665 252.495 9.3C252.495 10.695 251.565 11.47 247.07 11.78C243.66 18.29 240.095 24.955 235.29 32.24C232.19 29.76 229.245 28.52 224.44 27.125C227.85 21.235 229.71 17.205 232.81 9.61C234.05 6.51 234.515 4.495 235.29 0.620003ZM173.445 7.285L185.225 2.48C190.805 10.075 194.215 16.74 198.09 24.955L185.845 30.845C181.97 22.01 179.18 15.345 173.445 7.285ZM285.665 17.825L294.81 9.455C301.63 13.33 307.055 16.895 312.945 22.32L303.49 31.62C298.22 26.195 292.02 21.545 285.665 17.825ZM197.625 4.65L209.56 0.620003C214.83 8.37 218.395 15.345 221.805 25.11L208.94 29.76C206.15 19.84 203.05 13.175 197.625 4.65ZM396.8 31.62H383.935L358.98 32.24V19.685L383.935 20.15H396.8V11.47C396.8 8.06 396.8 6.975 395.405 0.155C413.385 1.395 415.71 1.86 415.71 4.805C415.71 6.355 414.315 7.13 410.75 8.06V20.15H416.64L441.44 19.685V29.45C444.695 25.575 447.795 21.545 450.74 17.515C453.065 14.26 454.77 11.315 456.32 7.13C469.65 13.95 472.13 15.655 472.13 17.98C472.13 19.84 470.735 20.46 466.085 19.995C458.335 30.07 450.12 39.525 441.44 48.205H462.21L487.165 47.585V60.295L462.21 59.675H429.35C423.615 64.79 417.415 69.595 411.37 74.245L422.375 73.935H443.455L464.38 73.315L465.155 74.09L464.535 95.17V119.66L465.155 144.615H450.43V137.33H395.095V145.235H380.525L381.145 120.28V93.62C372.93 98.27 363.94 103.075 353.245 108.19C350.145 104.005 347.51 101.835 341.93 98.735C355.26 93.155 368.125 87.11 380.68 79.825L380.525 74.09L381.3 73.315L390.91 73.625C397.575 69.13 404.085 64.635 410.285 59.675H368.28L343.325 60.295V47.585L368.28 48.205H396.8V31.62ZM410.75 31.62V48.205H423.615C429.04 43.245 434.155 37.82 439.115 32.24L416.64 31.62H410.75ZM395.095 110.825V125.86H450.43V110.825H395.095ZM395.095 99.51H450.43V85.25H395.095V99.51Z" fill="black"/>
</svg>
