<svg width="93" height="93" viewBox="0 0 93 93" fill="none" xmlns="http://www.w3.org/2000/svg">
<circle cx="46.5" cy="46.5" r="46.5" fill="#FFF1A3"/>
<mask id="mask0_0_1" style="mask-type:alpha" maskUnits="userSpaceOnUse" x="0" y="0" width="93" height="93">
<circle cx="46.5" cy="46.5" r="46.5" fill="#D9D9D9"/>
</mask>
<g mask="url(#mask0_0_1)">
<path d="M96.4849 133.865C96.4849 133.865 96.5449 133.825 96.565 133.825C96.7251 134.205 96.8652 134.566 97.0054 134.946C96.665 134.065 96.3047 133.185 95.9243 132.264C90.9797 119.932 79.8892 98.2715 78.648 95.1285L69.7596 61.0762C69.0789 57.7131 65.7958 55.551 62.4126 56.2316C59.0494 56.9323 56.8874 60.1954 57.568 63.5786L66.5565 98.1513C66.6166 98.4917 66.7167 98.812 66.8368 99.1122C67.2372 100.173 69.7796 106.559 72.7624 113.966C74.9044 119.351 82.2914 131.723 84.2133 136.508C84.6136 137.529 84.994 138.47 85.3543 139.37C85.8548 139.711 86.5154 139.931 87.3362 140.011C90.259 140.251 93.9625 138.51 95.6441 136.107C96.1846 135.327 96.4448 134.566 96.4448 133.885L96.4849 133.865Z" fill="white"/>
<path d="M66.3561 66.2408V119.591C66.3561 120.812 65.7155 121.934 64.6745 122.574L52.9835 129.741C47.4382 133.164 41.0121 134.565 34.6461 133.925C32.424 133.685 30.2019 133.204 28.0399 132.443L21.5537 128.099L25.0771 69.624C25.1772 67.1417 26.1581 64.8195 27.8197 63.0578C28.4402 62.3571 29.1809 61.7766 30.0217 61.2561L34.2257 58.5936L35.3868 57.8529C38.5698 55.6308 44.7357 53.3286 50.2809 52.668C51.382 52.5278 52.4229 52.4478 53.4439 52.4478C55.666 52.4478 57.6479 52.8081 59.0893 53.6489C63.5535 56.2514 66.3361 61.0359 66.3361 66.2208L66.3561 66.2408Z" fill="#C2C18F"/>
<g opacity="0.59">
<path d="M25.0972 69.6434C25.1173 69.0429 25.1973 68.4423 25.3174 67.8618C27.6797 65.8398 29.9618 63.938 32.0638 66.3403C33.5252 68.0219 34.4861 71.9056 35.407 73.9075C35.367 74.0076 35.3469 74.0877 35.3069 74.1877C34.306 77.0505 32.9246 81.815 33.7054 84.7377C34.2859 86.8197 35.8875 88.5213 36.3079 90.6433C37.1887 95.1276 32.4442 106.378 32.8846 110.943C33.1449 113.545 35.0266 115.647 36.2278 117.969C38.7702 123.014 37.7292 129.18 34.6263 133.964C32.4042 133.724 30.1821 133.244 28.02 132.483L21.5339 128.139L25.0572 69.6635L25.0972 69.6434Z" fill="#83BBEF"/>
</g>
<path d="M23.3163 69.6037C23.3163 69.4035 23.3563 69.2234 23.3563 69.0432H23.2362L23.3163 65.8001C23.4164 63.1176 24.4774 60.5752 26.2991 58.6734C28.7414 56.0909 33.3858 55.0099 36.6088 53.6086C47.339 48.9041 69.0195 51.947 69.0195 66.2606V192.866C69.0195 194.388 68.2188 195.809 66.9175 196.61L63.134 198.932C62.3732 199.392 61.4123 199.432 60.6316 198.992C59.5706 198.391 58.95 197.31 58.97 196.089C59.0901 186.62 59.2102 115.467 59.3504 105.998C59.5506 91.3643 61.7526 77.251 59.5506 62.6972C59.3304 61.2158 59.0701 59.6943 58.3694 58.3731C56.0072 53.7888 48.5201 53.6286 44.0959 54.6095C42.4544 54.9699 41.2933 55.6906 40.4725 56.6314L43.8757 55.6505C42.3142 56.151 40.8729 56.8917 39.6517 57.8726C38.1103 60.9355 38.8109 65.4198 39.5516 69.0832C44.0959 91.4844 44.3161 167.215 40.2323 189.716C40.0921 190.517 39.7919 191.418 39.3514 192.159C39.2313 193.14 38.9511 194.08 38.4906 194.961C37.5497 196.723 36.4087 197.924 34.8672 198.505C33.7662 198.505 32.6851 198.505 31.5841 198.445C29.9025 198.164 28.1809 197.804 26.8596 197.324L21.3744 193.8C20.3735 193.16 19.7929 192.039 19.853 190.857C20.4335 179.727 23.2962 69.6638 23.2962 69.6438L23.3163 69.6037Z" fill="white"/>
<path d="M38.229 61.1158C37.8086 60.0548 37.4682 58.9538 37.268 57.8528C35.2061 46.8623 55.4453 46.2818 55.4453 58.6935V60.6354C55.4453 61.4161 54.8447 61.9967 54.2041 61.8565L48.9391 60.7355L44.5549 65.9404C43.9143 66.9814 42.6331 67.0615 41.9124 66.1006C40.8114 64.6192 39.5302 62.8775 38.229 61.1158Z" fill="#E1E1E1"/>
<path d="M44.4753 39.6352C44.4753 39.6352 44.4352 39.6553 44.4152 39.6753C44.3952 39.5952 44.3952 39.4951 44.3952 39.395C44.3952 39.4751 44.4152 39.5552 44.4753 39.6152V39.6352Z" fill="#714E51"/>
<path d="M6.56004 140.431C6.56004 140.431 6.62009 140.431 6.66013 140.431C6.54002 140.812 6.39988 141.192 6.27977 141.572C6.58005 140.671 6.88034 139.771 7.20064 138.83C11.4046 126.218 16.9499 102.535 18.0509 99.3523L33.3054 67.6222C34.9669 64.6194 33.8459 60.8358 30.843 59.1742C27.8202 57.5327 24.0566 58.6337 22.395 61.6366L6.90036 93.827C6.74021 94.1273 6.60007 94.4276 6.47996 94.7479C6.0996 95.8089 3.91754 102.335 1.37513 109.902C-0.466614 115.387 -2.82886 129.621 -4.47041 134.486C-4.81073 135.527 -5.13103 136.487 -5.45134 137.408C-5.29118 137.989 -4.93084 138.589 -4.35029 139.17C-2.28834 141.252 1.67541 142.313 4.49808 141.572C5.41895 141.332 6.11962 140.912 6.54001 140.391L6.56004 140.431Z" fill="white"/>
<path d="M40.1618 45.7854C40.1618 45.7854 40.0321 45.5828 39.9579 45.4907C39.9579 45.5644 39.9579 45.6381 39.9579 45.6933L40.1804 45.767L40.1618 45.7854Z" fill="#4168C3"/>
<path d="M40.5716 36.4326C40.5716 36.4326 40.5316 36.4526 40.5115 36.4726C40.5115 36.3926 40.5115 36.2925 40.5115 36.1924C40.5115 36.2725 40.5115 36.3525 40.5916 36.4126L40.5716 36.4326Z" fill="#714E51"/>
<path d="M40.5719 46.3218C40.5719 46.3218 40.4318 46.1216 40.3517 46.0215C40.3517 46.1016 40.3517 46.1616 40.3517 46.2417L40.5719 46.3218Z" fill="#714E51"/>
<path d="M33.136 53.7776C34.3332 53.7776 35.5303 53.6593 36.6968 53.5113C42.1913 52.8604 47.6245 51.4697 52.7507 49.428C54.7766 48.5995 56.8946 47.5934 58.0611 45.8181C59.2275 44.0427 59.2889 41.8235 59.2582 39.7226C59.074 32.0589 58.7057 21.7914 53.4874 15.5184C50.0188 11.3463 38.7227 6.93748 34.8243 12.9146C34.6094 13.24 34.456 13.5655 34.149 13.8318C33.7807 14.1573 33.2281 14.3053 32.737 14.394C31.8161 14.5716 30.8952 14.6603 30.0357 15.045C28.5316 15.7256 27.4266 18.3886 26.8127 19.7793C25.7076 22.324 25.4621 25.1054 25.1858 27.8572C24.9403 30.6978 25.7383 34.071 25.1858 36.7637C24.5412 40.0481 21.5637 42.5336 21.6251 46.0548C21.6865 49.1321 24.2342 51.7951 27.2117 52.9195C29.0842 53.6297 31.0794 53.8368 33.1053 53.8072L33.136 53.7776Z" fill="#383838"/>
<path d="M41.3687 52.0423V39.3543C41.3687 37.7832 41.9161 36.3712 42.7991 35.2973C43.3112 34.6808 43.9293 34.1836 44.6533 33.8455C45.2185 33.6069 45.8189 33.4676 46.437 33.4478C46.7372 33.4478 47.0197 33.4676 47.3023 33.4875C48.4678 33.6466 49.5097 34.2631 50.322 35.1779C51.2756 36.2519 51.8584 37.7235 51.8584 39.3543V52.0423V52.6588H51.8054C51.4346 54.7271 49.2978 56.2783 46.6135 56.2783C43.9293 56.2783 41.7925 54.7271 41.4217 52.6588H41.3687V52.0423Z" fill="#FFBCA8"/>
<g style="mix-blend-mode:multiply">
<path d="M51.241 54.4228C46.8791 54.1625 43.4355 51.0195 43.4355 47.1959V34.9243C44.3891 34.584 45.4311 34.4238 46.5436 34.4238H46.8262C47.0381 34.4238 47.2323 34.4438 47.4442 34.4639H47.6208C48.1153 34.564 48.6098 34.7441 49.0336 35.0244C49.2455 35.1245 49.4221 35.2646 49.5987 35.4248L49.8459 35.625C50.0578 35.8252 50.2344 36.0454 50.411 36.2656C51.294 37.4067 51.8414 38.9681 51.8414 40.7098V51.6802L51.2233 54.4228H51.241Z" fill="#FFBCA8"/>
</g>
<path d="M61.629 28.4549C61.629 33.6927 57.7696 37.9196 53.0526 37.9196C48.3356 37.9196 44.4762 33.6927 44.4762 28.4549C44.4762 23.2172 48.3356 18.9902 53.0526 18.9902C57.7696 18.9902 61.629 23.2172 61.629 28.4549Z" fill="#383838"/>
<path d="M37.6756 37.3673C39.0846 30.1999 43.6484 22.6955 51.3978 21.409C52.1023 21.2865 52.1942 20.6433 51.9798 20.1532C52.1023 19.8163 52.0717 19.3875 51.8573 19.1424C51.9186 19.1424 52.0104 19.1424 52.0717 19.1424C53.5419 18.9586 55.1653 18.8974 56.4824 19.6938C57.3707 20.1838 58.0445 21.164 58.259 22.2361C58.3508 22.6036 58.3509 23.0018 58.2896 23.4C58.3815 26.3405 58.4734 29.281 58.5653 32.2215C58.5959 33.5385 58.6265 34.8863 58.5959 36.2646C58.4734 39.5114 57.9527 42.6969 56.0842 45.0861C54.032 47.7509 50.724 48.7923 47.5997 48.8842C45.8844 48.9148 44.0773 47.6896 42.5458 46.7401C39.6665 44.9635 38.2882 42.1456 37.5837 38.5619C37.5224 38.3168 37.4918 38.0718 37.4612 37.8267C37.5531 37.7349 37.6449 37.5817 37.6756 37.4286V37.3673Z" fill="#FFBCA8"/>
<circle cx="54.75" cy="35.75" r="0.75" fill="black"/>
<circle cx="49.75" cy="35.75" r="0.75" fill="black"/>
<path d="M42.6686 18.4383C43.0055 16.8456 44.1389 15.3753 45.7316 14.3952C46.6505 13.8438 47.6307 13.6294 48.6721 13.6294C50.1423 13.2925 51.6432 13.9051 52.9909 14.7321C53.9405 15.1303 54.89 15.6204 55.8395 16.1411C58.0143 17.3357 60.2196 18.6527 61.6899 20.6131C63.3745 22.8491 63.9871 25.8814 63.3133 28.6075C62.8844 30.3534 61.843 32.2831 60.3728 33.3552C60.1277 34.2434 59.5458 32.4363 59.3314 33.2939C58.9638 30.6291 57.4323 31.0273 55.2269 29.4958C53.0216 27.9336 50.4487 26.9535 48.0595 25.7589C46.4667 24.9625 44.9046 24.0436 43.8019 22.6653C43.4956 22.2671 43.2506 21.8689 43.0668 21.4707C42.4542 20.705 42.2704 19.7248 42.7299 18.3771L42.6686 18.4383Z" fill="#383838"/>
<path d="M33.511 32.3439C34.7362 31.9151 35.9614 33.2935 36.4821 34.8556C36.7578 35.652 36.9109 36.5096 37.3091 37.1835C37.5236 37.551 37.8605 37.8573 38.1974 37.9798C38.5343 39.205 37.8299 40.7059 36.8803 41.0428C35.8389 41.3798 34.7668 40.7059 33.9092 39.8483C32.9903 38.8987 32.1939 37.6429 31.9795 36.0808C31.7651 34.5187 32.4083 32.7421 33.5416 32.3746L33.511 32.3439Z" fill="#FFBCA8"/>
<path d="M37.3682 36.7849C42.8509 33.2319 46.2509 26.677 45.914 20.1528C42.5753 21.2861 39.7267 23.7978 38.1952 26.9527C36.6637 30.1076 36.4186 33.9057 37.5826 37.2444L37.3682 36.7849Z" fill="#383838"/>
</g>
</svg>
