<svg width="93" height="93" viewBox="0 0 93 93" fill="none" xmlns="http://www.w3.org/2000/svg">
<circle cx="46.5" cy="46.5" r="46.5" fill="#FFF1A3"/>
<mask id="mask0_0_1" style="mask-type:alpha" maskUnits="userSpaceOnUse" x="0" y="0" width="93" height="93">
<circle cx="46.5" cy="46.5" r="46.5" fill="#D9D9D9"/>
</mask>
<g mask="url(#mask0_0_1)">
<path d="M34.1141 31.352L34.983 34.1196C34.983 34.1196 36.5381 39.6344 34.1141 43.1162C34.1141 43.1162 41.8263 53.4952 48.0064 54.1401C54.1865 54.785 53.1689 51.1094 52.6572 49.756C52.1484 48.4026 51.2022 41.4216 53.0517 38.3649C54.9011 35.311 38.7649 31.6412 34.1141 31.3491V31.352Z" fill="#D9A782"/>
<path d="M54.5782 49.3662C54.5782 49.3662 59.6806 66.1623 55.4443 69.7049C51.2108 73.2474 40.9173 53.117 40.9173 53.117L54.5782 49.3633V49.3662Z" fill="#C6CD41"/>
<path d="M103.834 28.1017C103.834 28.1017 100.558 51.3612 99.8918 53.3855C99.2258 55.4098 95.5869 56.8211 92.6769 56.636C89.767 56.4509 67.5706 53.7904 65.2123 52.8332C62.8512 51.8759 60.7245 51.607 60.7245 51.607L56.2052 36.8786C56.2052 36.8786 59.9355 35.8288 64.9093 36.8786C69.8803 37.9283 75.4601 42.2228 79.6421 43.1424C83.8241 44.062 90.6159 44.7735 90.6159 44.7735L96.6588 23.5151L103.837 28.1046L103.834 28.1017Z" fill="#FFFEE6"/>
<path d="M60.7275 51.6065L60.2272 49.9755C62.0967 48.6568 64.2034 47.5202 65.6384 47.8008C68.7885 48.4167 73.0333 50.7505 78.6132 51.7916C84.1901 52.8326 90.436 54.0588 90.133 51.485C89.83 48.9083 86.92 44.9204 89.101 46.2709C91.2821 47.6215 92.1939 47.928 93.103 43.5728C93.7718 40.3657 97.3364 30.2354 99.1687 25.1196L103.834 28.1012C103.834 28.1012 100.558 51.3607 99.8919 53.385C99.2259 55.4093 95.587 56.8206 92.677 56.6355C89.7671 56.4504 67.5707 53.7899 65.2125 52.8326C62.8513 51.8754 60.7246 51.6065 60.7246 51.6065H60.7275Z" fill="#FFFEE6"/>
<path d="M53.0373 56.929L53.6719 52.6461L49.1583 49.3667L47.3574 53.5079L46.7514 55.6045L50.7819 57.626C51.3622 61.3623 55.3899 90.073 54.9468 102.815L57.8367 105.796L59.8206 101.635C59.8206 101.635 58.457 70.5527 53.0402 56.9319L53.0373 56.929Z" fill="#F6F5C9"/>
<path d="M35.6319 40.9853C35.6319 40.9853 40.0511 47.787 49.1583 49.366L47.3089 57.3187C47.3089 57.3187 35.1287 49.1838 32.0559 44.9935L35.629 40.9824L35.6319 40.9853Z" fill="#EFE233"/>
<path d="M50.9936 43.0648L51.0308 39.7998C54.0379 43.5014 54.5782 54.6179 54.5782 54.6179L49.1584 49.3691C51.5739 47.5472 50.9936 43.0648 50.9936 43.0648Z" fill="#EFE233"/>
<path d="M53.2834 106.668L55.8361 120.255C55.8361 120.255 55.5073 133.766 61.2272 131.264C66.9442 128.765 68.1391 128.407 68.1391 128.407C68.1391 128.407 66.7899 104.072 66.4697 97.6429C66.1124 90.5404 65.1005 78.2759 64.7603 71.6881C64.5374 67.3445 64.8175 61.8065 64.8175 60.242C64.8175 58.6775 62.4678 46.8612 60.3039 43.1278C58.14 39.3944 56.2077 36.8784 56.2077 36.8784H51.0338C51.0338 36.8784 53.9209 45.8809 54.9013 49.3656C55.8818 52.8503 55.4416 65.4243 54.6441 68.0791C53.8465 70.7338 49.3387 84.6207 49.1472 85.228C48.9585 85.8353 53.2863 106.668 53.2863 106.668H53.2834Z" fill="#FFFEE6"/>
<path d="M49.144 85.2304C49.3327 84.6231 53.8434 70.7334 54.6409 68.0815C54.7181 67.8212 54.7924 67.4626 54.8639 67.0317L55.1812 68.7669C55.2555 70.4731 57.3822 109.895 57.0821 115.433C56.9735 117.466 56.802 120.601 55.973 123.797C55.7958 121.827 55.8358 120.26 55.8358 120.26L53.2831 106.674C53.2831 106.674 48.9553 85.8435 49.144 85.2333V85.2304Z" fill="#EBE8C7"/>
<path d="M41.8322 54.2188C41.8866 54.5918 54.6441 68.0796 54.6441 68.0796C54.6441 68.0796 56.5078 109.824 56.2077 115.382C55.9076 120.938 55.1586 134.104 45.8427 136.612C34.1171 139.767 25.533 132.43 25.533 132.43C25.533 132.43 27.2481 109.194 29.3091 103.202C31.3672 97.2126 32.2276 90.0059 30.2524 86.4489C28.2772 82.889 23.8179 72.0386 23.2148 67.9582C22.6145 63.8777 24.0723 51.9862 24.0723 51.9862L33.0309 43.6836L41.8294 54.2188H41.8322Z" fill="#FFFEE6"/>
<path d="M24.8955 73.8518L27.2738 67.4434C27.2738 67.4434 30.2838 68.6608 33.1195 71.0091C35.9551 73.3573 39.0509 74.4013 38.7078 75.0953C38.3648 75.7923 37.3844 81.8797 38.7336 84.8352C40.0828 87.7936 33.1452 111.559 33.0051 121.765C32.9451 126.149 32.9508 132.881 32.9794 136.302C28.3572 134.839 25.5301 132.427 25.5301 132.427C25.5301 132.427 27.2452 109.191 29.3062 103.199C31.3643 97.2096 32.2247 90.003 30.2495 86.446C28.9403 84.0862 26.5392 78.5222 24.8927 73.8518H24.8955Z" fill="#FFFEE6"/>
<path d="M30.5464 66.9532C31.3611 64.4054 32.8389 58.3874 30.5464 55.6806C28.2539 52.9766 25.6841 51.1837 24.0719 51.9847C22.4597 52.7829 18.069 57.2913 15.4563 66.3748C12.8465 75.4553 10.1738 86.5978 9.02753 94.3278C7.88127 102.055 4.50823 120.8 4.50823 120.8L14.0013 122.449C14.0013 122.449 18.1662 105.34 19.1438 102.121C20.1214 98.9028 21.8594 90.846 22.2424 89.5273C22.6255 88.2086 29.5516 70.0793 30.5464 66.9561V66.9532Z" fill="#FFFEE6"/>
<path d="M41.2718 51.4855L32.379 44.7734C32.379 44.7734 36.5467 54.0969 38.3447 59.632L42.7011 55.6614C44.4905 58.9264 54.5782 68.4985 54.5782 68.4985C54.5782 68.4985 46.8745 59.5799 41.2718 51.4826V51.4855Z" fill="#EBE8C7"/>
<path d="M42.9984 53.9317L38.6735 58.5356C38.6735 58.5356 33.3166 47.3497 32.056 43.946L35.2175 38.9141C35.2175 38.9141 37.4243 46.9304 42.9984 53.9317Z" fill="white"/>
<path d="M51.8684 42.4492C56.9623 54.4188 54.5783 68.5023 54.5783 68.5023C54.5783 68.5023 57.0852 59.2367 55.8789 51.4864L59.0233 51.819L51.8684 42.4521V42.4492Z" fill="#EBE8C7"/>
<path d="M59.0233 50.7776L54.2867 49.9852C54.2867 49.9852 52.8117 44.4415 51.0309 40.9857L51.4396 37.498L59.0233 50.7776Z" fill="white"/>
<path d="M55.1584 26.3821C55.3757 26.9113 56.1875 27.9177 57.1165 28.8575C58.0484 29.7974 58.9517 30.7893 58.7802 31.68C58.6087 32.5707 57.1651 33.019 57.1651 33.019C57.1651 33.019 57.3109 34.5777 57.3109 34.9999C57.3109 35.4221 56.9908 36.8073 57.2852 37.5245C57.5796 38.2417 57.4824 40.9138 54.8126 41.2869C52.1456 41.657 46.0284 41.4604 42.824 39.6038C39.6167 37.7472 35.3347 37.0532 35.3347 37.0532C35.3347 37.0532 31.5186 31.9547 30.5867 28.9587C29.6548 25.9627 29.8778 20.419 33.9397 16.6798C38.0017 12.9405 44.5105 13.0157 49.3328 14.8232C54.1522 16.6306 55.4243 22.5474 55.5243 23.6377C55.6215 24.7279 54.9612 25.9078 55.1584 26.385V26.3821Z" fill="#FFCDA8"/>
<ellipse cx="0.781108" cy="0.781687" rx="0.781108" ry="0.781687" transform="matrix(-1 0 0 1 52.4311 26.7598)" fill="black"/>
<path d="M35.3375 37.0513C35.3375 37.0513 34.1083 35.4087 32.8735 33.4364L36.7181 32.1958C36.7181 32.1958 39.591 36.311 40.2112 37.5198C40.4771 38.0374 40.9973 38.5348 42.0035 39.1566C39.0707 40.2179 35.3375 37.0484 35.3375 37.0484V37.0513Z" fill="#D9A782"/>
<path d="M53.6432 15.6634C54.9066 17.6126 54.7694 19.154 52.9571 19.822C51.1448 20.49 46.2511 21.5802 45.788 23.833C45.3249 26.0858 44.8332 27.0257 44.6389 27.1761C44.4445 27.3235 43.6127 31.1958 43.6127 31.1958C43.6127 31.1958 43.0753 31.832 42.5121 31.6064C41.949 31.3838 38.7675 30.5654 37.8413 31.2334C36.9123 31.9043 36.7151 36.1351 35.343 37.0519C35.343 37.0519 31.1553 32.7198 30.1434 29.0066C29.1286 25.2934 29.1286 21.1089 32.2615 17.0487C35.3944 12.9884 39.848 11.9734 43.444 11.8519C47.04 11.7276 52.2368 13.4858 53.6489 15.6634H53.6432Z" fill="#563317"/>
<path d="M40.4773 32.5231C40.0857 31.7568 38.665 30.9124 37.6617 31.2854C36.6583 31.6556 35.7036 33.7117 36.7812 35.3225C37.8589 36.9304 41.6521 38.2433 41.8236 37.0808C41.9952 35.9182 40.4773 32.526 40.4773 32.526V32.5231Z" fill="#FFCDA8"/>
</g>
</svg>
