<svg width="93" height="93" viewBox="0 0 93 93" fill="none" xmlns="http://www.w3.org/2000/svg">
<circle cx="46.5" cy="46.5" r="46.5" fill="#FFF1A3"/>
<mask id="mask0_0_1" style="mask-type:alpha" maskUnits="userSpaceOnUse" x="0" y="0" width="93" height="93">
<circle cx="46.5" cy="46.5" r="46.5" fill="#D9D9D9"/>
</mask>
<g mask="url(#mask0_0_1)">
<path d="M9.71574 100.152C6.08297 99.4566 0.904331 97.4663 -7.61724 93.8722C-9.45295 93.0993 -11.7331 92.1331 -12.3901 91.9205C-15.9842 90.9737 -18.1871 87.3023 -17.2982 83.6695C-16.39 79.9981 -12.6606 77.7373 -9.00851 78.6455C-7.77182 78.9546 -6.16799 79.6116 -2.30333 81.2348C1.00095 82.6261 8.18921 85.6598 11.4742 86.51C13.8703 84.3265 16.8074 77.544 18.8363 72.8678C21.0585 67.7471 23.358 62.4525 26.3144 58.0662C28.44 54.9165 32.6911 54.1049 35.8408 56.2111C38.9712 58.3367 39.8021 62.5878 37.6959 65.7375C35.435 69.0804 33.4061 73.7953 31.4351 78.3363C27.3386 87.8047 23.4546 96.7514 15.6866 99.8624C14.0248 100.519 12.2471 100.674 9.73507 100.191L9.71574 100.152Z" fill="#BAA217"/>
<path d="M29.4448 60.8294V112.326C29.4448 113.505 30.0632 114.587 31.068 115.205L42.3528 122.123C47.7053 125.427 53.9081 126.78 60.0529 126.161C62.1978 125.929 64.3427 125.466 66.4296 124.731L72.6903 120.538L69.2894 64.095C69.1928 61.6989 68.246 59.4574 66.6421 57.757C66.0431 57.0806 65.3282 56.5203 64.5166 56.0179L60.4587 53.4479L59.3379 52.7329C56.2655 50.588 50.314 48.3659 44.9614 47.7282C43.8986 47.5929 42.8938 47.5156 41.9083 47.5156C39.7635 47.5156 37.8505 47.8634 36.4592 48.675C32.1501 51.187 29.4642 55.8053 29.4642 60.81L29.4448 60.8294Z" fill="#F6F5C9"/>
<g opacity="0.59">
<path d="M69.2703 64.1142C69.251 63.5345 69.1737 62.9548 69.0577 62.3944C66.7776 60.4427 64.5747 58.607 62.5458 60.9258C61.1352 62.549 60.2077 66.2977 59.3188 68.23C59.3575 68.3266 59.3768 68.4039 59.4154 68.5006C60.3816 71.2638 61.7149 75.8627 60.9613 78.6839C60.4009 80.6935 58.855 82.336 58.4493 84.3843C57.599 88.7127 62.1786 99.5724 61.7535 103.978C61.5023 106.49 59.6859 108.519 58.5266 110.761C56.0725 115.63 57.0773 121.582 60.0724 126.2C62.2173 125.968 64.3622 125.504 66.4491 124.77L72.7098 120.577L69.3089 64.1335L69.2703 64.1142Z" fill="#83BBEF"/>
</g>
<path d="M70.9705 64.0747C70.9705 63.8815 70.9318 63.7075 70.9318 63.5336H71.0478L70.9705 60.4033C70.8739 57.8139 69.8497 55.3599 68.1106 53.5242C65.7532 51.0315 61.2702 49.988 58.1591 48.6354C47.8019 44.0944 26.8748 47.0315 26.8748 60.8477V123.494C26.8748 124.962 27.6477 126.334 28.9037 127.107L32.5558 129.349C33.2901 129.793 34.2176 129.832 34.9712 129.407C35.9953 128.827 36.5944 127.784 36.575 126.605L36.2079 99.2044C36.0147 85.0791 33.8891 71.4562 36.0147 57.4082C36.2272 55.9782 36.4784 54.5097 37.1547 53.2343C39.4349 48.8093 46.6618 48.6547 50.9322 49.6015C52.5167 49.9494 53.6375 50.645 54.4297 51.5532L51.1448 50.6064C52.652 51.0894 54.0433 51.8044 55.222 52.7512C56.7099 55.7077 56.0336 60.0361 55.3186 63.5723C50.9322 85.195 50.7197 107.668 54.6616 129.387C54.7969 130.16 55.0867 131.03 55.5119 131.745C55.6278 132.692 55.8983 133.6 56.3428 134.45C57.2509 136.151 58.3524 137.31 59.8403 137.87C60.9031 137.87 61.9465 137.87 63.0093 137.812C64.6324 137.542 66.2942 137.175 67.5696 136.73L72.8642 133.329C73.8303 132.711 74.3907 131.629 74.3327 130.489C73.7724 119.745 71.0091 64.1327 71.0091 64.1133L70.9705 64.0747Z" fill="#BAA217"/>
<path d="M45.676 60.5584L44.4586 59.7661L38.0819 88.1134C37.908 88.9829 38.0047 89.8911 38.3331 90.664L42.2751 99.7653C42.5843 100.5 43.5118 100.577 44.0142 99.9392L49.0962 93.35L45.6567 60.539L45.676 60.5584Z" fill="#DBD964"/>
<path d="M43.1064 55.7471L43.5315 59.9016C43.9566 61.0996 45.4831 61.1576 46.4686 59.9982L49.657 56.462L43.087 55.7471H43.1064Z" fill="#DBD964"/>
<path d="M56.5943 55.8815C57.0001 54.8574 57.3286 53.7946 57.5218 52.7318C59.5121 42.1233 39.9763 41.563 39.9763 53.5434V55.4178C39.9763 56.1714 40.556 56.7317 41.1743 56.5965L46.2563 55.5144L50.4881 60.5384C51.1065 61.5432 52.3432 61.6205 53.0388 60.693C54.1016 59.2631 55.3383 57.582 56.5943 55.8815Z" fill="#C9C264"/>
<path d="M50.5655 35.1484C50.5655 35.1484 50.6041 35.1677 50.6235 35.187C50.6428 35.1097 50.6428 35.0131 50.6428 34.9165C50.6428 34.9938 50.6235 35.0711 50.5655 35.1291V35.1484Z" fill="#714E51"/>
<path d="M52.1302 37.1186L54.4877 49.1763L54.6036 49.7753H54.5457C54.5457 49.9879 54.5457 50.1811 54.4877 50.3743C53.4829 51.6883 51.7824 52.7125 49.6955 53.1182C47.2801 53.582 43.8792 53.8912 43.5894 51.9202H43.5314L43.4154 51.3405L41.058 39.2635C40.7488 37.6983 41.0966 36.1717 41.9082 34.9737C42.5845 33.9496 43.5894 33.1573 44.7874 32.7708C45.0772 32.6935 45.3864 32.5969 45.6956 32.539C46.3719 32.4423 47.0096 32.4423 47.6666 32.5583C48.4975 32.7322 49.2511 33.08 49.8887 33.5631C51.0288 34.394 51.8597 35.65 52.1689 37.1379L52.1302 37.1186Z" fill="#FFBCA8"/>
<g style="mix-blend-mode:multiply">
<path d="M43.8021 50.7428C48.3624 49.622 51.4155 45.9506 50.7199 42.3371L48.6136 31.5741L48.459 30.7432C47.3769 30.6079 46.2562 30.6659 45.0775 30.8784H45.0195L44.7876 30.9364C44.5751 30.9751 44.3625 31.033 44.1499 31.1103C44.092 31.1103 44.0147 31.1296 43.9567 31.149C43.4543 31.3422 42.9712 31.6127 42.5654 31.9605C42.3722 32.0958 42.1983 32.2504 42.0244 32.4436C41.9471 32.5209 41.8698 32.6175 41.8118 32.6948C41.6379 32.9267 41.4833 33.1586 41.3287 33.4291C40.6138 34.6851 40.3239 36.289 40.6331 37.9314L42.662 48.308L43.8214 50.7621L43.8021 50.7428Z" fill="#FFBCA8"/>
</g>
<path d="M26.9332 25.7951C27.9574 26.6646 33.9283 29.3699 33.9283 29.3699L35.2809 22.1043C35.2809 22.1043 32.9234 20.2107 32.0539 19.9401C31.1844 19.6696 28.3825 21.9111 28.3825 21.9111L26.9332 25.7758V25.7951Z" fill="#004AAB"/>
<path d="M50.198 43.5532C51.4346 41.7368 51.9757 38.819 52.2849 36.906C52.6134 34.9157 55.2993 35.7466 55.2993 33.7176C55.2993 32.2684 53.9467 30.7225 53.3283 29.4858C52.594 27.9786 51.7052 26.7613 50.3139 25.7951C48.6328 24.6164 46.6618 23.9594 44.6908 23.4183C42.488 22.8193 40.2271 22.3749 37.9663 22.1044L37.348 19.9595H30.295V40.1523C30.295 40.3455 30.353 40.6354 30.4302 40.9832C31.6669 46.0072 37.1741 48.6739 41.9662 46.7802L50.1786 43.5532H50.198Z" fill="#FFBCA8"/>
<path d="M27.9762 18.7814C29.9858 17.3708 32.6911 16.4046 34.9132 15.3225C37.4639 14.0665 40.2271 13.1776 43.087 13.023C46.913 12.8105 50.9129 14.0665 53.4829 16.8877C57.1543 20.9456 57.8307 26.8005 57.3476 31.9985C57.1543 34.0274 56.8838 36.2496 55.7824 38.008C55.2027 38.9356 52.1883 41.7568 50.8743 40.636C49.7535 39.6892 51.1255 37.9307 50.6038 36.5008C50.5265 36.3076 50.4685 36.1144 50.3139 35.9791C50.0627 35.7472 49.6569 35.7859 49.3091 35.8631C49.0386 35.9211 48.7487 35.9598 48.4975 35.8631C47.9178 35.6313 47.8405 34.8583 47.8792 34.24C48.0144 32.2304 48.285 29.8923 45.9662 29.2739C44.3623 28.8488 42.5459 29.4478 40.9808 28.7715C37.8311 27.3996 35.0678 25.0421 31.7056 24.3272C31.2418 24.2305 30.4496 23.9407 30.3336 24.4044C29.9665 25.873 30.1984 26.3754 29.8312 27.3802C28.4399 27.187 26.9134 26.1242 26.353 24.8875C25.7154 23.4963 25.696 21.7765 26.4497 20.4432C26.8361 19.7475 27.3772 19.2258 28.0148 18.7814H27.9762Z" fill="#3C3C3C"/>
<path d="M51.4889 31.3533L43.1088 36.5391L43.4444 37.0813L51.8245 31.8955L51.4889 31.3533Z" fill="#714F52"/>
<path d="M48.652 35.9983C48.8646 36.1142 49.0965 36.1142 49.3284 36.0562C49.3477 35.9983 49.3284 35.9403 49.367 35.8823L48.652 35.9983Z" fill="#FFBCA8"/>
<path d="M53.3287 32.5207C52.2852 32.2502 51.2417 33.1198 50.778 34.0859C50.5461 34.5883 50.4109 35.1294 50.063 35.5545C49.8698 35.7864 49.5993 35.9796 49.3094 36.0569C49.0003 36.8298 49.6186 37.7767 50.4495 37.9699C51.3384 38.1825 52.2659 37.7574 53.0002 37.2163C53.7924 36.6173 54.4881 35.825 54.6426 34.8589C54.7972 33.8927 54.2755 32.772 53.3093 32.5207H53.3287Z" fill="#FFBCA8"/>
<path d="M34.7197 32.733C34.9129 32.076 35.338 31.8248 35.8404 32.1146C36.3235 32.4045 36.768 33.1194 36.9612 34.0083L37.2704 33.9503C37.0192 32.8102 36.4781 31.8634 35.8404 31.5156C35.2028 31.1484 34.6617 31.4576 34.4105 32.3078L34.7197 32.733Z" fill="#714F52"/>
<path d="M34.7197 32.733C34.9129 32.076 35.338 31.8248 35.8404 32.1146C36.3235 32.4045 36.768 33.1194 36.9612 34.0083L37.2704 33.9503C37.0192 32.8102 36.4781 31.8634 35.8404 31.5156C35.2028 31.1484 34.6617 31.4576 34.4105 32.3078L34.7197 32.733Z" fill="#714F52"/>
<path d="M41.6382 40.9639C41.1357 40.9639 40.5947 40.8093 40.0343 40.4808C38.16 39.3987 36.6334 36.7707 36.6334 34.6065C36.6334 33.4858 37.0199 32.6549 37.7348 32.2298C38.4498 31.824 39.3773 31.9013 40.3435 32.4616C42.2179 33.5437 43.7444 36.1717 43.7444 38.3359C43.7444 39.4567 43.3579 40.2876 42.643 40.7127C42.3338 40.8866 42.0053 40.9639 41.6382 40.9639ZM38.7397 32.5969C38.4885 32.5969 38.2566 32.6549 38.0633 32.7708C37.5609 33.0607 37.2711 33.7177 37.2711 34.5872C37.2711 36.5389 38.643 38.9349 40.3435 39.9011C41.0971 40.3455 41.8121 40.4228 42.3145 40.133C42.8169 39.8431 43.1067 39.1861 43.1067 38.3166C43.1067 36.3649 41.7348 33.9689 40.0343 33.0027C39.5706 32.7322 39.1455 32.5969 38.759 32.5969H38.7397Z" fill="#714F52"/>
<path d="M33.0202 35.9995C32.5178 35.9995 31.9767 35.8449 31.4163 35.5164C29.542 34.4343 28.0154 31.8064 28.0154 29.6422C28.0154 28.5214 28.4019 27.6905 29.1169 27.2654C29.8318 26.8596 30.7593 26.9369 31.7255 27.4973C33.5999 28.5794 35.1264 31.2074 35.1264 33.3716C35.1264 34.4923 34.7399 35.3232 34.025 35.7483C33.7158 35.9222 33.3873 35.9995 33.0202 35.9995ZM30.141 27.6326C29.8898 27.6326 29.6579 27.6905 29.4647 27.8065C28.9623 28.0963 28.6724 28.7533 28.6724 29.6229C28.6724 31.5745 30.0444 33.9706 31.7448 34.9368C32.4984 35.3812 33.2134 35.4585 33.7158 35.1686C34.2182 34.8788 34.5081 34.2218 34.5081 33.3522C34.5081 31.4006 33.1361 29.0045 31.4357 28.0383C30.9719 27.7678 30.5468 27.6326 30.1603 27.6326H30.141Z" fill="#714F52"/>
<path d="M76.4003 136.904C76.0138 136.904 75.608 136.866 75.2215 136.788C71.9752 136.131 69.869 132.982 70.526 129.716L75.3954 105.485C76.6708 99.1274 75.8399 92.4029 73.0767 86.5479L61.7725 62.6837C60.3619 59.6886 61.6373 56.1138 64.6324 54.6839C67.6275 53.2733 71.2023 54.5486 72.6322 57.5437L83.9363 81.4079C87.8203 89.5817 88.9604 98.9728 87.1827 107.842L82.3132 132.074C81.7335 134.933 79.2408 136.904 76.4389 136.904H76.4003Z" fill="#BAA217"/>
<circle cx="0.570037" cy="0.570037" r="0.570037" transform="matrix(-1 0 0 1 32.6716 31.8047)" fill="black"/>
<circle cx="0.570037" cy="0.570037" r="0.570037" transform="matrix(-1 0 0 1 40.4009 35.6694)" fill="black"/>
</g>
</svg>
