<svg width="93" height="93" viewBox="0 0 93 93" fill="none" xmlns="http://www.w3.org/2000/svg">
<circle cx="46.5" cy="46.5" r="46.5" fill="#FFF1A3"/>
<mask id="mask0_0_1" style="mask-type:alpha" maskUnits="userSpaceOnUse" x="0" y="0" width="93" height="93">
<circle cx="46.5" cy="46.5" r="46.5" fill="#D9D9D9"/>
</mask>
<g mask="url(#mask0_0_1)">
<path d="M46.9528 88.2534L47.7118 88.5141C47.4509 91.0022 47.19 93.4667 47.024 95.9786C46.7156 101.05 47.19 106.073 47.6407 111.097C47.9253 114.367 48.1862 117.827 48.6607 121.263L48.5183 121.216L50.7717 147.566C50.7717 147.566 71.7878 182.401 71.8115 182.424C73.7565 185.671 65.9052 187.33 64.2922 186.785C63.2485 186.429 62.3709 185.671 61.6118 184.865C59.7854 182.969 58.3147 180.789 56.8678 178.609C52.4796 172.069 33.4798 147.78 33.4798 147.78C32.2701 143.728 32.9817 138.514 32.9817 134.296V95.6468L46.9528 88.2534Z" fill="#7A5D00"/>
<path d="M-0.131096 111.308C-0.131096 111.308 -0.178536 111.285 -0.202256 111.261C-0.368297 111.569 -0.534338 111.877 -0.700378 112.185C-0.320857 111.474 0.0586649 110.74 0.461907 109.981C5.82265 99.8391 17.3032 82.2561 18.6552 79.6732L29.3767 51.237C30.2781 48.4171 33.2905 46.8531 36.1132 47.7299C38.9359 48.6304 40.5014 51.6399 39.6238 54.4598L28.76 83.3225C28.6651 83.6068 28.5702 83.8675 28.4279 84.1281C28.0009 85.0049 25.2257 90.2656 21.9998 96.3557C19.6752 100.787 12.2034 110.74 10.116 114.673C9.66531 115.503 9.26206 116.285 8.88254 117.019C8.43186 117.256 7.83886 117.398 7.10354 117.375C4.56548 117.327 1.52931 115.479 0.319586 113.275C-0.0836556 112.541 -0.225976 111.877 -0.178536 111.285L-0.131096 111.308Z" fill="#A5A532"/>
<path d="M31.8674 55.8103V101.853C31.8674 102.896 32.4129 103.891 33.3143 104.436L43.4191 110.621C48.2105 113.559 53.761 114.792 59.2641 114.223C61.1854 114.01 63.1067 113.607 64.9569 112.943L70.5549 109.199L67.5187 58.725C67.4475 56.5686 66.5936 54.5781 65.1467 53.0615C64.6011 52.4691 63.9607 51.9478 63.2491 51.5212L59.6199 49.2226L58.5999 48.5828C55.8484 46.6634 50.5351 44.6728 45.7436 44.1041C44.7948 43.9856 43.8935 43.9146 43.0158 43.9146C41.0945 43.9146 39.3866 44.2226 38.1532 44.9572C34.2868 47.2084 31.8911 51.3316 31.8911 55.8103H31.8674Z" fill="#FFFEF2"/>
<g opacity="0.59">
<path d="M67.5189 58.7254C67.5189 58.204 67.424 57.6827 67.3292 57.1851C65.2892 55.4552 63.2967 53.7964 61.494 55.8581C60.2369 57.3036 59.4067 60.6685 58.6002 62.3984C58.6239 62.4695 58.6476 62.5643 58.6713 62.6353C59.549 65.0998 60.735 69.223 60.0471 71.7349C59.549 73.5359 58.1732 75.0051 57.7937 76.8297C57.0346 80.716 61.1382 90.408 60.735 94.3416C60.4978 96.5928 58.8848 98.4175 57.8411 100.408C55.6589 104.768 56.5365 110.076 59.2169 114.2C61.1382 113.986 63.0595 113.583 64.9097 112.92L70.5077 109.176L67.4715 58.7017L67.5189 58.7254Z" fill="#83BBEF"/>
</g>
<path d="M69.0372 58.7026C69.0372 58.5367 69.0135 58.3708 68.9898 58.205H69.1084L69.0372 55.4087C68.9423 53.0865 68.041 50.9063 66.4754 49.2476C64.3643 47.0201 60.3556 46.0959 57.5804 44.8637C48.3058 40.8115 29.567 43.4419 29.567 55.7879V111.807C29.567 113.134 30.2548 114.343 31.3697 115.03L34.6431 117.044C35.3072 117.447 36.1374 117.471 36.8016 117.091C37.7029 116.57 38.2485 115.622 38.2248 114.58C38.1062 106.404 38.0113 98.2525 37.8927 90.0771C37.7267 77.4467 35.8053 65.2666 37.7267 52.7073C37.9164 51.4277 38.1536 50.1244 38.7466 48.9632C40.7866 45.0059 47.2384 44.8637 51.0811 45.7168C52.5043 46.0248 53.5005 46.6409 54.2121 47.4703L51.2708 46.6172C52.6229 47.0438 53.8563 47.6836 54.9237 48.5367C56.2521 51.167 55.6591 55.0533 55.0186 58.205C51.1048 77.5415 50.8913 97.6364 54.4256 117.044C54.5442 117.731 54.8051 118.513 55.1847 119.153C55.2795 120.006 55.5405 120.812 55.9437 121.57C56.7502 123.087 57.7464 124.129 59.0748 124.627C60.0236 124.627 60.9724 124.627 61.8974 124.58C63.3444 124.343 64.8387 124.011 65.9773 123.608L70.7213 120.575C71.5753 120.03 72.0734 119.058 72.0259 118.039C71.5278 108.442 69.0609 58.7026 69.0609 58.6789L69.0372 58.7026Z" fill="#A5A532"/>
<path d="M46.4085 55.5507L45.3174 54.8398L39.6246 80.1954C39.4822 80.9774 39.5534 81.7831 39.8618 82.494L43.3961 90.6457C43.6807 91.2855 44.4872 91.3803 44.9379 90.8115L49.4921 84.9111L46.4085 55.5744V55.5507Z" fill="#C7C238"/>
<path d="M44.1075 51.2402L44.4871 54.9369C44.8666 56.0033 46.2424 56.0507 47.12 55.0317L49.9901 51.88L44.1075 51.2402Z" fill="#C7C238"/>
<path d="M56.1799 51.3804C56.5595 50.4563 56.8441 49.5084 57.0101 48.5605C58.7891 39.0818 41.3074 38.5842 41.3074 49.2951V50.9776C41.3074 51.6411 41.8293 52.1624 42.3748 52.0439L46.9291 51.0724L50.7006 55.5511C51.2462 56.4515 52.361 56.5226 52.9777 55.6933C53.9265 54.4136 55.0414 52.897 56.1562 51.3804H56.1799Z" fill="#FFFEF2"/>
<path d="M50.7726 32.8262C50.7726 32.8262 50.8202 32.8262 50.8202 32.8737C50.8202 32.8025 50.8202 32.7075 50.8202 32.6362C50.8202 32.7075 50.8202 32.7787 50.7488 32.8262H50.7726Z" fill="#714E51"/>
<path d="M88.4866 118.11C88.4866 118.11 88.4392 118.11 88.4155 118.11C88.5578 118.442 88.7001 118.75 88.8187 119.058C88.5104 118.3 88.1783 117.541 87.8462 116.759C83.3394 106.214 76.8875 86.2142 75.7252 83.5602L60.3546 57.3516C58.7179 54.8871 59.4058 51.5459 61.8727 49.9108C64.3633 48.2757 67.6841 48.9629 69.3208 51.4274L84.9286 78.0152C85.0947 78.2521 85.237 78.5128 85.3556 78.7735C85.7588 79.6739 88.1071 85.1242 90.8112 91.4512C92.78 96.0484 95.8399 108.11 97.5714 112.186C97.9509 113.063 98.283 113.868 98.6151 114.627C98.5202 115.148 98.2356 115.693 97.7849 116.238C96.1482 118.157 92.8274 119.366 90.3368 118.916C89.5303 118.774 88.8899 118.466 88.4866 118.039V118.11Z" fill="#A5A532"/>
<path d="M54.3532 44.9107V33.8917C54.3532 32.541 53.8077 31.2851 52.9538 30.3609C52.4556 29.8159 51.8389 29.3893 51.1273 29.105C50.558 28.8917 49.9887 28.7732 49.372 28.7495C49.0874 28.7495 48.8027 28.7495 48.5181 28.7969C47.3795 28.9391 46.3596 29.4841 45.5768 30.2661C44.6517 31.1903 44.0587 32.4699 44.0587 33.8917V44.9107V45.4557H44.1062C44.462 47.2567 46.573 48.6074 49.1823 48.6074C51.7915 48.6074 53.9026 47.2567 54.2584 45.4557H54.3058V44.9107H54.3532Z" fill="#FFBCA8"/>
<g style="mix-blend-mode:multiply">
<path d="M44.7004 46.7842C48.97 46.571 52.362 43.8458 52.362 40.552V29.9595C51.4132 29.6515 50.3933 29.5093 49.3258 29.5093H49.0412C48.8514 29.5093 48.638 29.5093 48.4482 29.5567H48.2584C47.784 29.6278 47.2859 29.7936 46.8827 30.0306C46.6929 30.1017 46.5032 30.2202 46.3134 30.3624L46.0762 30.5519C45.8864 30.7415 45.6967 30.9074 45.5069 31.1207C44.653 32.0922 44.1074 33.4666 44.1074 34.9595V44.4145L44.7004 46.7842Z" fill="#FFBCA8"/>
</g>
<path d="M34.9039 32.6365C34.9988 35.409 35.4732 38.1578 37.1098 40.1957C38.9126 42.4706 41.7827 43.3711 44.5342 43.4422C46.0523 43.4896 47.6178 43.2526 48.9462 42.4706C51.4842 40.954 52.6702 37.7076 53.3107 34.627C53.5479 33.4658 53.7139 32.2573 53.7851 31.0725C53.8325 29.7218 53.7614 28.3473 53.3818 27.044C52.5991 24.2241 50.654 21.9018 48.3294 20.4563C46.0049 18.9871 43.3245 18.3236 40.6441 18.0155C39.3395 17.8497 37.94 17.826 36.7778 18.4895C35.995 18.916 35.402 19.7454 35.2122 20.6459C35.1411 20.9776 35.1411 21.3094 35.1885 21.6412C35.1174 24.153 35.0225 26.6649 34.9513 29.2004C34.9276 30.3379 34.8802 31.499 34.9276 32.6602L34.9039 32.6365Z" fill="#FFBCA8"/>
<circle cx="0.79709" cy="0.79709" r="0.79709" transform="matrix(-1 0 0 1 39.0632 28.5444)" fill="black"/>
<circle cx="0.79709" cy="0.79709" r="0.79709" transform="matrix(-1 0 0 1 45.443 28.5444)" fill="black"/>
<path d="M53.0733 30.5748C53.0733 30.5748 53.0971 30.5748 53.1208 30.6223C53.1208 30.551 53.1208 30.456 53.1208 30.3848C53.1208 30.456 53.1208 30.5273 53.0495 30.5748H53.0733Z" fill="#714E51"/>
<path d="M53.0731 30.5748C53.0731 30.5748 52.9546 30.5038 52.8834 30.4564C52.7175 30.3616 52.4804 30.2906 52.3856 30.4564C52.3144 30.5748 52.433 30.6932 52.5278 30.7169L52.1248 31.1196C52.5041 31.238 52.9309 30.9538 53.0494 30.5511L53.0731 30.5748Z" fill="#714E51"/>
<path d="M53.073 39.107C53.073 39.107 53.1919 38.9407 53.2632 38.8457C53.2632 38.917 53.2632 38.9645 53.2632 39.0357L53.073 39.107Z" fill="#714E51"/>
<path d="M32.1287 19.6977C32.5557 19.1764 33.3859 19.1764 33.9551 19.3897C33.1249 18.1574 32.2947 16.8304 32.2236 15.219C32.0101 11.1669 35.5444 10.4797 38.4382 11.3091C39.4582 11.6171 40.4307 12.0437 41.427 12.4228C41.8777 12.1621 42.3521 11.9489 42.8502 11.8067C45.6492 11.0484 48.6142 11.9726 51.2708 13.1811C52.4331 13.7024 53.5717 14.2949 54.5916 15.1005C58.3394 18.0389 59.7152 23.9394 58.0073 28.584C57.272 31.8542 56.513 39.3186 53.5479 38.276C51.9587 37.731 52.6229 32.1622 52.5754 31.9726C51.9587 29.7215 50.2746 28.4655 49.9662 25.7404L48.4244 24.8162C43.5381 25.6456 38.462 25.0058 33.9077 22.9205C33.291 22.6361 32.6505 22.3044 32.2236 21.7119C31.7966 21.1195 31.7017 20.219 32.1287 19.674V19.6977Z" fill="#454330"/>
<path d="M51.6499 31.3794C51.1044 31.4031 50.7248 32.1377 50.9146 32.7301C51.0806 33.2988 51.6499 33.6543 52.1955 33.7017C52.7411 33.749 53.2866 33.5358 53.7847 33.2988C54.7335 32.8249 55.6586 32.114 56.0619 31.0476C56.4651 30.005 56.2042 28.5595 55.2791 28.0618C54.4015 27.5879 53.2629 28.0618 52.6462 28.9149C52.0295 29.768 51.7685 30.858 51.5551 31.9007L51.6499 31.3794Z" fill="#FFBCA8"/>
</g>
</svg>
