<svg width="96" height="157" viewBox="0 0 96 157" fill="none" xmlns="http://www.w3.org/2000/svg">
<path d="M36.147 89.949L28.4301 71.1902L56.8039 74.8192L47.9483 91.1226L36.147 89.949Z" fill="#7A5D00"/>
<path d="M56.4968 133.624C57.4005 133.606 58.1957 134.328 58.5571 135.159C58.9186 135.99 58.9186 136.928 58.9186 137.849C58.9186 138.644 58.8824 139.528 58.3222 140.088C57.9607 140.449 57.4366 140.593 56.9487 140.738C56.0089 140.991 55.0691 141.243 54.1113 141.334C53.0269 141.424 51.9064 141.298 50.8221 141.46C50.1353 141.568 49.4667 141.785 48.7799 141.948C46.8642 142.399 44.822 142.345 42.9244 141.803C42.5087 141.677 42.0569 141.514 41.7858 141.171C41.334 140.612 41.4786 139.727 41.9485 139.167C42.4184 138.607 43.1051 138.282 43.7557 137.976C45.7437 137.055 47.7498 136.152 49.7377 135.231C51.6896 134.328 53.7137 133.426 55.8824 133.372C56.5691 133.372 57.4728 133.66 57.4185 134.347L56.4968 133.642V133.624Z" fill="#AB8F00"/>
<path d="M54.9743 136.976L55.1544 136.961C56.4776 136.854 57.4631 135.696 57.3557 134.374L57.0282 130.343C56.9209 129.021 55.7612 128.036 54.438 128.144L54.2579 128.158C52.9348 128.265 51.9492 129.424 52.0566 130.746L52.3841 134.777C52.4915 136.099 53.6511 137.083 54.9743 136.976Z" fill="#FEFAD9"/>
<path d="M38.8213 58.8601L39.3996 59.0587C39.2008 60.9545 39.002 62.8321 38.8755 64.7459C38.6406 68.6097 39.002 72.4373 39.3454 76.2648C39.5623 78.7564 39.7611 81.3924 40.1225 84.0103L40.0141 83.9742L41.731 104.051C41.731 104.051 57.7432 130.591 57.7613 130.61C59.2432 133.083 53.2612 134.347 52.0323 133.932C51.2371 133.661 50.5684 133.083 49.9901 132.469C48.5985 131.025 47.478 129.364 46.3756 127.703C43.0322 122.72 28.5561 104.214 28.5561 104.214C27.6344 101.126 28.1766 97.1541 28.1766 93.9404V64.4932L38.8213 58.8601Z" fill="#7A5D00"/>
<path d="M52.7916 88.8483C53.4242 86.6276 55.4302 84.0096 53.7314 82.4389C52.9181 81.6806 51.6711 81.7528 50.5687 81.8792C47.9843 82.168 45.3819 82.4389 42.7975 82.7277C42.0927 82.8 41.3337 82.9083 40.8096 83.3777C40.3035 83.8471 40.1047 84.5513 39.9602 85.2373C36.3818 100.457 33.9601 109.268 30.3817 124.488C29.1347 129.796 27.8877 141.532 27.3094 146.948C27.1648 148.339 25.9359 149.891 26.8576 150.956C28.1408 152.455 32.1167 148.736 32.1167 150.704C32.1167 154.82 34.0866 147.327 34.5746 145.432C39.8698 125.463 46.141 105.766 53.3699 86.429L52.8097 88.8483H52.7916Z" fill="#7A5D00"/>
<path d="M32.4247 150.126C32.4247 150.126 32.3519 150.09 32.3337 150.09L32.4429 150.126H32.4247Z" fill="#004AAB"/>
<path d="M17.5682 143.012C17.6586 144.023 18.255 145.232 19.0321 146.225C20.5863 148.193 22.1406 150.179 23.6948 152.147C24.8695 153.628 26.0804 155.144 27.9237 155.813C28.4298 155.993 28.972 156.101 29.4961 156.065C30.6708 156.011 31.5202 155.542 32.0623 154.819C32.984 153.61 33.0563 151.768 32.4419 150.306C32.4057 150.234 32.3696 150.143 32.3334 150.071C31.9539 149.909 31.7009 149.782 31.5382 149.71C31.8455 149.836 32.3154 150.053 32.3154 150.053C31.466 148.32 29.8756 147.056 28.3575 145.864C28.0503 145.63 27.3274 145.124 26.4237 144.546C23.6586 142.795 19.0321 140.267 17.9116 141.622C17.6224 141.965 17.5321 142.452 17.5682 143.012Z" fill="#AB8F00"/>
<path d="M8.36951 83.539C8.64047 83.0337 8.96562 82.4201 9.34496 81.7163C8.96562 82.4382 8.64047 83.0517 8.36951 83.539Z" fill="#845C60"/>
<path d="M2.94753 76.4257C2.94753 76.4257 2.91139 76.4076 2.89332 76.3896C2.76681 76.6243 2.6403 76.859 2.51379 77.0937C2.80295 76.5521 3.09211 75.9924 3.39935 75.4146C7.48373 67.6872 16.2308 54.2906 17.2609 52.3226L25.4297 30.657C26.1165 28.5085 28.4117 27.3169 30.5623 27.9849C32.7129 28.671 33.9057 30.9639 33.237 33.1124L24.9598 55.1031C24.8875 55.3197 24.8152 55.5183 24.7068 55.7169C24.3815 56.385 22.267 60.3931 19.8092 65.0332C18.0381 68.4094 12.3452 75.9924 10.7548 78.9894C10.4115 79.6214 10.1042 80.2172 9.81508 80.7769C9.4717 80.9574 9.01989 81.0657 8.45964 81.0477C6.52588 81.0116 4.21261 79.6033 3.29091 77.9242C2.98368 77.3645 2.87524 76.859 2.91139 76.4076L2.94753 76.4257Z" fill="#A5A532"/>
<path d="M2.53217 76.4626C2.47795 76.8959 3.02012 77.3834 3.32736 77.925C4.24905 79.6041 6.56233 81.0124 8.49608 81.0485C9.03826 81.0485 9.49007 80.9582 9.85152 80.7777C9.68887 81.0846 9.54429 81.3735 9.39971 81.6443C9.39971 81.6623 9.38164 81.6985 9.36356 81.7165C8.98404 82.4206 8.65874 83.0526 8.38765 83.54C8.33343 83.6484 8.27921 83.7567 8.225 83.847C8.15271 83.9733 8.09849 84.0997 8.04427 84.2081C8.00813 84.2622 7.99006 84.3164 7.95391 84.3705C7.93584 84.4067 7.91777 84.4428 7.89969 84.4789C7.89969 84.4969 7.88162 84.533 7.86355 84.5511C7.86355 84.5872 7.8274 84.6053 7.8274 84.6414C7.8274 84.6775 7.79126 84.6955 7.79126 84.7136C7.79126 84.7497 7.77319 84.7678 7.75511 84.7858C7.75511 84.7858 7.75511 84.7858 7.75511 84.8039C7.75511 84.84 7.71897 84.858 7.71897 84.8761C6.67076 86.8802 4.19483 87.6385 2.18879 86.5732C2.1165 86.5371 2.04421 86.501 1.97192 86.4468C0.128526 85.3275 -0.540156 82.9623 0.471903 81.0304C0.833353 80.3263 1.24902 79.5861 1.66469 78.7736C2.06228 78.0153 2.49602 77.2028 2.92976 76.3723C2.92976 76.3723 2.53217 76.4265 2.55024 76.4445L2.53217 76.4626Z" fill="#FFBCA8"/>
<path d="M4.809 72.2737L4.68249 72.4903C4.0861 73.5556 3.58007 74.4764 3.14633 75.2708L2.51379 76.4624V77.0943L2.71259 77.2026C2.78488 77.4915 2.89332 77.7804 3.05597 78.0873C3.54393 78.972 4.39333 79.7844 5.36925 80.3622C6.34516 80.958 7.46565 81.3371 8.45964 81.3552C9.03796 81.3552 9.54399 81.2649 9.95966 81.0483L10.0319 81.0122L11.0259 79.1525C11.1524 78.8998 11.6043 78.1956 12.0922 77.4373C12.2549 77.1846 12.0922 76.8235 11.785 76.8054C11.4235 76.7693 11.0802 76.7512 10.9356 76.7512C9.11025 76.7151 6.90541 75.3791 6.01986 73.7722C5.82106 73.4292 5.17045 72.7431 5.1343 72.4181C5.09816 72.4181 5.06201 72.4001 5.02587 72.382L4.809 72.3098V72.2737Z" fill="#FFFEF2"/>
<path d="M27.3276 34.1418V69.2221C27.3276 70.0165 27.7433 70.7748 28.4301 71.1901L36.1289 75.9024C39.7796 78.1411 44.0085 79.08 48.2014 78.6467C49.6652 78.4842 51.1291 78.1773 52.5387 77.6717L56.8039 74.8191L54.4906 36.3626C54.4364 34.7196 53.7857 33.203 52.6833 32.0475C52.2677 31.5961 51.7797 31.1989 51.2375 30.8739L48.4724 29.1226L47.6953 28.6351C45.5989 27.1727 41.5507 25.6561 37.9 25.2228C37.1771 25.1325 36.4904 25.0784 35.8217 25.0784C34.3578 25.0784 33.0566 25.3131 32.1168 25.8728C29.171 27.588 27.3457 30.7295 27.3457 34.1418H27.3276Z" fill="#FFFEF2"/>
<g opacity="0.59">
<path d="M54.4907 36.3623C54.4907 35.9651 54.4184 35.5679 54.3461 35.1887C52.7919 33.8707 51.2738 32.6069 49.9003 34.1776C48.9424 35.279 48.3099 37.8428 47.6954 39.1607C47.7135 39.2149 47.7316 39.2871 47.7496 39.3413C48.4183 41.219 49.3219 44.3605 48.7978 46.2743C48.4183 47.6465 47.3701 48.7658 47.0809 50.1561C46.5026 53.117 49.6292 60.5014 49.3219 63.4985C49.1412 65.2137 47.9123 66.6039 47.1171 68.1205C45.4544 71.4426 46.1231 75.4868 48.1653 78.6283C49.6292 78.4658 51.093 78.1589 52.5027 77.6534L56.7678 74.8007L54.4545 36.3442L54.4907 36.3623Z" fill="#83BBEF"/>
</g>
<path d="M55.6476 36.3448C55.6476 36.2184 55.6295 36.092 55.6114 35.9657H55.7018L55.6476 33.8352C55.5753 32.0658 54.8885 30.4048 53.6957 29.141C52.0873 27.4438 49.033 26.7397 46.9185 25.8009C39.8522 22.7135 25.575 24.7176 25.575 34.1241V76.8054C25.575 77.8165 26.0991 78.7373 26.9485 79.2608L29.4425 80.7955C29.9485 81.1024 30.581 81.1205 31.0871 80.8316C31.7738 80.4344 32.1895 79.7122 32.1714 78.9178C32.081 72.6889 32.0088 66.4781 31.9184 60.2492C31.7919 50.6261 30.328 41.346 31.7919 31.777C31.9365 30.802 32.1172 29.809 32.569 28.9243C34.1232 25.9092 39.0389 25.8009 41.9667 26.4508C43.051 26.6855 43.8101 27.155 44.3523 27.7869L42.1113 27.1369C43.1414 27.4619 44.0812 27.9494 44.8944 28.5993C45.9065 30.6034 45.4547 33.5644 44.9667 35.9657C41.9848 50.6983 41.8221 66.0087 44.5149 80.7955C44.6053 81.3191 44.8041 81.9149 45.0932 82.4024C45.1655 83.0523 45.3643 83.6662 45.6715 84.2439C46.286 85.3994 47.0451 86.1939 48.0571 86.573C48.78 86.573 49.5029 86.573 50.2077 86.5369C51.3102 86.3563 52.4487 86.1036 53.3162 85.7966L56.9307 83.4856C57.5813 83.0704 57.9608 82.3301 57.9247 81.5538C57.5452 74.2416 55.6656 36.3448 55.6656 36.3268L55.6476 36.3448Z" fill="#A5A532"/>
<path d="M38.4066 33.9442L37.5753 33.4026L33.2379 52.7211C33.1295 53.3169 33.1837 53.9308 33.4186 54.4724L36.1114 60.6833C36.3283 61.1707 36.9428 61.2429 37.2861 60.8096L40.756 56.314L38.4066 33.9623V33.9442Z" fill="#C7C238"/>
<path d="M36.6533 30.6592L36.9425 33.4757C37.2316 34.2882 38.2798 34.3243 38.9485 33.5479L41.1353 31.1467L36.6533 30.6592Z" fill="#C7C238"/>
<path d="M45.8515 30.7662C46.1406 30.0621 46.3575 29.3399 46.484 28.6177C47.8394 21.3959 34.52 21.0167 34.52 29.1774V30.4593C34.52 30.9648 34.9176 31.362 35.3333 31.2718L38.8032 30.5315L41.6767 33.9439C42.0924 34.6299 42.9418 34.6841 43.4117 34.0522C44.1346 33.0772 44.984 31.9217 45.8334 30.7662H45.8515Z" fill="#FFFEF2"/>
<path d="M41.7315 16.6301C41.7315 16.6301 41.7677 16.6301 41.7677 16.6663C41.7677 16.612 41.7677 16.5396 41.7677 16.4854C41.7677 16.5396 41.7677 16.5939 41.7134 16.6301H41.7315Z" fill="#714E51"/>
<path d="M88.9912 80.0934C90.0574 80.5808 90.8707 81.4655 91.2683 82.5669L94.5936 91.7748C94.7924 92.3164 95.2262 92.7136 94.8647 93.1469L94.1599 93.9774L95.9129 98.8522C96.0937 99.3397 95.9852 99.8994 95.6599 100.297C95.6599 100.297 79.2862 119.669 79.2501 119.705C77.8585 121.366 73.5392 120.915 72.744 118.712L66.9066 102.553C66.8162 102.319 66.7982 102.066 66.8162 101.813C66.8343 101.47 66.9789 101.127 67.2138 100.856L85.0875 79.6962C85.5935 79.1003 86.4249 78.9198 87.1297 79.2448L88.9731 80.0934H88.9912Z" fill="#745A19"/>
<path d="M91.1779 82.3317L92.0092 84.6607L73.3223 102.535C72.5271 103.311 71.3523 103.546 70.3041 103.149L66.8162 101.831C66.8342 101.488 66.9788 101.145 67.2138 100.874L85.0874 79.7137C85.5935 79.1179 86.4248 78.9374 87.1296 79.2624L89.208 80.2193C90.1297 80.6345 90.8345 81.4109 91.1779 82.3497V82.3317Z" fill="#6B5212"/>
<path d="M94.4303 93.6511C94.7918 93.2178 94.9002 92.64 94.7014 92.0984L90.9785 81.7891C90.8339 81.3739 90.2737 81.2655 90.0026 81.6086L73.5747 101.505C72.4903 102.787 72.1831 104.538 72.7434 106.091L77.1711 118.35C77.641 119.668 79.376 119.975 80.2796 118.91L95.3701 100.584C95.8219 100.042 96.0026 99.0675 95.7677 98.4175L94.3038 94.3552C94.2135 94.1024 94.2677 93.8316 94.4303 93.633V93.6511Z" fill="#745A19"/>
<path d="M87.6176 102.535L84.6537 106.056C84.4188 106.344 84.1116 106.29 83.9851 105.929L83.0814 103.42C82.9549 103.058 83.0453 102.553 83.2983 102.264L86.2622 98.7433C86.4971 98.4545 86.8044 98.5086 86.9309 98.8697L87.8345 101.379C87.961 101.74 87.8706 102.246 87.6176 102.535Z" fill="#A5A532"/>
<path d="M81.6725 84.5873C81.1845 83.2332 80.805 82.4208 79.8291 82.6194C79.0158 82.2222 77.4616 82.7096 76.5941 83.7388L74.3712 86.3567C72.9435 88.0538 72.3832 91.1412 73.1423 93.2355L74.2628 96.3229L75.3652 96.4493L76.3772 95.2396L75.2568 92.1522C74.8049 90.8884 75.1302 89.0107 76.0158 87.9636L78.2387 85.3456C78.4737 85.0748 78.7086 84.8943 78.9616 84.7859C79.1966 84.9665 79.4134 85.2553 79.558 85.6525L80.6785 88.7399L81.7809 88.8663L82.793 87.6566L81.6725 84.5693V84.5873Z" fill="#59430B"/>
<path d="M79.4124 81.8787C79.1956 81.3554 78.9246 80.7238 78.5995 79.9839C78.9246 80.7238 79.1956 81.3734 79.4124 81.8787Z" fill="#845C60"/>
<path d="M70.4661 81.6088C70.4661 81.6088 70.4299 81.6088 70.4118 81.6088C70.5203 81.8616 70.6287 82.0963 70.7191 82.331C70.4841 81.7533 70.2311 81.1755 69.9781 80.5797C66.5443 72.5454 61.6286 57.3072 60.7431 55.2851L49.0321 35.3166C47.7851 33.4389 48.3092 30.8932 50.1887 29.6474C52.0864 28.4016 54.6165 28.9252 55.8635 30.8029L67.7552 51.0603C67.8817 51.2408 67.9901 51.4394 68.0805 51.638C68.3877 52.3241 70.1769 56.4767 72.2372 61.2973C73.7372 64.7999 76.0685 73.9898 77.3878 77.0952C77.677 77.7632 77.93 78.3771 78.183 78.9548C78.1107 79.352 77.8939 79.7673 77.5505 80.1825C76.3035 81.645 73.7733 82.5658 71.8757 82.2227C71.2613 82.1144 70.7733 81.8797 70.4661 81.5547V81.6088Z" fill="#A5A532"/>
<path d="M70.2322 81.9502C70.5394 82.2572 71.2442 82.1488 71.8767 82.2572C73.7744 82.6002 76.3226 81.6794 77.5515 80.217C77.8949 79.8017 78.1117 79.3865 78.184 78.9893C78.3105 79.2962 78.4551 79.6031 78.5636 79.892C78.5636 79.91 78.5816 79.9462 78.5997 79.9642C78.925 80.7045 79.1961 81.3544 79.413 81.86C79.4672 81.9683 79.5033 82.0766 79.5395 82.1669C79.5937 82.2933 79.6479 82.4197 79.7021 82.528C79.7202 82.5821 79.7563 82.6544 79.7744 82.7085C79.7744 82.7446 79.8106 82.7807 79.8106 82.8169C79.8106 82.8349 79.8286 82.871 79.8467 82.8891C79.8467 82.9252 79.8648 82.9432 79.8829 82.9793C79.8829 83.0155 79.9009 83.0335 79.919 83.0696C79.919 83.1057 79.9371 83.1238 79.9551 83.1418C79.9551 83.1779 79.9913 83.2141 79.9913 83.2321C80.8768 85.3084 79.919 87.7097 77.8407 88.5944C77.7684 88.6305 77.6961 88.6485 77.6238 88.6846C75.5997 89.4068 73.3225 88.4499 72.4731 86.4459C72.1659 85.7237 71.8225 84.9293 71.4791 84.0987C71.1358 83.3043 70.7743 82.4558 70.4129 81.5891C70.4309 81.5891 70.2141 81.9322 70.2322 81.9322V81.9502Z" fill="#FFBCA8"/>
<path d="M68.4253 77.547L68.5157 77.7636C68.9675 78.9011 69.3651 79.876 69.7084 80.7066L70.2325 81.9523L70.7205 82.3495L70.9193 82.2593C71.1904 82.3857 71.4795 82.4759 71.8229 82.5481C72.8169 82.7287 73.9735 82.5662 75.0579 82.187C76.1422 81.7898 77.1362 81.176 77.7688 80.3996C78.1483 79.9483 78.3832 79.4969 78.4736 79.0455V78.9553L77.6603 77.0053C77.5519 76.7345 77.2808 75.9582 76.9916 75.0915C76.9013 74.8027 76.5218 74.7124 76.3049 74.9291C76.0519 75.1999 75.8169 75.4346 75.7266 75.5429C74.5519 76.9512 72.1301 77.8178 70.3229 77.4928C69.9253 77.4206 68.9855 77.4928 68.7145 77.3303C68.6783 77.3303 68.6602 77.3664 68.6241 77.4025L68.4253 77.5289V77.547Z" fill="#FFFEF2"/>
<path d="M44.4597 25.837V17.4416C44.4597 16.4124 44.044 15.4555 43.3934 14.7514C43.0139 14.3361 42.544 14.0112 42.0018 13.7945C41.5681 13.632 41.1343 13.5417 40.6644 13.5237C40.4476 13.5237 40.2307 13.5237 40.0138 13.5598C39.1464 13.6681 38.3692 14.0834 37.7728 14.6792C37.068 15.3833 36.6162 16.3583 36.6162 17.4416V25.837V26.2522H36.6524C36.9234 27.6244 38.5319 28.6535 40.5199 28.6535C42.5078 28.6535 44.1163 27.6244 44.3874 26.2522H44.4235V25.837H44.4597Z" fill="#FFBCA8"/>
<g style="mix-blend-mode:multiply">
<path d="M37.1051 27.2644C40.3582 27.1019 42.9425 25.0256 42.9425 22.516V14.4456C42.2196 14.2109 41.4425 14.1025 40.6293 14.1025H40.4124C40.2678 14.1025 40.1052 14.1025 39.9606 14.1386H39.816C39.4546 14.1928 39.075 14.3192 38.7678 14.4997C38.6232 14.5539 38.4786 14.6442 38.3341 14.7525L38.1533 14.8969C38.0088 15.0414 37.8642 15.1678 37.7196 15.3303C37.069 16.0705 36.6533 17.1177 36.6533 18.2551V25.459L37.1051 27.2644Z" fill="#FFBCA8"/>
</g>
<path d="M17.568 143.013C17.6584 144.024 18.2548 145.233 19.0319 146.226C20.5861 148.194 22.1403 150.18 23.6946 152.148C24.8693 153.629 26.0801 155.145 27.9235 155.814C28.4296 155.994 28.9717 156.102 29.4958 156.066C30.6705 156.012 31.52 155.543 32.0621 154.82C32.0983 154.658 32.1163 154.496 32.1163 154.315C32.1163 153.268 31.6826 152.293 31.0681 151.408C30.9236 151.173 30.7609 150.957 30.5802 150.758C29.297 149.169 27.7428 147.851 26.1524 146.551C25.8813 146.335 25.6103 146.136 25.3392 145.92C24.0922 144.927 22.8271 143.934 21.3632 143.338C20.1524 142.85 18.7789 142.652 17.5499 143.013H17.568Z" fill="#A08501"/>
<path d="M29.6412 16.4853C29.7135 18.5977 30.075 20.6921 31.322 22.2448C32.6955 23.9781 34.8823 24.6641 36.9787 24.7183C38.1353 24.7544 39.3281 24.5739 40.3401 23.9781C42.2739 22.8225 43.1775 20.3491 43.6655 18.0019C43.8462 17.1173 43.9727 16.1965 44.0269 15.2937C44.0631 14.2646 44.0089 13.2174 43.7197 12.2244C43.1233 10.0759 41.6414 8.30657 39.8703 7.20523C38.0992 6.08584 36.057 5.58031 34.0148 5.3456C33.0208 5.21921 31.9545 5.20116 31.069 5.70669C30.4726 6.03167 30.0208 6.66359 29.8762 7.34967C29.822 7.60243 29.822 7.8552 29.8581 8.10796C29.8039 10.0218 29.7316 11.9356 29.6774 13.8674C29.6593 14.734 29.6232 15.6187 29.6593 16.5034L29.6412 16.4853Z" fill="#FFBCA8"/>
<circle cx="0.607308" cy="0.607308" r="0.607308" transform="matrix(-1 0 0 1 32.8099 13.3672)" fill="black"/>
<circle cx="0.607308" cy="0.607308" r="0.607308" transform="matrix(-1 0 0 1 37.6708 13.3672)" fill="black"/>
<path d="M43.4843 14.9145C43.4843 14.9145 43.5024 14.9145 43.5205 14.9507C43.5205 14.8964 43.5205 14.8241 43.5205 14.7698C43.5205 14.8241 43.5205 14.8784 43.4662 14.9145H43.4843Z" fill="#714E51"/>
<path d="M43.4844 14.9141C43.4844 14.9141 43.3941 14.8599 43.3399 14.8238C43.2134 14.7516 43.0328 14.6975 42.9605 14.8238C42.9064 14.9141 42.9967 15.0043 43.0689 15.0223L42.7618 15.3291C43.0509 15.4193 43.376 15.2028 43.4663 14.896L43.4844 14.9141Z" fill="#714E51"/>
<path d="M43.4843 21.4146C43.4843 21.4146 43.5748 21.288 43.6292 21.2156C43.6292 21.2699 43.6292 21.3061 43.6292 21.3603L43.4843 21.4146Z" fill="#714E51"/>
<path d="M27.5266 6.62721C27.8519 6.23001 28.4845 6.23001 28.9182 6.3925C28.2857 5.45366 27.6531 4.44259 27.5989 3.21487C27.4363 0.127519 30.1291 -0.396067 32.3339 0.235848C33.111 0.470559 33.852 0.795543 34.611 1.08442C34.9544 0.885817 35.3159 0.723325 35.6954 0.614996C37.8279 0.0372458 40.087 0.741379 42.1111 1.66217C42.9967 2.05937 43.8641 2.51074 44.6413 3.1246C47.4967 5.36338 48.5449 9.85901 47.2437 13.3977C46.6834 15.8893 46.1051 21.5765 43.8461 20.7821C42.6352 20.3668 43.1412 16.124 43.1051 15.9796C42.6352 14.2644 41.3521 13.3075 41.1171 11.2312L39.9424 10.527C36.2195 11.1589 32.352 10.6715 28.8821 9.08265C28.4122 8.866 27.9242 8.61323 27.5989 8.16186C27.2736 7.7105 27.2013 7.02442 27.5266 6.60916V6.62721Z" fill="#454330"/>
<path d="M42.4 15.5272C41.9843 15.5452 41.6951 16.1049 41.8397 16.5563C41.9662 16.9896 42.4 17.2604 42.8156 17.2965C43.2313 17.3327 43.647 17.1702 44.0265 16.9896C44.7494 16.6285 45.4542 16.0869 45.7614 15.2744C46.0687 14.48 45.8699 13.3787 45.165 12.9995C44.4964 12.6384 43.6289 12.9995 43.159 13.6495C42.6891 14.2995 42.4903 15.13 42.3277 15.9244L42.4 15.5272Z" fill="#FFBCA8"/>
</svg>
