<svg width="80" height="149" viewBox="0 0 80 149" fill="none" xmlns="http://www.w3.org/2000/svg">
<g opacity="0.2">
<g style="mix-blend-mode:multiply" opacity="0.5">
<path d="M41.0217 76.0889L78.2708 96.0255L78.3453 40.0662L41.0217 20.085V76.0889Z" fill="#6C90B1"/>
</g>
</g>
<path d="M19 55.9593L79.7309 90.2574L79.8054 34.2981L19.0745 0L19 55.9593Z" fill="#F9FFCD"/>
<path d="M74.3521 69.6671L74.3372 72.3134L75.5738 73.0122V70.3807L75.5887 64.196L74.367 63.4824L74.3521 69.6671Z" fill="#EFE233"/>
<path d="M72.3408 62.6795L72.3259 66.7233L73.5477 67.437L73.5626 63.3931L73.5775 58.6208L72.3557 57.9072L72.3408 62.6795Z" fill="#EFE233"/>
<path d="M70.3291 57.4311L70.3142 62.2034L71.536 62.9021L71.5509 58.1595L71.5658 49.9976L70.344 49.2988L70.3291 57.4311Z" fill="#EFE233"/>
<path d="M50.0359 40.0066L50.021 45.552L51.2577 46.2656L51.2875 33.3611L50.0657 32.6475L50.0359 40.0066Z" fill="#EFE233"/>
<path d="M48.0244 36.0379L48.0095 42.8618L49.2313 43.5606L49.2462 36.7515L49.276 26.9839L48.0542 26.2852L48.0244 36.0379Z" fill="#EFE233"/>
<path d="M68.2881 58.7546L68.2732 63.5715L69.495 64.2703L69.5397 51.3657L68.303 50.667L68.2881 58.7546Z" fill="#EFE233"/>
<path d="M66.2617 56.2122L66.2468 61.4008L67.4686 62.1144L67.4835 56.9258L67.4984 54.116L66.2617 53.4023V56.2122Z" fill="#EFE233"/>
<path d="M62.209 53.3727L62.1941 57.5949L63.4159 58.3085L63.4308 54.0863L63.4457 50.3101L62.209 49.6113V53.3727Z" fill="#EFE233"/>
<path d="M60.1826 49.0612L60.1677 55.1121L61.3895 55.8108L61.4044 49.7748L61.4193 44.4673L60.1975 43.7686L60.1826 49.0612Z" fill="#EFE233"/>
<path d="M37.8481 39.5309L37.8333 44.1248L39.055 44.8235L39.0997 33.48L37.8631 32.7812L37.8481 39.5309Z" fill="#EFE233"/>
<path d="M35.8367 32.0084L35.8069 39.9177L37.0436 40.6313L37.0585 32.7221L37.0883 23.4302L35.8665 22.7314L35.8367 32.0084Z" fill="#EFE233"/>
<path d="M45.9983 33.7776L45.9834 40.4529L47.2052 41.1516L47.2201 34.4912L47.235 29.8081L46.0132 29.1094L45.9983 33.7776Z" fill="#EFE233"/>
<path d="M43.9421 40.8244L43.9272 45.1953L45.1639 45.9089V41.538L45.1788 36.6765L43.957 35.9629L43.9421 40.8244Z" fill="#EFE233"/>
<path d="M58.1563 43.783L58.1414 50.488L59.3631 51.1868L59.3929 44.4966L59.4078 39.8433L58.1712 39.1445L58.1563 43.783Z" fill="#EFE233"/>
<path d="M56.1299 45.5379L56.115 50.4588L57.3368 51.1576L57.3517 46.2515L57.3666 42.1333L56.1299 41.4346V45.5379Z" fill="#EFE233"/>
<path d="M64.2205 58.4718V61.2222L65.4422 61.9358L65.4571 55.8404L64.2354 55.1416L64.2205 58.4718Z" fill="#EFE233"/>
<path d="M52.0623 46.3107L52.0474 48.9867L53.2691 49.7003L53.2989 41.7019L52.0772 40.9883L52.0623 46.3107Z" fill="#EFE233"/>
<path d="M54.0886 49.1054L54.0737 52.614L55.2955 53.3128L55.3104 49.8042V47.2322L54.0886 46.5186V49.1054Z" fill="#EFE233"/>
<path d="M41.9009 42.6537V45.9096L43.1226 46.6232L43.1376 38.6247L41.9158 37.9111L41.9009 42.6537Z" fill="#EFE233"/>
<path d="M39.8596 45.5966V47.6186L41.0814 48.3173L41.1112 40.3189L39.8745 39.6201L39.8596 45.5966Z" fill="#EFE233"/>
<path d="M33.8103 29.6594L33.7954 35.74L35.0172 36.4536L35.0321 30.373L35.047 25.0952L33.8252 24.3965L33.8103 29.6594Z" fill="#EFE233"/>
<path d="M31.7542 34.7438V39.4715L32.9759 40.1703L32.9908 35.4574L33.0057 29.1538L31.784 28.4551L31.7542 34.7438Z" fill="#EFE233"/>
<path d="M29.7278 35.8294L29.7129 38.892L30.9496 39.6056V36.5281L30.9645 31.6072L29.7427 30.8936L29.7278 35.8294Z" fill="#EFE233"/>
<path d="M27.6716 40.4377V42.9057L28.8934 43.6044L28.9232 35.606L27.7014 34.9072L27.6716 40.4377Z" fill="#EFE233"/>
<path d="M25.6602 36.1265L25.6453 39.5161L26.8819 40.2298L26.8968 34.1343L25.6751 33.4355L25.6602 36.1265Z" fill="#EFE233"/>
<path d="M23.6487 30.5368L23.6338 34.1494L24.8556 34.8482L24.8854 26.0767L23.6636 25.3779L23.6487 30.5368Z" fill="#EFE233"/>
<path d="M22.1587 53.1195L75.1716 83.0616L75.2312 78.4528L22.2183 48.5107L22.1587 53.1195Z" fill="#DCBC1F"/>
<path d="M51.4036 55.6502C47.5595 55.3083 46.8444 57.018 46.8444 57.018C46.8444 57.018 48.0512 58.2817 49.2283 58.356C50.4054 58.4155 52.6254 57.0477 52.6254 57.0477C52.6254 57.0477 54.3687 57.1072 54.8604 56.795C55.352 56.4976 55.2626 55.9029 55.2626 55.9029C55.2626 55.9029 52.238 55.7097 51.4185 55.6353L51.4036 55.6502Z" fill="#F7B7A9"/>
<path d="M52.4466 57.0329C50.5246 54.788 47.6638 56.0963 47.6638 56.0963L46.0696 55.5908L44.7733 58.3115C44.7733 58.3115 46.8295 58.9656 46.8742 59.0102C48.2002 60.1847 49.8094 61.0024 51.8059 61.9836C53.0128 62.5783 55.2031 59.1886 54.5177 58.8467C53.8323 58.5048 52.4466 57.0181 52.4466 57.0181V57.0329Z" fill="#F7B7A9"/>
<path d="M56.0374 58.9804C54.4432 58.8764 52.2529 57.2559 52.2529 57.2559L52.6105 58.7872C52.6105 58.7872 53.7876 59.9468 55.948 60.0806C56.991 60.1401 58.3022 59.813 58.3022 59.813C58.1979 59.3372 58.2128 59.1142 56.0374 58.9804Z" fill="#F7B7A9"/>
<path d="M55.5904 60.2442C54.0111 60.0063 51.9996 58.1331 51.9996 58.1331L52.2082 59.6941C52.2082 59.6941 53.2512 60.9875 55.3967 61.3295C56.4248 61.493 57.7509 61.2849 57.7509 61.2849C57.6913 60.7942 57.7211 60.5861 55.5755 60.259L55.5904 60.2442Z" fill="#F7B7A9"/>
<path d="M55.069 61.2552C53.4896 61.0173 51.4781 59.144 51.4781 59.144L51.6867 60.7051C51.6867 60.7051 52.7297 61.9985 54.8753 62.3404C55.9033 62.504 57.2443 62.2958 57.2443 62.2958C57.1847 61.8052 57.2145 61.5971 55.069 61.27V61.2552Z" fill="#F7B7A9"/>
<path d="M53.0278 61.7308C51.5676 61.0916 50.1522 58.6831 50.1522 58.6831L49.9734 60.2441C49.9734 60.2441 50.9121 61.5078 52.8788 62.7121C53.7579 63.2621 54.8903 63.277 54.8903 63.277C54.9499 62.7864 55.0393 62.5931 53.0427 61.7308H53.0278Z" fill="#F7B7A9"/>
<path d="M33.8817 138.162C32.5259 137.121 28.8606 134.267 27.8474 131.784C27.7431 131.07 27.3557 127.264 28.3242 111.669C28.8457 103.239 28.8755 103.953 27.0726 75.5869L26.5362 76.2261L8.31398 75.5571L6.98792 88.6401L8.31398 111.505C8.31398 111.505 6.88362 115.653 7.6733 122.284C8.44808 128.826 9.19306 137.478 9.29736 138.742C9.29736 138.742 8.80567 141.596 8.67157 142.652C8.53748 143.707 13.1415 147.781 14.2589 148.465C15.3913 149.178 19.0864 149.178 19.6079 148.465C20.2188 147.647 19.6675 146.487 17.8199 145.164L13.7374 138.876C13.7374 138.876 14.7804 114.672 15.436 112.516C15.9128 110.926 17.6709 99.1956 18.55 93.2191L21.5597 107.491C21.5597 107.491 21.1277 115.52 21.3661 119.073C21.6044 122.626 23.3477 132.037 23.3477 132.037C23.0944 133.122 22.6474 135.412 23.0646 137.106C23.0646 137.106 23.601 137.775 25.821 138.236C27.9815 138.682 29.4863 140.318 31.0061 140.927C32.5259 141.552 34.9396 140.987 35.2823 140.63C35.2823 140.63 35.7293 140.347 35.6697 139.782C35.6697 139.782 35.327 139.277 33.8668 138.147L33.8817 138.162Z" fill="#F7B7A9"/>
<path d="M23.8543 108.919C24.0778 103.522 22.0961 96.8169 24.8973 91.9554C25.6571 90.6471 26.8342 90.2011 27.9964 90.32C27.758 86.5141 27.46 81.7418 27.0726 75.5869L26.5362 76.2261L8.31398 75.5571L6.98792 88.6401L8.31398 111.505C8.31398 111.505 6.88362 115.653 7.6733 122.284C8.44808 128.826 9.19306 137.478 9.29736 138.742C9.29736 138.742 8.80567 141.596 8.67157 142.652C8.53748 143.707 13.1415 147.781 14.2589 148.465C14.5718 148.658 15.1082 148.807 15.7042 148.896C15.5403 148.747 15.3615 148.628 15.2125 148.465C11.7856 145.149 11.1449 140.451 10.5489 135.917C9.62515 128.915 10.6383 122.239 11.0406 115.252C11.3982 109.023 11.0853 103.046 12.9776 96.9953C13.7821 94.4382 18.4755 93.8138 18.5649 93.2042L19.146 95.9249C19.6824 96.579 19.9208 97.4562 19.6824 98.4969L21.5746 107.477C21.5746 107.477 21.1426 115.505 21.381 119.058C21.6193 122.611 23.3626 132.022 23.3626 132.022C23.1093 133.107 22.6623 135.397 23.0795 137.092C23.0795 137.092 23.6159 137.761 25.8359 138.221C27.9964 138.667 29.5012 140.303 31.021 140.912C31.2594 141.002 31.5127 141.061 31.7958 141.106C28.9649 138.043 26.6703 134.534 25.2102 131.041C22.2451 123.979 23.5712 116.278 23.8841 108.889L23.8543 108.919Z" fill="#E9AD9F"/>
<path d="M35.5803 139.663C35.4462 139.5 35.1184 139.158 34.4331 138.608C33.1368 138.712 31.8107 138.504 30.5294 138.058C27.9815 137.181 25.3145 135.991 22.9753 134.668C22.9604 134.668 22.9455 134.638 22.9306 134.638C22.9008 135.099 22.8859 135.575 22.9306 136.036C22.9455 136.408 23.0051 136.779 23.0795 137.121C23.0795 137.121 23.6159 137.79 25.836 138.251C26.9088 138.474 27.8325 138.994 28.6669 139.53C28.8755 139.663 29.0841 139.797 29.2778 139.931C29.6801 140.199 30.0675 140.451 30.44 140.66C30.6337 140.764 30.8274 140.853 31.0061 140.927C31.3786 141.076 31.8256 141.165 32.2726 141.195C32.4961 141.195 32.7196 141.21 32.9431 141.195C33.6136 141.165 34.2394 141.046 34.6864 140.912C34.9844 140.823 35.2078 140.719 35.2823 140.63C35.2823 140.63 35.3121 140.615 35.3568 140.57C35.476 140.466 35.7293 140.199 35.6846 139.782C35.6846 139.782 35.6548 139.753 35.6101 139.693C35.6101 139.693 35.6101 139.693 35.5952 139.663H35.5803Z" fill="#002D42"/>
<path d="M18.2223 145.477C16.5237 146.473 14.2292 146.279 12.5455 145.372C10.7427 144.391 9.9828 142.473 8.96962 140.793C8.91002 141.195 8.83553 141.596 8.79083 141.938C8.79083 142.027 8.76103 142.102 8.76103 142.191C8.76103 142.221 8.76103 142.265 8.76103 142.295C8.74613 142.429 8.73123 142.548 8.71633 142.652C8.59713 143.633 12.6349 147.275 14.0504 148.301C14.1398 148.376 14.2292 148.42 14.3037 148.465C15.153 149 17.4475 149.134 18.7587 148.866C18.9822 148.822 19.1759 148.762 19.3249 148.703C19.4739 148.628 19.5931 148.554 19.6527 148.465C19.7421 148.331 19.8017 148.197 19.8314 148.063C20.0102 147.365 19.5186 146.473 18.2521 145.491L18.2223 145.477Z" fill="#002D42"/>
<path d="M8.93979 10.6925C4.753 17.6205 10.6384 19.2856 10.6384 19.2856L14.2292 9.20581C14.2292 9.20581 11.3535 6.69329 8.93979 10.6925Z" fill="#434107"/>
<path d="M9.87849 13.3091C9.08881 12.8928 8.68652 12.1346 8.59712 11.3318C5.15531 17.7097 10.6384 19.2856 10.6384 19.2856L12.7988 13.2348C11.9346 13.7551 10.7576 13.77 9.87849 13.3091Z" fill="#434107"/>
<path d="M26.0642 65.0322L6.67866 67.9315C6.67866 67.9315 4.72232 83.2974 5.03355 100.532L5.00391 120.537C5.00391 120.537 8.91659 138.866 21.529 129.17C31.2366 121.728 30.9995 116.832 30.9995 116.832L26.0642 65V65.0322Z" fill="#422B00"/>
<g style="mix-blend-mode:multiply" opacity="0.2">
<path d="M6.97299 66.2355C6.97299 66.2355 5.00624 73.327 5.31913 81.2809L5.28933 90.5132C5.28933 90.5132 6.91339 92.6541 11.0704 93.2785C10.7724 92.8622 10.6234 92.3121 10.6979 91.6283C11.6068 83.0054 11.5472 75.7503 19.3099 70.1901C21.664 68.5101 24.2566 67.3505 26.9534 66.4882L26.4617 64.8826L6.97299 66.2206V66.2355Z" fill="#6C90B1"/>
</g>
<path d="M44.4902 58.594L46.3825 59.3522L48.2598 55.4124L46.0696 54.6096L44.4902 58.594Z" fill="white"/>
<path d="M26.566 30.54C26.3127 30.986 23.0348 28.2653 22.4239 28.4586C20.621 29.0384 18.8629 29.7074 17.1494 30.4359C17.9242 31.2982 20.8445 31.8631 21.515 34.9852C22.8858 41.4226 28.2496 52.9445 28.9946 53.3608L44.8031 59.0697L46.9338 54.342L33.6135 47.5478C33.6135 47.5478 32.1384 43.504 26.5958 30.5251L26.566 30.54Z" fill="#B9A429"/>
<path d="M28.0708 41.9725L26.3276 37.2151L24.6737 32.8739C24.48 32.0413 24.4651 31.2534 24.2118 29.7072C24.1671 29.6924 24.1373 29.6775 24.0926 29.6626C21.7832 28.4881 19.4291 27.4921 16.9855 26.7041C13.0073 27.3434 8.13515 29.3356 5.36382 34.5539C3.81426 37.4678 7.95636 46.1501 8.70134 57.449C8.73114 57.8802 8.70134 58.3262 8.59704 58.7573L6.1237 69.1642C15.0784 75.1407 27.8176 68.8817 27.8176 68.8817L25.1952 57.1665L26.3127 47.3841C26.3127 47.3841 29.0691 45.9271 28.056 41.9725H28.0708Z" fill="white"/>
<path d="M26.6555 47.8303C26.6555 47.8303 29.3374 45.853 28.3242 41.8984L26.6406 37.0666L24.9718 32.8146C24.6738 31.5361 27.4153 33.4688 27.2068 32.6214C26.1787 28.4438 24.4354 27.1801 23.4073 27.0909C22.6624 27.0314 19.8612 26.4218 18.7587 26.4664C19.3398 26.63 19.8761 27.0314 20.2337 27.7599C23.4222 34.1229 23.1094 39.252 22.1707 46.0909C20.5913 57.6574 23.6457 72.1081 23.6457 72.2121C26.8045 71.3796 28.5328 68.5549 28.5328 68.5549L25.1953 57.1816L26.6257 47.8303H26.6555Z" fill="#B9A429"/>
<path d="M20.9489 28.1463C20.7105 27.5071 20.7254 26.9272 20.9042 26.4515C20.2784 26.4218 19.5632 26.4218 18.7587 26.4515C19.3398 26.615 19.8761 27.0164 20.2337 27.7449C23.4222 34.108 23.1094 39.2371 22.1707 46.0759C20.5913 57.6424 23.6457 72.0931 23.6457 72.1972C25.0463 71.8255 26.1489 71.0673 26.9684 70.324C26.2085 68.6589 25.7168 66.6221 25.4039 64.1988C23.8543 52.1268 25.1208 39.7872 20.934 28.1463H20.9489Z" fill="#B9A429"/>
<path d="M22.6475 29.9452L21.7386 26.8974C20.6509 26.3176 18.7736 26.4663 18.7736 26.4663C21.1128 28.6517 21.7982 31.5805 21.7982 31.5805C23.7798 38.7167 22.2601 45.5852 22.2601 45.5852C24.8675 40.0993 24.2715 31.3278 24.2715 31.3278L22.6475 29.96V29.9452Z" fill="#423900"/>
<path d="M10.9364 28.3247C8.83553 29.4992 6.39199 31.4616 5.05103 34.0039C3.50147 36.9178 7.98625 46.1502 8.73124 57.4491C8.76103 57.8803 8.73123 58.3263 8.62694 58.7574L5.39372 69.4914C8.64184 72.9257 18.7289 73.9069 22.6922 72.4648C25.1506 68.2872 22.9008 47.9491 22.6475 46.8936C20.9936 39.7277 11.0705 28.5477 10.9364 28.3247Z" fill="#B9A429"/>
<path opacity="0.2" d="M11.0257 52.216C10.2658 48.975 7.62861 45.6299 7.65841 42.2254C7.67331 39.9953 8.85038 37.9734 9.92315 35.9218C9.44636 35.892 8.95467 35.8772 8.47789 35.8326C7.49451 35.7434 6.54093 35.0446 6.03435 34.1526C5.94495 35.4163 5.48306 36.6354 4.64868 37.5571C5.39366 41.8537 8.19479 48.9898 8.74608 57.4343C8.77588 57.8654 8.74608 58.3114 8.64178 58.7426L5.40856 69.4765C7.04752 71.216 10.4446 72.3161 13.9013 72.8067C13.5885 72.5243 13.2756 72.2418 13.0074 71.9147C8.0309 66.1612 12.6051 58.8318 11.0555 52.2011L11.0257 52.216Z" fill="#B9A429"/>
<path d="M20.5168 30.5845C20.8893 29.9155 20.1592 26.8529 16.0469 26.0649C13.3948 25.5594 11.8452 27.9084 11.8452 27.9084C11.8452 27.9084 11.5919 30.3466 15.5999 31.6103C16.5088 31.8928 16.9558 31.9225 17.5667 31.9076C18.0882 31.9076 20.6062 34.9405 20.6062 34.9405C20.6062 34.9405 20.338 30.9264 20.5168 30.5845Z" fill="#F7B7A9"/>
<path d="M12.7839 23.716C13.067 25.6487 12.173 27.5963 12.173 27.5963L17.2686 29.5439C18.3563 29.9602 19.5185 29.1722 19.5483 28.0126C19.6079 25.6339 19.5036 22.9875 19.5036 22.9875L12.7839 23.716Z" fill="#F7B7A9"/>
<path d="M18.4458 23.1361L13.1713 23.6713L12.9776 24.4444C13.0372 24.5782 12.7988 24.5782 12.7988 24.6526C14.7209 27.7746 17.0899 28.7856 18.3266 28.7856C18.9673 28.7856 19.5037 28.3247 19.5782 27.6854C19.6825 26.7785 19.757 25.4405 19.8166 24.4295C19.8613 23.6713 19.2057 23.0469 18.4309 23.1213L18.4458 23.1361Z" fill="#E9AD9F"/>
<path d="M9.65491 14.6321L10.4148 19.8356C11.577 26.4216 17.5368 27.1204 17.5368 27.1204C21.0978 28.0719 22.6474 24.5038 22.6474 20.8168L22.2451 12.3872L9.65491 14.6321Z" fill="#F7B7A9"/>
<path d="M8.93982 29.6181L13.3948 33.32L12.7988 35.2676C12.7988 35.2676 17.7455 38.4789 22.2601 45.5704C22.2601 45.5704 20.9191 38.2558 10.9364 28.3247C10.9364 28.3247 9.96789 28.7113 8.93982 29.6181Z" fill="#423900"/>
<path d="M4.51461 75.1558C4.51461 75.1558 4.51461 74.9774 4.48481 74.6503C4.39541 74.6503 4.32092 74.6503 4.21662 74.6503C3.21834 74.6057 2.23497 74.6057 1.23669 74.6057C1.37079 75.4383 1.47509 76.1667 1.57939 76.7763L1.77308 81.6675L2.60746 83.511L4.05272 84.403C4.05272 84.403 4.72321 85.1018 4.8275 85.2356C5.1702 85.6667 5.76618 85.5181 5.60228 84.9829L5.48309 84.403L5.22979 82.8866L5.69168 80.5674L5.98967 82.4555C6.58566 83.7786 6.89855 83.511 6.89855 83.511L6.63036 79.2442L4.51461 75.1409V75.1558Z" fill="#F8C4B8"/>
<path d="M12.8285 9.71116C11.3237 10.514 8.50765 12.8035 9.65492 19.0922C10.2211 22.1697 12.7987 24.6673 12.7987 24.6673V23.7307C12.7987 23.7307 13.1712 19.5531 13.4841 18.6759C13.6629 18.1705 14.244 17.5312 14.9294 17.7542C18.9076 19.0179 23.154 17.1892 23.154 17.1892C24.1821 14.2902 22.5729 12.075 21.5299 11.0789C18.4606 8.15012 14.3334 8.90834 12.8285 9.71116Z" fill="#434107"/>
<path d="M9.4165 16.8027C9.4463 17.5015 9.5059 18.2448 9.6549 19.0774C10.2211 22.1548 12.7987 24.6525 12.7987 24.6525V23.7159C12.7987 23.7159 12.9179 22.3778 13.0818 21.0547C11.2194 20.0437 10.1317 18.6016 9.4314 16.8027H9.4165Z" fill="#434107"/>
<path d="M12.6945 18.572C11.5919 18.6018 11.6664 19.5087 12.1283 20.4155C12.8882 21.932 13.6183 21.6346 13.6183 21.6346L13.8566 19.0032C13.8566 19.0032 13.797 18.5274 12.6945 18.572Z" fill="#F7B7A9"/>
<path d="M12.5752 26.4219L10.9363 28.31C11.577 32.8593 16.4342 34.5392 16.4342 34.5392L17.5666 31.8929C15.0486 31.3131 12.5901 26.4219 12.5901 26.4219H12.5752Z" fill="white"/>
<path d="M19.9655 27.0312H19.5632V27.8638C20.5913 29.3654 20.5019 30.5845 20.5019 30.5845L22.2452 29.6181C21.7088 28.3693 19.9506 27.0312 19.9506 27.0312H19.9655Z" fill="white"/>
<path d="M20.5167 30.5845L22.4537 31.7293L22.2451 29.6182L20.5167 30.5845Z" fill="#FFEC83"/>
<path d="M7.10715 32.8443C6.09398 32.7402 5.1553 33.3647 4.81261 34.3161C4.36562 35.5204 3.68024 37.6463 2.89056 40.9914C1.53469 46.8639 0.193726 56.0219 0.193726 56.0219L5.69169 57.2559C5.69169 57.2559 10.7427 39.8169 10.9364 38.7465C11.1003 37.8099 10.5192 33.1862 7.10715 32.8443Z" fill="#F7B7A9"/>
<path d="M0.223525 58.921C0.238424 60.4077 1.2963 75.4531 1.2963 75.4531L4.64871 74.576C4.64871 74.576 5.0808 61.9093 5.69169 57.2559L0.193726 56.022C0.193726 56.022 0.208625 57.4343 0.223525 58.921Z" fill="#F7B7A9"/>
<path d="M7.10715 32.8443C6.09398 32.7402 5.1553 33.3647 4.81261 34.3161C4.36562 35.5204 3.68024 37.6463 2.89056 40.9914C1.53469 46.8639 0.193726 56.0219 0.193726 56.0219C0.193726 56.0219 0.208625 57.4343 0.223525 58.921C0.238424 60.4077 1.2963 75.4531 1.2963 75.4531L4.64871 74.5759C4.64871 74.5759 5.0808 61.9093 5.69169 57.2559C5.69169 57.2559 10.7427 39.8169 10.9364 38.7465C11.1003 37.8099 10.5192 33.1862 7.10715 32.8443Z" fill="white"/>
<path d="M4.26126 67.3357C4.26126 69.8185 4.15697 72.3013 3.93347 74.7543L4.63375 74.5759C4.63375 74.5759 5.06584 61.9092 5.67673 57.2559C5.67673 57.2559 8.37356 47.964 9.89332 42.5227C8.61195 46.2692 6.19821 49.9562 5.08074 53.8365C3.81427 58.1925 4.27616 62.831 4.24636 67.3208L4.26126 67.3357Z" fill="#09425E"/>
<path d="M1.05786 75.5124C1.74324 75.5868 4.64867 74.5758 4.64867 74.5758L4.73807 72.3755L0.804565 72.6134L1.05786 75.5124Z" fill="white"/>
<path d="M7.40511 32.2497C6.39194 32.1903 5.17017 33.3648 4.81258 34.3162C4.36559 35.5205 3.68021 37.6464 2.89053 40.9915C1.53466 46.864 0 56.0072 0 56.0072L0.685383 74.0557L5.48306 73.0745C5.48306 73.0745 5.24467 61.3444 5.85555 56.691C5.85555 56.691 11.4727 39.5197 11.6515 38.4493C11.8154 37.5126 11.8899 32.5322 7.39021 32.2497H7.40511Z" fill="#B9A429"/>
<path d="M4.81258 34.3161C4.36559 35.5203 3.68021 37.6463 2.89053 40.9913C1.53466 46.8638 0 56.007 0 56.007L0.685383 74.0555L3.21832 73.5352C2.26474 68.3317 2.35414 63.0093 2.90543 57.6424C3.73981 49.4953 4.76788 40.8724 7.01772 33.0078C7.09222 32.7253 7.22632 32.4874 7.36041 32.2644C6.36214 32.2198 5.15527 33.3795 4.79768 34.3161H4.81258Z" fill="#B9A429"/>
<path d="M10.2212 47.6667C13.9163 53.3311 20.189 48.7818 20.189 48.7818C15.0934 51.0862 10.2212 47.6667 10.2212 47.6667Z" fill="#B9A429"/>
<path d="M13.0819 18.3489L13.0968 18.3786H13.1266L13.0819 18.3489Z" fill="#09425E"/>
<path d="M23.4372 15.896L23.3925 16.2528L24.8526 17.3976C24.9271 17.457 25.0463 17.4422 25.091 17.3678C25.1506 17.2935 25.1357 17.1746 25.0612 17.13L23.4372 15.896Z" fill="#09425E"/>
<circle cx="22" cy="20" r="0.5" fill="black"/>
<circle cx="19" cy="21.2998" r="0.5" fill="black"/>
<g opacity="0.5">
<path d="M19.1757 19.6868C17.4921 20.2666 16.8216 20.7423 17.0153 21.8722C17.209 22.9872 17.6559 23.5373 19.1459 22.7642C19.7866 22.4371 20.9786 21.4411 20.9786 19.8652C20.9786 19.3597 20.7849 19.1367 19.1757 19.6868Z" fill="white"/>
</g>
<g opacity="0.5">
<path d="M23.3179 17.9028C21.9173 18.6313 21.6939 19.0624 21.679 19.5679C21.679 21.1586 22.7666 21.1586 23.303 20.9951C24.5099 20.6234 24.8377 19.776 24.9718 18.4975C25.1059 17.2338 24.6589 17.204 23.303 17.9028H23.3179Z" fill="white"/>
</g>
<path d="M25.2102 17.0557C25.2102 17.0557 24.5993 17.1449 23.8245 17.5165C23.7202 17.5611 23.601 17.6206 23.4669 17.6949C23.4073 17.7247 23.3477 17.7544 23.2881 17.7841C22.7368 18.0666 22.3345 18.3194 22.0514 18.5721C22.0067 18.6018 21.962 18.6464 21.9024 18.7059C21.7385 18.8546 21.4703 19.0776 21.3214 19.1519C21.1724 19.2114 20.8744 19.2262 20.6956 19.2262C20.636 19.2262 20.5764 19.2262 20.5317 19.2262C20.2337 19.2262 19.7867 19.3452 19.146 19.5682C19.0715 19.5979 18.997 19.6128 18.9374 19.6425C18.7884 19.6871 18.6543 19.7466 18.5351 19.7912C17.5517 20.148 16.6727 20.6832 16.6727 20.6832C16.6131 20.6981 16.5684 20.7575 16.5684 20.8021C16.5684 20.9211 16.5535 20.9805 16.5386 21.0995C16.5386 21.1589 16.5684 21.1887 16.628 21.1738C16.6429 21.1738 16.6578 21.1738 16.6727 21.1738C16.6727 21.1738 16.8068 21.1738 16.8068 21.3671C16.8068 21.4117 16.8068 21.4563 16.8068 21.4712C16.8068 21.6198 16.8068 21.7834 16.8366 21.9766C17.0154 22.9727 17.3879 23.5674 18.5649 23.166C18.7288 23.1065 18.9225 23.0173 19.1162 22.9281C19.9655 22.4821 20.9042 21.5009 21.0383 20.2075C21.0383 20.1777 21.0383 20.148 21.0383 20.1183C21.0383 20.1034 21.0383 20.0737 21.0383 20.0588C21.0681 19.702 21.2171 19.5979 21.2916 19.5682C21.2916 19.5682 21.4703 19.5236 21.5001 19.8061C21.5001 19.8507 21.5001 19.9101 21.5001 19.9547C21.5001 19.9696 21.5001 19.9845 21.5001 19.9993C21.6193 21.1887 22.4835 21.3968 23.2136 21.1738C23.3775 21.1292 23.5414 21.0549 23.6755 20.9954C24.5993 20.5197 24.8675 19.6723 25.0016 18.5275C25.0314 18.3045 25.0314 18.1261 25.0165 17.9774C25.0165 17.9477 25.0165 17.9328 25.0165 17.9031C25.0165 17.7098 25.1059 17.6057 25.1059 17.6057C25.1059 17.6057 25.1208 17.6057 25.1357 17.5909C25.1804 17.576 25.2102 17.5165 25.1953 17.4571C25.1953 17.353 25.1953 17.2935 25.1804 17.1746C25.1804 17.13 25.1506 17.1151 25.1357 17.1151L25.2102 17.0557ZM19.1311 22.6456C18.9523 22.7349 18.7735 22.8241 18.6245 22.8687C17.6262 23.2106 17.3134 22.7348 17.1495 21.7982C17.075 21.382 17.1346 21.0697 17.3134 20.817C17.5517 20.4751 18.0732 20.1926 18.9672 19.8804C19.0417 19.8507 19.1013 19.8358 19.1758 19.8061C20.7701 19.256 20.8744 19.5087 20.8744 19.9101C20.8744 21.605 19.4291 22.497 19.1311 22.6456ZM24.8824 18.5126C24.7632 19.583 24.5397 20.2818 23.75 20.6832C23.6308 20.7427 23.4818 20.8021 23.3328 20.8467C23.0795 20.9211 21.7981 21.2036 21.7981 19.5087C21.7981 19.1073 21.9471 18.7505 23.3328 18.022C23.3924 17.9923 23.452 17.9626 23.5116 17.9328C24.2268 17.576 24.5993 17.4719 24.7781 17.6503C24.9122 17.7693 24.942 18.0518 24.8973 18.5275L24.8824 18.5126Z" fill="#09425E"/>
<path d="M13.2457 18.126H13.2159L13.1861 18.0962L11.4876 17.7394C11.4131 17.7246 11.3386 17.7692 11.3237 17.8435C11.3088 17.9178 11.3535 17.9922 11.428 18.007L13.0967 18.349H13.0669H13.1265H13.0967L16.5385 21.025C16.613 21.0845 16.7322 21.0696 16.7769 20.9953C16.8365 20.921 16.8216 20.802 16.7471 20.7574L13.2457 18.0962V18.126Z" fill="#09425E"/>
</svg>
