<svg width="76" height="150" viewBox="0 0 76 150" fill="none" xmlns="http://www.w3.org/2000/svg">
<g clip-path="url(#clip0_0_1207)">
<path d="M20.3457 15.7786L20.9329 17.6485C20.9329 17.6485 21.9836 21.3748 20.3457 23.7274C20.3457 23.7274 25.5567 30.7403 29.7325 31.176C33.9082 31.6117 33.2206 29.1282 32.8749 28.2138C32.5311 27.2993 31.8918 22.5824 33.1415 20.517C34.3911 18.4536 23.4881 15.974 20.3457 15.7766V15.7786Z" fill="#D9A782"/>
<path d="M34.1728 27.95C34.1728 27.95 37.6204 39.2987 34.7581 41.6924C31.8976 44.086 24.9425 30.4843 24.9425 30.4843L34.1728 27.948V27.95Z" fill="#C6CD41"/>
<path d="M67.4534 13.5822C67.4534 13.5822 65.24 29.2981 64.7899 30.6659C64.3399 32.0337 61.8812 32.9873 59.915 32.8622C57.9488 32.7371 42.9512 30.9395 41.3578 30.2927C39.7624 29.6459 38.3254 29.4642 38.3254 29.4642L35.2718 19.5125C35.2718 19.5125 37.7924 18.8032 41.1531 19.5125C44.5118 20.2218 48.282 23.1235 51.1077 23.7449C53.9334 24.3663 58.5224 24.8469 58.5224 24.8469L62.6055 10.4832L67.4553 13.5841L67.4534 13.5822Z" fill="#FFFEE6"/>
<path d="M38.3273 29.4642L37.9893 28.3622C39.2525 27.4711 40.676 26.7032 41.6455 26.8928C43.774 27.309 46.6422 28.8858 50.4123 29.5893C54.1806 30.2927 58.4007 31.1212 58.196 29.3822C57.9913 27.6411 56.0251 24.9466 57.4988 25.8591C58.9724 26.7716 59.5886 26.9787 60.2028 24.036C60.6547 21.8691 63.0632 15.0242 64.3013 11.5676L67.4534 13.5822C67.4534 13.5822 65.2399 29.2981 64.7899 30.6659C64.3399 32.0337 61.8812 32.9873 59.915 32.8622C57.9488 32.7372 42.9512 30.9395 41.3578 30.2927C39.7624 29.6459 38.3254 29.4642 38.3254 29.4642H38.3273Z" fill="#FFFEE6"/>
<path d="M17.3636 136.144C18.1864 138.04 19.239 141.184 20.0599 142.663C20.8827 144.144 22.4375 148.537 20.7919 149.463C19.1463 150.389 14.4375 150.201 13.0179 148.261C11.6021 146.319 12.1951 145.191 11.463 143.071C10.733 140.951 11.0053 134.939 11.0053 134.939L17.3597 136.142L17.3636 136.144Z" fill="#806A00"/>
<path d="M33.7325 126.431C34.9667 128.002 38.0299 129.159 39.859 130.224C41.6881 131.287 45.0237 134.71 44.6142 136.514C44.2009 138.319 40.5447 138.456 38.0763 137.67C35.6079 136.885 32.9541 133.645 31.2641 133.184C29.5741 132.723 25.3211 132.121 24.817 130.917C24.3148 129.716 25.5027 124.997 26.5089 124.256C27.5152 123.516 33.7325 126.433 33.7325 126.433V126.431Z" fill="#806A00"/>
<path d="M24.7552 130.712C24.7726 130.786 24.79 130.857 24.8151 130.915C25.3192 132.117 29.5722 132.719 31.2622 133.182C32.9522 133.643 35.606 136.883 38.0744 137.668C40.452 138.427 43.9266 138.325 44.5505 136.707C44.5969 137.137 44.4636 137.633 43.803 137.995C42.3912 138.759 40.2202 138.823 37.6534 137.995C35.0884 137.166 33.5838 134.323 32.1449 133.899C30.7079 133.471 30.4201 133.471 30.4201 133.471V134.233C30.4201 134.233 27.411 133.921 25.2207 132.69C25.2207 132.69 24.6857 130.997 24.7552 130.712Z" fill="#806A00"/>
<path d="M27.1231 75.3381C27.1231 75.3381 28.8402 96.365 27.4959 100.541C26.1497 104.718 25.6861 107.487 25.6861 113.824C25.6861 120.161 24.479 128.985 24.479 128.985C28.9811 131.285 35.7412 128.047 35.7412 128.047C35.7412 128.047 34.5456 123.871 34.6538 121.149C34.7639 118.426 37.0043 103.642 38.3505 99.464C39.6948 95.2864 42.4799 85.196 42.7581 79.9378C43.0362 74.6816 40.6238 63.2292 40.6238 63.2292C40.6238 63.2292 37.1917 66.936 31.6234 68.2979L27.1231 75.3381Z" fill="#4E4C09"/>
<path d="M18.0782 63.9346C18.0782 63.9346 20.5833 68.9094 31.6233 68.2998C31.6233 68.2998 32.7378 72.5947 31.6233 76.36C30.5108 80.1273 27.8204 90.1239 27.2177 93.5492C26.6132 96.9765 24.5717 105.564 23.2274 108.71C21.8831 111.856 19.7199 122.791 19.2564 126.968C18.7928 131.146 19.7837 138.935 16.2395 139.452C12.6953 139.968 9.69964 137.41 9.88505 134.651C10.0705 131.896 10.0512 116.733 11.2139 112.042C12.3708 107.346 14.646 104.859 15.154 99.6496C15.6639 94.4403 15.7122 77.0146 15.6639 73.6654C15.6195 70.3163 18.0782 63.9326 18.0782 63.9326V63.9346Z" fill="#4E4C09"/>
<path d="M1.06231 77.0557L5.25545 77.337C5.25545 77.337 7.3781 80.1742 7.70644 80.864C8.03479 81.5537 8.43846 82.986 8.28781 83.5234C8.13522 84.0588 7.98457 85.6454 8.11011 86.1046C8.23566 86.5657 8.16033 87.4333 7.70644 87.5349C7.70644 87.5349 7.80688 88.379 7.45343 88.4806C7.09997 88.5823 6.6712 88.5568 6.11494 88.9418C5.55869 89.3248 4.49833 89.6315 4.16806 89.4772C3.83971 89.3248 3.71417 88.762 3.71417 88.762C3.71417 88.762 2.35058 86.8452 1.89476 86.3078C1.44087 85.7705 0.0502396 83.8282 2.28882e-05 82.9606C-0.0521259 82.0911 1.06038 77.0557 1.06038 77.0557H1.06231ZM6.15164 83.3749C5.88896 83.3162 5.50847 84.0939 5.50847 84.0939L6.29843 84.813C6.29843 84.813 6.41624 83.4354 6.15164 83.3749ZM7.25062 87.318C7.25062 87.318 6.70789 86.9624 6.44522 86.3547L5.31726 87.4958C5.31726 87.4958 6.70789 87.318 7.25062 87.318Z" fill="#FFCDA8"/>
<path d="M5.97006 87.4175C6.39304 87.3706 6.91646 87.3218 7.21776 87.3179L7.43988 87.3765L7.78174 87.5094C7.75663 87.5211 7.73152 87.5309 7.70448 87.5367C7.70448 87.5367 7.80492 88.3808 7.45146 88.4824C7.25639 88.5391 7.03814 88.5587 6.79092 88.627C6.45871 88.0506 6.06663 87.4117 5.97006 87.4195V87.4175Z" fill="#D9A782"/>
<path d="M5.94495 87.4197C5.76532 87.4394 5.44857 87.4787 5.44857 87.4787C5.56252 87.4649 5.74021 87.4433 5.94495 87.4197Z" fill="#D9A782"/>
<path d="M6.29839 84.8128C6.29839 84.8128 6.37565 85.9969 6.43359 86.3662L5.40607 87.4058C5.28053 87.2006 4.93673 86.591 4.93673 86.0575C4.93673 85.4967 5.38675 84.3986 5.5123 84.0996L6.29839 84.8128Z" fill="#D9A782"/>
<path d="M2.70977 86.0869C3.01687 86.6203 3.71411 88.7619 3.71411 88.7619C3.71411 88.7619 2.35052 86.845 1.8947 86.3077C1.63589 86.0029 1.07191 85.2389 0.627683 84.4788C1.23802 84.8402 2.45096 85.6394 2.70977 86.0869Z" fill="#D9A782"/>
<path d="M68.9753 5.38327C68.9753 5.38327 68.7667 4.80489 68.4558 4.85765C68.1448 4.91041 67.0555 4.88501 66.7078 5.11948C66.3602 5.35396 65.6648 6.0574 65.2573 6.30165C64.8498 6.5459 63.3742 8.03679 63.1482 8.27518C62.9222 8.51161 63.0613 11.5911 63.3742 11.8764C63.6851 12.1617 64.759 13.1094 65.4389 13.4767C66.1187 13.8441 67.0574 14.0277 68.4171 13.7053C69.7769 13.3849 71.1694 12.2984 71.7585 11.9155C72.3476 11.5344 73.3616 10.8916 73.3616 10.8916C73.3616 10.8916 74.0125 11.2882 74.3891 10.9521C74.7677 10.6161 74.5263 9.69768 74.3891 9.45343C74.2539 9.20919 73.4678 9.34597 73.4678 9.34597L71.8222 9.72895V9.36355C71.8222 9.36355 73.0139 8.54483 73.3307 8.02702C73.6475 7.51117 73.6475 6.73153 73.406 6.50096C73.1646 6.27038 72.6045 6.42475 72.394 6.63773C72.1815 6.85072 70.534 7.64599 70.534 7.64599L68.9772 5.38327H68.9753Z" fill="#FFCDA8"/>
<path d="M64.2279 10.2761C64.2279 10.2761 65.2477 7.943 65.7847 7.69094C66.3216 7.43887 66.9339 6.23717 66.9474 5.59626C66.9512 5.4204 66.9223 5.22695 66.8759 5.03937C67.324 4.88891 68.1835 4.90259 68.4539 4.8557C68.7649 4.80294 68.9735 5.38132 68.9735 5.38132L70.5302 7.64404C70.5302 7.64404 70.9512 7.44083 71.3955 7.21221C71.3684 7.52289 71.3163 8.29667 71.4071 8.63862C71.5229 9.07241 72.1758 9.09976 72.1758 9.09976C71.9691 9.25413 71.8185 9.35964 71.8185 9.35964V9.72504L73.464 9.34206C73.464 9.34206 73.4756 9.34206 73.493 9.33815C73.5181 9.69182 73.5857 10.2116 73.7653 10.4597C73.9353 10.6942 74.2733 10.7431 74.5225 10.7431C74.4916 10.8232 74.4471 10.8955 74.3853 10.9502C74.0087 11.2863 73.3578 10.8896 73.3578 10.8896C73.3578 10.8896 72.3457 11.5325 71.7547 11.9135C71.1656 12.2965 69.775 13.3829 68.4133 13.7034C67.0536 14.0238 66.1149 13.8401 65.4351 13.4747C64.8189 13.1426 63.8803 12.3317 63.4785 11.9721C63.8011 11.1847 64.226 10.278 64.226 10.278L64.2279 10.2761Z" fill="#D9A782"/>
<path d="M33.1318 33.0596L33.5606 30.1658L30.5108 27.95L29.294 30.7481L28.8846 32.1647L31.6079 33.5306C32 36.0551 34.7214 55.4543 34.422 64.0636L36.3747 66.0782L37.7151 63.2664C37.7151 63.2664 36.7938 42.2649 33.1337 33.0616L33.1318 33.0596Z" fill="#F6F5C9"/>
<path d="M21.3713 22.2871C21.3713 22.2871 24.3573 26.8829 30.5109 27.9498L29.2612 33.3232C29.2612 33.3232 21.0314 27.8267 18.9551 24.9953L21.3694 22.2852L21.3713 22.2871Z" fill="#EFE233"/>
<path d="M31.7508 23.6921L31.7759 21.4861C33.8078 23.9872 34.1729 31.4983 34.1729 31.4983L30.5109 27.9518C32.1429 26.7208 31.7508 23.6921 31.7508 23.6921Z" fill="#EFE233"/>
<path d="M33.2979 66.6681L35.0227 75.8479C35.0227 75.8479 34.8006 84.977 38.6654 83.2868C42.5282 81.5985 43.3356 81.3562 43.3356 81.3562C43.3356 81.3562 42.4239 64.9134 42.2076 60.5697C41.9662 55.7707 41.2825 47.4838 41.0526 43.0326C40.902 40.0977 41.0912 36.3558 41.0912 35.2987C41.0912 34.2416 39.5036 26.2576 38.0415 23.735C36.5794 21.2124 35.2738 19.5125 35.2738 19.5125H31.7779C31.7779 19.5125 33.7286 25.5952 34.3911 27.9498C35.0536 30.3043 34.7561 38.8003 34.2173 40.5941C33.6784 42.3878 30.6325 51.7709 30.5031 52.1812C30.3756 52.5915 33.2998 66.6681 33.2998 66.6681H33.2979Z" fill="#FFFEE6"/>
<path d="M30.5012 52.1832C30.6287 51.7728 33.6765 42.3878 34.2154 40.596C34.2675 40.4202 34.3177 40.1779 34.366 39.8867L34.5804 41.0591C34.6306 42.212 36.0676 68.8488 35.8648 72.5907C35.7914 73.9643 35.6755 76.0824 35.1154 78.2416C34.9957 76.9109 35.0227 75.8519 35.0227 75.8519L33.2979 66.672C33.2979 66.672 30.3737 52.5974 30.5012 52.1851V52.1832Z" fill="#EBE8C7"/>
<path d="M25.5606 31.2287C25.5973 31.4808 34.2173 40.5942 34.2173 40.5942C34.2173 40.5942 35.4766 68.8001 35.2738 72.5556C35.071 76.3092 34.565 85.2058 28.2704 86.8999C20.3477 89.0317 14.5476 84.0744 14.5476 84.0744C14.5476 84.0744 15.7064 68.3741 17.099 64.3254C18.4896 60.2787 19.071 55.4094 17.7364 53.006C16.4017 50.6006 13.3887 43.2692 12.9812 40.5121C12.5756 37.7551 13.5606 29.7203 13.5606 29.7203L19.6137 24.1104L25.5587 31.2287H25.5606Z" fill="#FFFEE6"/>
<path d="M0.807313 75.9224L5.79814 76.3581L5.85608 76.2995L5.68418 77.9174L0.436475 77.5657L0.807313 75.9224Z" fill="#C6CD41"/>
<path d="M14.1169 44.4943L15.7238 40.1643C15.7238 40.1643 17.7576 40.9869 19.6736 42.5736C21.5896 44.1602 23.6813 44.8656 23.4495 45.3346C23.2178 45.8055 22.5553 49.9186 23.4669 51.9156C24.3786 53.9145 19.691 69.9724 19.5963 76.8681C19.5558 79.8303 19.5596 84.3792 19.579 86.6908C16.4558 85.702 14.5456 84.0724 14.5456 84.0724C14.5456 84.0724 15.7045 68.3721 17.0971 64.3234C18.4877 60.2767 19.0691 55.4074 17.7344 53.004C16.8498 51.4095 15.2274 47.65 14.1149 44.4943H14.1169Z" fill="#FFFEE6"/>
<path d="M17.9353 39.8341C18.4858 38.1126 19.4843 34.0464 17.9353 32.2174C16.3863 30.3904 14.6499 29.179 13.5606 29.7202C12.4713 30.2595 9.50459 33.3058 7.73926 39.4433C5.97586 45.5788 4.16997 53.1075 3.39547 58.3305C2.62096 63.5516 0.341871 76.2174 0.341871 76.2174L6.75616 77.3312C6.75616 77.3312 9.57027 65.7713 10.2308 63.5966C10.8914 61.4218 12.0657 55.9779 12.3245 55.0869C12.5833 54.1959 17.2632 41.9463 17.9353 39.836V39.8341Z" fill="#FFFEE6"/>
<path d="M25.182 29.3821L19.1733 24.8469C19.1733 24.8469 21.9894 31.1466 23.2042 34.8865L26.1477 32.2037C27.3568 34.4098 34.1729 40.8775 34.1729 40.8775C34.1729 40.8775 28.9676 34.8514 25.182 29.3802V29.3821Z" fill="#EBE8C7"/>
<path d="M26.3486 31.0353L23.4264 34.146C23.4264 34.146 19.8069 26.588 18.9551 24.2881L21.0913 20.8882C21.0913 20.8882 22.5823 26.3046 26.3486 31.0353Z" fill="white"/>
<path d="M32.3419 23.2759C35.7837 31.3634 34.1729 40.8794 34.1729 40.8794C34.1729 40.8794 35.8668 34.6188 35.0517 29.3821L37.1763 29.6068L32.3419 23.2778V23.2759Z" fill="#EBE8C7"/>
<path d="M37.1763 28.9034L33.9759 28.368C33.9759 28.368 32.9793 24.6222 31.776 22.2872L32.0522 19.9307L37.1763 28.9034Z" fill="white"/>
<path d="M34.565 12.4214C34.7118 12.779 35.2603 13.459 35.888 14.094C36.5177 14.7291 37.128 15.3993 37.0121 16.0011C36.8962 16.603 35.9209 16.9058 35.9209 16.9058C35.9209 16.9058 36.0194 17.959 36.0194 18.2443C36.0194 18.5296 35.803 19.4656 36.002 19.9501C36.2009 20.4347 36.1352 22.2402 34.3313 22.4923C32.5293 22.7424 28.396 22.6095 26.2309 21.3551C24.0638 20.1006 21.1705 19.6316 21.1705 19.6316C21.1705 19.6316 18.592 16.1868 17.9624 14.1624C17.3327 12.1381 17.4834 8.39229 20.228 5.86579C22.9725 3.33928 27.3704 3.39008 30.6287 4.61132C33.8851 5.83257 34.7446 9.83043 34.8122 10.5671C34.8779 11.3037 34.4317 12.101 34.565 12.4234V12.4214Z" fill="#FFCDA8"/>
<ellipse cx="0.527778" cy="0.528169" rx="0.527778" ry="0.528169" transform="matrix(-1 0 0 1 32.7222 12.676)" fill="black"/>
<path d="M21.1724 19.6299C21.1724 19.6299 20.3419 18.52 19.5075 17.1874L22.1053 16.3491C22.1053 16.3491 24.0464 19.1296 24.4655 19.9464C24.6451 20.2962 24.9966 20.6323 25.6765 21.0524C23.6949 21.7695 21.1724 19.6279 21.1724 19.6279V19.6299Z" fill="#D9A782"/>
<path d="M33.5413 5.17819C34.395 6.49518 34.3023 7.53666 33.0778 7.98803C31.8533 8.4394 28.5466 9.17605 28.2337 10.6982C27.9209 12.2204 27.5886 12.8554 27.4573 12.957C27.326 13.0567 26.7639 15.6731 26.7639 15.6731C26.7639 15.6731 26.4008 16.1029 26.0203 15.9505C25.6398 15.8001 23.4901 15.2471 22.8644 15.6985C22.2366 16.1518 22.1034 19.0105 21.1763 19.6299C21.1763 19.6299 18.3467 16.7028 17.663 14.1939C16.9773 11.685 16.9773 8.85755 19.0942 6.11415C21.2111 3.37075 24.2202 2.6849 26.65 2.60283C29.0797 2.51881 32.5911 3.70684 33.5452 5.17819H33.5413Z" fill="#563317"/>
<path d="M24.6451 16.5697C24.3805 16.0519 23.4206 15.4813 22.7427 15.7334C22.0647 15.9835 21.4196 17.3728 22.1478 18.4612C22.8759 19.5476 25.4389 20.4347 25.5548 19.6492C25.6707 18.8637 24.6451 16.5717 24.6451 16.5717V16.5697Z" fill="#FFCDA8"/>
<path d="M65.634 6.05151C65.9971 6.05151 66.449 6.90736 66.3447 7.48965C66.2385 8.06999 65.6185 8.49986 65.5123 8.83595C65.4061 9.17204 66.3447 11.2687 64.4539 11.7415C64.4539 11.7415 63.2139 11.5891 62.9416 10.534C62.6692 9.47881 63.0323 8.30056 63.2738 7.94884C63.5171 7.59712 64.1062 7.61275 64.4674 7.1692C64.8305 6.72564 65.2689 6.05347 65.632 6.05347L65.634 6.05151Z" fill="#FFCDA8"/>
<path d="M68.7474 4.35352C68.7474 4.35352 68.112 5.01201 68.0212 5.46924C67.9304 5.92843 67.9768 6.83118 68.3843 6.89175C68.7919 6.95428 69.352 6.69244 69.352 6.69244C69.352 6.69244 69.2767 7.2591 69.5934 7.51898C69.9121 7.77886 70.9686 7.07542 70.9686 7.07542C70.9686 7.07542 72.224 6.21958 72.0425 5.60798C71.8609 4.99638 71.7856 4.90454 71.3163 4.85765C70.8469 4.8127 70.1072 5.43798 70.1072 5.43798H69.7132C69.7132 5.43798 69.9855 4.4434 68.7455 4.35156L68.7474 4.35352Z" fill="#FFCDA8"/>
<path d="M68.1622 1.61606C68.4056 1.47342 68.7262 1.40308 69.0449 1.40308C69.3636 1.40308 69.6842 1.47342 69.9276 1.61606C70.1709 1.7587 70.2926 1.94433 70.2926 2.13191V4.09372C70.2926 4.2813 70.1709 4.46693 69.9276 4.60957C69.6842 4.75222 69.3636 4.82256 69.0449 4.82256C68.7262 4.82256 68.4056 4.75222 68.1622 4.60957C67.9189 4.46693 67.7972 4.2813 67.7972 4.09372V2.13191C67.7972 1.94433 67.9189 1.7587 68.1622 1.61606Z" fill="#414E5F"/>
<path d="M68.1622 2.64777C68.4056 2.79041 68.7262 2.86075 69.0449 2.86075C69.3636 2.86075 69.6842 2.79041 69.9276 2.64777C70.1709 2.50513 70.2926 2.3195 70.2926 2.13191C70.2926 1.94433 70.1709 1.7587 69.9276 1.61606C69.6842 1.47342 69.3636 1.40308 69.0449 1.40308C68.7262 1.40308 68.4056 1.47342 68.1622 1.61606C67.9189 1.7587 67.7972 1.94433 67.7972 2.13191C67.7972 2.3195 67.9189 2.50513 68.1622 2.64777Z" fill="#5B6879"/>
<path d="M68.1622 2.64769V4.6095C67.9189 4.46685 67.7972 4.28123 67.7972 4.09364V2.13184C67.7972 2.31942 67.9189 2.50505 68.1622 2.64769Z" fill="#29333F"/>
<path opacity="0.5" d="M69.9294 2.64771V4.60951C69.6861 4.75215 69.3655 4.8225 69.0468 4.8225V2.86069C69.3655 2.86069 69.6861 2.79035 69.9294 2.64771Z" fill="#5B6879"/>
<path opacity="0.3" d="M67.1116 11.3567C66.8914 11.6478 66.677 11.9409 66.4626 12.234C66.3158 12.4353 66.1749 12.6385 66.0319 12.8417C65.8851 13.0527 65.7152 13.2462 65.5703 13.4572C65.0546 14.2036 64.5042 14.9325 63.9769 15.673C63.6582 16.1205 63.3395 16.5699 63.0285 17.0213C62.536 17.7325 62.1246 18.4848 62.0764 19.3309C62.0261 20.1946 62.4221 21.0367 63.0768 21.6679C63.7934 22.3576 64.7591 22.8168 65.7499 23.1197C66.679 23.403 67.6679 23.5457 68.649 23.575C69.2227 23.5926 69.8002 23.5691 70.3699 23.5046C70.9262 23.4421 71.467 23.3346 72.0078 23.2037C72.6143 23.0572 73.2285 22.8227 73.7635 22.5296C73.9914 22.4045 73.6398 22.598 73.7635 22.5296C74.6654 22.0333 75.4728 21.365 75.8204 20.4545C76.2222 19.4071 75.9074 18.3207 75.3047 17.3886C74.8451 16.6774 74.3255 15.9915 73.8272 15.3018C73.213 14.4557 72.5949 13.6116 71.975 12.7675C71.6254 12.2926 71.2777 11.8139 70.9165 11.345C70.9165 11.345 70.5708 10.7978 70.5708 10.6337V10.6259C70.5708 10.62 70.5708 10.6122 70.5708 10.6063V3.11865C70.5341 3.16359 70.4916 3.20854 70.4414 3.24957C70.3815 3.30037 70.3139 3.34922 70.2367 3.39417C69.9045 3.58761 69.4699 3.68531 69.0353 3.68531C68.6007 3.68531 68.1662 3.58761 67.834 3.39417C67.693 3.3121 67.5829 3.21831 67.5017 3.11865V10.6083C67.5017 10.6083 67.5017 10.6239 67.5017 10.6317V10.6376C67.5017 10.8017 67.1116 11.3567 67.1116 11.3567Z" fill="#5198F0"/>
<path d="M69.0545 13.2305C70.2501 13.2305 71.4437 13.4962 72.3553 14.0297C73.267 14.5631 73.7228 15.2607 73.7228 15.9582C73.7228 16.6558 73.267 17.3534 72.3553 17.8868C71.4437 18.4203 70.2481 18.686 69.0526 18.686C67.857 18.686 66.6634 18.4203 65.7498 17.8868C64.8382 17.3534 64.3824 16.6558 64.3824 15.9582C64.3824 15.2607 64.8382 14.5631 65.7498 14.0297C66.6615 13.4962 67.857 13.2305 69.0526 13.2305H69.0545Z" fill="#DCBC1F"/>
<path d="M62.2713 19.3446C62.3196 18.4946 62.7619 17.7521 63.1888 17.1366C63.5248 16.652 63.857 16.185 64.1371 15.7903C64.2839 15.5851 64.4326 15.378 64.5833 15.1729C64.4519 15.4288 64.3863 15.6926 64.3863 15.9564C64.3863 16.654 64.8421 17.3516 65.7537 17.885C66.6653 18.4184 67.8609 18.6842 69.0565 18.6842C70.252 18.6842 71.4456 18.4184 72.3592 17.885C73.2708 17.3516 73.7267 16.654 73.7267 15.9564C73.7267 15.7395 73.6822 15.5226 73.5934 15.3096C73.6204 15.3468 73.6455 15.3819 73.6726 15.4191C73.7865 15.5773 73.9024 15.7356 74.0183 15.8919C74.3988 16.4136 74.7948 16.951 75.1443 17.4961C75.6021 18.2074 76.0618 19.284 75.6407 20.3822C75.3529 21.1325 74.6905 21.7949 73.6726 22.3557C73.1588 22.639 72.5678 22.8657 71.9652 23.0123C71.3645 23.1588 70.8527 23.2526 70.3505 23.3093C69.9179 23.3581 69.4717 23.3835 69.0236 23.3835C68.9019 23.3835 68.7803 23.3835 68.6586 23.3777C67.6407 23.3483 66.6827 23.1979 65.8117 22.9321C64.7088 22.5961 63.8358 22.1232 63.2158 21.5272C62.5726 20.9098 62.2308 20.1145 62.2752 19.3446H62.2713Z" fill="#DCBC1F"/>
<path opacity="0.6" d="M67.8358 1.42835C68.168 1.23491 68.6026 1.13721 69.0371 1.13721C69.4717 1.13721 69.9063 1.23491 70.2385 1.42835C70.5707 1.6218 70.7349 1.87582 70.7349 2.12983C70.7349 2.38385 70.5688 2.63787 70.2366 2.83132C69.9043 3.02476 69.4698 3.12246 69.0352 3.12246C68.6006 3.12246 68.1661 3.02476 67.8338 2.83132C67.5016 2.63787 67.3375 2.38385 67.3375 2.12983C67.3375 1.87582 67.5036 1.6218 67.8338 1.42835H67.8358ZM68.1525 2.64569C68.3959 2.78833 68.7165 2.85867 69.0352 2.85867C69.3539 2.85867 69.6745 2.78833 69.9179 2.64569C70.1612 2.50305 70.2829 2.31742 70.2829 2.12983C70.2829 1.94225 70.1612 1.75662 69.9179 1.61398C69.6745 1.47134 69.3539 1.401 69.0352 1.401C68.7165 1.401 68.3959 1.47134 68.1525 1.61398C67.9092 1.75662 67.7875 1.94225 67.7875 2.12983C67.7875 2.31742 67.9092 2.50305 68.1525 2.64569Z" fill="#5198F0"/>
<path opacity="0.6" d="M67.8358 1.42835C68.168 1.23491 68.6026 1.13721 69.0371 1.13721C69.4717 1.13721 69.9063 1.23491 70.2385 1.42835C70.5707 1.6218 70.7349 1.87582 70.7349 2.12983C70.7349 2.38385 70.5688 2.63787 70.2366 2.83132C69.9043 3.02476 69.4698 3.12246 69.0352 3.12246C68.6006 3.12246 68.1661 3.02476 67.8338 2.83132C67.5016 2.63787 67.3375 2.38385 67.3375 2.12983C67.3375 1.87582 67.5036 1.6218 67.8338 1.42835H67.8358ZM68.1525 2.64569C68.3959 2.78833 68.7165 2.85867 69.0352 2.85867C69.3539 2.85867 69.6745 2.78833 69.9179 2.64569C70.1612 2.50305 70.2829 2.31742 70.2829 2.12983C70.2829 1.94225 70.1612 1.75662 69.9179 1.61398C69.6745 1.47134 69.3539 1.401 69.0352 1.401C68.7165 1.401 68.3959 1.47134 68.1525 1.61398C67.9092 1.75662 67.7875 1.94225 67.7875 2.12983C67.7875 2.31742 67.9092 2.50305 68.1525 2.64569Z" fill="#5198F0"/>
<path opacity="0.15" d="M68.1526 2.64581C68.3959 2.78846 68.7166 2.8588 69.0353 2.8588C69.3539 2.8588 69.6746 2.78846 69.9179 2.64581C70.1613 2.50317 70.283 2.31754 70.283 2.12996C70.283 1.94238 70.1613 1.75675 69.9179 1.61411C69.6746 1.47147 69.3539 1.40112 69.0353 1.40112C68.7166 1.40112 68.3959 1.47147 68.1526 1.61411C67.9092 1.75675 67.7875 1.94238 67.7875 2.12996C67.7875 2.31754 67.9092 2.50317 68.1526 2.64581Z" fill="#5198F0"/>
<path opacity="0.3" d="M67.8358 2.83137C68.168 3.02481 68.6026 3.12251 69.0372 3.12251C69.4717 3.12251 69.9063 3.02481 70.2385 2.83137C70.5707 2.63792 70.7368 2.3839 70.7368 2.12988V2.83137C70.7368 3.08538 70.5707 3.3394 70.2385 3.53285C69.9063 3.72629 69.4717 3.82399 69.0372 3.82399C68.6026 3.82399 68.168 3.72629 67.8358 3.53285C67.5036 3.3394 67.3394 3.08538 67.3394 2.83137V2.12988C67.3394 2.3839 67.5055 2.63792 67.8358 2.83137Z" fill="#5198F0"/>
<g opacity="0.3">
<path d="M70.7349 2.12988V2.83137C70.7349 3.02676 70.6364 3.22021 70.4413 3.38825V2.68677C70.6364 2.51873 70.7349 2.32528 70.7349 2.12988Z" fill="#5198F0"/>
<path d="M67.6311 2.68677V3.38825C67.436 3.22021 67.3375 3.02676 67.3375 2.83137V2.12988C67.3375 2.32528 67.436 2.51873 67.6311 2.68677Z" fill="#5198F0"/>
</g>
<path opacity="0.3" d="M67.0729 11.4112C67.0845 11.3917 67.098 11.3741 67.1115 11.3565L67.5016 10.6082C67.5016 10.6082 67.5016 10.6238 67.5016 10.6316C67.5016 10.6316 67.5016 10.6355 67.5016 10.6375C67.5016 10.8661 67.6523 11.0967 67.9517 11.2706C68.251 11.4464 68.6431 11.5324 69.0352 11.5324C69.4273 11.5324 69.8194 11.4445 70.1187 11.2706C70.4181 11.0947 70.5688 10.8661 70.5688 10.6375C70.5688 10.6355 70.5688 10.6316 70.5688 10.6296C70.5688 10.6238 70.5688 10.616 70.5688 10.6101L70.9145 11.3487C71.2544 11.7845 70.9299 12.2339 70.4818 12.4723C70.0531 12.6989 69.5374 12.7888 69.0429 12.7927C68.5446 12.7966 68.0251 12.7165 67.5866 12.4977C67.1501 12.2808 66.7831 11.8568 67.0709 11.4132L67.0729 11.4112Z" fill="#5198F0"/>
<g opacity="0.3">
<path d="M73.7634 22.5318C73.8156 22.5023 73.8368 22.4905 73.8407 22.4885C73.8272 22.4964 73.6746 22.581 73.7634 22.5318Z" fill="#5198F0"/>
<path d="M62.0763 19.3329C62.1246 18.4848 62.536 17.7325 63.0285 17.0232C63.3414 16.5719 63.6582 16.1225 63.9769 15.675C64.5042 14.9344 65.0546 14.2056 65.5703 13.4592C65.7171 13.2481 65.8851 13.0527 66.0319 12.8437C66.1748 12.6404 66.3158 12.4372 66.4626 12.236C66.677 11.9429 66.8914 11.6478 67.1116 11.3586C67.1116 11.3586 67.5017 10.8017 67.5017 10.6396C67.5017 10.6396 67.5017 10.6357 67.5017 10.6337C67.5017 10.6259 67.5017 10.6181 67.5017 10.6102V3.11865C67.5539 3.18313 67.6196 3.24566 67.6968 3.30428V10.6102C67.6968 10.6102 67.6968 10.62 67.6968 10.6239V10.6376C67.6968 10.8252 67.465 11.1945 67.2719 11.472L67.268 11.4778C67.0865 11.7162 66.9069 11.9624 66.733 12.2008L66.621 12.3532C66.4935 12.5291 66.3661 12.7088 66.2444 12.8847L66.1942 12.957C66.1188 13.0645 66.0396 13.168 65.9624 13.2657C65.8813 13.3693 65.804 13.4689 65.7325 13.5725C65.4197 14.0239 65.0913 14.4752 64.7726 14.911C64.5621 15.1982 64.3458 15.4952 64.1372 15.7903C63.8571 16.183 63.5249 16.652 63.1889 17.1366C62.7639 17.7521 62.3216 18.4946 62.2714 19.3446C62.227 20.1125 62.5689 20.9097 63.212 21.5272C63.832 22.1232 64.705 22.596 65.8079 22.9321C66.679 23.1979 67.6369 23.3483 68.6548 23.3776C68.7765 23.3815 68.9001 23.3835 69.0199 23.3835C69.4679 23.3835 69.9141 23.3581 70.3467 23.3092C70.8489 23.2526 71.3607 23.1588 71.9614 23.0122C72.564 22.8657 73.1551 22.639 73.6688 22.3557C74.6886 21.7949 75.3511 21.1325 75.6369 20.3822C76.058 19.284 75.5983 18.2074 75.1406 17.4961C74.789 16.9509 74.395 16.4136 74.0145 15.8919C73.8987 15.7336 73.7847 15.5773 73.6688 15.419C73.1106 14.6491 72.5042 13.8207 71.8166 12.8866L71.6196 12.619C71.3414 12.2399 71.0517 11.8471 70.7601 11.4681L70.7543 11.4602L70.7485 11.4524C70.6075 11.2297 70.3719 10.8271 70.3719 10.6357C70.3719 10.6317 70.3719 10.6259 70.3719 10.622C70.3719 10.6161 70.3719 10.6122 70.3719 10.6063V3.30428C70.395 3.2867 70.4182 3.26911 70.4395 3.25152C70.4897 3.20854 70.5322 3.16555 70.5689 3.12061V10.6102C70.5689 10.6102 70.5689 10.6239 70.5689 10.6298C70.5689 10.6337 70.5689 10.6357 70.5689 10.6376C70.5689 10.8017 70.9146 11.3489 70.9146 11.3489C71.2758 11.8178 71.6234 12.2965 71.973 12.7714C72.5949 13.6135 73.213 14.4577 73.8253 15.3057C74.3255 15.9954 74.8431 16.6793 75.3028 17.3925C75.9035 18.3246 76.2183 19.411 75.8185 20.4584C75.4689 21.3689 74.6635 22.0391 73.7615 22.5335C73.2284 22.8266 72.6123 23.0611 72.0058 23.2076C71.465 23.3385 70.9242 23.446 70.368 23.5085C69.7982 23.573 69.2227 23.5945 68.6471 23.5789C67.6659 23.5496 66.677 23.4089 65.748 23.1236C64.7552 22.8207 63.7915 22.3615 63.0749 21.6718C62.4182 21.0406 62.0242 20.1985 62.0744 19.3348L62.0763 19.3329Z" fill="#5198F0"/>
</g>
<g opacity="0.5">
<path d="M69.2651 3.12452V11.0714H69.4891V3.09717C69.4157 3.10889 69.3404 3.11866 69.2651 3.12452Z" fill="white"/>
</g>
<g opacity="0.5">
<path d="M69.7576 3.04036V11.0713H70.2076V2.8606C70.0724 2.9368 69.9199 2.99738 69.7576 3.04036Z" fill="white"/>
</g>
<path opacity="0.15" d="M68.1526 2.64581C68.3959 2.78846 68.7166 2.8588 69.0353 2.8588C69.3539 2.8588 69.6746 2.78846 69.9179 2.64581C70.1613 2.50317 70.283 2.31754 70.283 2.12996C70.283 1.94238 70.1613 1.75675 69.9179 1.61411C69.6746 1.47147 69.3539 1.40112 69.0353 1.40112C68.7166 1.40112 68.3959 1.47147 68.1526 1.61411C67.9092 1.75675 67.7875 1.94238 67.7875 2.12996C67.7875 2.31754 67.9092 2.50317 68.1526 2.64581Z" fill="#5198F0"/>
<path opacity="0.15" d="M73.6938 18.1114C72.4345 17.3767 70.7851 17.0094 69.1356 17.0094C67.4862 17.0094 65.8348 17.3767 64.5755 18.1134C63.3568 18.8246 62.7291 19.7508 62.6885 20.6829C62.6885 20.6516 62.6866 20.6203 62.6866 20.5891C62.6866 19.6258 63.3162 18.6605 64.5755 17.9258C65.8348 17.1911 67.4843 16.8218 69.1356 16.8237C70.7851 16.8237 72.4365 17.1911 73.6938 17.9258C74.9531 18.6605 75.5828 19.6258 75.5828 20.5891C75.5828 20.6203 75.5828 20.6516 75.5808 20.6829C75.5422 19.7508 74.9126 18.8246 73.6938 18.1134V18.1114Z" fill="#5198F0"/>
<path d="M68.1622 0.212985C68.4056 0.0703437 68.7262 0 69.0449 0C69.3636 0 69.6842 0.0703437 69.9276 0.212985C70.1709 0.355626 70.2926 0.541255 70.2926 0.728838V2.12985C70.2926 2.31743 70.1709 2.50306 69.9276 2.6457C69.6842 2.78834 69.3636 2.85869 69.0449 2.85869C68.7262 2.85869 68.4056 2.78834 68.1622 2.6457C67.9189 2.50306 67.7972 2.31743 67.7972 2.12985V0.728838C67.7972 0.541255 67.9189 0.355626 68.1622 0.212985Z" fill="#414E5F"/>
<path d="M68.1622 1.24469C68.4056 1.38733 68.7262 1.45768 69.0449 1.45768C69.3636 1.45768 69.6842 1.38733 69.9276 1.24469C70.1709 1.10205 70.2926 0.916421 70.2926 0.728838C70.2926 0.541255 70.1709 0.355626 69.9276 0.212985C69.6842 0.0703437 69.3655 0 69.0449 0C68.7262 0 68.4056 0.0703437 68.1622 0.212985C67.9189 0.355626 67.7972 0.541255 67.7972 0.728838C67.7972 0.916421 67.9189 1.10205 68.1622 1.24469Z" fill="#5B6879"/>
<path d="M68.1622 1.24461V2.64562C67.9189 2.50298 67.7972 2.31735 67.7972 2.12977V0.72876C67.7972 0.916343 67.9189 1.10197 68.1622 1.24461Z" fill="#29333F"/>
<path opacity="0.5" d="M69.9294 1.24463V2.64564C69.6861 2.78828 69.3655 2.85862 69.0468 2.85862V1.45761C69.3655 1.45761 69.6861 1.38727 69.9294 1.24463Z" fill="#5B6879"/>
</g>
<defs>
<clipPath id="clip0_0_1207">
<rect width="76" height="150" fill="white" transform="matrix(-1 0 0 1 76 0)"/>
</clipPath>
</defs>
</svg>
