<svg width="49" height="145" viewBox="0 0 49 145" fill="none" xmlns="http://www.w3.org/2000/svg">
<g clip-path="url(#clip0_0_1360)">
<path d="M29.5184 132.307C26.5828 128.906 23.2875 133.735 21.7327 135.731C20.6768 137.089 16.987 140.699 17.3931 142.579C17.5324 143.241 17.6136 143.206 18.2634 143.392C18.9131 143.566 19.6093 143.473 20.2707 143.322C23.7284 142.486 26.4668 140.536 28.0332 137.542C28.0912 138.377 28.1144 139.201 28.1028 140.037C28.1028 140.223 28.3117 140.339 28.4741 140.234C28.799 140.026 29.1123 139.805 29.4256 139.573C30.5859 138.714 30.0754 137.507 30.3886 136.126C30.6903 134.791 30.4234 133.363 29.5068 132.319L29.5184 132.307Z" fill="#DCBC1F"/>
<path d="M19.969 104.903L19.7021 93.9463C23.1019 94.4686 26.5248 94.782 29.9477 94.9909L29.3443 107.167L28.8918 132.156C28.8918 132.249 28.9034 132.237 28.915 132.191C30.435 134.837 24.8887 138.83 23.0206 139.445C22.104 139.747 20.4912 139.956 20.6768 138.389C20.758 137.739 21.2222 137.205 21.6167 136.671C22.1968 135.894 23.8329 133.479 23.7052 132.528C23.6704 132.249 19.969 104.892 19.969 104.892V104.903Z" fill="#FFCDA8"/>
<path d="M38.1975 118.24C33.7999 117.474 34.2988 123.265 34.3569 125.784C34.4033 127.502 33.8347 132.597 35.3431 133.793C35.8653 134.211 35.9117 134.141 36.5266 133.862C37.1416 133.584 37.6173 133.073 38.0234 132.539C40.1584 129.719 41.0403 126.481 40.3557 123.184C40.9242 123.788 41.4696 124.414 41.9801 125.064C42.0961 125.204 42.3282 125.157 42.3862 124.983C42.5023 124.612 42.6067 124.252 42.6995 123.881C43.0476 122.488 41.8873 121.873 41.2607 120.619C40.6458 119.4 39.5435 118.472 38.1859 118.24H38.1975Z" fill="#DCBC1F"/>
<path d="M10.6748 97.7068L11.2434 84.5794C14.1906 82.8384 12.2296 91.265 14.9912 89.257L19.9805 99.5291L37.6173 118.518C37.6869 118.588 37.6753 118.564 37.6521 118.53C40.4833 119.597 38.7428 126.178 37.6985 127.827C37.188 128.639 36.0741 129.811 35.2386 128.488C34.8906 127.931 34.9138 127.235 34.879 126.573C34.8325 125.61 34.5773 122.72 33.8695 122.07C33.7186 121.93 21.4193 112.006 14.7011 106.598C12.0208 104.439 10.524 101.131 10.6748 97.6836V97.7068Z" fill="#FFCDA8"/>
<path d="M15.8034 52.1845L14.0165 55.0397C12.6125 57.2799 11.8815 59.8914 11.9163 62.5494L8.65587 94.1317C8.16854 98.9022 11.4174 103.243 16.1283 104.148C23.1598 105.507 32.9064 106.006 38.151 100.144L38.5339 72.392C38.5339 72.392 40.6225 56.7576 34.3336 53.113L15.8034 52.1729V52.1845Z" fill="#EFE233"/>
<path d="M12.7387 47.2491L12.4048 47.1153C10.7353 46.4463 9.92178 44.5449 10.5906 42.8748L16.9849 26.9069C17.6537 25.2369 19.5545 24.4231 21.224 25.0921L21.5579 25.2259C23.2274 25.8949 24.0409 27.7963 23.3721 29.4663L16.9778 45.4343C16.309 47.1043 14.4082 47.9181 12.7387 47.2491Z" fill="#F6F5C9"/>
<path d="M38.3483 9.72652C38.0118 6.58105 37.0024 3.67933 33.7999 1.6017C30.609 -0.464331 25.7705 -0.742897 22.5797 2.08918C22.3476 2.2865 22.1388 2.49543 21.9763 2.69274C19.6441 5.50161 19.296 8.80957 19.1104 12.164C19.853 14.2532 21.2569 15.8201 22.5797 17.7353C23.8792 19.604 24.471 21.5075 24.6682 23.7476C24.9003 26.4869 25.5153 32.1626 29.3559 32.3483C31.5025 32.4528 35.1227 30.2475 36.4106 28.6574C37.3041 27.5547 37.8146 26.2083 38.1279 24.8503C38.8009 22.0182 38.6964 19.0701 38.5804 16.1683C38.4992 14.0211 38.5804 11.8274 38.3483 9.73812V9.72652Z" fill="#3E3E3E"/>
<path d="M24.1229 18.3854C24.1229 18.3854 24.1461 18.397 24.1577 18.4086C24.1577 18.3622 24.1577 18.2925 24.1577 18.2461C24.1577 18.2925 24.1577 18.3389 24.1113 18.3854H24.1229Z" fill="#715154"/>
<path d="M38.6732 33.3352L37.3736 38.1869L34.2756 52.9392C34.0087 53.9374 33.359 54.7615 32.4887 55.191C30.1449 56.3516 24.4826 56.932 17.7412 54.0767C16.6969 53.6356 15.9195 52.6607 15.6874 51.4651L13.5872 40.5315L13.5408 40.3109C13.2159 38.6047 13.4712 36.8521 14.2486 35.3432L16.7085 30.6192V28.0889C16.7085 25.0943 19.354 22.9354 22.0111 23.7711L22.9278 24.0845L24.4014 24.5952L30.8643 26.8585L32.7556 27.5201L36.4338 28.7969C38.1859 29.4005 39.1605 31.4084 38.65 33.3236L38.6732 33.3352Z" fill="#F6F5C9"/>
<path d="M38.6732 33.3349L37.3736 38.1866C36.7239 38.9875 36.0741 39.8 35.4243 40.6008C34.0551 42.3071 32.6164 44.0481 30.7134 44.9418C27.5458 46.4275 23.9024 45.2204 20.6883 43.8508C18.7042 43.0151 16.7201 42.1213 14.7824 41.1696C14.3879 40.9839 13.9817 40.7865 13.5988 40.5544L13.5524 40.3339C13.2275 38.6277 13.4828 36.875 14.2602 35.3661L16.7201 30.6421V28.1118C16.7201 25.1172 19.3656 22.9584 22.0227 23.7941L22.9394 24.1075L24.413 24.6182L30.8759 26.8815L32.7672 27.5431L36.4454 28.8198C38.1975 29.4234 39.1721 31.4314 38.6616 33.3465L38.6732 33.3349Z" fill="#F6F5C9"/>
<path d="M32.7788 27.5316C31.8622 29.0405 30.609 30.3404 29.2863 31.5127C28.2884 32.3949 27.2209 33.2422 25.9562 33.6484C24.703 34.0662 23.2062 33.9734 22.1735 33.1377C21.3381 32.4529 20.932 31.3618 20.874 30.294C20.816 29.2262 21.1061 28.1583 21.4774 27.1601C21.8603 26.1039 22.3592 25.0825 22.9393 24.1191L24.4129 24.6298L30.8759 26.8932L32.7672 27.5548L32.7788 27.5316Z" fill="#FFCDA8"/>
<path d="M42.537 75.317C43.4421 74.3885 43.2448 72.9492 42.0497 72.2876C41.017 71.7189 39.7755 71.4287 38.5572 71.5448C37.7217 71.626 36.8515 71.9046 36.3874 72.5082C36.0509 72.9492 35.9581 73.4947 35.9 74.0171C35.784 75.0965 35.8072 76.2224 36.2017 77.2554C36.7471 78.6598 38.0582 79.925 39.9263 79.9946C40.7501 80.0294 41.5392 79.7625 42.0961 79.2518C43.6625 77.8241 41.3651 76.9884 42.537 75.3054V75.317Z" fill="#D49A8A"/>
<path d="M11.5103 38.7207L11.5915 38.8832C11.5915 38.8832 11.5451 38.8832 11.5335 38.8832C11.5335 38.8252 11.5335 38.7787 11.5219 38.7207H11.5103Z" fill="#FEDDA7"/>
<path d="M30.8991 18.3389H24.1693V27.4271H30.8991V18.3389Z" fill="#D49A8A"/>
<g style="mix-blend-mode:multiply">
<path d="M29.588 21.2873L24.1925 25.3033L24.1693 25.2221V20.9043L29.588 21.2873Z" fill="#FFCDA8"/>
</g>
<path d="M31.1428 12.5124C31.1428 12.5124 31.166 12.524 31.1776 12.5357C31.1776 12.4892 31.1776 12.4312 31.1776 12.3848C31.1776 12.4312 31.1776 12.4776 31.1312 12.5124H31.1428Z" fill="#715154"/>
<path d="M38.9748 75.0271C39.0677 75.0387 39.1489 75.0619 39.2417 75.0619C41.1678 75.2708 42.8967 73.878 43.1055 71.9513C44.5907 58.0694 43.152 43.6421 38.9284 30.2361C38.3483 28.3906 36.3757 27.3576 34.5308 27.9379C32.6859 28.5183 31.6533 30.4915 32.2334 32.3369C36.1669 44.826 37.5128 58.2667 36.1205 71.1968C35.9232 73.0307 37.1764 74.6905 38.9632 75.0155L38.9748 75.0271Z" fill="#F6F5C9"/>
<path d="M38.1279 19.3139C33.2778 11.3052 27.4298 21.9255 25.26 24.804C23.1946 27.5548 21.2685 30.4565 20.4447 33.6832C19.6209 36.9099 20.0386 40.5197 22.3012 43.1428C22.8001 43.7232 23.4267 44.2571 24.2041 44.4776C24.9931 44.6982 25.9678 44.4892 26.3855 43.8625C26.9541 43.0036 26.2695 41.9357 26.049 40.9608C25.5849 38.8947 27.2905 36.9332 29.2167 35.7144C31.1428 34.5073 33.417 33.7064 35.0762 32.2092C37.188 30.3056 38.0002 27.5664 38.5224 24.9316C38.8937 23.0397 39.1373 20.9969 38.1163 19.3023L38.1279 19.3139Z" fill="#3E3E3E"/>
<path d="M19.6905 11.3864C19.4004 11.3748 19.0987 11.3632 18.8087 11.3516C17.4511 8.20613 19.3424 4.38747 22.7537 2.7625C26.1651 1.13754 30.6903 1.68306 33.7187 3.78391C34.7746 4.51514 35.726 5.57137 35.5868 6.73206C35.3895 8.39184 34.6701 11.0614 33.6259 12.4426C32.6976 13.673 30.8527 14.5203 29.2631 13.9864C28.6133 13.7658 28.0912 13.3596 27.5806 12.9533C25.3412 11.1891 22.9858 9.23914 22.394 6.67402C22.22 7.03383 19.8065 11.3864 19.6789 11.3864H19.6905Z" fill="#3E3E3E"/>
<path d="M31.398 14.532C30.5742 10.3071 27.9055 5.90811 23.4267 5.0376C21.9183 6.03579 20.4563 7.0688 18.9943 8.13664C18.9595 9.23929 18.9247 10.3303 18.8899 11.433C18.8667 12.2223 18.8435 13.0347 18.8667 13.8588C18.9363 15.7972 19.2612 17.7123 20.3751 19.14C21.605 20.7301 23.5775 21.3569 25.4572 21.4149C26.4899 21.4381 27.5574 20.6953 28.4857 20.1382C30.2145 19.0819 31.0267 17.3873 31.4677 15.2401C31.4909 15.0892 31.5141 14.9383 31.5373 14.7874C31.4793 14.7293 31.4213 14.6481 31.4096 14.5552L31.398 14.532Z" fill="#FFCDA8"/>
<path d="M30.6206 14.8335C30.7714 14.9495 30.9339 14.9379 31.0847 14.8915C31.0963 14.8335 31.0847 14.7754 31.1195 14.729L30.6206 14.8451V14.8335Z" fill="#D49A8A"/>
<path d="M33.8927 11.5143C33.1617 11.259 32.4307 12.0831 32.1174 13.0116C31.955 13.4759 31.8622 13.9982 31.6185 14.4045C31.4909 14.6366 31.2936 14.8107 31.0847 14.8803C30.8759 15.6116 31.2936 16.5169 31.8738 16.7026C32.5003 16.9116 33.1501 16.5053 33.6606 15.983C34.206 15.4259 34.6933 14.6598 34.8093 13.7313C34.9254 12.8027 34.5541 11.7349 33.8811 11.5143H33.8927Z" fill="#FFCDA8"/>
<path d="M4.71082 37.6647C5.58106 42.4119 3.30684 46.985 6.45129 51.5001C6.68335 51.8251 6.93862 52.1501 7.29832 52.3242C7.6116 52.4751 7.9713 52.4983 8.31939 52.4983C9.76978 52.5215 11.3246 52.2777 12.3805 51.2911C14.852 48.9582 16.1167 42.9342 13.5408 40.3226C12.7286 39.4986 11.5915 39.1039 10.5008 38.7209C8.95757 38.187 7.41435 37.6531 5.87113 37.1191L4.69922 37.6531L4.71082 37.6647Z" fill="#F6F5C9"/>
<path d="M23.8096 53.7283L8.77197 47.7391C8.49349 47.6346 8.28464 47.4141 8.18021 47.1355L0.0464172 24.9896C-0.174042 24.3976 0.417717 23.8173 1.00948 24.0494L16.0471 30.0386C16.3256 30.1431 16.5345 30.3636 16.6389 30.6422L24.7727 52.7881C24.9931 53.38 24.4014 53.9604 23.8096 53.7283Z" fill="#DDD566"/>
<path d="M3.07483 34.4726C5.67393 33.9503 8.5167 34.9369 10.2224 36.9565C10.2224 36.9565 10.2224 36.9565 10.234 36.9681C10.9069 37.769 10.5472 39.0342 9.54937 39.3708C8.27303 39.7886 6.91546 39.9743 5.5811 39.9047C5.38385 39.9047 5.16339 39.8698 5.01255 39.7538C4.85011 39.6261 4.76889 39.4056 4.69927 39.2083C4.17713 37.6065 3.65499 36.0048 3.13284 34.4146L3.07483 34.4843V34.4726Z" fill="#FFCDA8"/>
</g>
<circle cx="25.0566" cy="12.8068" r="0.556818" fill="black"/>
<circle cx="20.602" cy="12.8068" r="0.556818" fill="black"/>
<defs>
<clipPath id="clip0_0_1360">
<rect width="49" height="144.773" fill="white"/>
</clipPath>
</defs>
</svg>
